0
SECTION
2
HEADER
9
$INSUNITS
70
4
9
$ACADVER
1
AC1014
9
$HANDSEED
5
FFFF
0
ENDSEC
0
SECTION
2
TABLES
0
TABLE
2
VPORT
5
8
100
AcDbSymbolTable
0
ENDTAB
0
TABLE
2
LTYPE
5
5
100
AcDbSymbolTable
0
LTYPE
5
14
100
AcDbSymbolTableRecord
100
AcDbLinetypeTableRecord
2
BYBLOCK
70
0
0
LTYPE
5
15
100
AcDbSymbolTableRecord
100
AcDbLinetypeTableRecord
2
BYLAYER
70
0
0
ENDTAB
0
TABLE
2
LAYER
5
2
100
AcDbSymbolTable
70
2
0
LAYER
5
50
100
AcDbSymbolTableRecord
100
AcDbLayerTableRecord
2
0
70
0
6
CONTINUOUS
0
ENDTAB
0
TABLE
2
STYLE
5
3
100
AcDbSymbolTable
70
1
0
STYLE
5
11
100
AcDbSymbolTableRecord
100
AcDbTextStyleTableRecord
2
STANDARD
70
0
0
ENDTAB
0
TABLE
2
VIEW
5
6
100
AcDbSymbolTable
70
0
0
ENDTAB
0
TABLE
2
UCS
5
7
100
AcDbSymbolTable
70
0
0
ENDTAB
0
TABLE
2
APPID
5
9
100
AcDbSymbolTable
70
2
0
APPID
5
12
100
AcDbSymbolTableRecord
100
AcDbRegAppTableRecord
2
ACAD
70
0
0
ENDTAB
0
TABLE
2
DIMSTYLE
5
A
100
AcDbSymbolTable
70
1
0
ENDTAB
0
TABLE
2
BLOCK_RECORD
5
1
100
AcDbSymbolTable
70
1
0
BLOCK_RECORD
5
1F
100
AcDbSymbolTableRecord
100
AcDbBlockTableRecord
2
*MODEL_SPACE
0
BLOCK_RECORD
5
1B
100
AcDbSymbolTableRecord
100
AcDbBlockTableRecord
2
*PAPER_SPACE
0
ENDTAB
0
ENDSEC
0
SECTION
2
BLOCKS
0
BLOCK
5
20
100
AcDbEntity
100
AcDbBlockBegin
2
*MODEL_SPACE
0
ENDBLK
5
21
100
AcDbEntity
100
AcDbBlockEnd
0
BLOCK
5
1C
100
AcDbEntity
100
AcDbBlockBegin
2
*PAPER_SPACE
0
ENDBLK
5
1D
100
AcDbEntity
100
AcDbBlockEnd
0
ENDSEC
0
SECTION
2
ENTITIES
0
LWPOLYLINE
5
100
100
AcDbEntity
8
0
100
AcDbPolyline
90
8
70
1
43
0.0
10
30.112499999999986
20
31.100000000000026
10
17.512500000000028
20
31.100000000000016
10
16.51250000000001
20
32.100000000000016
10
16.51250000000001
20
44.100000000000023
10
17.512500000000028
20
45.100000000000016
10
30.112499999999986
20
45.100000000000016
10
31.112499999999986
20
44.100000000000023
10
31.112499999999986
20
32.100000000000016
0
LWPOLYLINE
5
101
100
AcDbEntity
8
0
100
AcDbPolyline
90
8
70
1
43
0.0
10
92.71250000000002
20
44.100000000000023
10
93.712500000000034
20
45.100000000000016
10
106.31250000000001
20
45.100000000000016
10
107.31250000000001
20
44.100000000000023
10
107.31250000000001
20
32.100000000000016
10
106.31250000000001
20
31.100000000000026
10
93.712500000000034
20
31.100000000000016
10
92.71250000000002
20
32.100000000000016
0
LWPOLYLINE
5
102
100
AcDbEntity
8
0
100
AcDbPolyline
90
8
70
1
43
0.0
10
-58.687499999999993
20
45.100000000000016
10
-46.08750000000002
20
45.100000000000016
10
-45.08750000000002
20
44.100000000000023
10
-45.08750000000002
20
32.100000000000016
10
-46.08750000000002
20
31.100000000000026
10
-58.687499999999993
20
31.100000000000016
10
-59.6875
20
32.100000000000016
10
-59.6875
20
44.100000000000023
0
LWPOLYLINE
5
103
100
AcDbEntity
8
0
100
AcDbPolyline
90
8
70
1
43
0.0
10
-78.737500000000026
20
44.100000000000023
10
-77.737499999999983
20
45.100000000000016
10
-65.137500000000031
20
45.100000000000016
10
-64.137500000000045
20
44.100000000000023
10
-64.137500000000045
20
32.100000000000016
10
-65.137500000000031
20
31.100000000000026
10
-77.737499999999983
20
31.100000000000016
10
-78.737500000000026
20
32.100000000000016
0
LWPOLYLINE
5
104
100
AcDbEntity
8
0
100
AcDbPolyline
90
8
70
1
43
0.0
10
50.162499999999959
20
32.100000000000016
10
49.16249999999998
20
31.100000000000026
10
36.5625
20
31.100000000000016
10
35.562499999999986
20
32.100000000000016
10
35.562499999999986
20
44.100000000000023
10
36.5625
20
45.100000000000016
10
49.16249999999998
20
45.100000000000016
10
50.162499999999959
20
44.100000000000023
0
LWPOLYLINE
5
105
100
AcDbEntity
8
0
100
AcDbPolyline
90
8
70
1
43
0.0
10
-27.037500000000012
20
31.100000000000026
10
-39.637499999999967
20
31.100000000000016
10
-40.637499999999989
20
32.100000000000016
10
-40.637499999999989
20
44.100000000000023
10
-39.637499999999967
20
45.100000000000016
10
-27.037500000000012
20
45.100000000000016
10
-26.037500000000016
20
44.100000000000023
10
-26.037500000000016
20
32.100000000000016
0
LWPOLYLINE
5
106
100
AcDbEntity
8
0
100
AcDbPolyline
90
8
70
1
43
0.0
10
-6.9875000000000043
20
32.100000000000016
10
-7.9875000000000007
20
31.100000000000026
10
-20.587499999999963
20
31.100000000000016
10
-21.587499999999977
20
32.100000000000016
10
-21.587499999999977
20
44.100000000000023
10
-20.587499999999963
20
45.100000000000016
10
-7.9875000000000007
20
45.100000000000016
10
-6.9875000000000043
20
44.100000000000023
0
LWPOLYLINE
5
107
100
AcDbEntity
8
0
100
AcDbPolyline
90
8
70
1
43
0.0
10
-97.787500000000009
20
44.100000000000023
10
-96.787499999999966
20
45.100000000000016
10
-84.187500000000014
20
45.100000000000016
10
-83.187500000000014
20
44.100000000000023
10
-83.187500000000014
20
32.100000000000016
10
-84.187500000000014
20
31.100000000000026
10
-96.787499999999966
20
31.100000000000016
10
-97.787500000000009
20
32.100000000000016
0
LWPOLYLINE
5
108
100
AcDbEntity
8
0
100
AcDbPolyline
90
8
70
1
43
0.0
10
87.262500000000003
20
45.100000000000016
10
88.262500000000003
20
44.100000000000023
10
88.262500000000003
20
32.100000000000016
10
87.262500000000003
20
31.100000000000026
10
74.662500000000023
20
31.100000000000016
10
73.662500000000023
20
32.100000000000016
10
73.662500000000023
20
44.100000000000023
10
74.662500000000023
20
45.100000000000016
0
LWPOLYLINE
5
109
100
AcDbEntity
8
0
100
AcDbPolyline
90
8
70
1
43
0.0
10
-2.5375000000000014
20
44.100000000000023
10
-1.5374999999999872
20
45.100000000000016
10
11.062499999999977
20
45.100000000000016
10
12.062499999999973
20
44.100000000000023
10
12.062499999999973
20
32.100000000000016
10
11.062499999999977
20
31.100000000000026
10
-1.5374999999999872
20
31.100000000000016
10
-2.5375000000000014
20
32.100000000000016
0
LWPOLYLINE
5
110
100
AcDbEntity
8
0
100
AcDbPolyline
90
8
70
1
43
0.0
10
69.212499999999977
20
44.100000000000023
10
69.212499999999977
20
32.100000000000016
10
68.212499999999977
20
31.100000000000026
10
55.612500000000011
20
31.100000000000016
10
54.612499999999997
20
32.100000000000016
10
54.612499999999997
20
44.100000000000023
10
55.612500000000011
20
45.100000000000016
10
68.212499999999977
20
45.100000000000016
0
LWPOLYLINE
5
111
100
AcDbEntity
8
0
100
AcDbPolyline
90
8
70
1
43
0.0
10
-102.23750000000004
20
32.100000000000016
10
-103.23750000000004
20
31.100000000000026
10
-115.83749999999998
20
31.100000000000016
10
-116.83750000000002
20
32.100000000000016
10
-116.83750000000002
20
44.100000000000023
10
-115.83749999999998
20
45.100000000000016
10
-103.23750000000004
20
45.100000000000016
10
-102.23750000000004
20
44.100000000000023
0
LWPOLYLINE
5
112
100
AcDbEntity
8
0
100
AcDbPolyline
90
8
70
1
43
0.0
10
163.46249999999995
20
31.100000000000026
10
150.86250000000004
20
31.100000000000016
10
149.86250000000001
20
32.100000000000016
10
149.86250000000001
20
44.100000000000023
10
150.86250000000004
20
45.100000000000016
10
163.46249999999995
20
45.100000000000016
10
164.46249999999995
20
44.100000000000023
10
164.46249999999995
20
32.100000000000016
0
LWPOLYLINE
5
113
100
AcDbEntity
8
0
100
AcDbPolyline
90
8
70
1
43
0.0
10
-88.262500000000003
20
13.050000000000017
10
-88.262500000000003
20
25.050000000000018
10
-87.26249999999996
20
26.050000000000008
10
-74.662500000000023
20
26.050000000000008
10
-73.662500000000023
20
25.050000000000018
10
-73.662500000000023
20
13.050000000000017
10
-74.662500000000023
20
12.050000000000018
10
-87.26249999999996
20
12.050000000000018
0
LWPOLYLINE
5
114
100
AcDbEntity
8
0
100
AcDbPolyline
90
8
70
1
43
0.0
10
122.28750000000005
20
26.050000000000008
10
134.88750000000005
20
26.050000000000008
10
135.88750000000002
20
25.050000000000018
10
135.88750000000002
20
13.050000000000017
10
134.88750000000005
20
12.050000000000018
10
122.28750000000005
20
12.050000000000018
10
121.28750000000004
20
13.050000000000017
10
121.28750000000004
20
25.050000000000018
0
LWPOLYLINE
5
115
100
AcDbEntity
8
0
100
AcDbPolyline
90
8
70
1
43
0.0
10
26.34999999999998
20
-5.9999999999999876
10
25.349999999999987
20
-6.999999999999984
10
12.750000000000021
20
-6.9999999999999885
10
11.750000000000007
20
-5.9999999999999876
10
11.750000000000007
20
6.0000000000000142
10
12.750000000000021
20
7.0000000000000107
10
25.349999999999987
20
7.0000000000000107
10
26.34999999999998
20
6.0000000000000142
0
LWPOLYLINE
5
116
100
AcDbEntity
8
0
100
AcDbPolyline
90
8
70
1
43
0.0
10
-25.349999999999966
20
7.0000000000000107
10
-12.750000000000005
20
7.0000000000000107
10
-11.750000000000007
20
6.0000000000000142
10
-11.750000000000007
20
-5.9999999999999876
10
-12.750000000000005
20
-6.999999999999984
10
-25.349999999999966
20
-6.9999999999999885
10
-26.34999999999998
20
-5.9999999999999876
10
-26.34999999999998
20
6.0000000000000142
0
LWPOLYLINE
5
117
100
AcDbEntity
8
0
100
AcDbPolyline
90
8
70
1
43
0.0
10
31.800000000000033
20
-6.9999999999999885
10
30.800000000000018
20
-5.9999999999999876
10
30.800000000000018
20
6.0000000000000142
10
31.800000000000033
20
7.0000000000000107
10
44.399999999999991
20
7.0000000000000107
10
45.399999999999991
20
6.0000000000000142
10
45.399999999999991
20
-5.9999999999999876
10
44.399999999999991
20
-6.999999999999984
0
LWPOLYLINE
5
118
100
AcDbEntity
8
0
100
AcDbPolyline
90
8
70
1
43
0.0
10
102.54999999999998
20
-5.9999999999999876
10
101.55000000000001
20
-6.999999999999984
10
88.950000000000031
20
-6.9999999999999885
10
87.950000000000017
20
-5.9999999999999876
10
87.950000000000017
20
6.0000000000000142
10
88.950000000000031
20
7.0000000000000107
10
101.55000000000001
20
7.0000000000000107
10
102.54999999999998
20
6.0000000000000142
0
LWPOLYLINE
5
119
100
AcDbEntity
8
0
100
AcDbPolyline
90
8
70
1
43
0.0
10
121.59999999999999
20
-5.9999999999999876
10
120.60000000000001
20
-6.999999999999984
10
108.00000000000004
20
-6.9999999999999885
10
107.00000000000004
20
-5.9999999999999876
10
107.00000000000004
20
6.0000000000000142
10
108.00000000000004
20
7.0000000000000107
10
120.60000000000001
20
7.0000000000000107
10
121.59999999999999
20
6.0000000000000142
0
LWPOLYLINE
5
120
100
AcDbEntity
8
0
100
AcDbPolyline
90
8
70
1
43
0.0
10
6.3000000000000078
20
-6.999999999999984
10
-6.2999999999999545
20
-6.9999999999999885
10
-7.2999999999999687
20
-5.9999999999999876
10
-7.2999999999999687
20
6.0000000000000142
10
-6.2999999999999545
20
7.0000000000000107
10
6.3000000000000078
20
7.0000000000000107
10
7.3000000000000043
20
6.0000000000000142
10
7.3000000000000043
20
-5.9999999999999876
0
LWPOLYLINE
5
121
100
AcDbEntity
8
0
100
AcDbPolyline
90
8
70
1
43
0.0
10
111.76250000000003
20
32.100000000000016
10
111.76250000000003
20
44.100000000000023
10
112.76250000000005
20
45.100000000000016
10
125.36250000000001
20
45.100000000000016
10
126.36250000000001
20
44.100000000000023
10
126.36250000000001
20
32.100000000000016
10
125.36250000000001
20
31.100000000000026
10
112.76250000000005
20
31.100000000000016
0
LWPOLYLINE
5
122
100
AcDbEntity
8
0
100
AcDbPolyline
90
8
70
1
43
0.0
10
2.5375000000000014
20
13.050000000000017
10
1.537500000000005
20
12.050000000000018
10
-11.062499999999957
20
12.050000000000018
10
-12.062499999999973
20
13.050000000000017
10
-12.062499999999973
20
25.050000000000018
10
-11.062499999999957
20
26.050000000000008
10
1.537500000000005
20
26.050000000000008
10
2.5375000000000014
20
25.050000000000018
0
LWPOLYLINE
5
123
100
AcDbEntity
8
0
100
AcDbPolyline
90
8
70
1
43
0.0
10
-82.499999999999986
20
-6.9999999999999885
10
-83.499999999999972
20
-5.9999999999999876
10
-83.499999999999972
20
6.0000000000000142
10
-82.499999999999986
20
7.0000000000000107
10
-69.900000000000006
20
7.0000000000000107
10
-68.900000000000006
20
6.0000000000000142
10
-68.900000000000006
20
-5.9999999999999876
10
-69.900000000000006
20
-6.999999999999984
0
LWPOLYLINE
5
124
100
AcDbEntity
8
0
100
AcDbPolyline
90
8
70
1
43
0.0
10
139.65000000000001
20
7.0000000000000107
10
140.65000000000001
20
6.0000000000000142
10
140.65000000000001
20
-5.9999999999999876
10
139.65000000000001
20
-6.999999999999984
10
127.05000000000005
20
-6.9999999999999885
10
126.05000000000004
20
-5.9999999999999876
10
126.05000000000004
20
6.0000000000000142
10
127.05000000000005
20
7.0000000000000107
0
LWPOLYLINE
5
125
100
AcDbEntity
8
0
100
AcDbPolyline
90
8
70
1
43
0.0
10
-30.800000000000018
20
6.0000000000000142
10
-30.800000000000018
20
-5.9999999999999876
10
-31.800000000000011
20
-6.999999999999984
10
-44.399999999999984
20
-6.9999999999999885
10
-45.399999999999991
20
-5.9999999999999876
10
-45.399999999999991
20
6.0000000000000142
10
-44.399999999999984
20
7.0000000000000107
10
-31.800000000000011
20
7.0000000000000107
0
LWPOLYLINE
5
126
100
AcDbEntity
8
0
100
AcDbPolyline
90
8
70
1
43
0.0
10
50.850000000000009
20
-6.9999999999999885
10
49.850000000000001
20
-5.9999999999999876
10
49.850000000000001
20
6.0000000000000142
10
50.850000000000009
20
7.0000000000000107
10
63.449999999999982
20
7.0000000000000107
10
64.44999999999996
20
6.0000000000000142
10
64.44999999999996
20
-5.9999999999999876
10
63.449999999999982
20
-6.999999999999984
0
LWPOLYLINE
5
127
100
AcDbEntity
8
0
100
AcDbPolyline
90
8
70
1
43
0.0
10
69.90000000000002
20
7.0000000000000107
10
82.499999999999986
20
7.0000000000000107
10
83.499999999999972
20
6.0000000000000142
10
83.499999999999972
20
-5.9999999999999876
10
82.499999999999986
20
-6.999999999999984
10
69.90000000000002
20
-6.9999999999999885
10
68.900000000000006
20
-5.9999999999999876
10
68.900000000000006
20
6.0000000000000142
0
LWPOLYLINE
5
128
100
AcDbEntity
8
0
100
AcDbPolyline
90
8
70
1
43
0.0
10
-50.850000000000016
20
-6.999999999999984
10
-63.449999999999989
20
-6.9999999999999885
10
-64.450000000000003
20
-5.9999999999999876
10
-64.450000000000003
20
6.0000000000000142
10
-63.449999999999989
20
7.0000000000000107
10
-50.850000000000016
20
7.0000000000000107
10
-49.85000000000003
20
6.0000000000000142
10
-49.85000000000003
20
-5.9999999999999876
0
LWPOLYLINE
5
129
100
AcDbEntity
8
0
100
AcDbPolyline
90
8
70
1
43
0.0
10
164.46249999999995
20
-25.050000000000004
10
163.46249999999995
20
-26.050000000000004
10
150.86250000000004
20
-26.050000000000004
10
149.86250000000001
20
-25.050000000000004
10
149.86250000000001
20
-13.049999999999997
10
150.86250000000004
20
-12.050000000000001
10
163.46249999999995
20
-12.050000000000001
10
164.46249999999995
20
-13.049999999999997
0
LWPOLYLINE
5
130
100
AcDbEntity
8
0
100
AcDbPolyline
90
8
70
1
43
0.0
10
26.037500000000016
20
25.050000000000018
10
27.037500000000033
20
26.050000000000008
10
39.637499999999989
20
26.050000000000008
10
40.637499999999989
20
25.050000000000018
10
40.637499999999989
20
13.050000000000017
10
39.637499999999989
20
12.050000000000018
10
27.037500000000033
20
12.050000000000018
10
26.037500000000016
20
13.050000000000017
0
LWPOLYLINE
5
131
100
AcDbEntity
8
0
100
AcDbPolyline
90
8
70
1
43
0.0
10
7.9875000000000185
20
12.050000000000018
10
6.9875000000000043
20
13.050000000000017
10
6.9875000000000043
20
25.050000000000018
10
7.9875000000000185
20
26.050000000000008
10
20.587499999999981
20
26.050000000000008
10
21.587499999999977
20
25.050000000000018
10
21.587499999999977
20
13.050000000000017
10
20.587499999999981
20
12.050000000000018
0
LWPOLYLINE
5
132
100
AcDbEntity
8
0
100
AcDbPolyline
90
8
70
1
43
0.0
10
131.81250000000006
20
45.100000000000016
10
144.41250000000005
20
45.100000000000016
10
145.41250000000005
20
44.100000000000023
10
145.41250000000005
20
32.100000000000016
10
144.41250000000005
20
31.100000000000026
10
131.81250000000006
20
31.100000000000016
10
130.81250000000006
20
32.100000000000016
10
130.81250000000006
20
44.100000000000023
0
LWPOLYLINE
5
133
100
AcDbEntity
8
0
100
AcDbPolyline
90
8
70
1
43
0.0
10
-36.562500000000014
20
12.050000000000018
10
-49.16249999999998
20
12.050000000000018
10
-50.162500000000001
20
13.050000000000017
10
-50.162500000000001
20
25.050000000000018
10
-49.16249999999998
20
26.050000000000008
10
-36.562500000000014
20
26.050000000000008
10
-35.562500000000021
20
25.050000000000018
10
-35.562500000000021
20
13.050000000000017
0
LWPOLYLINE
5
134
100
AcDbEntity
8
0
100
AcDbPolyline
90
8
70
1
43
0.0
10
-31.112499999999986
20
13.050000000000017
10
-31.112499999999986
20
25.050000000000018
10
-30.112499999999969
20
26.050000000000008
10
-17.512500000000006
20
26.050000000000008
10
-16.51250000000001
20
25.050000000000018
10
-16.51250000000001
20
13.050000000000017
10
-17.512500000000006
20
12.050000000000018
10
-30.112499999999969
20
12.050000000000018
0
LWPOLYLINE
5
135
100
AcDbEntity
8
0
100
AcDbPolyline
90
8
70
1
43
0.0
10
58.687499999999979
20
26.050000000000008
10
59.687499999999972
20
25.050000000000018
10
59.687499999999972
20
13.050000000000017
10
58.687499999999979
20
12.050000000000018
10
46.087500000000013
20
12.050000000000018
10
45.087499999999991
20
13.050000000000017
10
45.087499999999991
20
25.050000000000018
10
46.087500000000013
20
26.050000000000008
0
LWPOLYLINE
5
136
100
AcDbEntity
8
0
100
AcDbPolyline
90
8
70
1
43
0.0
10
96.787500000000009
20
26.050000000000008
10
97.787500000000009
20
25.050000000000018
10
97.787500000000009
20
13.050000000000017
10
96.787500000000009
20
12.050000000000018
10
84.187500000000028
20
12.050000000000018
10
83.187500000000014
20
13.050000000000017
10
83.187500000000014
20
25.050000000000018
10
84.187500000000028
20
26.050000000000008
0
LWPOLYLINE
5
137
100
AcDbEntity
8
0
100
AcDbPolyline
90
8
70
1
43
0.0
10
-54.612500000000033
20
25.050000000000018
10
-54.612500000000033
20
13.050000000000017
10
-55.612500000000018
20
12.050000000000018
10
-68.212499999999991
20
12.050000000000018
10
-69.212500000000006
20
13.050000000000017
10
-69.212500000000006
20
25.050000000000018
10
-68.212499999999991
20
26.050000000000008
10
-55.612500000000018
20
26.050000000000008
0
LWPOLYLINE
5
138
100
AcDbEntity
8
0
100
AcDbPolyline
90
8
70
1
43
0.0
10
-163.46249999999995
20
31.100000000000016
10
-164.46249999999995
20
32.100000000000016
10
-164.46249999999995
20
44.100000000000023
10
-163.46249999999995
20
45.100000000000016
10
-150.86250000000001
20
45.100000000000016
10
-149.86250000000001
20
44.100000000000023
10
-149.86250000000001
20
32.100000000000016
10
-150.86250000000001
20
31.100000000000026
0
LWPOLYLINE
5
139
100
AcDbEntity
8
0
100
AcDbPolyline
90
8
70
1
43
0.0
10
102.23750000000004
20
25.050000000000018
10
103.23750000000004
20
26.050000000000008
10
115.83750000000002
20
26.050000000000008
10
116.83750000000002
20
25.050000000000018
10
116.83750000000002
20
13.050000000000017
10
115.83750000000002
20
12.050000000000018
10
103.23750000000004
20
12.050000000000018
10
102.23750000000004
20
13.050000000000017
0
LWPOLYLINE
5
140
100
AcDbEntity
8
0
100
AcDbPolyline
90
8
70
1
43
0.0
10
-144.41249999999997
20
45.100000000000016
10
-131.8125
20
45.100000000000016
10
-130.8125
20
44.100000000000023
10
-130.8125
20
32.100000000000016
10
-131.8125
20
31.100000000000026
10
-144.41249999999997
20
31.100000000000016
10
-145.41249999999997
20
32.100000000000016
10
-145.41249999999997
20
44.100000000000023
0
LWPOLYLINE
5
141
100
AcDbEntity
8
0
100
AcDbPolyline
90
8
70
1
43
0.0
10
-131.8125
20
26.050000000000008
10
-130.8125
20
25.050000000000018
10
-130.8125
20
13.050000000000017
10
-131.8125
20
12.050000000000018
10
-144.41249999999997
20
12.050000000000018
10
-145.41249999999997
20
13.050000000000017
10
-145.41249999999997
20
25.050000000000018
10
-144.41249999999997
20
26.050000000000008
0
LWPOLYLINE
5
142
100
AcDbEntity
8
0
100
AcDbPolyline
90
8
70
1
43
0.0
10
78.737499999999983
20
13.050000000000017
10
77.737499999999983
20
12.050000000000018
10
65.137500000000017
20
12.050000000000018
10
64.137500000000003
20
13.050000000000017
10
64.137500000000003
20
25.050000000000018
10
65.137500000000017
20
26.050000000000008
10
77.737499999999983
20
26.050000000000008
10
78.737499999999983
20
25.050000000000018
0
LWPOLYLINE
5
143
100
AcDbEntity
8
0
100
AcDbPolyline
90
8
70
1
43
0.0
10
-149.86250000000001
20
25.050000000000018
10
-149.86250000000001
20
13.050000000000017
10
-150.86250000000001
20
12.050000000000018
10
-163.46249999999995
20
12.050000000000018
10
-164.46249999999995
20
13.050000000000017
10
-164.46249999999995
20
25.050000000000018
10
-163.46249999999995
20
26.050000000000008
10
-150.86250000000001
20
26.050000000000008
0
LWPOLYLINE
5
144
100
AcDbEntity
8
0
100
AcDbPolyline
90
8
70
1
43
0.0
10
-150.86250000000001
20
-6.999999999999984
10
-163.46249999999995
20
-6.9999999999999885
10
-164.46249999999995
20
-5.9999999999999876
10
-164.46249999999995
20
6.0000000000000142
10
-163.46249999999995
20
7.0000000000000107
10
-150.86250000000001
20
7.0000000000000107
10
-149.86250000000001
20
6.0000000000000142
10
-149.86250000000001
20
-5.9999999999999876
0
LWPOLYLINE
5
145
100
AcDbEntity
8
0
100
AcDbPolyline
90
8
70
1
43
0.0
10
-131.8125
20
-26.050000000000004
10
-144.41249999999997
20
-26.050000000000004
10
-145.41249999999997
20
-25.050000000000004
10
-145.41249999999997
20
-13.049999999999997
10
-144.41249999999997
20
-12.050000000000001
10
-131.8125
20
-12.050000000000001
10
-130.8125
20
-13.049999999999997
10
-130.8125
20
-25.050000000000004
0
LWPOLYLINE
5
146
100
AcDbEntity
8
0
100
AcDbPolyline
90
8
70
1
43
0.0
10
-149.86250000000001
20
-25.050000000000004
10
-150.86250000000001
20
-26.050000000000004
10
-163.46249999999995
20
-26.050000000000004
10
-164.46249999999995
20
-25.050000000000004
10
-164.46249999999995
20
-13.049999999999997
10
-163.46249999999995
20
-12.050000000000001
10
-150.86250000000001
20
-12.050000000000001
10
-149.86250000000001
20
-13.049999999999997
0
LWPOLYLINE
5
147
100
AcDbEntity
8
0
100
AcDbPolyline
90
8
70
1
43
0.0
10
-163.46249999999995
20
-45.100000000000016
10
-164.46249999999995
20
-44.100000000000009
10
-164.46249999999995
20
-32.100000000000009
10
-163.46249999999995
20
-31.100000000000012
10
-150.86250000000001
20
-31.100000000000012
10
-149.86250000000001
20
-32.100000000000009
10
-149.86250000000001
20
-44.100000000000009
10
-150.86250000000001
20
-45.100000000000009
0
LWPOLYLINE
5
148
100
AcDbEntity
8
0
100
AcDbPolyline
90
8
70
1
43
0.0
10
-131.8125
20
7.0000000000000107
10
-130.8125
20
6.0000000000000142
10
-130.8125
20
-5.9999999999999876
10
-131.8125
20
-6.999999999999984
10
-144.41249999999997
20
-6.9999999999999885
10
-145.41249999999997
20
-5.9999999999999876
10
-145.41249999999997
20
6.0000000000000142
10
-144.41249999999997
20
7.0000000000000107
0
LWPOLYLINE
5
149
100
AcDbEntity
8
0
100
AcDbPolyline
90
8
70
1
43
0.0
10
-145.41249999999997
20
-32.100000000000009
10
-144.41249999999997
20
-31.100000000000012
10
-131.8125
20
-31.100000000000012
10
-130.8125
20
-32.100000000000009
10
-130.8125
20
-44.100000000000009
10
-131.8125
20
-45.100000000000009
10
-144.41249999999997
20
-45.100000000000016
10
-145.41249999999997
20
-44.100000000000009
0
LWPOLYLINE
5
150
100
AcDbEntity
8
0
100
AcDbPolyline
90
8
70
1
43
0.0
10
-59.375
20
-13.049999999999988
10
-59.375
20
-25.04999999999999
10
-60.375000000000007
20
-26.049999999999986
10
-72.974999999999966
20
-26.04999999999999
10
-73.974999999999966
20
-25.04999999999999
10
-73.974999999999966
20
-13.049999999999988
10
-72.974999999999966
20
-12.049999999999994
10
-60.375000000000007
20
-12.049999999999994
0
LWPOLYLINE
5
151
100
AcDbEntity
8
0
100
AcDbPolyline
90
8
70
1
43
0.0
10
41.325000000000038
20
-26.04999999999999
10
40.325000000000017
20
-25.04999999999999
10
40.325000000000017
20
-13.049999999999988
10
41.325000000000038
20
-12.049999999999994
10
53.924999999999997
20
-12.049999999999994
10
54.924999999999997
20
-13.049999999999988
10
54.924999999999997
20
-25.04999999999999
10
53.924999999999997
20
-26.049999999999986
0
LWPOLYLINE
5
152
100
AcDbEntity
8
0
100
AcDbPolyline
90
8
70
1
43
0.0
10
79.425000000000026
20
-26.04999999999999
10
78.425000000000026
20
-25.04999999999999
10
78.425000000000026
20
-13.049999999999988
10
79.425000000000026
20
-12.049999999999994
10
92.025000000000006
20
-12.049999999999994
10
93.024999999999963
20
-13.049999999999988
10
93.024999999999963
20
-25.04999999999999
10
92.025000000000006
20
-26.049999999999986
0
LWPOLYLINE
5
153
100
AcDbEntity
8
0
100
AcDbPolyline
90
8
70
1
43
0.0
10
-22.275000000000009
20
-12.049999999999994
10
-21.275000000000013
20
-13.049999999999988
10
-21.275000000000013
20
-25.04999999999999
10
-22.275000000000009
20
-26.049999999999986
10
-34.874999999999964
20
-26.04999999999999
10
-35.874999999999986
20
-25.04999999999999
10
-35.874999999999986
20
-13.049999999999988
10
-34.874999999999964
20
-12.049999999999994
0
LWPOLYLINE
5
154
100
AcDbEntity
8
0
100
AcDbPolyline
90
8
70
1
43
0.0
10
111.07500000000002
20
-12.049999999999994
10
112.07500000000002
20
-13.049999999999988
10
112.07500000000002
20
-25.04999999999999
10
111.07500000000002
20
-26.049999999999986
10
98.475000000000037
20
-26.04999999999999
10
97.475000000000023
20
-25.04999999999999
10
97.475000000000023
20
-13.049999999999988
10
98.475000000000037
20
-12.049999999999994
0
LWPOLYLINE
5
155
100
AcDbEntity
8
0
100
AcDbPolyline
90
8
70
1
43
0.0
10
3.2250000000000512
20
-26.04999999999999
10
2.2250000000000369
20
-25.04999999999999
10
2.2250000000000369
20
-13.049999999999988
10
3.2250000000000512
20
-12.049999999999994
10
15.825000000000017
20
-12.049999999999994
10
16.82500000000001
20
-13.049999999999988
10
16.82500000000001
20
-25.04999999999999
10
15.825000000000017
20
-26.049999999999986
0
LWPOLYLINE
5
156
100
AcDbEntity
8
0
100
AcDbPolyline
90
8
70
1
43
0.0
10
34.874999999999986
20
-26.049999999999986
10
22.275000000000027
20
-26.04999999999999
10
21.275000000000013
20
-25.04999999999999
10
21.275000000000013
20
-13.049999999999988
10
22.275000000000027
20
-12.049999999999994
10
34.874999999999986
20
-12.049999999999994
10
35.874999999999986
20
-13.049999999999988
10
35.874999999999986
20
-25.04999999999999
0
LWPOLYLINE
5
157
100
AcDbEntity
8
0
100
AcDbPolyline
90
8
70
1
43
0.0
10
-3.2249999999999979
20
-26.049999999999986
10
-15.824999999999962
20
-26.04999999999999
10
-16.824999999999974
20
-25.04999999999999
10
-16.824999999999974
20
-13.049999999999988
10
-15.824999999999962
20
-12.049999999999994
10
-3.2249999999999979
20
-12.049999999999994
10
-2.2250000000000014
20
-13.049999999999988
10
-2.2250000000000014
20
-25.04999999999999
0
LWPOLYLINE
5
158
100
AcDbEntity
8
0
100
AcDbPolyline
90
8
70
1
43
0.0
10
-41.325000000000017
20
-12.049999999999994
10
-40.325000000000017
20
-13.049999999999988
10
-40.325000000000017
20
-25.04999999999999
10
-41.325000000000017
20
-26.049999999999986
10
-53.924999999999983
20
-26.04999999999999
10
-54.924999999999997
20
-25.04999999999999
10
-54.924999999999997
20
-13.049999999999988
10
-53.924999999999983
20
-12.049999999999994
0
LWPOLYLINE
5
159
100
AcDbEntity
8
0
100
AcDbPolyline
90
8
70
1
43
0.0
10
53.924999999999997
20
-31.100000000000001
10
54.924999999999997
20
-32.100000000000001
10
54.924999999999997
20
-44.100000000000001
10
53.924999999999997
20
-45.100000000000009
10
41.325000000000038
20
-45.100000000000009
10
40.325000000000017
20
-44.100000000000001
10
40.325000000000017
20
-32.100000000000001
10
41.325000000000038
20
-31.100000000000001
0
LWPOLYLINE
5
160
100
AcDbEntity
8
0
100
AcDbPolyline
90
8
70
1
43
0.0
10
73.974999999999966
20
-13.049999999999988
10
73.974999999999966
20
-25.04999999999999
10
72.97499999999998
20
-26.049999999999986
10
60.375000000000021
20
-26.04999999999999
10
59.375
20
-25.04999999999999
10
59.375
20
-13.049999999999988
10
60.375000000000021
20
-12.049999999999994
10
72.97499999999998
20
-12.049999999999994
0
LWPOLYLINE
5
161
100
AcDbEntity
8
0
100
AcDbPolyline
90
8
70
1
43
0.0
10
-34.874999999999964
20
-31.100000000000001
10
-22.275000000000009
20
-31.100000000000001
10
-21.275000000000013
20
-32.100000000000001
10
-21.275000000000013
20
-44.100000000000001
10
-22.275000000000009
20
-45.100000000000009
10
-34.874999999999964
20
-45.100000000000009
10
-35.874999999999986
20
-44.100000000000001
10
-35.874999999999986
20
-32.100000000000001
0
LWPOLYLINE
5
162
100
AcDbEntity
8
0
100
AcDbPolyline
90
8
70
1
43
0.0
10
-97.475000000000023
20
-32.100000000000001
10
-97.475000000000023
20
-44.100000000000001
10
-98.474999999999994
20
-45.100000000000009
10
-111.07499999999996
20
-45.100000000000009
10
-112.07499999999996
20
-44.100000000000001
10
-112.07499999999996
20
-32.100000000000001
10
-111.07499999999996
20
-31.100000000000001
10
-98.474999999999994
20
-31.100000000000001
0
LWPOLYLINE
5
163
100
AcDbEntity
8
0
100
AcDbPolyline
90
8
70
1
43
0.0
10
-50.850000000000009
20
-45.100000000000009
10
-63.449999999999982
20
-45.100000000000009
10
-64.449999999999989
20
-44.100000000000001
10
-64.449999999999989
20
-32.100000000000001
10
-63.449999999999982
20
-31.100000000000001
10
-50.850000000000009
20
-31.100000000000001
10
-49.850000000000009
20
-32.100000000000001
10
-49.850000000000009
20
-44.100000000000001
0
LWPOLYLINE
5
164
100
AcDbEntity
8
0
100
AcDbPolyline
90
8
70
1
43
0.0
10
-97.475000000000023
20
13.050000000000017
10
-98.475000000000037
20
12.050000000000018
10
-111.07500000000002
20
12.050000000000018
10
-112.07500000000002
20
13.050000000000017
10
-112.07500000000002
20
25.050000000000018
10
-111.07500000000002
20
26.050000000000008
10
-98.475000000000037
20
26.050000000000008
10
-97.475000000000023
20
25.050000000000018
0
LWPOLYLINE
5
165
100
AcDbEntity
8
0
100
AcDbPolyline
90
8
70
1
43
0.0
10
138.26875000000001
20
-25.04999999999999
10
137.26875000000001
20
-26.049999999999986
10
124.66875000000003
20
-26.04999999999999
10
123.66875000000005
20
-25.04999999999999
10
123.66875000000005
20
-13.049999999999988
10
124.66875000000003
20
-12.049999999999994
10
137.26875000000001
20
-12.049999999999994
10
138.26875000000001
20
-13.049999999999988
0
LWPOLYLINE
5
166
100
AcDbEntity
8
0
100
AcDbPolyline
90
8
70
1
43
0.0
10
-95.093755000000016
20
-5.9999999999999876
10
-96.093755000000002
20
-6.999999999999984
10
-108.69375499999997
20
-6.9999999999999885
10
-109.69375499999998
20
-5.9999999999999876
10
-109.69375499999998
20
6.0000000000000142
10
-108.69375499999997
20
7.0000000000000107
10
-96.093755000000002
20
7.0000000000000107
10
-95.093755000000016
20
6.0000000000000142
0
LWPOLYLINE
5
167
100
AcDbEntity
8
0
100
AcDbPolyline
90
8
70
1
43
0.0
10
145.10000000000005
20
-44.100000000000001
10
145.10000000000005
20
-32.100000000000001
10
146.10000000000008
20
-31.100000000000001
10
158.69999999999999
20
-31.100000000000001
10
159.69999999999999
20
-32.100000000000001
10
159.69999999999999
20
-44.100000000000001
10
158.69999999999999
20
-45.100000000000009
10
146.10000000000008
20
-45.100000000000009
0
LWPOLYLINE
5
168
100
AcDbEntity
8
0
100
AcDbPolyline
90
8
70
1
43
0.0
10
68.900000000000006
20
-44.100000000000001
10
68.900000000000006
20
-32.100000000000001
10
69.90000000000002
20
-31.100000000000001
10
82.499999999999986
20
-31.100000000000001
10
83.499999999999972
20
-32.100000000000001
10
83.499999999999972
20
-44.100000000000001
10
82.499999999999986
20
-45.100000000000009
10
69.90000000000002
20
-45.100000000000009
0
LWPOLYLINE
5
169
100
AcDbEntity
8
0
100
AcDbPolyline
90
8
70
1
43
0.0
10
-81.631249999999994
20
-13.049999999999988
10
-81.631249999999994
20
-24.54999999999999
10
-84.63124999999998
20
-26.04999999999999
10
-110.63124999999999
20
-26.049999999999986
10
-113.63124999999998
20
-24.549999999999986
10
-113.63124999999998
20
-13.049999999999983
10
-112.63125000000001
20
-12.049999999999983
10
-82.631249999999994
20
-12.049999999999983
0
LWPOLYLINE
5
170
100
AcDbEntity
8
0
100
AcDbPolyline
90
8
70
1
43
0.0
10
97.475000000000023
20
-44.100000000000001
10
97.475000000000023
20
-32.100000000000001
10
98.475000000000037
20
-31.100000000000001
10
111.07500000000002
20
-31.100000000000001
10
112.07500000000002
20
-32.100000000000001
10
112.07500000000002
20
-44.100000000000001
10
111.07500000000002
20
-45.100000000000009
10
98.475000000000037
20
-45.100000000000009
0
LWPOLYLINE
5
171
100
AcDbEntity
8
0
100
AcDbPolyline
90
8
70
1
43
0.0
10
147.78125000000003
20
24.525000000000009
10
147.78125000000003
20
-5.4749999999999899
10
148.78125000000006
20
-6.4749999999999908
10
160.28125000000003
20
-6.4749999999999908
10
161.78125000000006
20
-3.4749999999999925
10
161.78125000000006
20
22.525000000000009
10
160.28125000000003
20
25.525000000000013
10
148.78125000000006
20
25.525000000000013
0
LWPOLYLINE
5
172
100
AcDbEntity
8
0
100
AcDbPolyline
90
8
70
1
43
0.0
10
22.525000000000034
20
-45.100000000000009
10
25.525000000000038
20
-43.600000000000001
10
25.525000000000038
20
-32.100000000000001
10
24.525000000000041
20
-31.100000000000001
10
-5.4749999999999588
20
-31.099999999999994
10
-6.4749999999999552
20
-32.100000000000001
10
-6.4749999999999552
20
-43.600000000000001
10
-3.4749999999999481
20
-45.100000000000009
0
CIRCLE
5
173
100
AcDbEntity
8
0
100
AcDbCircle
10
-57.149747999999974
20
-19.050144
30
0
40
0.92500000000000626
210
0
220
0
230
1
0
CIRCLE
5
174
100
AcDbEntity
8
0
100
AcDbCircle
10
23.812955999999975
20
19.049952000000012
30
0
40
0.92500000000000626
210
0
220
0
230
1
0
CIRCLE
5
175
100
AcDbEntity
8
0
100
AcDbCircle
10
-128.58742799999999
20
-9.599999999387876e-05
30
0
40
0.92500000000000626
210
0
220
0
230
1
0
CIRCLE
5
176
100
AcDbEntity
8
0
100
AcDbCircle
10
80.963100000000054
20
19.049952000000001
30
0
40
0.92500000000000626
210
0
220
0
230
1
0
CIRCLE
5
177
100
AcDbEntity
8
0
100
AcDbCircle
10
142.87575600000002
20
-38.100192000000007
30
0
40
0.92500000000000626
210
0
220
0
230
1
0
CIRCLE
5
178
100
AcDbEntity
8
0
100
AcDbCircle
10
-147.63747599999999
20
-19.050144000000007
30
0
40
0.92500000000000626
210
0
220
0
230
1
0
CIRCLE
5
179
100
AcDbEntity
8
0
100
AcDbCircle
10
162.22949999999997
20
26.06900000000001
30
0
40
0.92500000000000626
210
0
220
0
230
1
0
CIRCLE
5
180
100
AcDbEntity
8
0
100
AcDbCircle
10
0.00039599999999140323
20
-19.050144
30
0
40
0.92500000000000626
210
0
220
0
230
1
0
CIRCLE
5
181
100
AcDbEntity
8
0
100
AcDbCircle
10
38.100492000000017
20
-38.100192000000007
30
0
40
0.92500000000000626
210
0
220
0
230
1
0
CIRCLE
5
182
100
AcDbEntity
8
0
100
AcDbCircle
10
119.06319600000009
20
19.049952000000001
30
0
40
0.92500000000000626
210
0
220
0
230
1
0
CIRCLE
5
183
100
AcDbEntity
8
0
100
AcDbCircle
10
-147.63749999999999
20
38.100000000000009
30
0
40
0.92500000000000626
210
0
220
0
230
1
0
CIRCLE
5
184
100
AcDbEntity
8
0
100
AcDbCircle
10
142.875756
20
-9.599999999387876e-05
30
0
40
0.92500000000000626
210
0
220
0
230
1
0
CIRCLE
5
185
100
AcDbEntity
8
0
100
AcDbCircle
10
-33.337187999999998
20
19.049952000000001
30
0
40
0.92500000000000626
210
0
220
0
230
1
0
CIRCLE
5
186
100
AcDbEntity
8
0
100
AcDbCircle
10
117.87187500000003
20
-19.050144
30
0
40
0.92500000000000626
210
0
220
0
230
1
0
CIRCLE
5
187
100
AcDbEntity
8
0
100
AcDbCircle
10
-83.145126000000005
20
-38.100000000000009
30
0
40
0.92500000000000626
210
0
220
0
230
1
0
CIRCLE
5
188
100
AcDbEntity
8
0
100
AcDbCircle
10
57.150540000000021
20
-19.050143999999989
30
0
40
0.92500000000000626
210
0
220
0
230
1
0
CIRCLE
5
189
100
AcDbEntity
8
0
100
AcDbCircle
10
90.487499999999997
20
-38.100192000000007
30
0
40
0.92500000000000626
210
0
220
0
230
1
0
CIRCLE
5
190
100
AcDbEntity
8
0
100
AcDbCircle
10
-121.44374999999999
20
-38.100000000000009
30
0
40
0.92500000000000626
210
0
220
0
230
1
0
CIRCLE
5
191
100
AcDbEntity
8
0
100
AcDbCircle
10
-42.86249999999999
20
-38.100000000000009
30
0
40
0.92500000000000626
210
0
220
0
230
1
0
CIRCLE
5
192
100
AcDbEntity
8
0
100
AcDbCircle
10
66.675000000000054
20
0
30
0
40
0.92500000000000626
210
0
220
0
230
1
0
CIRCLE
5
193
100
AcDbEntity
8
0
100
AcDbCircle
10
52.388028000000077
20
38.100000000000009
30
0
40
0.92500000000000626
210
0
220
0
230
1
0
CIRCLE
5
194
100
AcDbEntity
8
0
100
AcDbCircle
10
90.488123999999956
20
38.100000000000009
30
0
40
0.92500000000000626
210
0
220
0
230
1
0
CIRCLE
5
195
100
AcDbEntity
8
0
100
AcDbCircle
10
104.77500000000005
20
-9.6000000002760544e-05
30
0
40
0.92500000000000626
210
0
220
0
230
1
0
LWPOLYLINE
5
196
100
AcDbEntity
8
0
100
AcDbPolyline
90
8
70
1
43
0.0
10
168.18749999999989
20
51.125000000000028
10
-168.1875
20
51.125000000000007
42
0.41421356237307944
10
-170.18749999999997
20
49.125000000000007
10
-170.18749999999997
20
-49.124999999999943
42
0.41421356237307944
10
-168.1875
20
-51.124999999999936
10
168.18749999999994
20
-51.124999999999929
42
0.41421356237309631
10
170.18749999999997
20
-49.124999999999972
10
170.18749999999997
20
49.125000000000007
42
0.41421356237308204
0
CIRCLE
5
197
100
AcDbEntity
8
0
100
AcDbCircle
10
-47.624723999999972
20
-9.599999999387876e-05
30
0
40
0.92500000000000626
210
0
220
0
230
1
0
CIRCLE
5
198
100
AcDbEntity
8
0
100
AcDbCircle
10
147.63826800000001
20
38.100000000000009
30
0
40
0.92500000000000626
210
0
220
0
230
1
0
CIRCLE
5
199
100
AcDbEntity
8
0
100
AcDbCircle
10
-89.296875
20
0
30
0
40
0.92500000000000626
210
0
220
0
230
1
0
CIRCLE
5
200
100
AcDbEntity
8
0
100
AcDbCircle
10
-61.912259999999968
20
38.100000000000009
30
0
40
0.92500000000000626
210
0
220
0
230
1
0
CIRCLE
5
201
100
AcDbEntity
8
0
100
AcDbCircle
10
9.5250000000000039
20
0
30
0
40
0.92500000000000626
210
0
220
0
230
1
0
CIRCLE
5
202
100
AcDbEntity
8
0
100
AcDbCircle
10
-71.437283999999977
20
19.049952000000001
30
0
40
0.92500000000000626
210
0
220
0
230
1
0
CIRCLE
5
203
100
AcDbEntity
8
0
100
AcDbCircle
10
-114.17550000000006
20
-26.498000000000008
30
0
40
0.92500000000000626
210
0
220
0
230
1
0
CIRCLE
5
204
100
AcDbEntity
8
0
100
AcDbCircle
10
-100.012356
20
38.100000000000009
30
0
40
0.92500000000000626
210
0
220
0
230
1
0
CIRCLE
5
205
100
AcDbEntity
8
0
100
AcDbCircle
10
144.06562500000001
20
-19.050144000000007
30
0
40
0.92500000000000626
210
0
220
0
230
1
0
CIRCLE
5
206
100
AcDbEntity
8
0
100
AcDbCircle
10
-4.7621159999999918
20
38.100000000000009
30
0
40
0.92500000000000626
210
0
220
0
230
1
0
CIRCLE
5
207
100
AcDbEntity
8
0
100
AcDbCircle
10
-114.10145399999998
20
19.049952000000001
30
0
40
0.92500000000000626
210
0
220
0
230
1
0
ENDSEC
0
SECTION
2
OBJECTS
0
DICTIONARY
5
C
100
AcDbDictionary
3
ACAD_GROUP
350
D
3
ACAD_MLINESTYLE
350
17
0
DICTIONARY
5
D
100
AcDbDictionary
0
DICTIONARY
5
1A
330
C
100
AcDbDictionary
0
DICTIONARY
5
17
100
AcDbDictionary
0
ENDSEC
0
EOF
