0
SECTION
2
HEADER
9
$INSUNITS
70
4
0
ENDSEC
0
SECTION
2
TABLES
0
TABLE
2
LTYPE
0
LTYPE
72
65
70
64
2
CONTINUOUS
3
______
73
0
40
0
0
ENDTAB
0
TABLE
2
LAYER
0
ENDTAB
0
ENDSEC
0
SECTION
2
ENTITIES
0
LINE
8
0
10
3.025
20
-2.525
11
16.025
21
-2.525
0
LINE
8
0
10
3.025
20
-16.525
11
16.025
21
-16.525
0
LINE
8
0
10
2.525
20
-3.025
11
2.525
21
-16.025
0
LINE
8
0
10
16.525
20
-3.025
11
16.525
21
-16.025
0
ARC
8
0
10
3.025
20
-3.025
40
0.5
50
90
51
180
0
ARC
8
0
10
16.025
20
-3.025
40
0.5
50
0
51
90
0
ARC
8
0
10
3.025
20
-16.025
40
0.5
50
180
51
270
0
ARC
8
0
10
16.025
20
-16.025
40
0.5
50
270
51
0
0
LINE
8
0
10
22.075
20
-2.525
11
35.075
21
-2.525
0
LINE
8
0
10
22.075
20
-16.525
11
35.075
21
-16.525
0
LINE
8
0
10
21.575
20
-3.025
11
21.575
21
-16.025
0
LINE
8
0
10
35.575
20
-3.025
11
35.575
21
-16.025
0
ARC
8
0
10
22.075
20
-3.025
40
0.5
50
90
51
180
0
ARC
8
0
10
35.075
20
-3.025
40
0.5
50
0
51
90
0
ARC
8
0
10
22.075
20
-16.025
40
0.5
50
180
51
270
0
ARC
8
0
10
35.075
20
-16.025
40
0.5
50
270
51
0
0
LINE
8
0
10
50.65
20
-2.525
11
63.65
21
-2.525
0
LINE
8
0
10
50.65
20
-16.525
11
63.65
21
-16.525
0
LINE
8
0
10
50.15
20
-3.025
11
50.15
21
-16.025
0
LINE
8
0
10
64.15
20
-3.025
11
64.15
21
-16.025
0
ARC
8
0
10
50.65
20
-3.025
40
0.5
50
90
51
180
0
ARC
8
0
10
63.65
20
-3.025
40
0.5
50
0
51
90
0
ARC
8
0
10
50.65
20
-16.025
40
0.5
50
180
51
270
0
ARC
8
0
10
63.65
20
-16.025
40
0.5
50
270
51
0
0
LINE
8
0
10
69.7
20
-2.525
11
82.7
21
-2.525
0
LINE
8
0
10
69.7
20
-16.525
11
82.7
21
-16.525
0
LINE
8
0
10
69.2
20
-3.025
11
69.2
21
-16.025
0
LINE
8
0
10
83.2
20
-3.025
11
83.2
21
-16.025
0
ARC
8
0
10
69.7
20
-3.025
40
0.5
50
90
51
180
0
ARC
8
0
10
82.7
20
-3.025
40
0.5
50
0
51
90
0
ARC
8
0
10
69.7
20
-16.025
40
0.5
50
180
51
270
0
ARC
8
0
10
82.7
20
-16.025
40
0.5
50
270
51
0
0
LINE
8
0
10
88.75
20
-2.525
11
101.75
21
-2.525
0
LINE
8
0
10
88.75
20
-16.525
11
101.75
21
-16.525
0
LINE
8
0
10
88.25
20
-3.025
11
88.25
21
-16.025
0
LINE
8
0
10
102.25
20
-3.025
11
102.25
21
-16.025
0
ARC
8
0
10
88.75
20
-3.025
40
0.5
50
90
51
180
0
ARC
8
0
10
101.75
20
-3.025
40
0.5
50
0
51
90
0
ARC
8
0
10
88.75
20
-16.025
40
0.5
50
180
51
270
0
ARC
8
0
10
101.75
20
-16.025
40
0.5
50
270
51
0
0
LINE
8
0
10
107.8
20
-2.525
11
120.8
21
-2.525
0
LINE
8
0
10
107.8
20
-16.525
11
120.8
21
-16.525
0
LINE
8
0
10
107.3
20
-3.025
11
107.3
21
-16.025
0
LINE
8
0
10
121.3
20
-3.025
11
121.3
21
-16.025
0
ARC
8
0
10
107.8
20
-3.025
40
0.5
50
90
51
180
0
ARC
8
0
10
120.8
20
-3.025
40
0.5
50
0
51
90
0
ARC
8
0
10
107.8
20
-16.025
40
0.5
50
180
51
270
0
ARC
8
0
10
120.8
20
-16.025
40
0.5
50
270
51
0
0
LINE
8
0
10
126.85
20
-2.525
11
139.85
21
-2.525
0
LINE
8
0
10
126.85
20
-16.525
11
139.85
21
-16.525
0
LINE
8
0
10
126.35
20
-3.025
11
126.35
21
-16.025
0
LINE
8
0
10
140.35
20
-3.025
11
140.35
21
-16.025
0
ARC
8
0
10
126.85
20
-3.025
40
0.5
50
90
51
180
0
ARC
8
0
10
139.85
20
-3.025
40
0.5
50
0
51
90
0
ARC
8
0
10
126.85
20
-16.025
40
0.5
50
180
51
270
0
ARC
8
0
10
139.85
20
-16.025
40
0.5
50
270
51
0
0
LINE
8
0
10
145.9
20
-2.525
11
158.9
21
-2.525
0
LINE
8
0
10
145.9
20
-16.525
11
158.9
21
-16.525
0
LINE
8
0
10
145.4
20
-3.025
11
145.4
21
-16.025
0
LINE
8
0
10
159.4
20
-3.025
11
159.4
21
-16.025
0
ARC
8
0
10
145.9
20
-3.025
40
0.5
50
90
51
180
0
ARC
8
0
10
158.9
20
-3.025
40
0.5
50
0
51
90
0
ARC
8
0
10
145.9
20
-16.025
40
0.5
50
180
51
270
0
ARC
8
0
10
158.9
20
-16.025
40
0.5
50
270
51
0
0
LINE
8
0
10
164.95
20
-2.525
11
177.95
21
-2.525
0
LINE
8
0
10
164.95
20
-16.525
11
177.95
21
-16.525
0
LINE
8
0
10
164.45
20
-3.025
11
164.45
21
-16.025
0
LINE
8
0
10
178.45
20
-3.025
11
178.45
21
-16.025
0
ARC
8
0
10
164.95
20
-3.025
40
0.5
50
90
51
180
0
ARC
8
0
10
177.95
20
-3.025
40
0.5
50
0
51
90
0
ARC
8
0
10
164.95
20
-16.025
40
0.5
50
180
51
270
0
ARC
8
0
10
177.95
20
-16.025
40
0.5
50
270
51
0
0
LINE
8
0
10
184
20
-2.525
11
197
21
-2.525
0
LINE
8
0
10
184
20
-16.525
11
197
21
-16.525
0
LINE
8
0
10
183.5
20
-3.025
11
183.5
21
-16.025
0
LINE
8
0
10
197.5
20
-3.025
11
197.5
21
-16.025
0
ARC
8
0
10
184
20
-3.025
40
0.5
50
90
51
180
0
ARC
8
0
10
197
20
-3.025
40
0.5
50
0
51
90
0
ARC
8
0
10
184
20
-16.025
40
0.5
50
180
51
270
0
ARC
8
0
10
197
20
-16.025
40
0.5
50
270
51
0
0
LINE
8
0
10
203.05
20
-2.525
11
216.05
21
-2.525
0
LINE
8
0
10
203.05
20
-16.525
11
216.05
21
-16.525
0
LINE
8
0
10
202.55
20
-3.025
11
202.55
21
-16.025
0
LINE
8
0
10
216.55
20
-3.025
11
216.55
21
-16.025
0
ARC
8
0
10
203.05
20
-3.025
40
0.5
50
90
51
180
0
ARC
8
0
10
216.05
20
-3.025
40
0.5
50
0
51
90
0
ARC
8
0
10
203.05
20
-16.025
40
0.5
50
180
51
270
0
ARC
8
0
10
216.05
20
-16.025
40
0.5
50
270
51
0
0
LINE
8
0
10
222.1
20
-2.525
11
235.1
21
-2.525
0
LINE
8
0
10
222.1
20
-16.525
11
235.1
21
-16.525
0
LINE
8
0
10
221.6
20
-3.025
11
221.6
21
-16.025
0
LINE
8
0
10
235.6
20
-3.025
11
235.6
21
-16.025
0
ARC
8
0
10
222.1
20
-3.025
40
0.5
50
90
51
180
0
ARC
8
0
10
235.1
20
-3.025
40
0.5
50
0
51
90
0
ARC
8
0
10
222.1
20
-16.025
40
0.5
50
180
51
270
0
ARC
8
0
10
235.1
20
-16.025
40
0.5
50
270
51
0
0
LINE
8
0
10
241.15
20
-2.525
11
254.15
21
-2.525
0
LINE
8
0
10
241.15
20
-16.525
11
254.15
21
-16.525
0
LINE
8
0
10
240.65
20
-3.025
11
240.65
21
-16.025
0
LINE
8
0
10
254.65
20
-3.025
11
254.65
21
-16.025
0
ARC
8
0
10
241.15
20
-3.025
40
0.5
50
90
51
180
0
ARC
8
0
10
254.15
20
-3.025
40
0.5
50
0
51
90
0
ARC
8
0
10
241.15
20
-16.025
40
0.5
50
180
51
270
0
ARC
8
0
10
254.15
20
-16.025
40
0.5
50
270
51
0
0
LINE
8
0
10
260.2
20
-2.525
11
273.2
21
-2.525
0
LINE
8
0
10
260.2
20
-16.525
11
273.2
21
-16.525
0
LINE
8
0
10
259.7
20
-3.025
11
259.7
21
-16.025
0
LINE
8
0
10
273.7
20
-3.025
11
273.7
21
-16.025
0
ARC
8
0
10
260.2
20
-3.025
40
0.5
50
90
51
180
0
ARC
8
0
10
273.2
20
-3.025
40
0.5
50
0
51
90
0
ARC
8
0
10
260.2
20
-16.025
40
0.5
50
180
51
270
0
ARC
8
0
10
273.2
20
-16.025
40
0.5
50
270
51
0
0
LINE
8
0
10
279.25
20
-2.525
11
292.25
21
-2.525
0
LINE
8
0
10
279.25
20
-16.525
11
292.25
21
-16.525
0
LINE
8
0
10
278.75
20
-3.025
11
278.75
21
-16.025
0
LINE
8
0
10
292.75
20
-3.025
11
292.75
21
-16.025
0
ARC
8
0
10
279.25
20
-3.025
40
0.5
50
90
51
180
0
ARC
8
0
10
292.25
20
-3.025
40
0.5
50
0
51
90
0
ARC
8
0
10
279.25
20
-16.025
40
0.5
50
180
51
270
0
ARC
8
0
10
292.25
20
-16.025
40
0.5
50
270
51
0
0
LINE
8
0
10
298.3
20
-2.525
11
311.3
21
-2.525
0
LINE
8
0
10
298.3
20
-16.525
11
311.3
21
-16.525
0
LINE
8
0
10
297.8
20
-3.025
11
297.8
21
-16.025
0
LINE
8
0
10
311.8
20
-3.025
11
311.8
21
-16.025
0
ARC
8
0
10
298.3
20
-3.025
40
0.5
50
90
51
180
0
ARC
8
0
10
311.3
20
-3.025
40
0.5
50
0
51
90
0
ARC
8
0
10
298.3
20
-16.025
40
0.5
50
180
51
270
0
ARC
8
0
10
311.3
20
-16.025
40
0.5
50
270
51
0
0
LINE
8
0
10
317.35
20
-2.525
11
330.35
21
-2.525
0
LINE
8
0
10
317.35
20
-16.525
11
330.35
21
-16.525
0
LINE
8
0
10
316.85
20
-3.025
11
316.85
21
-16.025
0
LINE
8
0
10
330.85
20
-3.025
11
330.85
21
-16.025
0
ARC
8
0
10
317.35
20
-3.025
40
0.5
50
90
51
180
0
ARC
8
0
10
330.35
20
-3.025
40
0.5
50
0
51
90
0
ARC
8
0
10
317.35
20
-16.025
40
0.5
50
180
51
270
0
ARC
8
0
10
330.35
20
-16.025
40
0.5
50
270
51
0
0
LINE
8
0
10
3.025
20
-21.575
11
16.025
21
-21.575
0
LINE
8
0
10
3.025
20
-35.575
11
16.025
21
-35.575
0
LINE
8
0
10
2.525
20
-22.075
11
2.525
21
-35.075
0
LINE
8
0
10
16.525
20
-22.075
11
16.525
21
-35.075
0
ARC
8
0
10
3.025
20
-22.075
40
0.5
50
90
51
180
0
ARC
8
0
10
16.025
20
-22.075
40
0.5
50
0
51
90
0
ARC
8
0
10
3.025
20
-35.075
40
0.5
50
180
51
270
0
ARC
8
0
10
16.025
20
-35.075
40
0.5
50
270
51
0
0
LINE
8
0
10
22.075
20
-21.575
11
35.075
21
-21.575
0
LINE
8
0
10
22.075
20
-35.575
11
35.075
21
-35.575
0
LINE
8
0
10
21.575
20
-22.075
11
21.575
21
-35.075
0
LINE
8
0
10
35.575
20
-22.075
11
35.575
21
-35.075
0
ARC
8
0
10
22.075
20
-22.075
40
0.5
50
90
51
180
0
ARC
8
0
10
35.075
20
-22.075
40
0.5
50
0
51
90
0
ARC
8
0
10
22.075
20
-35.075
40
0.5
50
180
51
270
0
ARC
8
0
10
35.075
20
-35.075
40
0.5
50
270
51
0
0
LINE
8
0
10
55.4125
20
-21.575
11
68.4125
21
-21.575
0
LINE
8
0
10
55.4125
20
-35.575
11
68.4125
21
-35.575
0
LINE
8
0
10
54.9125
20
-22.075
11
54.9125
21
-35.075
0
LINE
8
0
10
68.9125
20
-22.075
11
68.9125
21
-35.075
0
ARC
8
0
10
55.4125
20
-22.075
40
0.5
50
90
51
180
0
ARC
8
0
10
68.4125
20
-22.075
40
0.5
50
0
51
90
0
ARC
8
0
10
55.4125
20
-35.075
40
0.5
50
180
51
270
0
ARC
8
0
10
68.4125
20
-35.075
40
0.5
50
270
51
0
0
LINE
8
0
10
79.225
20
-21.575
11
92.225
21
-21.575
0
LINE
8
0
10
79.225
20
-35.575
11
92.225
21
-35.575
0
LINE
8
0
10
78.725
20
-22.075
11
78.725
21
-35.075
0
LINE
8
0
10
92.725
20
-22.075
11
92.725
21
-35.075
0
ARC
8
0
10
79.225
20
-22.075
40
0.5
50
90
51
180
0
ARC
8
0
10
92.225
20
-22.075
40
0.5
50
0
51
90
0
ARC
8
0
10
79.225
20
-35.075
40
0.5
50
180
51
270
0
ARC
8
0
10
92.225
20
-35.075
40
0.5
50
270
51
0
0
LINE
8
0
10
98.275
20
-21.575
11
111.275
21
-21.575
0
LINE
8
0
10
98.275
20
-35.575
11
111.275
21
-35.575
0
LINE
8
0
10
97.775
20
-22.075
11
97.775
21
-35.075
0
LINE
8
0
10
111.775
20
-22.075
11
111.775
21
-35.075
0
ARC
8
0
10
98.275
20
-22.075
40
0.5
50
90
51
180
0
ARC
8
0
10
111.275
20
-22.075
40
0.5
50
0
51
90
0
ARC
8
0
10
98.275
20
-35.075
40
0.5
50
180
51
270
0
ARC
8
0
10
111.275
20
-35.075
40
0.5
50
270
51
0
0
LINE
8
0
10
117.325
20
-21.575
11
130.325
21
-21.575
0
LINE
8
0
10
117.325
20
-35.575
11
130.325
21
-35.575
0
LINE
8
0
10
116.825
20
-22.075
11
116.825
21
-35.075
0
LINE
8
0
10
130.825
20
-22.075
11
130.825
21
-35.075
0
ARC
8
0
10
117.325
20
-22.075
40
0.5
50
90
51
180
0
ARC
8
0
10
130.325
20
-22.075
40
0.5
50
0
51
90
0
ARC
8
0
10
117.325
20
-35.075
40
0.5
50
180
51
270
0
ARC
8
0
10
130.325
20
-35.075
40
0.5
50
270
51
0
0
LINE
8
0
10
136.375
20
-21.575
11
149.375
21
-21.575
0
LINE
8
0
10
136.375
20
-35.575
11
149.375
21
-35.575
0
LINE
8
0
10
135.875
20
-22.075
11
135.875
21
-35.075
0
LINE
8
0
10
149.875
20
-22.075
11
149.875
21
-35.075
0
ARC
8
0
10
136.375
20
-22.075
40
0.5
50
90
51
180
0
ARC
8
0
10
149.375
20
-22.075
40
0.5
50
0
51
90
0
ARC
8
0
10
136.375
20
-35.075
40
0.5
50
180
51
270
0
ARC
8
0
10
149.375
20
-35.075
40
0.5
50
270
51
0
0
LINE
8
0
10
155.425
20
-21.575
11
168.425
21
-21.575
0
LINE
8
0
10
155.425
20
-35.575
11
168.425
21
-35.575
0
LINE
8
0
10
154.925
20
-22.075
11
154.925
21
-35.075
0
LINE
8
0
10
168.925
20
-22.075
11
168.925
21
-35.075
0
ARC
8
0
10
155.425
20
-22.075
40
0.5
50
90
51
180
0
ARC
8
0
10
168.425
20
-22.075
40
0.5
50
0
51
90
0
ARC
8
0
10
155.425
20
-35.075
40
0.5
50
180
51
270
0
ARC
8
0
10
168.425
20
-35.075
40
0.5
50
270
51
0
0
LINE
8
0
10
174.475
20
-21.575
11
187.475
21
-21.575
0
LINE
8
0
10
174.475
20
-35.575
11
187.475
21
-35.575
0
LINE
8
0
10
173.975
20
-22.075
11
173.975
21
-35.075
0
LINE
8
0
10
187.975
20
-22.075
11
187.975
21
-35.075
0
ARC
8
0
10
174.475
20
-22.075
40
0.5
50
90
51
180
0
ARC
8
0
10
187.475
20
-22.075
40
0.5
50
0
51
90
0
ARC
8
0
10
174.475
20
-35.075
40
0.5
50
180
51
270
0
ARC
8
0
10
187.475
20
-35.075
40
0.5
50
270
51
0
0
LINE
8
0
10
193.525
20
-21.575
11
206.525
21
-21.575
0
LINE
8
0
10
193.525
20
-35.575
11
206.525
21
-35.575
0
LINE
8
0
10
193.025
20
-22.075
11
193.025
21
-35.075
0
LINE
8
0
10
207.025
20
-22.075
11
207.025
21
-35.075
0
ARC
8
0
10
193.525
20
-22.075
40
0.5
50
90
51
180
0
ARC
8
0
10
206.525
20
-22.075
40
0.5
50
0
51
90
0
ARC
8
0
10
193.525
20
-35.075
40
0.5
50
180
51
270
0
ARC
8
0
10
206.525
20
-35.075
40
0.5
50
270
51
0
0
LINE
8
0
10
212.575
20
-21.575
11
225.575
21
-21.575
0
LINE
8
0
10
212.575
20
-35.575
11
225.575
21
-35.575
0
LINE
8
0
10
212.075
20
-22.075
11
212.075
21
-35.075
0
LINE
8
0
10
226.075
20
-22.075
11
226.075
21
-35.075
0
ARC
8
0
10
212.575
20
-22.075
40
0.5
50
90
51
180
0
ARC
8
0
10
225.575
20
-22.075
40
0.5
50
0
51
90
0
ARC
8
0
10
212.575
20
-35.075
40
0.5
50
180
51
270
0
ARC
8
0
10
225.575
20
-35.075
40
0.5
50
270
51
0
0
LINE
8
0
10
231.625
20
-21.575
11
244.625
21
-21.575
0
LINE
8
0
10
231.625
20
-35.575
11
244.625
21
-35.575
0
LINE
8
0
10
231.125
20
-22.075
11
231.125
21
-35.075
0
LINE
8
0
10
245.125
20
-22.075
11
245.125
21
-35.075
0
ARC
8
0
10
231.625
20
-22.075
40
0.5
50
90
51
180
0
ARC
8
0
10
244.625
20
-22.075
40
0.5
50
0
51
90
0
ARC
8
0
10
231.625
20
-35.075
40
0.5
50
180
51
270
0
ARC
8
0
10
244.625
20
-35.075
40
0.5
50
270
51
0
0
LINE
8
0
10
250.675
20
-21.575
11
263.675
21
-21.575
0
LINE
8
0
10
250.675
20
-35.575
11
263.675
21
-35.575
0
LINE
8
0
10
250.175
20
-22.075
11
250.175
21
-35.075
0
LINE
8
0
10
264.175
20
-22.075
11
264.175
21
-35.075
0
ARC
8
0
10
250.675
20
-22.075
40
0.5
50
90
51
180
0
ARC
8
0
10
263.675
20
-22.075
40
0.5
50
0
51
90
0
ARC
8
0
10
250.675
20
-35.075
40
0.5
50
180
51
270
0
ARC
8
0
10
263.675
20
-35.075
40
0.5
50
270
51
0
0
LINE
8
0
10
269.725
20
-21.575
11
282.725
21
-21.575
0
LINE
8
0
10
269.725
20
-35.575
11
282.725
21
-35.575
0
LINE
8
0
10
269.225
20
-22.075
11
269.225
21
-35.075
0
LINE
8
0
10
283.225
20
-22.075
11
283.225
21
-35.075
0
ARC
8
0
10
269.725
20
-22.075
40
0.5
50
90
51
180
0
ARC
8
0
10
282.725
20
-22.075
40
0.5
50
0
51
90
0
ARC
8
0
10
269.725
20
-35.075
40
0.5
50
180
51
270
0
ARC
8
0
10
282.725
20
-35.075
40
0.5
50
270
51
0
0
LINE
8
0
10
288.775
20
-21.575
11
301.775
21
-21.575
0
LINE
8
0
10
288.775
20
-35.575
11
301.775
21
-35.575
0
LINE
8
0
10
288.275
20
-22.075
11
288.275
21
-35.075
0
LINE
8
0
10
302.275
20
-22.075
11
302.275
21
-35.075
0
ARC
8
0
10
288.775
20
-22.075
40
0.5
50
90
51
180
0
ARC
8
0
10
301.775
20
-22.075
40
0.5
50
0
51
90
0
ARC
8
0
10
288.775
20
-35.075
40
0.5
50
180
51
270
0
ARC
8
0
10
301.775
20
-35.075
40
0.5
50
270
51
0
0
LINE
8
0
10
328.46875
20
-31.6
11
328.46875
21
-44.6
0
LINE
8
0
10
314.46875
20
-31.6
11
314.46875
21
-44.6
0
LINE
8
0
10
327.96875
20
-31.1
11
314.96875
21
-31.1
0
LINE
8
0
10
327.96875
20
-45.1
11
314.96875
21
-45.1
0
ARC
8
0
10
327.96875
20
-31.6
40
0.5
50
0
51
90
0
ARC
8
0
10
327.96875
20
-44.6
40
0.5
50
270
51
0
0
ARC
8
0
10
314.96875
20
-31.6
40
0.5
50
90
51
180
0
ARC
8
0
10
314.96875
20
-44.6
40
0.5
50
180
51
270
0
LINE
8
0
10
327.46875
20
-23.162
11
327.46875
21
-29.162
0
LINE
8
0
10
312.46875
20
-23.162
11
312.46875
21
-29.162
0
LINE
8
0
10
326.96875
20
-22.662
11
312.96875
21
-22.662
0
LINE
8
0
10
326.96875
20
-29.662
11
312.96875
21
-29.662
0
ARC
8
0
10
326.96875
20
-23.162
40
0.5
50
0
51
90
0
ARC
8
0
10
326.96875
20
-29.162
40
0.5
50
270
51
0
0
ARC
8
0
10
312.96875
20
-23.162
40
0.5
50
90
51
180
0
ARC
8
0
10
312.96875
20
-29.162
40
0.5
50
180
51
270
0
LINE
8
0
10
327.46875
20
-47.038
11
327.46875
21
-53.038
0
LINE
8
0
10
312.46875
20
-47.038
11
312.46875
21
-53.038
0
LINE
8
0
10
326.96875
20
-46.538
11
312.96875
21
-46.538
0
LINE
8
0
10
326.96875
20
-53.538
11
312.96875
21
-53.538
0
ARC
8
0
10
326.96875
20
-47.038
40
0.5
50
0
51
90
0
ARC
8
0
10
326.96875
20
-53.038
40
0.5
50
270
51
0
0
ARC
8
0
10
312.96875
20
-47.038
40
0.5
50
90
51
180
0
ARC
8
0
10
312.96875
20
-53.038
40
0.5
50
180
51
270
0
LINE
8
0
10
3.025
20
-40.625
11
16.025
21
-40.625
0
LINE
8
0
10
3.025
20
-54.625
11
16.025
21
-54.625
0
LINE
8
0
10
2.525
20
-41.125
11
2.525
21
-54.125
0
LINE
8
0
10
16.525
20
-41.125
11
16.525
21
-54.125
0
ARC
8
0
10
3.025
20
-41.125
40
0.5
50
90
51
180
0
ARC
8
0
10
16.025
20
-41.125
40
0.5
50
0
51
90
0
ARC
8
0
10
3.025
20
-54.125
40
0.5
50
180
51
270
0
ARC
8
0
10
16.025
20
-54.125
40
0.5
50
270
51
0
0
LINE
8
0
10
22.075
20
-40.625
11
35.075
21
-40.625
0
LINE
8
0
10
22.075
20
-54.625
11
35.075
21
-54.625
0
LINE
8
0
10
21.575
20
-41.125
11
21.575
21
-54.125
0
LINE
8
0
10
35.575
20
-41.125
11
35.575
21
-54.125
0
ARC
8
0
10
22.075
20
-41.125
40
0.5
50
90
51
180
0
ARC
8
0
10
35.075
20
-41.125
40
0.5
50
0
51
90
0
ARC
8
0
10
22.075
20
-54.125
40
0.5
50
180
51
270
0
ARC
8
0
10
35.075
20
-54.125
40
0.5
50
270
51
0
0
LINE
8
0
10
57.79375
20
-40.625
11
70.79375
21
-40.625
0
LINE
8
0
10
57.79375
20
-54.625
11
70.79375
21
-54.625
0
LINE
8
0
10
57.29375
20
-41.125
11
57.29375
21
-54.125
0
LINE
8
0
10
71.29375
20
-41.125
11
71.29375
21
-54.125
0
ARC
8
0
10
57.79375
20
-41.125
40
0.5
50
90
51
180
0
ARC
8
0
10
70.79375
20
-41.125
40
0.5
50
0
51
90
0
ARC
8
0
10
57.79375
20
-54.125
40
0.5
50
180
51
270
0
ARC
8
0
10
70.79375
20
-54.125
40
0.5
50
270
51
0
0
LINE
8
0
10
83.9875
20
-40.625
11
96.9875
21
-40.625
0
LINE
8
0
10
83.9875
20
-54.625
11
96.9875
21
-54.625
0
LINE
8
0
10
83.4875
20
-41.125
11
83.4875
21
-54.125
0
LINE
8
0
10
97.4875
20
-41.125
11
97.4875
21
-54.125
0
ARC
8
0
10
83.9875
20
-41.125
40
0.5
50
90
51
180
0
ARC
8
0
10
96.9875
20
-41.125
40
0.5
50
0
51
90
0
ARC
8
0
10
83.9875
20
-54.125
40
0.5
50
180
51
270
0
ARC
8
0
10
96.9875
20
-54.125
40
0.5
50
270
51
0
0
LINE
8
0
10
103.0375
20
-40.625
11
116.0375
21
-40.625
0
LINE
8
0
10
103.0375
20
-54.625
11
116.0375
21
-54.625
0
LINE
8
0
10
102.5375
20
-41.125
11
102.5375
21
-54.125
0
LINE
8
0
10
116.5375
20
-41.125
11
116.5375
21
-54.125
0
ARC
8
0
10
103.0375
20
-41.125
40
0.5
50
90
51
180
0
ARC
8
0
10
116.0375
20
-41.125
40
0.5
50
0
51
90
0
ARC
8
0
10
103.0375
20
-54.125
40
0.5
50
180
51
270
0
ARC
8
0
10
116.0375
20
-54.125
40
0.5
50
270
51
0
0
LINE
8
0
10
122.0875
20
-40.625
11
135.0875
21
-40.625
0
LINE
8
0
10
122.0875
20
-54.625
11
135.0875
21
-54.625
0
LINE
8
0
10
121.5875
20
-41.125
11
121.5875
21
-54.125
0
LINE
8
0
10
135.5875
20
-41.125
11
135.5875
21
-54.125
0
ARC
8
0
10
122.0875
20
-41.125
40
0.5
50
90
51
180
0
ARC
8
0
10
135.0875
20
-41.125
40
0.5
50
0
51
90
0
ARC
8
0
10
122.0875
20
-54.125
40
0.5
50
180
51
270
0
ARC
8
0
10
135.0875
20
-54.125
40
0.5
50
270
51
0
0
LINE
8
0
10
141.1375
20
-40.625
11
154.1375
21
-40.625
0
LINE
8
0
10
141.1375
20
-54.625
11
154.1375
21
-54.625
0
LINE
8
0
10
140.6375
20
-41.125
11
140.6375
21
-54.125
0
LINE
8
0
10
154.6375
20
-41.125
11
154.6375
21
-54.125
0
ARC
8
0
10
141.1375
20
-41.125
40
0.5
50
90
51
180
0
ARC
8
0
10
154.1375
20
-41.125
40
0.5
50
0
51
90
0
ARC
8
0
10
141.1375
20
-54.125
40
0.5
50
180
51
270
0
ARC
8
0
10
154.1375
20
-54.125
40
0.5
50
270
51
0
0
LINE
8
0
10
160.1875
20
-40.625
11
173.1875
21
-40.625
0
LINE
8
0
10
160.1875
20
-54.625
11
173.1875
21
-54.625
0
LINE
8
0
10
159.6875
20
-41.125
11
159.6875
21
-54.125
0
LINE
8
0
10
173.6875
20
-41.125
11
173.6875
21
-54.125
0
ARC
8
0
10
160.1875
20
-41.125
40
0.5
50
90
51
180
0
ARC
8
0
10
173.1875
20
-41.125
40
0.5
50
0
51
90
0
ARC
8
0
10
160.1875
20
-54.125
40
0.5
50
180
51
270
0
ARC
8
0
10
173.1875
20
-54.125
40
0.5
50
270
51
0
0
LINE
8
0
10
179.2375
20
-40.625
11
192.2375
21
-40.625
0
LINE
8
0
10
179.2375
20
-54.625
11
192.2375
21
-54.625
0
LINE
8
0
10
178.7375
20
-41.125
11
178.7375
21
-54.125
0
LINE
8
0
10
192.7375
20
-41.125
11
192.7375
21
-54.125
0
ARC
8
0
10
179.2375
20
-41.125
40
0.5
50
90
51
180
0
ARC
8
0
10
192.2375
20
-41.125
40
0.5
50
0
51
90
0
ARC
8
0
10
179.2375
20
-54.125
40
0.5
50
180
51
270
0
ARC
8
0
10
192.2375
20
-54.125
40
0.5
50
270
51
0
0
LINE
8
0
10
198.2875
20
-40.625
11
211.2875
21
-40.625
0
LINE
8
0
10
198.2875
20
-54.625
11
211.2875
21
-54.625
0
LINE
8
0
10
197.7875
20
-41.125
11
197.7875
21
-54.125
0
LINE
8
0
10
211.7875
20
-41.125
11
211.7875
21
-54.125
0
ARC
8
0
10
198.2875
20
-41.125
40
0.5
50
90
51
180
0
ARC
8
0
10
211.2875
20
-41.125
40
0.5
50
0
51
90
0
ARC
8
0
10
198.2875
20
-54.125
40
0.5
50
180
51
270
0
ARC
8
0
10
211.2875
20
-54.125
40
0.5
50
270
51
0
0
LINE
8
0
10
217.3375
20
-40.625
11
230.3375
21
-40.625
0
LINE
8
0
10
217.3375
20
-54.625
11
230.3375
21
-54.625
0
LINE
8
0
10
216.8375
20
-41.125
11
216.8375
21
-54.125
0
LINE
8
0
10
230.8375
20
-41.125
11
230.8375
21
-54.125
0
ARC
8
0
10
217.3375
20
-41.125
40
0.5
50
90
51
180
0
ARC
8
0
10
230.3375
20
-41.125
40
0.5
50
0
51
90
0
ARC
8
0
10
217.3375
20
-54.125
40
0.5
50
180
51
270
0
ARC
8
0
10
230.3375
20
-54.125
40
0.5
50
270
51
0
0
LINE
8
0
10
236.3875
20
-40.625
11
249.3875
21
-40.625
0
LINE
8
0
10
236.3875
20
-54.625
11
249.3875
21
-54.625
0
LINE
8
0
10
235.8875
20
-41.125
11
235.8875
21
-54.125
0
LINE
8
0
10
249.8875
20
-41.125
11
249.8875
21
-54.125
0
ARC
8
0
10
236.3875
20
-41.125
40
0.5
50
90
51
180
0
ARC
8
0
10
249.3875
20
-41.125
40
0.5
50
0
51
90
0
ARC
8
0
10
236.3875
20
-54.125
40
0.5
50
180
51
270
0
ARC
8
0
10
249.3875
20
-54.125
40
0.5
50
270
51
0
0
LINE
8
0
10
255.4375
20
-40.625
11
268.4375
21
-40.625
0
LINE
8
0
10
255.4375
20
-54.625
11
268.4375
21
-54.625
0
LINE
8
0
10
254.9375
20
-41.125
11
254.9375
21
-54.125
0
LINE
8
0
10
268.9375
20
-41.125
11
268.9375
21
-54.125
0
ARC
8
0
10
255.4375
20
-41.125
40
0.5
50
90
51
180
0
ARC
8
0
10
268.4375
20
-41.125
40
0.5
50
0
51
90
0
ARC
8
0
10
255.4375
20
-54.125
40
0.5
50
180
51
270
0
ARC
8
0
10
268.4375
20
-54.125
40
0.5
50
270
51
0
0
LINE
8
0
10
274.4875
20
-40.625
11
287.4875
21
-40.625
0
LINE
8
0
10
274.4875
20
-54.625
11
287.4875
21
-54.625
0
LINE
8
0
10
273.9875
20
-41.125
11
273.9875
21
-54.125
0
LINE
8
0
10
287.9875
20
-41.125
11
287.9875
21
-54.125
0
ARC
8
0
10
274.4875
20
-41.125
40
0.5
50
90
51
180
0
ARC
8
0
10
287.4875
20
-41.125
40
0.5
50
0
51
90
0
ARC
8
0
10
274.4875
20
-54.125
40
0.5
50
180
51
270
0
ARC
8
0
10
287.4875
20
-54.125
40
0.5
50
270
51
0
0
LINE
8
0
10
293.5375
20
-40.625
11
306.5375
21
-40.625
0
LINE
8
0
10
293.5375
20
-54.625
11
306.5375
21
-54.625
0
LINE
8
0
10
293.0375
20
-41.125
11
293.0375
21
-54.125
0
LINE
8
0
10
307.0375
20
-41.125
11
307.0375
21
-54.125
0
ARC
8
0
10
293.5375
20
-41.125
40
0.5
50
90
51
180
0
ARC
8
0
10
306.5375
20
-41.125
40
0.5
50
0
51
90
0
ARC
8
0
10
293.5375
20
-54.125
40
0.5
50
180
51
270
0
ARC
8
0
10
306.5375
20
-54.125
40
0.5
50
270
51
0
0
LINE
8
0
10
3.025
20
-59.675
11
16.025
21
-59.675
0
LINE
8
0
10
3.025
20
-73.675
11
16.025
21
-73.675
0
LINE
8
0
10
2.525
20
-60.175
11
2.525
21
-73.175
0
LINE
8
0
10
16.525
20
-60.175
11
16.525
21
-73.175
0
ARC
8
0
10
3.025
20
-60.175
40
0.5
50
90
51
180
0
ARC
8
0
10
16.025
20
-60.175
40
0.5
50
0
51
90
0
ARC
8
0
10
3.025
20
-73.175
40
0.5
50
180
51
270
0
ARC
8
0
10
16.025
20
-73.175
40
0.5
50
270
51
0
0
LINE
8
0
10
22.075
20
-59.675
11
35.075
21
-59.675
0
LINE
8
0
10
22.075
20
-73.675
11
35.075
21
-73.675
0
LINE
8
0
10
21.575
20
-60.175
11
21.575
21
-73.175
0
LINE
8
0
10
35.575
20
-60.175
11
35.575
21
-73.175
0
ARC
8
0
10
22.075
20
-60.175
40
0.5
50
90
51
180
0
ARC
8
0
10
35.075
20
-60.175
40
0.5
50
0
51
90
0
ARC
8
0
10
22.075
20
-73.175
40
0.5
50
180
51
270
0
ARC
8
0
10
35.075
20
-73.175
40
0.5
50
270
51
0
0
LINE
8
0
10
62.55625
20
-59.675
11
75.55625
21
-59.675
0
LINE
8
0
10
62.55625
20
-73.675
11
75.55625
21
-73.675
0
LINE
8
0
10
62.05625
20
-60.175
11
62.05625
21
-73.175
0
LINE
8
0
10
76.05625
20
-60.175
11
76.05625
21
-73.175
0
ARC
8
0
10
62.55625
20
-60.175
40
0.5
50
90
51
180
0
ARC
8
0
10
75.55625
20
-60.175
40
0.5
50
0
51
90
0
ARC
8
0
10
62.55625
20
-73.175
40
0.5
50
180
51
270
0
ARC
8
0
10
75.55625
20
-73.175
40
0.5
50
270
51
0
0
LINE
8
0
10
54.11825
20
-60.675
11
60.11825
21
-60.675
0
LINE
8
0
10
54.11825
20
-75.675
11
60.11825
21
-75.675
0
LINE
8
0
10
53.61825
20
-61.175
11
53.61825
21
-75.175
0
LINE
8
0
10
60.61825
20
-61.175
11
60.61825
21
-75.175
0
ARC
8
0
10
54.11825
20
-61.175
40
0.5
50
90
51
180
0
ARC
8
0
10
60.11825
20
-61.175
40
0.5
50
0
51
90
0
ARC
8
0
10
54.11825
20
-75.175
40
0.5
50
180
51
270
0
ARC
8
0
10
60.11825
20
-75.175
40
0.5
50
270
51
0
0
LINE
8
0
10
77.99425
20
-60.675
11
83.99425
21
-60.675
0
LINE
8
0
10
77.99425
20
-75.675
11
83.99425
21
-75.675
0
LINE
8
0
10
77.49425
20
-61.175
11
77.49425
21
-75.175
0
LINE
8
0
10
84.49425
20
-61.175
11
84.49425
21
-75.175
0
ARC
8
0
10
77.99425
20
-61.175
40
0.5
50
90
51
180
0
ARC
8
0
10
83.99425
20
-61.175
40
0.5
50
0
51
90
0
ARC
8
0
10
77.99425
20
-75.175
40
0.5
50
180
51
270
0
ARC
8
0
10
83.99425
20
-75.175
40
0.5
50
270
51
0
0
LINE
8
0
10
93.5125
20
-59.675
11
106.5125
21
-59.675
0
LINE
8
0
10
93.5125
20
-73.675
11
106.5125
21
-73.675
0
LINE
8
0
10
93.0125
20
-60.175
11
93.0125
21
-73.175
0
LINE
8
0
10
107.0125
20
-60.175
11
107.0125
21
-73.175
0
ARC
8
0
10
93.5125
20
-60.175
40
0.5
50
90
51
180
0
ARC
8
0
10
106.5125
20
-60.175
40
0.5
50
0
51
90
0
ARC
8
0
10
93.5125
20
-73.175
40
0.5
50
180
51
270
0
ARC
8
0
10
106.5125
20
-73.175
40
0.5
50
270
51
0
0
LINE
8
0
10
112.5625
20
-59.675
11
125.5625
21
-59.675
0
LINE
8
0
10
112.5625
20
-73.675
11
125.5625
21
-73.675
0
LINE
8
0
10
112.0625
20
-60.175
11
112.0625
21
-73.175
0
LINE
8
0
10
126.0625
20
-60.175
11
126.0625
21
-73.175
0
ARC
8
0
10
112.5625
20
-60.175
40
0.5
50
90
51
180
0
ARC
8
0
10
125.5625
20
-60.175
40
0.5
50
0
51
90
0
ARC
8
0
10
112.5625
20
-73.175
40
0.5
50
180
51
270
0
ARC
8
0
10
125.5625
20
-73.175
40
0.5
50
270
51
0
0
LINE
8
0
10
131.6125
20
-59.675
11
144.6125
21
-59.675
0
LINE
8
0
10
131.6125
20
-73.675
11
144.6125
21
-73.675
0
LINE
8
0
10
131.1125
20
-60.175
11
131.1125
21
-73.175
0
LINE
8
0
10
145.1125
20
-60.175
11
145.1125
21
-73.175
0
ARC
8
0
10
131.6125
20
-60.175
40
0.5
50
90
51
180
0
ARC
8
0
10
144.6125
20
-60.175
40
0.5
50
0
51
90
0
ARC
8
0
10
131.6125
20
-73.175
40
0.5
50
180
51
270
0
ARC
8
0
10
144.6125
20
-73.175
40
0.5
50
270
51
0
0
LINE
8
0
10
150.6625
20
-59.675
11
163.6625
21
-59.675
0
LINE
8
0
10
150.6625
20
-73.675
11
163.6625
21
-73.675
0
LINE
8
0
10
150.1625
20
-60.175
11
150.1625
21
-73.175
0
LINE
8
0
10
164.1625
20
-60.175
11
164.1625
21
-73.175
0
ARC
8
0
10
150.6625
20
-60.175
40
0.5
50
90
51
180
0
ARC
8
0
10
163.6625
20
-60.175
40
0.5
50
0
51
90
0
ARC
8
0
10
150.6625
20
-73.175
40
0.5
50
180
51
270
0
ARC
8
0
10
163.6625
20
-73.175
40
0.5
50
270
51
0
0
LINE
8
0
10
169.7125
20
-59.675
11
182.7125
21
-59.675
0
LINE
8
0
10
169.7125
20
-73.675
11
182.7125
21
-73.675
0
LINE
8
0
10
169.2125
20
-60.175
11
169.2125
21
-73.175
0
LINE
8
0
10
183.2125
20
-60.175
11
183.2125
21
-73.175
0
ARC
8
0
10
169.7125
20
-60.175
40
0.5
50
90
51
180
0
ARC
8
0
10
182.7125
20
-60.175
40
0.5
50
0
51
90
0
ARC
8
0
10
169.7125
20
-73.175
40
0.5
50
180
51
270
0
ARC
8
0
10
182.7125
20
-73.175
40
0.5
50
270
51
0
0
LINE
8
0
10
188.7625
20
-59.675
11
201.7625
21
-59.675
0
LINE
8
0
10
188.7625
20
-73.675
11
201.7625
21
-73.675
0
LINE
8
0
10
188.2625
20
-60.175
11
188.2625
21
-73.175
0
LINE
8
0
10
202.2625
20
-60.175
11
202.2625
21
-73.175
0
ARC
8
0
10
188.7625
20
-60.175
40
0.5
50
90
51
180
0
ARC
8
0
10
201.7625
20
-60.175
40
0.5
50
0
51
90
0
ARC
8
0
10
188.7625
20
-73.175
40
0.5
50
180
51
270
0
ARC
8
0
10
201.7625
20
-73.175
40
0.5
50
270
51
0
0
LINE
8
0
10
207.8125
20
-59.675
11
220.8125
21
-59.675
0
LINE
8
0
10
207.8125
20
-73.675
11
220.8125
21
-73.675
0
LINE
8
0
10
207.3125
20
-60.175
11
207.3125
21
-73.175
0
LINE
8
0
10
221.3125
20
-60.175
11
221.3125
21
-73.175
0
ARC
8
0
10
207.8125
20
-60.175
40
0.5
50
90
51
180
0
ARC
8
0
10
220.8125
20
-60.175
40
0.5
50
0
51
90
0
ARC
8
0
10
207.8125
20
-73.175
40
0.5
50
180
51
270
0
ARC
8
0
10
220.8125
20
-73.175
40
0.5
50
270
51
0
0
LINE
8
0
10
226.8625
20
-59.675
11
239.8625
21
-59.675
0
LINE
8
0
10
226.8625
20
-73.675
11
239.8625
21
-73.675
0
LINE
8
0
10
226.3625
20
-60.175
11
226.3625
21
-73.175
0
LINE
8
0
10
240.3625
20
-60.175
11
240.3625
21
-73.175
0
ARC
8
0
10
226.8625
20
-60.175
40
0.5
50
90
51
180
0
ARC
8
0
10
239.8625
20
-60.175
40
0.5
50
0
51
90
0
ARC
8
0
10
226.8625
20
-73.175
40
0.5
50
180
51
270
0
ARC
8
0
10
239.8625
20
-73.175
40
0.5
50
270
51
0
0
LINE
8
0
10
245.9125
20
-59.675
11
258.9125
21
-59.675
0
LINE
8
0
10
245.9125
20
-73.675
11
258.9125
21
-73.675
0
LINE
8
0
10
245.4125
20
-60.175
11
245.4125
21
-73.175
0
LINE
8
0
10
259.4125
20
-60.175
11
259.4125
21
-73.175
0
ARC
8
0
10
245.9125
20
-60.175
40
0.5
50
90
51
180
0
ARC
8
0
10
258.9125
20
-60.175
40
0.5
50
0
51
90
0
ARC
8
0
10
245.9125
20
-73.175
40
0.5
50
180
51
270
0
ARC
8
0
10
258.9125
20
-73.175
40
0.5
50
270
51
0
0
LINE
8
0
10
264.9625
20
-59.675
11
277.9625
21
-59.675
0
LINE
8
0
10
264.9625
20
-73.675
11
277.9625
21
-73.675
0
LINE
8
0
10
264.4625
20
-60.175
11
264.4625
21
-73.175
0
LINE
8
0
10
278.4625
20
-60.175
11
278.4625
21
-73.175
0
ARC
8
0
10
264.9625
20
-60.175
40
0.5
50
90
51
180
0
ARC
8
0
10
277.9625
20
-60.175
40
0.5
50
0
51
90
0
ARC
8
0
10
264.9625
20
-73.175
40
0.5
50
180
51
270
0
ARC
8
0
10
277.9625
20
-73.175
40
0.5
50
270
51
0
0
LINE
8
0
10
291.15625
20
-59.675
11
304.15625
21
-59.675
0
LINE
8
0
10
291.15625
20
-73.675
11
304.15625
21
-73.675
0
LINE
8
0
10
290.65625
20
-60.175
11
290.65625
21
-73.175
0
LINE
8
0
10
304.65625
20
-60.175
11
304.65625
21
-73.175
0
ARC
8
0
10
291.15625
20
-60.175
40
0.5
50
90
51
180
0
ARC
8
0
10
304.15625
20
-60.175
40
0.5
50
0
51
90
0
ARC
8
0
10
291.15625
20
-73.175
40
0.5
50
180
51
270
0
ARC
8
0
10
304.15625
20
-73.175
40
0.5
50
270
51
0
0
LINE
8
0
10
317.35
20
-59.675
11
330.35
21
-59.675
0
LINE
8
0
10
317.35
20
-73.675
11
330.35
21
-73.675
0
LINE
8
0
10
316.85
20
-60.175
11
316.85
21
-73.175
0
LINE
8
0
10
330.85
20
-60.175
11
330.85
21
-73.175
0
ARC
8
0
10
317.35
20
-60.175
40
0.5
50
90
51
180
0
ARC
8
0
10
330.35
20
-60.175
40
0.5
50
0
51
90
0
ARC
8
0
10
317.35
20
-73.175
40
0.5
50
180
51
270
0
ARC
8
0
10
330.35
20
-73.175
40
0.5
50
270
51
0
0
LINE
8
0
10
3.025
20
-78.725
11
16.025
21
-78.725
0
LINE
8
0
10
3.025
20
-92.725
11
16.025
21
-92.725
0
LINE
8
0
10
2.525
20
-79.225
11
2.525
21
-92.225
0
LINE
8
0
10
16.525
20
-79.225
11
16.525
21
-92.225
0
ARC
8
0
10
3.025
20
-79.225
40
0.5
50
90
51
180
0
ARC
8
0
10
16.025
20
-79.225
40
0.5
50
0
51
90
0
ARC
8
0
10
3.025
20
-92.225
40
0.5
50
180
51
270
0
ARC
8
0
10
16.025
20
-92.225
40
0.5
50
270
51
0
0
LINE
8
0
10
22.075
20
-78.725
11
35.075
21
-78.725
0
LINE
8
0
10
22.075
20
-92.725
11
35.075
21
-92.725
0
LINE
8
0
10
21.575
20
-79.225
11
21.575
21
-92.225
0
LINE
8
0
10
35.575
20
-79.225
11
35.575
21
-92.225
0
ARC
8
0
10
22.075
20
-79.225
40
0.5
50
90
51
180
0
ARC
8
0
10
35.075
20
-79.225
40
0.5
50
0
51
90
0
ARC
8
0
10
22.075
20
-92.225
40
0.5
50
180
51
270
0
ARC
8
0
10
35.075
20
-92.225
40
0.5
50
270
51
0
0
LINE
8
0
10
55.4125
20
-78.725
11
68.4125
21
-78.725
0
LINE
8
0
10
55.4125
20
-92.725
11
68.4125
21
-92.725
0
LINE
8
0
10
54.9125
20
-79.225
11
54.9125
21
-92.225
0
LINE
8
0
10
68.9125
20
-79.225
11
68.9125
21
-92.225
0
ARC
8
0
10
55.4125
20
-79.225
40
0.5
50
90
51
180
0
ARC
8
0
10
68.4125
20
-79.225
40
0.5
50
0
51
90
0
ARC
8
0
10
55.4125
20
-92.225
40
0.5
50
180
51
270
0
ARC
8
0
10
68.4125
20
-92.225
40
0.5
50
270
51
0
0
LINE
8
0
10
79.225
20
-78.725
11
92.225
21
-78.725
0
LINE
8
0
10
79.225
20
-92.725
11
92.225
21
-92.725
0
LINE
8
0
10
78.725
20
-79.225
11
78.725
21
-92.225
0
LINE
8
0
10
92.725
20
-79.225
11
92.725
21
-92.225
0
ARC
8
0
10
79.225
20
-79.225
40
0.5
50
90
51
180
0
ARC
8
0
10
92.225
20
-79.225
40
0.5
50
0
51
90
0
ARC
8
0
10
79.225
20
-92.225
40
0.5
50
180
51
270
0
ARC
8
0
10
92.225
20
-92.225
40
0.5
50
270
51
0
0
LINE
8
0
10
103.0375
20
-78.725
11
116.0375
21
-78.725
0
LINE
8
0
10
103.0375
20
-92.725
11
116.0375
21
-92.725
0
LINE
8
0
10
102.5375
20
-79.225
11
102.5375
21
-92.225
0
LINE
8
0
10
116.5375
20
-79.225
11
116.5375
21
-92.225
0
ARC
8
0
10
103.0375
20
-79.225
40
0.5
50
90
51
180
0
ARC
8
0
10
116.0375
20
-79.225
40
0.5
50
0
51
90
0
ARC
8
0
10
103.0375
20
-92.225
40
0.5
50
180
51
270
0
ARC
8
0
10
116.0375
20
-92.225
40
0.5
50
270
51
0
0
LINE
8
0
10
131.6125
20
-78.725
11
144.6125
21
-78.725
0
LINE
8
0
10
131.6125
20
-92.725
11
144.6125
21
-92.725
0
LINE
8
0
10
131.1125
20
-79.225
11
131.1125
21
-92.225
0
LINE
8
0
10
145.1125
20
-79.225
11
145.1125
21
-92.225
0
ARC
8
0
10
131.6125
20
-79.225
40
0.5
50
90
51
180
0
ARC
8
0
10
144.6125
20
-79.225
40
0.5
50
0
51
90
0
ARC
8
0
10
131.6125
20
-92.225
40
0.5
50
180
51
270
0
ARC
8
0
10
144.6125
20
-92.225
40
0.5
50
270
51
0
0
LINE
8
0
10
169.7125
20
-78.725
11
182.7125
21
-78.725
0
LINE
8
0
10
169.7125
20
-92.725
11
182.7125
21
-92.725
0
LINE
8
0
10
169.2125
20
-79.225
11
169.2125
21
-92.225
0
LINE
8
0
10
183.2125
20
-79.225
11
183.2125
21
-92.225
0
ARC
8
0
10
169.7125
20
-79.225
40
0.5
50
90
51
180
0
ARC
8
0
10
182.7125
20
-79.225
40
0.5
50
0
51
90
0
ARC
8
0
10
169.7125
20
-92.225
40
0.5
50
180
51
270
0
ARC
8
0
10
182.7125
20
-92.225
40
0.5
50
270
51
0
0
LINE
8
0
10
161.2745
20
-79.725
11
167.2745
21
-79.725
0
LINE
8
0
10
161.2745
20
-94.725
11
167.2745
21
-94.725
0
LINE
8
0
10
160.7745
20
-80.225
11
160.7745
21
-94.225
0
LINE
8
0
10
167.7745
20
-80.225
11
167.7745
21
-94.225
0
ARC
8
0
10
161.2745
20
-80.225
40
0.5
50
90
51
180
0
ARC
8
0
10
167.2745
20
-80.225
40
0.5
50
0
51
90
0
ARC
8
0
10
161.2745
20
-94.225
40
0.5
50
180
51
270
0
ARC
8
0
10
167.2745
20
-94.225
40
0.5
50
270
51
0
0
LINE
8
0
10
185.1505
20
-79.725
11
191.1505
21
-79.725
0
LINE
8
0
10
185.1505
20
-94.725
11
191.1505
21
-94.725
0
LINE
8
0
10
184.6505
20
-80.225
11
184.6505
21
-94.225
0
LINE
8
0
10
191.6505
20
-80.225
11
191.6505
21
-94.225
0
ARC
8
0
10
185.1505
20
-80.225
40
0.5
50
90
51
180
0
ARC
8
0
10
191.1505
20
-80.225
40
0.5
50
0
51
90
0
ARC
8
0
10
185.1505
20
-94.225
40
0.5
50
180
51
270
0
ARC
8
0
10
191.1505
20
-94.225
40
0.5
50
270
51
0
0
LINE
8
0
10
207.8125
20
-78.725
11
220.8125
21
-78.725
0
LINE
8
0
10
207.8125
20
-92.725
11
220.8125
21
-92.725
0
LINE
8
0
10
207.3125
20
-79.225
11
207.3125
21
-92.225
0
LINE
8
0
10
221.3125
20
-79.225
11
221.3125
21
-92.225
0
ARC
8
0
10
207.8125
20
-79.225
40
0.5
50
90
51
180
0
ARC
8
0
10
220.8125
20
-79.225
40
0.5
50
0
51
90
0
ARC
8
0
10
207.8125
20
-92.225
40
0.5
50
180
51
270
0
ARC
8
0
10
220.8125
20
-92.225
40
0.5
50
270
51
0
0
LINE
8
0
10
236.3875
20
-78.725
11
249.3875
21
-78.725
0
LINE
8
0
10
236.3875
20
-92.725
11
249.3875
21
-92.725
0
LINE
8
0
10
235.8875
20
-79.225
11
235.8875
21
-92.225
0
LINE
8
0
10
249.8875
20
-79.225
11
249.8875
21
-92.225
0
ARC
8
0
10
236.3875
20
-79.225
40
0.5
50
90
51
180
0
ARC
8
0
10
249.3875
20
-79.225
40
0.5
50
0
51
90
0
ARC
8
0
10
236.3875
20
-92.225
40
0.5
50
180
51
270
0
ARC
8
0
10
249.3875
20
-92.225
40
0.5
50
270
51
0
0
LINE
8
0
10
264.9625
20
-78.725
11
277.9625
21
-78.725
0
LINE
8
0
10
264.9625
20
-92.725
11
277.9625
21
-92.725
0
LINE
8
0
10
264.4625
20
-79.225
11
264.4625
21
-92.225
0
LINE
8
0
10
278.4625
20
-79.225
11
278.4625
21
-92.225
0
ARC
8
0
10
264.9625
20
-79.225
40
0.5
50
90
51
180
0
ARC
8
0
10
277.9625
20
-79.225
40
0.5
50
0
51
90
0
ARC
8
0
10
264.9625
20
-92.225
40
0.5
50
180
51
270
0
ARC
8
0
10
277.9625
20
-92.225
40
0.5
50
270
51
0
0
LINE
8
0
10
288.775
20
-78.725
11
301.775
21
-78.725
0
LINE
8
0
10
288.775
20
-92.725
11
301.775
21
-92.725
0
LINE
8
0
10
288.275
20
-79.225
11
288.275
21
-92.225
0
LINE
8
0
10
302.275
20
-79.225
11
302.275
21
-92.225
0
ARC
8
0
10
288.775
20
-79.225
40
0.5
50
90
51
180
0
ARC
8
0
10
301.775
20
-79.225
40
0.5
50
0
51
90
0
ARC
8
0
10
288.775
20
-92.225
40
0.5
50
180
51
270
0
ARC
8
0
10
301.775
20
-92.225
40
0.5
50
270
51
0
0
LINE
8
0
10
312.5875
20
-78.725
11
325.5875
21
-78.725
0
LINE
8
0
10
312.5875
20
-92.725
11
325.5875
21
-92.725
0
LINE
8
0
10
312.0875
20
-79.225
11
312.0875
21
-92.225
0
LINE
8
0
10
326.0875
20
-79.225
11
326.0875
21
-92.225
0
ARC
8
0
10
312.5875
20
-79.225
40
0.5
50
90
51
180
0
ARC
8
0
10
325.5875
20
-79.225
40
0.5
50
0
51
90
0
ARC
8
0
10
312.5875
20
-92.225
40
0.5
50
180
51
270
0
ARC
8
0
10
325.5875
20
-92.225
40
0.5
50
270
51
0
0
LINE
8
0
10
0
20
-95.25
11
333.375
21
-95.25
0
LINE
8
0
10
0
20
0
11
333.375
21
0
0
LINE
8
0
10
0
20
-95.25
11
0
21
0
0
LINE
8
0
10
333.375
20
-95.25
11
333.375
21
0
0
ENDSEC
0
EOF