0
SECTION
2
HEADER
9
$INSUNITS
70
4
9
$ACADVER
1
AC1014
9
$HANDSEED
5
FFFF
0
ENDSEC
0
SECTION
2
TABLES
0
TABLE
2
VPORT
5
8
100
AcDbSymbolTable
0
ENDTAB
0
TABLE
2
LTYPE
5
5
100
AcDbSymbolTable
0
LTYPE
5
14
100
AcDbSymbolTableRecord
100
AcDbLinetypeTableRecord
2
BYBLOCK
70
0
0
LTYPE
5
15
100
AcDbSymbolTableRecord
100
AcDbLinetypeTableRecord
2
BYLAYER
70
0
0
ENDTAB
0
TABLE
2
LAYER
5
2
100
AcDbSymbolTable
70
2
0
LAYER
5
50
100
AcDbSymbolTableRecord
100
AcDbLayerTableRecord
2
0
70
0
6
CONTINUOUS
0
ENDTAB
0
TABLE
2
STYLE
5
3
100
AcDbSymbolTable
70
1
0
STYLE
5
11
100
AcDbSymbolTableRecord
100
AcDbTextStyleTableRecord
2
STANDARD
70
0
0
ENDTAB
0
TABLE
2
VIEW
5
6
100
AcDbSymbolTable
70
0
0
ENDTAB
0
TABLE
2
UCS
5
7
100
AcDbSymbolTable
70
0
0
ENDTAB
0
TABLE
2
APPID
5
9
100
AcDbSymbolTable
70
2
0
APPID
5
12
100
AcDbSymbolTableRecord
100
AcDbRegAppTableRecord
2
ACAD
70
0
0
ENDTAB
0
TABLE
2
DIMSTYLE
5
A
100
AcDbSymbolTable
70
1
0
ENDTAB
0
TABLE
2
BLOCK_RECORD
5
1
100
AcDbSymbolTable
70
1
0
BLOCK_RECORD
5
1F
100
AcDbSymbolTableRecord
100
AcDbBlockTableRecord
2
*MODEL_SPACE
0
BLOCK_RECORD
5
1B
100
AcDbSymbolTableRecord
100
AcDbBlockTableRecord
2
*PAPER_SPACE
0
ENDTAB
0
ENDSEC
0
SECTION
2
BLOCKS
0
BLOCK
5
20
100
AcDbEntity
100
AcDbBlockBegin
2
*MODEL_SPACE
0
ENDBLK
5
21
100
AcDbEntity
100
AcDbBlockEnd
0
BLOCK
5
1C
100
AcDbEntity
100
AcDbBlockBegin
2
*PAPER_SPACE
0
ENDBLK
5
1D
100
AcDbEntity
100
AcDbBlockEnd
0
ENDSEC
0
SECTION
2
ENTITIES
0
LWPOLYLINE
5
100
100
AcDbEntity
8
0
100
AcDbPolyline
90
8
70
1
43
0.0
10
21.575000000000003
20
-92.224999999999994
42
0.41421356237309503
10
22.074999999999999
20
-92.725000000000009
10
35.075000000000003
20
-92.725000000000009
42
0.41421356237309503
10
35.575000000000003
20
-92.224999999999994
10
35.575000000000003
20
-79.224999999999994
42
0.41421356237309503
10
35.075000000000003
20
-78.724999999999994
10
22.074999999999999
20
-78.724999999999994
42
0.41421356237309503
10
21.575000000000003
20
-79.224999999999994
0
LWPOLYLINE
5
101
100
AcDbEntity
8
0
100
AcDbPolyline
90
8
70
1
43
0.0
10
235.88750000000002
20
-79.224999999999994
10
235.88750000000002
20
-92.224999999999994
42
0.41421356237309503
10
236.38750000000002
20
-92.725000000000009
10
249.38749999999999
20
-92.725000000000009
42
0.41421356237309503
10
249.88749999999999
20
-92.224999999999994
10
249.88749999999999
20
-79.224999999999994
42
0.41421356237309503
10
249.38749999999999
20
-78.724999999999994
10
236.38750000000002
20
-78.724999999999994
42
0.41421356237309503
0
LWPOLYLINE
5
102
100
AcDbEntity
8
0
100
AcDbPolyline
90
8
70
1
43
0.0
10
312.08749999999998
20
-92.224999999999994
42
0.41421356237309503
10
312.58749999999998
20
-92.725000000000009
10
325.58749999999998
20
-92.725000000000009
42
0.41421356237309503
10
326.08749999999992
20
-92.224999999999994
10
326.08749999999992
20
-79.224999999999994
42
0.41421356237309503
10
325.58749999999998
20
-78.724999999999994
10
312.58749999999998
20
-78.724999999999994
42
0.41421356237309503
10
312.08749999999998
20
-79.224999999999994
0
LWPOLYLINE
5
103
100
AcDbEntity
8
0
100
AcDbPolyline
90
8
70
1
43
0.0
10
288.77499999999998
20
-78.724999999999994
10
301.77499999999998
20
-78.724999999999994
42
-0.41421356237309503
10
302.27499999999998
20
-79.224999999999994
10
302.27499999999998
20
-92.224999999999994
42
-0.41421356237309503
10
301.77499999999998
20
-92.725000000000009
10
288.77499999999998
20
-92.725000000000009
42
-0.41421356237309503
10
288.27499999999998
20
-92.224999999999994
10
288.27499999999998
20
-79.224999999999994
42
-0.41421356237309503
0
LWPOLYLINE
5
104
100
AcDbEntity
8
0
100
AcDbPolyline
90
8
70
1
43
0.0
10
264.46249999999998
20
-92.224999999999994
42
0.41421356237309503
10
264.96249999999998
20
-92.725000000000009
10
277.96249999999998
20
-92.725000000000009
42
0.41421356237309503
10
278.46250000000003
20
-92.224999999999994
10
278.46250000000003
20
-79.224999999999994
42
0.41421356237309503
10
277.96249999999998
20
-78.724999999999994
10
264.96249999999998
20
-78.724999999999994
42
0.41421356237309503
10
264.46249999999998
20
-79.224999999999994
0
LWPOLYLINE
5
105
100
AcDbEntity
8
0
100
AcDbPolyline
90
8
70
1
43
0.0
10
169.71250000000001
20
-92.724999999999994
10
182.71250000000003
20
-92.725000000000009
42
0.41421356237309503
10
183.21250000000003
20
-92.224999999999994
10
183.21250000000003
20
-79.224999999999994
42
0.41421356237309503
10
182.71250000000003
20
-78.724999999999994
10
169.71250000000001
20
-78.724999999999994
42
0.41421356237309503
10
169.21250000000001
20
-79.224999999999994
10
169.21250000000001
20
-92.224999999999994
42
0.41421356237309503
0
LWPOLYLINE
5
106
100
AcDbEntity
8
0
100
AcDbPolyline
90
8
70
1
43
0.0
10
131.11250000000001
20
-79.224999999999994
10
131.11250000000001
20
-92.224999999999994
42
0.41421356237309503
10
131.61250000000001
20
-92.724999999999994
10
144.61250000000001
20
-92.725000000000009
42
0.41421356237309503
10
145.11250000000001
20
-92.224999999999994
10
145.11250000000001
20
-79.224999999999994
42
0.41421356237309503
10
144.61250000000001
20
-78.724999999999994
10
131.61250000000001
20
-78.724999999999994
42
0.41421356237309503
0
LWPOLYLINE
5
107
100
AcDbEntity
8
0
100
AcDbPolyline
90
8
70
1
43
0.0
10
161.27449999999999
20
-94.724999999999994
10
167.27450000000002
20
-94.724999999999994
42
0.41421356237309503
10
167.77449999999999
20
-94.224999999999994
10
167.77450000000002
20
-80.224999999999994
42
0.41421356237309503
10
167.27450000000002
20
-79.724999999999994
10
161.27449999999999
20
-79.724999999999994
42
0.41421356237309503
10
160.77449999999999
20
-80.224999999999994
10
160.77449999999999
20
-94.224999999999994
42
0.41421356237309503
0
LWPOLYLINE
5
108
100
AcDbEntity
8
0
100
AcDbPolyline
90
8
70
1
43
0.0
10
79.224999999999994
20
-78.724999999999994
10
92.224999999999994
20
-78.724999999999994
42
-0.41421356237309503
10
92.724999999999994
20
-79.224999999999994
10
92.725000000000009
20
-92.224999999999994
42
-0.41421356237309503
10
92.224999999999994
20
-92.725000000000009
10
79.224999999999994
20
-92.725000000000009
42
-0.41421356237309503
10
78.724999999999994
20
-92.224999999999994
10
78.724999999999994
20
-79.224999999999994
42
-0.41421356237309503
0
LWPOLYLINE
5
109
100
AcDbEntity
8
0
100
AcDbPolyline
90
8
70
1
43
0.0
10
207.8125
20
-78.724999999999994
42
0.41421356237309503
10
207.3125
20
-79.224999999999994
10
207.3125
20
-92.224999999999994
42
0.41421356237309503
10
207.8125
20
-92.725000000000009
10
220.8125
20
-92.725000000000009
42
0.41421356237309503
10
221.3125
20
-92.224999999999994
10
221.3125
20
-79.224999999999994
42
0.41421356237309503
10
220.8125
20
-78.724999999999994
0
LWPOLYLINE
5
110
100
AcDbEntity
8
0
100
AcDbPolyline
90
8
70
1
43
0.0
10
191.15049999999999
20
-94.724999999999994
42
0.41421356237309503
10
191.65050000000002
20
-94.224999999999994
10
191.65050000000002
20
-80.224999999999994
42
0.41421356237309503
10
191.15049999999999
20
-79.724999999999994
10
185.15049999999999
20
-79.724999999999994
42
0.41421356237309503
10
184.65049999999997
20
-80.224999999999994
10
184.65049999999997
20
-94.224999999999994
42
0.41421356237309503
10
185.15049999999999
20
-94.724999999999994
0
LWPOLYLINE
5
111
100
AcDbEntity
8
0
100
AcDbPolyline
90
4
70
1
43
0.0
10
0
20
-95.25
10
0
20
0
10
333.375
20
0
10
333.375
20
-95.25
0
LWPOLYLINE
5
112
100
AcDbEntity
8
0
100
AcDbPolyline
90
8
70
1
43
0.0
10
140.34999999999999
20
-3.0249999999999999
42
0.41421356237309503
10
139.84999999999999
20
-2.5249999999999999
10
126.85000000000001
20
-2.5249999999999999
42
0.41421356237309503
10
126.34999999999999
20
-3.0249999999999999
10
126.34999999999999
20
-16.024999999999999
42
0.41421356237309503
10
126.85000000000001
20
-16.524999999999999
10
139.84999999999999
20
-16.525000000000002
42
0.41421356237309503
10
140.34999999999999
20
-16.024999999999999
0
LWPOLYLINE
5
113
100
AcDbEntity
8
0
100
AcDbPolyline
90
8
70
1
43
0.0
10
3.0249999999999999
20
-16.524999999999999
10
16.024999999999999
20
-16.525000000000002
42
0.41421356237309503
10
16.525000000000002
20
-16.024999999999999
10
16.525000000000002
20
-3.0249999999999999
42
0.41421356237309503
10
16.024999999999999
20
-2.5249999999999999
10
3.0249999999999999
20
-2.5249999999999999
42
0.41421356237309503
10
2.5249999999999999
20
-3.0249999999999999
10
2.5249999999999999
20
-16.024999999999999
42
0.41421356237309503
0
LWPOLYLINE
5
114
100
AcDbEntity
8
0
100
AcDbPolyline
90
8
70
1
43
0.0
10
22.074999999999999
20
-2.5249999999999999
10
35.075000000000003
20
-2.5250000000000017
42
-0.41421356237309503
10
35.575000000000003
20
-3.0249999999999999
10
35.575000000000003
20
-16.024999999999999
42
-0.41421356237309503
10
35.075000000000003
20
-16.525000000000002
10
22.074999999999999
20
-16.524999999999999
42
-0.41421356237309503
10
21.575000000000003
20
-16.024999999999999
10
21.575000000000003
20
-3.0249999999999999
42
-0.41421356237309503
0
LWPOLYLINE
5
115
100
AcDbEntity
8
0
100
AcDbPolyline
90
8
70
1
43
0.0
10
63.650000000000006
20
-16.525000000000002
42
0.41421356237309503
10
64.150000000000006
20
-16.024999999999999
10
64.150000000000006
20
-3.0249999999999999
42
0.41421356237309503
10
63.650000000000006
20
-2.5249999999999999
10
50.650000000000006
20
-2.5249999999999999
42
0.41421356237309503
10
50.150000000000006
20
-3.0249999999999999
10
50.150000000000006
20
-16.024999999999999
42
0.41421356237309503
10
50.650000000000006
20
-16.525000000000002
0
LWPOLYLINE
5
116
100
AcDbEntity
8
0
100
AcDbPolyline
90
8
70
1
43
0.0
10
102.25000000000001
20
-3.0249999999999999
10
102.25000000000001
20
-16.024999999999999
42
-0.41421356237309503
10
101.75
20
-16.524999999999999
10
88.75
20
-16.525000000000006
42
-0.41421356237309503
10
88.250000000000014
20
-16.024999999999999
10
88.25
20
-3.0249999999999999
42
-0.41421356237309503
10
88.75
20
-2.5249999999999999
10
101.75
20
-2.5249999999999928
42
-0.41421356237309503
0
LWPOLYLINE
5
117
100
AcDbEntity
8
0
100
AcDbPolyline
90
8
70
1
43
0.0
10
83.200000000000003
20
-3.0249999999999999
10
83.200000000000017
20
-16.024999999999999
42
-0.41421356237309503
10
82.700000000000017
20
-16.525000000000002
10
69.700000000000003
20
-16.524999999999999
42
-0.41421356237309503
10
69.200000000000003
20
-16.024999999999999
10
69.200000000000003
20
-3.0249999999999999
42
-0.41421356237309503
10
69.700000000000003
20
-2.5249999999999999
10
82.700000000000017
20
-2.5249999999999928
42
-0.41421356237309503
0
LWPOLYLINE
5
118
100
AcDbEntity
8
0
100
AcDbPolyline
90
8
70
1
43
0.0
10
145.40000000000001
20
-3.0249999999999999
10
145.40000000000001
20
-16.024999999999999
42
0.41421356237309503
10
145.90000000000001
20
-16.525000000000002
10
158.90000000000001
20
-16.525000000000002
42
0.41421356237309503
10
159.40000000000001
20
-16.024999999999999
10
159.40000000000001
20
-3.0249999999999999
42
0.41421356237309503
10
158.90000000000001
20
-2.5249999999999999
10
145.90000000000001
20
-2.5249999999999999
42
0.41421356237309503
0
LWPOLYLINE
5
119
100
AcDbEntity
8
0
100
AcDbPolyline
90
8
70
1
43
0.0
10
107.30000000000001
20
-16.024999999999999
42
0.41421356237309503
10
107.80000000000001
20
-16.525000000000002
10
120.8
20
-16.525000000000002
42
0.41421356237309503
10
121.30000000000001
20
-16.024999999999999
10
121.30000000000001
20
-3.0249999999999999
42
0.41421356237309503
10
120.8
20
-2.5249999999999999
10
107.80000000000001
20
-2.5249999999999999
42
0.41421356237309503
10
107.30000000000001
20
-3.0249999999999999
0
LWPOLYLINE
5
120
100
AcDbEntity
8
0
100
AcDbPolyline
90
8
70
1
43
0.0
10
164.95000000000002
20
-2.5249999999999999
42
0.41421356237309503
10
164.44999999999999
20
-3.0249999999999999
10
164.44999999999999
20
-16.024999999999999
42
0.41421356237309503
10
164.95000000000002
20
-16.524999999999999
10
177.94999999999999
20
-16.525000000000002
42
0.41421356237309503
10
178.44999999999999
20
-16.024999999999999
10
178.44999999999999
20
-3.0249999999999999
42
0.41421356237309503
10
177.94999999999999
20
-2.5249999999999999
0
LWPOLYLINE
5
121
100
AcDbEntity
8
0
100
AcDbPolyline
90
8
70
1
43
0.0
10
273.69999999999999
20
-3.0249999999999999
42
0.41421356237309503
10
273.19999999999999
20
-2.5249999999999999
10
260.19999999999999
20
-2.5249999999999999
42
0.41421356237309503
10
259.69999999999999
20
-3.0249999999999999
10
259.69999999999999
20
-16.024999999999999
42
0.41421356237309503
10
260.19999999999999
20
-16.525000000000002
10
273.19999999999999
20
-16.525000000000002
42
0.41421356237309503
10
273.69999999999999
20
-16.024999999999999
0
LWPOLYLINE
5
122
100
AcDbEntity
8
0
100
AcDbPolyline
90
8
70
1
43
0.0
10
203.05000000000004
20
-2.5249999999999999
42
0.41421356237309503
10
202.55000000000001
20
-3.0249999999999999
10
202.55000000000001
20
-16.024999999999999
42
0.41421356237309503
10
203.05000000000004
20
-16.524999999999999
10
216.05000000000004
20
-16.525000000000002
42
0.41421356237309503
10
216.55000000000001
20
-16.024999999999999
10
216.55000000000004
20
-3.0249999999999999
42
0.41421356237309503
10
216.05000000000004
20
-2.5249999999999999
0
LWPOLYLINE
5
123
100
AcDbEntity
8
0
100
AcDbPolyline
90
8
70
1
43
0.0
10
292.75
20
-3.0249999999999999
42
0.41421356237309503
10
292.25
20
-2.5249999999999999
10
279.25
20
-2.5249999999999999
42
0.41421356237309503
10
278.75
20
-3.0249999999999999
10
278.75
20
-16.024999999999999
42
0.41421356237309503
10
279.25
20
-16.525000000000002
10
292.25
20
-16.525000000000002
42
0.41421356237309503
10
292.75
20
-16.024999999999999
0
LWPOLYLINE
5
124
100
AcDbEntity
8
0
100
AcDbPolyline
90
8
70
1
43
0.0
10
254.65000000000003
20
-3.0249999999999999
42
0.41421356237309503
10
254.15000000000003
20
-2.5249999999999999
10
241.15000000000003
20
-2.5249999999999999
42
0.41421356237309503
10
240.65000000000001
20
-3.0249999999999999
10
240.65000000000001
20
-16.024999999999999
42
0.41421356237309503
10
241.15000000000003
20
-16.525000000000002
10
254.15000000000003
20
-16.525000000000002
42
0.41421356237309503
10
254.65000000000003
20
-16.024999999999999
0
LWPOLYLINE
5
125
100
AcDbEntity
8
0
100
AcDbPolyline
90
8
70
1
43
0.0
10
311.80000000000001
20
-3.0249999999999999
10
311.80000000000001
20
-16.024999999999999
42
-0.41421356237309503
10
311.30000000000001
20
-16.524999999999999
10
298.30000000000001
20
-16.525000000000006
42
-0.41421356237309503
10
297.80000000000001
20
-16.024999999999999
10
297.80000000000001
20
-3.0249999999999999
42
-0.41421356237309503
10
298.30000000000001
20
-2.5249999999999999
10
311.30000000000001
20
-2.5249999999999928
42
-0.41421356237309503
0
LWPOLYLINE
5
126
100
AcDbEntity
8
0
100
AcDbPolyline
90
8
70
1
43
0.0
10
222.10000000000002
20
-2.5249999999999999
10
235.10000000000002
20
-2.5249999999999928
42
-0.41421356237309503
10
235.60000000000002
20
-3.0249999999999999
10
235.60000000000002
20
-16.024999999999999
42
-0.41421356237309503
10
235.10000000000002
20
-16.525000000000002
10
222.10000000000002
20
-16.525000000000006
42
-0.41421356237309503
10
221.59999999999999
20
-16.024999999999999
10
221.59999999999999
20
-3.0249999999999999
42
-0.41421356237309503
0
LWPOLYLINE
5
127
100
AcDbEntity
8
0
100
AcDbPolyline
90
8
70
1
43
0.0
10
184.00000000000003
20
-2.5249999999999999
42
0.41421356237309503
10
183.5
20
-3.0249999999999999
10
183.5
20
-16.024999999999999
42
0.41421356237309503
10
184.00000000000003
20
-16.524999999999999
10
197.00000000000003
20
-16.525000000000002
42
0.41421356237309503
10
197.50000000000003
20
-16.024999999999999
10
197.50000000000003
20
-3.0249999999999999
42
0.41421356237309503
10
197.00000000000003
20
-2.5249999999999999
0
LWPOLYLINE
5
128
100
AcDbEntity
8
0
100
AcDbPolyline
90
8
70
1
43
0.0
10
68.912499999999994
20
-22.074999999999999
10
68.912499999999994
20
-35.075000000000003
42
-0.41421356237309503
10
68.412499999999994
20
-35.575000000000003
10
55.412500000000009
20
-35.575000000000003
42
-0.41421356237309503
10
54.912500000000009
20
-35.075000000000003
10
54.912500000000009
20
-22.074999999999999
42
-0.41421356237309503
10
55.412500000000009
20
-21.575000000000003
10
68.412499999999994
20
-21.575000000000003
42
-0.41421356237309503
0
LWPOLYLINE
5
129
100
AcDbEntity
8
0
100
AcDbPolyline
90
8
70
1
43
0.0
10
116.82500000000002
20
-35.075000000000003
42
0.41421356237309503
10
117.32500000000002
20
-35.575000000000003
10
130.32499999999999
20
-35.575000000000003
42
0.41421356237309503
10
130.82499999999999
20
-35.075000000000003
10
130.82499999999999
20
-22.074999999999999
42
0.41421356237309503
10
130.32499999999999
20
-21.575000000000003
10
117.32500000000002
20
-21.575000000000003
42
0.41421356237309503
10
116.82500000000002
20
-22.074999999999999
0
LWPOLYLINE
5
130
100
AcDbEntity
8
0
100
AcDbPolyline
90
8
70
1
43
0.0
10
136.375
20
-35.575000000000003
10
149.375
20
-35.575000000000003
42
0.41421356237309503
10
149.875
20
-35.075000000000003
10
149.875
20
-22.074999999999999
42
0.41421356237309503
10
149.375
20
-21.575000000000003
10
136.375
20
-21.575000000000003
42
0.41421356237309503
10
135.875
20
-22.074999999999999
10
135.875
20
-35.075000000000003
42
0.41421356237309503
0
LWPOLYLINE
5
131
100
AcDbEntity
8
0
100
AcDbPolyline
90
8
70
1
43
0.0
10
2.5249999999999999
20
-22.074999999999999
10
2.5249999999999999
20
-35.075000000000003
42
0.41421356237309503
10
3.0249999999999999
20
-35.575000000000003
10
16.024999999999999
20
-35.575000000000003
42
0.41421356237309503
10
16.525000000000002
20
-35.075000000000003
10
16.525000000000002
20
-22.074999999999999
42
0.41421356237309503
10
16.024999999999999
20
-21.575000000000003
10
3.0249999999999999
20
-21.575000000000003
42
0.41421356237309503
0
LWPOLYLINE
5
132
100
AcDbEntity
8
0
100
AcDbPolyline
90
8
70
1
43
0.0
10
22.074999999999999
20
-21.575000000000003
10
35.075000000000003
20
-21.575000000000003
42
-0.41421356237309503
10
35.575000000000003
20
-22.074999999999999
10
35.575000000000003
20
-35.075000000000003
42
-0.41421356237309503
10
35.075000000000003
20
-35.575000000000003
10
22.074999999999999
20
-35.575000000000003
42
-0.41421356237309503
10
21.575000000000003
20
-35.075000000000003
10
21.575000000000003
20
-22.074999999999999
42
-0.41421356237309503
0
LWPOLYLINE
5
133
100
AcDbEntity
8
0
100
AcDbPolyline
90
8
70
1
43
0.0
10
283.22500000000002
20
-22.074999999999999
42
0.41421356237309503
10
282.72500000000002
20
-21.575000000000003
10
269.72500000000002
20
-21.575000000000003
42
0.41421356237309503
10
269.22500000000002
20
-22.074999999999999
10
269.22500000000002
20
-35.075000000000003
42
0.41421356237309503
10
269.72500000000002
20
-35.575000000000003
10
282.72500000000002
20
-35.575000000000003
42
0.41421356237309503
10
283.22500000000002
20
-35.075000000000003
0
LWPOLYLINE
5
134
100
AcDbEntity
8
0
100
AcDbPolyline
90
8
70
1
43
0.0
10
174.47500000000002
20
-21.575000000000003
10
187.47499999999999
20
-21.574999999999992
42
-0.41421356237309503
10
187.97499999999999
20
-22.074999999999999
10
187.97499999999999
20
-35.075000000000003
42
-0.41421356237309503
10
187.47499999999999
20
-35.575000000000003
10
174.47500000000002
20
-35.57500000000001
42
-0.41421356237309503
10
173.97500000000002
20
-35.075000000000003
10
173.97500000000002
20
-22.074999999999999
42
-0.41421356237309503
0
LWPOLYLINE
5
135
100
AcDbEntity
8
0
100
AcDbPolyline
90
8
70
1
43
0.0
10
97.77500000000002
20
-22.074999999999999
10
97.775000000000006
20
-35.075000000000003
42
0.41421356237309503
10
98.275000000000006
20
-35.575000000000003
10
111.27500000000001
20
-35.575000000000003
42
0.41421356237309503
10
111.77500000000002
20
-35.075000000000003
10
111.77500000000002
20
-22.074999999999999
42
0.41421356237309503
10
111.27500000000001
20
-21.575000000000003
10
98.275000000000006
20
-21.575000000000003
42
0.41421356237309503
0
LWPOLYLINE
5
136
100
AcDbEntity
8
0
100
AcDbPolyline
90
8
70
1
43
0.0
10
212.57499999999999
20
-35.575000000000003
10
225.57500000000002
20
-35.575000000000003
42
0.41421356237309503
10
226.07500000000002
20
-35.075000000000003
10
226.07500000000002
20
-22.074999999999999
42
0.41421356237309503
10
225.57500000000002
20
-21.575000000000003
10
212.57499999999999
20
-21.575000000000003
42
0.41421356237309503
10
212.07499999999999
20
-22.074999999999999
10
212.07499999999999
20
-35.075000000000003
42
0.41421356237309503
0
LWPOLYLINE
5
137
100
AcDbEntity
8
0
100
AcDbPolyline
90
8
70
1
43
0.0
10
92.724999999999994
20
-22.074999999999999
10
92.725000000000009
20
-35.075000000000003
42
-0.41421356237309503
10
92.224999999999994
20
-35.575000000000003
10
79.224999999999994
20
-35.575000000000003
42
-0.41421356237309503
10
78.724999999999994
20
-35.075000000000003
10
78.724999999999994
20
-22.074999999999999
42
-0.41421356237309503
10
79.224999999999994
20
-21.575000000000003
10
92.224999999999994
20
-21.574999999999992
42
-0.41421356237309503
0
LWPOLYLINE
5
138
100
AcDbEntity
8
0
100
AcDbPolyline
90
8
70
1
43
0.0
10
231.625
20
-21.575000000000003
42
0.41421356237309503
10
231.125
20
-22.074999999999999
10
231.125
20
-35.075000000000003
42
0.41421356237309503
10
231.625
20
-35.575000000000003
10
244.62500000000003
20
-35.575000000000003
42
0.41421356237309503
10
245.12500000000003
20
-35.075000000000003
10
245.12500000000003
20
-22.074999999999999
42
0.41421356237309503
10
244.62500000000003
20
-21.575000000000003
0
LWPOLYLINE
5
139
100
AcDbEntity
8
0
100
AcDbPolyline
90
8
70
1
43
0.0
10
316.85000000000002
20
-3.0249999999999999
10
316.85000000000002
20
-16.024999999999999
42
0.41421356237309503
10
317.35000000000002
20
-16.524999999999999
10
330.35000000000002
20
-16.525000000000002
42
0.41421356237309503
10
330.85000000000002
20
-16.024999999999999
10
330.85000000000002
20
-3.0249999999999999
42
0.41421356237309503
10
330.35000000000002
20
-2.5249999999999999
10
317.35000000000002
20
-2.5249999999999999
42
0.41421356237309503
0
LWPOLYLINE
5
140
100
AcDbEntity
8
0
100
AcDbPolyline
90
8
70
1
43
0.0
10
288.77499999999998
20
-21.575000000000003
10
301.77499999999998
20
-21.574999999999992
42
-0.41421356237309503
10
302.27499999999998
20
-22.074999999999999
10
302.27499999999998
20
-35.075000000000003
42
-0.41421356237309503
10
301.77499999999998
20
-35.575000000000003
10
288.77499999999998
20
-35.57500000000001
42
-0.41421356237309503
10
288.27499999999998
20
-35.075000000000003
10
288.27499999999998
20
-22.074999999999999
42
-0.41421356237309503
0
LWPOLYLINE
5
141
100
AcDbEntity
8
0
100
AcDbPolyline
90
8
70
1
43
0.0
10
263.67500000000001
20
-35.575000000000003
42
0.41421356237309503
10
264.17500000000007
20
-35.075000000000003
10
264.17500000000007
20
-22.074999999999999
42
0.41421356237309503
10
263.67500000000001
20
-21.575000000000003
10
250.67500000000001
20
-21.575000000000003
42
0.41421356237309503
10
250.17500000000001
20
-22.074999999999999
10
250.17500000000001
20
-35.075000000000003
42
0.41421356237309503
10
250.67500000000001
20
-35.575000000000003
0
LWPOLYLINE
5
142
100
AcDbEntity
8
0
100
AcDbPolyline
90
8
70
1
43
0.0
10
206.52500000000003
20
-35.575000000000003
42
0.41421356237309503
10
207.02500000000003
20
-35.075000000000003
10
207.02500000000003
20
-22.074999999999999
42
0.41421356237309503
10
206.52500000000003
20
-21.575000000000003
10
193.52500000000003
20
-21.575000000000003
42
0.41421356237309503
10
193.02500000000003
20
-22.074999999999999
10
193.02500000000003
20
-35.075000000000003
42
0.41421356237309503
10
193.52500000000003
20
-35.575000000000003
0
LWPOLYLINE
5
143
100
AcDbEntity
8
0
100
AcDbPolyline
90
8
70
1
43
0.0
10
168.92500000000001
20
-22.074999999999999
10
168.92500000000001
20
-35.075000000000003
42
-0.41421356237309503
10
168.42500000000001
20
-35.575000000000003
10
155.42500000000001
20
-35.57500000000001
42
-0.41421356237309503
10
154.92500000000001
20
-35.075000000000003
10
154.92500000000004
20
-22.074999999999999
42
-0.41421356237309503
10
155.42500000000001
20
-21.575000000000003
10
168.42500000000001
20
-21.574999999999992
42
-0.41421356237309503
0
LWPOLYLINE
5
144
100
AcDbEntity
8
0
100
AcDbPolyline
90
8
70
1
43
0.0
10
35.575000000000003
20
-41.125
10
35.575000000000003
20
-54.125000000000007
42
-0.41421356237309503
10
35.075000000000003
20
-54.625
10
22.074999999999999
20
-54.625
42
-0.41421356237309503
10
21.575000000000003
20
-54.125000000000007
10
21.575000000000003
20
-41.125
42
-0.41421356237309503
10
22.074999999999999
20
-40.625
10
35.075000000000003
20
-40.625
42
-0.41421356237309503
0
LWPOLYLINE
5
145
100
AcDbEntity
8
0
100
AcDbPolyline
90
8
70
1
43
0.0
10
16.525000000000002
20
-41.125
42
0.41421356237309503
10
16.024999999999999
20
-40.625
10
3.0249999999999999
20
-40.625
42
0.41421356237309503
10
2.5249999999999999
20
-41.125
10
2.5249999999999999
20
-54.125000000000007
42
0.41421356237309503
10
3.0249999999999999
20
-54.625
10
16.024999999999999
20
-54.625
42
0.41421356237309503
10
16.525000000000002
20
-54.125000000000007
0
LWPOLYLINE
5
146
100
AcDbEntity
8
0
100
AcDbPolyline
90
8
70
1
43
0.0
10
57.29375000000001
20
-41.125
10
57.29375000000001
20
-54.125000000000007
42
0.41421356237309503
10
57.79375000000001
20
-54.625
10
70.793750000000003
20
-54.625
42
0.41421356237309503
10
71.293750000000003
20
-54.125000000000007
10
71.293750000000003
20
-41.125
42
0.41421356237309503
10
70.793750000000003
20
-40.625
10
57.79375000000001
20
-40.625
42
0.41421356237309503
0
LWPOLYLINE
5
147
100
AcDbEntity
8
0
100
AcDbPolyline
90
8
70
1
43
0.0
10
83.987499999999997
20
-40.625
10
96.987500000000011
20
-40.624999999999993
42
-0.41421356237309503
10
97.487500000000011
20
-41.125
10
97.487500000000011
20
-54.125000000000007
42
-0.41421356237309503
10
96.987500000000011
20
-54.625
10
83.987499999999997
20
-54.625000000000014
42
-0.41421356237309503
10
83.487499999999983
20
-54.125000000000007
10
83.487499999999983
20
-41.125
42
-0.41421356237309503
0
LWPOLYLINE
5
148
100
AcDbEntity
8
0
100
AcDbPolyline
90
8
70
1
43
0.0
10
291.15625
20
-59.675000000000004
10
304.15625
20
-59.674999999999997
42
-0.41421356237309503
10
304.65625
20
-60.174999999999997
10
304.65625
20
-73.174999999999997
42
-0.41421356237309503
10
304.15625
20
-73.674999999999997
10
291.15625
20
-73.675000000000011
42
-0.41421356237309503
10
290.65625
20
-73.174999999999997
10
290.65625
20
-60.174999999999997
42
-0.41421356237309503
0
LWPOLYLINE
5
149
100
AcDbEntity
8
0
100
AcDbPolyline
90
8
70
1
43
0.0
10
220.8125
20
-73.674999999999997
42
0.41421356237309503
10
221.3125
20
-73.174999999999997
10
221.3125
20
-60.174999999999997
42
0.41421356237309503
10
220.8125
20
-59.675000000000004
10
207.8125
20
-59.675000000000004
42
0.41421356237309503
10
207.3125
20
-60.174999999999997
10
207.3125
20
-73.174999999999997
42
0.41421356237309503
10
207.8125
20
-73.674999999999997
0
LWPOLYLINE
5
150
100
AcDbEntity
8
0
100
AcDbPolyline
90
8
70
1
43
0.0
10
3.0249999999999999
20
-92.724999999999994
10
16.024999999999999
20
-92.725000000000009
42
0.41421356237309503
10
16.524999999999999
20
-92.224999999999994
10
16.525000000000002
20
-79.224999999999994
42
0.41421356237309503
10
16.024999999999999
20
-78.724999999999994
10
3.0249999999999999
20
-78.724999999999994
42
0.41421356237309503
10
2.5249999999999999
20
-79.224999999999994
10
2.5249999999999999
20
-92.224999999999994
42
0.41421356237309503
0
LWPOLYLINE
5
151
100
AcDbEntity
8
0
100
AcDbPolyline
90
8
70
1
43
0.0
10
330.35000000000002
20
-73.674999999999997
42
0.41421356237309503
10
330.85000000000002
20
-73.174999999999997
10
330.85000000000002
20
-60.174999999999997
42
0.41421356237309503
10
330.35000000000002
20
-59.675000000000004
10
317.35000000000002
20
-59.675000000000004
42
0.41421356237309503
10
316.85000000000002
20
-60.174999999999997
10
316.85000000000002
20
-73.174999999999997
42
0.41421356237309503
10
317.35000000000002
20
-73.674999999999997
0
LWPOLYLINE
5
152
100
AcDbEntity
8
0
100
AcDbPolyline
90
8
70
1
43
0.0
10
226.86250000000001
20
-59.675000000000004
42
0.41421356237309503
10
226.36250000000001
20
-60.174999999999997
10
226.36250000000001
20
-73.174999999999997
42
0.41421356237309503
10
226.86250000000001
20
-73.674999999999997
10
239.86250000000001
20
-73.674999999999997
42
0.41421356237309503
10
240.36250000000001
20
-73.174999999999997
10
240.36250000000001
20
-60.174999999999997
42
0.41421356237309503
10
239.86250000000001
20
-59.675000000000004
0
LWPOLYLINE
5
153
100
AcDbEntity
8
0
100
AcDbPolyline
90
8
70
1
43
0.0
10
93.012500000000017
20
-60.174999999999997
10
93.012499999999989
20
-73.174999999999997
42
0.41421356237309503
10
93.512500000000003
20
-73.674999999999997
10
106.51250000000002
20
-73.674999999999997
42
0.41421356237309503
10
107.01250000000002
20
-73.174999999999997
10
107.01250000000002
20
-60.174999999999997
42
0.41421356237309503
10
106.51250000000002
20
-59.675000000000004
10
93.512500000000003
20
-59.675000000000004
42
0.41421356237309503
0
LWPOLYLINE
5
154
100
AcDbEntity
8
0
100
AcDbPolyline
90
8
70
1
43
0.0
10
264.46249999999998
20
-73.174999999999997
42
0.41421356237309503
10
264.96249999999998
20
-73.674999999999997
10
277.96249999999998
20
-73.674999999999997
42
0.41421356237309503
10
278.46249999999998
20
-73.174999999999997
10
278.46250000000003
20
-60.174999999999997
42
0.41421356237309503
10
277.96249999999998
20
-59.675000000000004
10
264.96249999999998
20
-59.675000000000004
42
0.41421356237309503
10
264.46249999999998
20
-60.174999999999997
0
LWPOLYLINE
5
155
100
AcDbEntity
8
0
100
AcDbPolyline
90
8
70
1
43
0.0
10
169.71250000000001
20
-73.674999999999997
10
182.71250000000003
20
-73.674999999999997
42
0.41421356237309503
10
183.21250000000003
20
-73.174999999999997
10
183.21250000000003
20
-60.174999999999997
42
0.41421356237309503
10
182.71250000000003
20
-59.675000000000004
10
169.71250000000001
20
-59.675000000000004
42
0.41421356237309503
10
169.21250000000001
20
-60.174999999999997
10
169.21250000000001
20
-73.174999999999997
42
0.41421356237309503
0
LWPOLYLINE
5
156
100
AcDbEntity
8
0
100
AcDbPolyline
90
8
70
1
43
0.0
10
188.76249999999999
20
-59.675000000000004
10
201.76249999999999
20
-59.674999999999997
42
-0.41421356237309503
10
202.26249999999999
20
-60.174999999999997
10
202.26249999999999
20
-73.174999999999997
42
-0.41421356237309503
10
201.76249999999999
20
-73.674999999999997
10
188.76249999999999
20
-73.675000000000011
42
-0.41421356237309503
10
188.26249999999999
20
-73.174999999999997
10
188.26249999999999
20
-60.174999999999997
42
-0.41421356237309503
0
LWPOLYLINE
5
157
100
AcDbEntity
8
0
100
AcDbPolyline
90
8
70
1
43
0.0
10
245.91250000000002
20
-73.674999999999997
10
258.91250000000002
20
-73.674999999999997
42
0.41421356237309503
10
259.41250000000002
20
-73.174999999999997
10
259.41250000000002
20
-60.174999999999997
42
0.41421356237309503
10
258.91250000000002
20
-59.675000000000004
10
245.91250000000002
20
-59.675000000000004
42
0.41421356237309503
10
245.41250000000002
20
-60.174999999999997
10
245.41250000000002
20
-73.174999999999997
42
0.41421356237309503
0
LWPOLYLINE
5
158
100
AcDbEntity
8
0
100
AcDbPolyline
90
8
70
1
43
0.0
10
102.53749999999999
20
-92.224999999999994
42
0.41421356237309503
10
103.03750000000001
20
-92.725000000000009
10
116.03749999999999
20
-92.725000000000009
42
0.41421356237309503
10
116.53750000000001
20
-92.224999999999994
10
116.53750000000001
20
-79.224999999999994
42
0.41421356237309503
10
116.03749999999999
20
-78.724999999999994
10
103.03750000000001
20
-78.724999999999994
42
0.41421356237309503
10
102.53749999999999
20
-79.224999999999994
0
LWPOLYLINE
5
159
100
AcDbEntity
8
0
100
AcDbPolyline
90
8
70
1
43
0.0
10
55.412500000000009
20
-78.724999999999994
10
68.412499999999994
20
-78.724999999999994
42
-0.41421356237309503
10
68.912499999999994
20
-79.224999999999994
10
68.912500000000009
20
-92.224999999999994
42
-0.41421356237309503
10
68.412499999999994
20
-92.724999999999994
10
55.412500000000009
20
-92.725000000000009
42
-0.41421356237309503
10
54.912500000000009
20
-92.224999999999994
10
54.912500000000009
20
-79.224999999999994
42
-0.41421356237309503
0
LWPOLYLINE
5
160
100
AcDbEntity
8
0
100
AcDbPolyline
90
8
70
1
43
0.0
10
102.53749999999999
20
-41.125
10
102.53749999999999
20
-54.125000000000007
42
0.41421356237309503
10
103.03750000000001
20
-54.625
10
116.03749999999999
20
-54.625
42
0.41421356237309503
10
116.53750000000001
20
-54.125000000000007
10
116.53750000000001
20
-41.125
42
0.41421356237309503
10
116.03749999999999
20
-40.625
10
103.03750000000001
20
-40.625
42
0.41421356237309503
0
LWPOLYLINE
5
161
100
AcDbEntity
8
0
100
AcDbPolyline
90
8
70
1
43
0.0
10
173.68750000000003
20
-41.125
42
0.41421356237309503
10
173.1875
20
-40.625
10
160.1875
20
-40.625
42
0.41421356237309503
10
159.6875
20
-41.125
10
159.6875
20
-54.125000000000007
42
0.41421356237309503
10
160.1875
20
-54.625
10
173.1875
20
-54.625
42
0.41421356237309503
10
173.68750000000003
20
-54.125000000000007
0
LWPOLYLINE
5
162
100
AcDbEntity
8
0
100
AcDbPolyline
90
8
70
1
43
0.0
10
306.53750000000002
20
-54.625
42
0.41421356237309503
10
307.03750000000002
20
-54.125000000000007
10
307.03750000000002
20
-41.125
42
0.41421356237309503
10
306.53750000000002
20
-40.625
10
293.53750000000002
20
-40.625
42
0.41421356237309503
10
293.03750000000002
20
-41.125
10
293.03750000000002
20
-54.125000000000007
42
0.41421356237309503
10
293.53750000000002
20
-54.625
0
LWPOLYLINE
5
163
100
AcDbEntity
8
0
100
AcDbPolyline
90
8
70
1
43
0.0
10
154.13749999999999
20
-54.625
42
0.41421356237309503
10
154.63750000000002
20
-54.125000000000007
10
154.63750000000002
20
-41.125
42
0.41421356237309503
10
154.13749999999999
20
-40.625
10
141.13749999999999
20
-40.625
42
0.41421356237309503
10
140.63749999999999
20
-41.125
10
140.63749999999999
20
-54.125000000000007
42
0.41421356237309503
10
141.13749999999999
20
-54.625
0
LWPOLYLINE
5
164
100
AcDbEntity
8
0
100
AcDbPolyline
90
8
70
1
43
0.0
10
217.33750000000001
20
-40.625
42
0.41421356237309503
10
216.83750000000001
20
-41.125
10
216.83750000000001
20
-54.125000000000007
42
0.41421356237309503
10
217.33750000000001
20
-54.625
10
230.33750000000001
20
-54.625
42
0.41421356237309503
10
230.83750000000003
20
-54.125000000000007
10
230.83750000000003
20
-41.125
42
0.41421356237309503
10
230.33750000000001
20
-40.625
0
LWPOLYLINE
5
165
100
AcDbEntity
8
0
100
AcDbPolyline
90
8
70
1
43
0.0
10
268.9375
20
-41.125
10
268.9375
20
-54.125000000000007
42
-0.41421356237309503
10
268.4375
20
-54.625
10
255.43750000000003
20
-54.625000000000014
42
-0.41421356237309503
10
254.93750000000003
20
-54.125000000000007
10
254.93750000000003
20
-41.125
42
-0.41421356237309503
10
255.43750000000003
20
-40.625
10
268.4375
20
-40.624999999999993
42
-0.41421356237309503
0
LWPOLYLINE
5
166
100
AcDbEntity
8
0
100
AcDbPolyline
90
8
70
1
43
0.0
10
236.38750000000002
20
-40.625
10
249.38749999999999
20
-40.624999999999993
42
-0.41421356237309503
10
249.88749999999999
20
-41.125
10
249.88749999999999
20
-54.125000000000007
42
-0.41421356237309503
10
249.38749999999999
20
-54.625
10
236.38750000000002
20
-54.625000000000014
42
-0.41421356237309503
10
235.88750000000002
20
-54.125000000000007
10
235.88750000000002
20
-41.125
42
-0.41421356237309503
0
LWPOLYLINE
5
167
100
AcDbEntity
8
0
100
AcDbPolyline
90
8
70
1
43
0.0
10
122.08750000000002
20
-54.625
10
135.08750000000001
20
-54.625
42
0.41421356237309503
10
135.58750000000001
20
-54.125000000000007
10
135.58750000000001
20
-41.125
42
0.41421356237309503
10
135.08750000000001
20
-40.625
10
122.08750000000002
20
-40.625
42
0.41421356237309503
10
121.58750000000001
20
-41.125
10
121.58750000000001
20
-54.125000000000007
42
0.41421356237309503
0
LWPOLYLINE
5
168
100
AcDbEntity
8
0
100
AcDbPolyline
90
8
70
1
43
0.0
10
179.23750000000001
20
-40.625
42
0.41421356237309503
10
178.73750000000001
20
-41.125
10
178.73750000000001
20
-54.125000000000007
42
0.41421356237309503
10
179.23750000000001
20
-54.625
10
192.23750000000001
20
-54.625
42
0.41421356237309503
10
192.73750000000004
20
-54.125000000000007
10
192.73750000000004
20
-41.125
42
0.41421356237309503
10
192.23750000000001
20
-40.625
0
LWPOLYLINE
5
169
100
AcDbEntity
8
0
100
AcDbPolyline
90
8
70
1
43
0.0
10
198.28749999999999
20
-40.625
10
211.28749999999999
20
-40.624999999999993
42
-0.41421356237309503
10
211.78750000000002
20
-41.125
10
211.78750000000002
20
-54.125000000000007
42
-0.41421356237309503
10
211.28749999999999
20
-54.625
10
198.28749999999999
20
-54.625000000000014
42
-0.41421356237309503
10
197.78750000000002
20
-54.125000000000007
10
197.78749999999999
20
-41.125
42
-0.41421356237309503
0
LWPOLYLINE
5
170
100
AcDbEntity
8
0
100
AcDbPolyline
90
8
70
1
43
0.0
10
2.5249999999999999
20
-60.174999999999997
10
2.5249999999999999
20
-73.174999999999997
42
0.41421356237309503
10
3.0249999999999999
20
-73.674999999999997
10
16.024999999999999
20
-73.674999999999997
42
0.41421356237309503
10
16.524999999999999
20
-73.174999999999997
10
16.525000000000002
20
-60.174999999999997
42
0.41421356237309503
10
16.024999999999999
20
-59.675000000000004
10
3.0249999999999999
20
-59.675000000000004
42
0.41421356237309503
0
LWPOLYLINE
5
171
100
AcDbEntity
8
0
100
AcDbPolyline
90
8
70
1
43
0.0
10
22.074999999999999
20
-59.675000000000004
10
35.075000000000003
20
-59.675000000000004
42
-0.41421356237309503
10
35.575000000000003
20
-60.174999999999997
10
35.575000000000003
20
-73.174999999999997
42
-0.41421356237309503
10
35.075000000000003
20
-73.674999999999997
10
22.074999999999999
20
-73.674999999999997
42
-0.41421356237309503
10
21.575000000000003
20
-73.174999999999997
10
21.575000000000003
20
-60.174999999999997
42
-0.41421356237309503
0
LWPOLYLINE
5
172
100
AcDbEntity
8
0
100
AcDbPolyline
90
8
70
1
43
0.0
10
77.994249999999994
20
-60.674999999999997
10
83.994249999999994
20
-60.67499999999999
42
-0.41421356237309503
10
84.494249999999994
20
-61.174999999999997
10
84.49424999999998
20
-75.174999999999997
42
-0.41421356237309503
10
83.994249999999994
20
-75.674999999999997
10
77.994249999999994
20
-75.674999999999997
42
-0.41421356237309503
10
77.494249999999994
20
-75.174999999999997
10
77.494249999999994
20
-61.174999999999997
42
-0.41421356237309503
0
LWPOLYLINE
5
173
100
AcDbEntity
8
0
100
AcDbPolyline
90
8
70
1
43
0.0
10
76.056250000000006
20
-60.174999999999997
42
0.41421356237309503
10
75.556250000000006
20
-59.675000000000004
10
62.556250000000006
20
-59.675000000000004
42
0.41421356237309503
10
62.056250000000006
20
-60.174999999999997
10
62.056250000000006
20
-73.174999999999997
42
0.41421356237309503
10
62.556250000000006
20
-73.674999999999997
10
75.556250000000006
20
-73.674999999999997
42
0.41421356237309503
10
76.056250000000006
20
-73.174999999999997
0
LWPOLYLINE
5
174
100
AcDbEntity
8
0
100
AcDbPolyline
90
8
70
1
43
0.0
10
273.98750000000001
20
-41.125
10
273.98750000000001
20
-54.125000000000007
42
0.41421356237309503
10
274.48750000000007
20
-54.625
10
287.48750000000001
20
-54.625
42
0.41421356237309503
10
287.98750000000001
20
-54.125000000000007
10
287.98750000000001
20
-41.125
42
0.41421356237309503
10
287.48750000000001
20
-40.625
10
274.48750000000007
20
-40.625
42
0.41421356237309503
0
LWPOLYLINE
5
175
100
AcDbEntity
8
0
100
AcDbPolyline
90
8
70
1
43
0.0
10
112.0625
20
-60.174999999999997
10
112.0625
20
-73.174999999999997
42
0.41421356237309503
10
112.56250000000001
20
-73.674999999999997
10
125.5625
20
-73.674999999999997
42
0.41421356237309503
10
126.06250000000001
20
-73.174999999999997
10
126.06250000000001
20
-60.174999999999997
42
0.41421356237309503
10
125.5625
20
-59.675000000000004
10
112.56250000000001
20
-59.675000000000004
42
0.41421356237309503
0
LWPOLYLINE
5
176
100
AcDbEntity
8
0
100
AcDbPolyline
90
8
70
1
43
0.0
10
131.61250000000001
20
-59.675000000000004
42
0.41421356237309503
10
131.11250000000001
20
-60.174999999999997
10
131.11250000000001
20
-73.174999999999997
42
0.41421356237309503
10
131.61250000000001
20
-73.674999999999997
10
144.61250000000001
20
-73.674999999999997
42
0.41421356237309503
10
145.11250000000001
20
-73.174999999999997
10
145.11250000000001
20
-60.174999999999997
42
0.41421356237309503
10
144.61250000000001
20
-59.675000000000004
0
LWPOLYLINE
5
177
100
AcDbEntity
8
0
100
AcDbPolyline
90
8
70
1
43
0.0
10
53.618250000000003
20
-75.174999999999997
42
0.41421356237309503
10
54.118250000000003
20
-75.674999999999997
10
60.11825000000001
20
-75.674999999999997
42
0.41421356237309503
10
60.618250000000003
20
-75.174999999999997
10
60.618250000000003
20
-61.174999999999997
42
0.41421356237309503
10
60.11825000000001
20
-60.674999999999997
10
54.118250000000003
20
-60.674999999999997
42
0.41421356237309503
10
53.618250000000003
20
-61.174999999999997
0
LWPOLYLINE
5
178
100
AcDbEntity
8
0
100
AcDbPolyline
90
8
70
1
43
0.0
10
163.66250000000002
20
-73.674999999999997
42
0.41421356237309503
10
164.16250000000002
20
-73.174999999999997
10
164.16250000000002
20
-60.174999999999997
42
0.41421356237309503
10
163.66250000000002
20
-59.675000000000004
10
150.66249999999999
20
-59.675000000000004
42
0.41421356237309503
10
150.16249999999999
20
-60.174999999999997
10
150.16249999999999
20
-73.174999999999997
42
0.41421356237309503
10
150.66249999999999
20
-73.674999999999997
0
LWPOLYLINE
5
179
100
AcDbEntity
8
0
100
AcDbPolyline
90
4
70
1
43
0.0
10
328.46875
20
-22.100000000000001
10
314.46875000000006
20
-22.100000000000001
10
314.46875000000006
20
-54.100000000000001
10
328.46875
20
-54.100000000000001
0
CIRCLE
5
180
100
AcDbEntity
8
0
100
AcDbCircle
10
328.91674999999998
20
-21.555999999999997
30
0
40
0.92500000000000426
210
0
220
0
230
1
0
LINE
5
181
100
AcDbEntity
8
0
100
AcDbLine
10
2.5249999999999999
20
-9.5250000000000004
30
0
11
16.525000000000002
21
-9.5250000000000004
31
0
0
LINE
5
182
100
AcDbEntity
8
0
100
AcDbLine
10
9.5250000000000004
20
-2.5249999999999999
30
0
11
9.5250000000000004
21
-16.524999999999999
31
0
0
ENDSEC
0
SECTION
2
OBJECTS
0
DICTIONARY
5
C
100
AcDbDictionary
3
ACAD_GROUP
350
D
3
ACAD_MLINESTYLE
350
17
0
DICTIONARY
5
D
100
AcDbDictionary
0
DICTIONARY
5
1A
330
C
100
AcDbDictionary
0
DICTIONARY
5
17
100
AcDbDictionary
0
ENDSEC
0
EOF
