/* XPM */
static const char *hy-pcb_xpm[] = {
/* columns rows colors chars-per-pixel */
"150 32 124 2",
"=. c #FFFFE0",
"&. c #88549E",
"o. c #FFEA9F",
"I  c #F59090",
"@  c #FFFFE7",
"K  c #FFFFEC",
"T  c #FFFFF5",
"Y  c #EA6666",
"i  c #C00066",
"   c #FFFFFF",
".  c #FFDB90",
"A  c #FFD57D",
"C  c #EAB6FF",
"{  c #4491D0",
"4  c #E03A00",
"q. c #F5B6B6",
"1. c #A8BBEC",
"Q  c #C03A3A",
"@. c #CA66B6",
")  c #88C9D0",
"p  c #EAFFFF",
"c  c #C5E9FF",
"5  c #D5B6FF",
"z  c #88D2FF",
"'  c #E2E5E7",
"6. c #F9C19F",
"X. c #88C9E7",
"6  c #FFDBB6",
"j  c #448BE2",
"l  c #6772C4",
"f  c #F9FFFF",
",  c #E2FFD0",
"e. c #E2E5FF",
"m  c #88C9FF",
"(  c #67546A",
"D  c #6772CF",
"b  c #8891D0",
"`  c #D53A90",
"W  c #FFC99E",
"}  c #FFDBDB",
">  c #4473B8",
"-. c #F7C1C1",
"w. c #D566B6",
">. c #F79431",
"N  c #F5FFFF",
"M  c #C03A90",
"*. c #C5E5B8",
"1  c #E2FFFF",
"J  c #FFD2D8",
"4. c #F17D31",
"!  c #E0B6FF",
"P  c #67549E",
"-  c #C066B6",
"E  c #67BBF5",
"[  c #A8736A",
"7. c #FFC9D0",
"|  c #F37D59",
"u  c #88AEE7",
"%. c #FCC159",
"R  c #A88BC4",
"F  c #A8E9FF",
":. c #F79459",
"7  c #EADBFF",
"S  c #EDAAC1",
"2. c #8873B8",
" . c #F7EAFF",
"#  c #A87385",
"#. c #ED7D31",
"g  c #E2BBCF",
"d  c #F37D7D",
"k  c #FFE9E2",
"V  c #E0DBB6",
"8. c #CA0000",
"r  c #67919E",
"x  c #FFE9EC",
"~  c #F5DBDB",
".. c #E2C99E",
"]  c #F1C1E0",
"$. c #ED7D59",
"<. c #FCEA9F",
"v  c #C5A4C4",
"w  c #C5FFFF",
"%  c #FFB666",
"0. c #F5DBFF",
"+. c #FCFFFF",
";. c #ED7D7D",
"h  c #4472C4",
"X  c #CA003A",
"^  c #44A4EC",
":  c #44546A",
"H  c #4472CF",
"o  c #E0DBFF",
"G  c #4472D8",
";  c #E2AE85",
"=  c #D50000",
"9  c #F3D5FF",
"8  c #F9AA31",
"3. c #445485",
"n  c #FFE5B8",
"O. c #F1949F",
"a  c #F5903A",
"Z  c #CA0066",
"O  c #EA6600",
"5. c #E2AE9E",
"&  c #C00000",
"_  c #67AEE7",
"$  c #A8E5FF",
"q  c #44549E",
"L  c #8872C4",
"t  c #6773B8",
"+  c #CA90DB",
"e  c #C5916A",
"<  c #88546A",
"B  c #D5003A",
"*  c #FFFFB6",
",. c #ED949F",
"2  c #EAB6B6",
"s  c #FFFFC1",
"y  c #885485",
"U  c #C0003A",
"0  c #FFFFD0",
"/  c #A8A4E2",
"9. c #E09066",
"3  c #FFFFDB",
/* pixels */
"                                                                                                                                                                                                                                                                                                            ",
"                                                                                                                                                                                                                                                                                                            ",
"                                                                                                                                                                                                                                                                                                            ",
"                                                                                                                                                                                                                                                                                                            ",
"                                                                                                                                                                                                                                                                                                            ",
"                                                                                                                                                                                                                                                                                                            ",
"                        . X o                                       O +                                                                                                                                                                                                 @ # $                               ",
"                          % & +                                     * = -                                                                                                                                                                                           ; : : : > , < : : : : : : : > 1         ",
"              2           3 4 5                         6 7           O +                                                 8 9                                                                                                                   0 < q w       e : : r t 1     0 y $           e u 1         ",
"            * = & & & & & & & & & & & & & & i p         a & & & & & & & & & & & & & & -                                 s d f         g h h h h h h j 1           k l h h z x c   v h h h h h h j 1                   e : : : : : : : : : : : : q w 0 b             n t 1     @ # $           e m           ",
"            % M N                       * B V C       3 4 5                       . Z 2 p                               A S             k D F       g G w       g H F     v h z     J G w     K L j 1                               n P w                           n t 1     @ # $           e m           ",
"          * = -           O M N         I p           a U o                       Y p                                   8 9             k D F       T R E     k l z         J E     J G w       J G w                               n P w                           n t 1 W m @ # $           e m           ",
"                        3 4 Q !         ~             ~                       % & 5                                   s d f             k D F         v ^     v j 1         T / 1   J G w       k D F                               n P w                   n ( : : : : : : : ) < : : : : : : : _           ",
"                        . X o           * ` N             O & & & & & & & & & -   2                                   A S               k D F       T R E   K L E                   J G w       J j 1                               n P w                           e > 1     0 y $           '             ",
"          * = & & & & & & & & & & & & & & & M N                     * B o                                             8 ]               k D F       v G w   k l z                   J G w     k D F                                 n P w                         @ [ : {                     0 b           ",
"                      3 4 +                 } N                     * B o                                           s |  .              k l h h h h j 1     J h z                   J h h h h H F                                   n P w                         n ( > ..: X.[ : : : : : : : : : {         ",
"                      % i p   % +                                   * B o         * = M N                 A ]       o.O.+.              k D F               J h z                   J G w     T R j 1                               n P w                         ; r t 1 ; {         W {                   ",
"                    3 4 +   3 4 & 5                 O & & & & & & & & & & & & & & i p . @.              A #.$. .    %.]                 k D F               k l z                   J G w       K L E                               n P w                       0 &.*.t 1             W {                   ",
"                    a M N   % i p                                   * B o                             =.-.  8 ;.f =.:. .                k D F               k l E                   J G w       T R ^                               n P w                       ; _ n t 1             W {     W m           ",
"                  . X o   * = 5                                     * B o                                   =.>.,.<.O.+.                k D F               T R ^           T 1.    J G w       T R j 1                             n P w                     0 2.1 n t 1     W : : : : : : : : 3.$         ",
"                * B o     a +       a M N                           * B o                                     o.4.#.]                   k D F                 g H F         J z     J G w       K L ^                               n P w                     5.$   n P w             W {                   ",
"              * B o     % -           % M N                         * B o                                       %.$. .                  k D F                 T R G w     J ^       J G w     T R H F                               n P w           W m     n u     n P w             W {                   ",
"            % i p     % -             3 4 M N                       . X o                                         6.+.                g h h h E                   g h h h ^       v h h h h h h G w               @ [ : : : : : : : : : : : : : : : : : {           n P w             W {       7.w         ",
"        3 4 -       . 8.& & & & & & & U 9.U o                 O & & & i p                                                                                                                                                                                           n P w n ( : : : : : : : : : : q w       ",
"        3 0.          q.N               * w.                      * B o                                                                                                                                                                                             n P w                         @ e.      ",
"                                                                                                                                                                                                                                                                                                            ",
"                                                                                                                                                                                                                                                                                                            ",
"                                                                                                                                                                                                                                                                                                            ",
"                                                                                                                                                                                                                                                                                                            ",
"                                                                                                                                                                                                                                                                                                            ",
"                                                                                                                                                                                                                                                                                                            ",
"                                                                                                                                                                                                                                                                                                            "
};
