/* XPM */
static char *hy_xpm[] = {
/* width height num_colors chars_per_pixel */
"   150    32       16            1",
/* colors */
"` c #c70213",
". c #5197db",
"# c #e49753",
"a c #bbf5fb",
"b c #4c639b",
"c c #f5d5cc",
"d c #fcfefb",
"e c #ed7226",
"f c #c396c7",
"g c #80c8f7",
"h c #cdb7f9",
"i c #c66e93",
"j c #d33a4f",
"k c #f6b66b",
"l c #8c639c",
"m c #ecb9cb",
/* pixels */
"dddddddddddddddddddddddddddddddddddddddddddddddddddddddddddddddddddddddddddddddddddddddddddddddddddddddddddddddddddddddddddddddddddddddddddddddddddddd",
"dddddddddddddddddddddddddddddddddddddddddddddddddddddddddddddddddddddddddddddddddddddddddddddddddddddddddddddddddddddddddddddddddddddddddddddddddddddd",
"dddddddddddddddddddddddddddddddddddddddddddddddddddddddddddddddddddddddddddddddddddddddddddddddddddddddddddddddddddddddddddddddddddddddddddddddddddddd",
"dddddddddddddddddddddddddddddddddddddddddddddddddddddddddddddddddddddddddddddddddddddddddddddddddddddddddddddddddddddddddddddddddddddddddddddddddddddd",
"dddddddddddddddddddddddddddddddddddddddddddddddddddddddddddddddddddddddddddddddddddddddddddddddddddddddddddddddddddddddddddddddddddddddddddddddddddddd",
"dddddddddddddddddddddddddddddddddddddddddddddddddddddddddddddddddddddddddddddddddddddddddddddddddddddddddddddddddddddddddddddddddddddddddddddddddddddd",
"ddddddddddddc`cdddddddddddddddddddefdddddddddddddddddddddddddddddddddddddddddddddddddddddddddddddddddddddddddddddddddddddddddddddddddigddddddddddddddd",
"dddddddddddddk`fddddddddddddddddddd`idddddddddddddddddddddddddddddddddddddddddddddddddddddddddddddddddddddddddddddddddddddddddddddkbbbbdlbbbbbbbbadddd",
"dddddddmddddddjhddddddddddddccdddddefddddddddddddddddddddddddkcdddddddddddddddddddddddddddddddddddddddddddddddddddddddddclbaddd#bb.bddddlgdddddigddddd",
"ddddddd````````````````ddddd#``````````````idddddddddddddddddedddddm.bbb.b.addddddbbbgdadf.bb.bb.addddddddd#bbbbbbbbbbbbbadfddddddc.ddddiaddddd#gddddd",
"ddddddkjddddddddddddd`cmddddjhdddddddddddc`mddddddddddddddddcmddddddcbadddhbadddmbaddhbgddm.adddl.ddddddddddddddddcladddddddddddddcbddddladdddd#gddddd",
"dddddd`idddddejddddd#dddddd#`cdddddddddddedddddddddddddddddd#cddddddc.addddfgdddbgddddcgddcbadddc.adddddddddddddddcbadddddddddddddcbdkgdigddcddigddddd",
"dddddddddddddjjhddddcddddddcdddddddddddk`hdddddddddddddddddd#ddddddddlgddddf.ddf.ddddddfddc.adddcbadddddddddddddddcladddddddddcbbbbbbbbglbbbbbbbgddddd",
"ddddddddddddc`cddddddjddddddde`````````idmdddddddddddddddddkmddddddddbaddddfgddlgdddddddddcbadddc.adddddddddddddddcbaddddddddddddd#badddlgdddddcdddddd",
"dddddd````````````````jdddddddddddd`cddddddddddddddddddddddkmdddddddc.adddhbadc.gdddddddddcbadddbaddddddddddddddddcladddddddddddddlb.dddddddddddlddddd",
"ddddddddddddjfddddddddcdddddddddddd`cddddddddddddddddddddddeddddddddclbb.b.dddcbgdddddddddc.b.bbadddddddddddddddddcbaddddddddddddclbcbglbbbbbbbbb.dddd",
"dddddddddddk`ddkfdddddddddddddddddd`addddd`jdddddddddcmdddc#dddddddddbadddddddcbgdddddddddcbadddf.adddddddddddddddcladddddddddddd#.bdk.ddddk.ddddddddd",
"dddddddddddjfddj`hdddddddde```````````````dcidddddddceedddkmdddddddddladddddddc.gdddddddddcbaddddlgdddddddddddddddcbaddddddddddddlaladdddddc.ddddddddd",
"dddddddddd#jddk`ddddddddddddddddddd`cdddddddddddddddmdkedd#dddddddddcbaddddddddbgdddddddddc.addddf.dddddddddddddddcladddddddddddkgc.dddddddkbddkgddddd",
"dddddddddc`cdd`hddddddddddddddddddd`cdddddddddddddddddd##d#dddddddddc.addddddddf.ddddddhddcbaddddi.addddddddddddddcbadddddddddddldcbdddcbbbbbbbbbgdddd",
"ddddddddd`cdd#fddd#jddddddddddddddd`cdddddddddddddddddddeemddddddddddlgddddddddhbaddddcgddcbadddd..dddddddddddddddcladddddddddd#adcladdddddk.ddddddddd",
"dddddddd`cddkidddddkjdddddddddddddd`cdddddddddddddddddddk#cdddddddddc.adddddddddfbaddc.dddc.adddfbadddddddddddddddcbadddddkgddcgddcbaddddddc.ddddddddd",
"ddddddk`dddkidddddddjjddddddddddddc`addddddddddddddddddddmdddddddddm.bbgdddddddddhb.b.dddhbb.bb.baddddddddlbbbbbbbbbbbbbbbbb.dddddcladdddddkbdddmadddd",
"dddddjidddc`````````#`cdddddddde````ddddddddddddddddddddddddddddddddddddddddddddddddddddddddddddddddddddddddddddddddddddddddddddddcbacbbbbbbbbbbbbaddd",
"dddddcdddddmdddddddddidddddddddddd`cddddddddddddddddddddddddddddddddddddddddddddddddddddddddddddddddddddddddddddddddddddddddddddddcladddddddddddddcddd",
"dddddddddddddddddddddddddddddddddddddddddddddddddddddddddddddddddddddddddddddddddddddddddddddddddddddddddddddddddddddddddddddddddddddddddddddddddddddd",
"dddddddddddddddddddddddddddddddddddddddddddddddddddddddddddddddddddddddddddddddddddddddddddddddddddddddddddddddddddddddddddddddddddddddddddddddddddddd",
"dddddddddddddddddddddddddddddddddddddddddddddddddddddddddddddddddddddddddddddddddddddddddddddddddddddddddddddddddddddddddddddddddddddddddddddddddddddd",
"dddddddddddddddddddddddddddddddddddddddddddddddddddddddddddddddddddddddddddddddddddddddddddddddddddddddddddddddddddddddddddddddddddddddddddddddddddddd",
"dddddddddddddddddddddddddddddddddddddddddddddddddddddddddddddddddddddddddddddddddddddddddddddddddddddddddddddddddddddddddddddddddddddddddddddddddddddd",
"dddddddddddddddddddddddddddddddddddddddddddddddddddddddddddddddddddddddddddddddddddddddddddddddddddddddddddddddddddddddddddddddddddddddddddddddddddddd",
"dddddddddddddddddddddddddddddddddddddddddddddddddddddddddddddddddddddddddddddddddddddddddddddddddddddddddddddddddddddddddddddddddddddddddddddddddddddd"
};
