M48
; DRILL file {KiCad (6.0.0)} date Tue Aug 23 12:32:27 2022
; FORMAT={-:-/ absolute / inch / decimal}
; #@! TF.CreationDate,2022-08-23T12:32:27-07:00
; #@! TF.GenerationSoftware,Kicad,Pcbnew,(6.0.0)
; #@! TF.FileFunction,Plated,1,4,PTH
FMAT,2
INCH
; #@! TA.AperFunction,Plated,PTH,ViaDrill
T1C0.0157
; #@! TA.AperFunction,Plated,PTH,ComponentDrill
T2C0.0256
; #@! TA.AperFunction,Plated,PTH,ComponentDrill
T3C0.0394
%
G90
G05
T1
X-0.2813Y-1.8125
X-0.2734Y-3.25
X-0.2578Y0.25
X-0.2578Y-2.4766
X-0.2578Y-2.7422
X-0.25Y-0.2891
X-0.25Y-0.3672
X-0.25Y-1.0938
X-0.25Y-1.2031
X-0.25Y-1.8906
X-0.1719Y-0.2891
X-0.1719Y-0.3672
X-0.1719Y-1.0938
X-0.1719Y-1.2031
X-0.1719Y-1.8125
X-0.1719Y-1.8906
X-0.0391Y0.0
X-0.0391Y-0.75
X-0.0391Y-1.5
X-0.0391Y-2.25
X0.0Y-2.9609
X0.0Y-3.0391
X0.0391Y0.0
X0.0391Y-0.75
X0.0391Y-1.5
X0.0391Y-2.25
X0.1172Y-1.8125
X0.1172Y-1.8906
X0.1875Y-0.3281
X0.1953Y-1.8125
X0.1953Y-1.8906
X0.2188Y-2.5313
X0.2188Y-2.6563
X0.375Y0.1953
X0.375Y-0.1875
X0.375Y-0.75
X0.375Y-1.5
X0.375Y-2.0625
X0.375Y-2.4375
X0.375Y-2.8047
X0.375Y-3.1953
X0.5Y-0.2891
X0.5Y-0.3672
X0.5Y-1.0234
X0.5Y-1.1875
X0.5Y-1.7813
X0.5Y-1.8906
X0.5Y-2.5313
X0.5Y-2.6094
X0.5Y-2.6797
X0.5781Y-0.2891
X0.5781Y-0.3672
X0.5781Y-1.0234
X0.5781Y-1.1875
X0.5781Y-1.7813
X0.5781Y-1.8906
X0.5781Y-2.5313
X0.5781Y-2.6094
X0.5781Y-2.6797
X0.7109Y0.0
X0.7109Y-0.75
X0.7109Y-1.5
X0.7109Y-2.25
X0.7109Y-2.6094
X0.75Y-2.9609
X0.75Y-3.0391
X0.7891Y0.0
X0.7891Y-0.75
X0.7891Y-1.5
X0.7891Y-2.25
X0.8594Y-2.6094
X0.8984Y-1.7813
X1.0Y-1.7813
X1.0Y-1.9297
X1.0Y-2.6091
X1.0938Y-0.9688
X1.1016Y-0.5514
X1.1172Y-0.75
X1.1172Y-1.3125
X1.1172Y-1.6875
X1.1172Y-2.25
X1.1484Y-1.7813
X1.1484Y-1.9297
X1.1563Y-2.6094
X1.1719Y-0.4375
X1.1953Y-0.1328
X1.2031Y-0.75
X1.2031Y-1.0
X1.2188Y0.2109
X1.2266Y0.2969
X1.2344Y-0.9375
X1.2344Y-0.41
X1.2344Y-1.2188
X1.25Y-1.7813
X1.25Y-1.9297
X1.2578Y0.0469
X1.2969Y-0.7969
X1.3281Y-2.6094
X1.3359Y0.2734
X1.3478Y-0.4494
X1.3516Y-1.1016
X1.3516Y-1.2031
X1.3522Y-1.8203
X1.4062Y-3.1953
X1.4063Y-2.8047
X1.4141Y-0.0078
X1.4141Y-0.125
X1.4246Y0.0469
X1.4297Y0.2969
X1.433Y-1.1213
X1.4453Y0.2109
X1.4453Y-1.4609
X1.4453Y-1.5703
X1.4453Y-1.6875
X1.4453Y-1.7813
X1.4741Y-0.875
X1.4766Y-2.6094
X1.5156Y-1.1016
X1.5156Y-1.2031
X1.5156Y-1.7812
X1.5156Y-1.8828
X1.5234Y-1.4453
X1.5781Y-1.2656
X1.6094Y-0.9375
X1.6172Y-2.6091
X1.625Y-1.7813
X1.625Y-1.8672
X1.625Y-1.9609
X1.6328Y-0.2813
X1.6328Y-0.4375
X1.6924Y-2.3828
X1.6924Y-2.7031
X1.6953Y-0.5625
X1.6953Y-0.9375
X1.7667Y-1.8672
X1.7667Y-1.9609
X1.7734Y-1.2656
X1.7734Y-2.6094
X1.8047Y-1.0234
X1.8047Y-1.1016
X1.8047Y-1.1797
X1.8125Y-1.5
X1.8359Y0.0
X1.8828Y-1.0234
X1.8828Y-1.1016
X1.8828Y-1.1797
X1.8906Y-1.7813
X1.8906Y-1.8672
X1.8984Y-2.6094
X1.9141Y0.0
X1.9531Y-1.9609
X1.9844Y-0.2891
X1.9844Y-0.4297
X1.9844Y-1.7813
X1.9844Y-1.8672
X2.0234Y-0.75
X2.0234Y-2.5313
X2.0234Y-2.6094
X2.0625Y-0.2891
X2.0625Y-0.4297
X2.0625Y-2.9609
X2.0625Y-3.0391
X2.0938Y-1.8672
X2.0938Y-1.9609
X2.1016Y-0.75
X2.1016Y-2.5313
X2.1016Y-2.6094
X2.1172Y-1.5
X2.1953Y-1.5
X2.2109Y-2.6094
X2.25Y0.1875
X2.25Y-0.1875
X2.2678Y-1.8672
X2.2678Y-1.9453
X2.3047Y-2.25
X2.3594Y-2.6094
X2.3631Y-0.41
X2.3631Y-0.4494
X2.3672Y-0.3672
X2.3828Y-2.25
X2.4051Y-1.7813
X2.4063Y-1.0
X2.4063Y-1.1641
X2.4096Y-1.8672
X2.4096Y-1.9453
X2.5Y-2.6091
X2.5313Y-0.4887
X2.5391Y-0.75
X2.5391Y-1.0
X2.5469Y-1.7813
X2.5513Y-1.8672
X2.5513Y-1.9609
X2.5852Y-3.0
X2.5859Y0.0
X2.5859Y-2.8438
X2.5859Y-3.1719
X2.6563Y-2.6094
X2.6641Y0.0
X2.6719Y-1.3125
X2.6719Y-1.6875
X2.693Y-1.8672
X2.693Y-1.9609
X2.7266Y-2.5234
X2.7344Y-1.0234
X2.7813Y-1.2109
X2.7813Y-2.6172
X2.7969Y-0.2891
X2.7969Y-0.3672
X2.8359Y-1.7734
X2.8359Y-1.8672
X2.8359Y-1.9609
X2.8359Y-2.5234
X2.8438Y-1.0234
X2.875Y-0.2891
X2.875Y-0.3672
X2.8951Y-1.7623
X2.8951Y-1.9609
X2.9141Y-1.2109
X2.9141Y-2.8359
X2.9141Y-3.1719
X2.9609Y-0.75
X2.9609Y-1.7734
X2.9609Y-1.8672
X2.9609Y-1.9609
X2.9766Y-2.5234
X2.9766Y-2.6094
X3.0Y0.0
X3.0391Y-0.75
X3.0625Y-2.5234
X3.0625Y-2.6094
X3.0938Y-2.8594
X3.125Y-2.5234
X3.125Y-2.6094
X3.1483Y-1.8672
X3.1484Y-1.5
X3.1484Y-1.9609
X3.2266Y-1.5
X3.2727Y-3.0
X3.2734Y-2.6094
X3.2734Y-2.8438
X3.2734Y-3.1719
X3.2968Y-1.8672
X3.2969Y-1.9609
X3.3359Y0.0
X3.375Y-0.5625
X3.375Y-0.9375
X3.4141Y0.0
X3.4219Y-2.6094
X3.4375Y-1.7813
X3.4453Y-1.2344
X3.453Y-1.8672
X3.4531Y-1.9453
X3.4766Y-1.0234
X3.5078Y-1.6797
X3.5234Y-2.25
X3.5469Y-0.2891
X3.5469Y-0.3672
X3.5469Y-1.6484
X3.5625Y-2.6091
X3.5859Y-1.6094
X3.5938Y-1.0234
X3.6016Y-2.25
X3.6172Y-1.8828
X3.6172Y-1.9453
X3.625Y-0.2891
X3.625Y-0.3672
X3.625Y-1.5625
X3.625Y-2.7422
X3.6719Y-1.1797
X3.6797Y-3.2578
X3.7031Y-1.7734
X3.7031Y-1.8828
X3.7031Y-1.9453
X3.7109Y-0.75
X3.7188Y-2.6094
X3.75Y0.1875
X3.75Y-0.1875
X3.7813Y-1.7734
X3.7813Y-1.8828
X3.7813Y-1.9453
X3.7891Y-0.75
X3.8203Y-2.5313
X3.8906Y-2.6094
X3.8984Y-1.5
X3.9052Y-1.8828
X3.9052Y-1.9531
X3.9375Y-2.0625
X3.9375Y-2.4375
X3.9375Y-2.9609
X3.9375Y-3.0391
X3.9766Y-1.5
X3.9844Y-2.6094
X4.0469Y-1.8828
X4.0469Y-1.9531
X4.0547Y-2.5313
X4.0859Y0.0
X4.125Y-0.75
X4.125Y-2.6094
X4.1641Y0.0
X4.1786Y-1.7734
X4.1786Y-1.8828
X4.1786Y-1.9531
X4.2344Y-1.0234
X4.2422Y-1.1875
X4.2734Y-2.25
X4.2813Y-2.6091
X4.2969Y-0.2891
X4.2969Y-0.3672
X4.3125Y-1.3125
X4.3125Y-1.6875
X4.3359Y-1.0234
X4.3516Y-2.25
X4.3594Y-1.8828
X4.3594Y-1.9453
X4.375Y-0.2891
X4.375Y-0.3672
X4.4141Y-1.1797
X4.4531Y-1.7734
X4.4531Y-1.8828
X4.4531Y-1.9453
X4.4531Y-2.5313
X4.4531Y-2.6094
X4.4609Y-0.75
X4.5Y-2.7969
X4.5Y-3.2031
X4.5Y0.0
X4.5313Y-1.7734
X4.5313Y-1.8828
X4.5313Y-1.9453
X4.5391Y-0.75
X4.6328Y-2.6094
X4.6484Y-1.5
X4.6552Y-1.8828
X4.6552Y-1.9531
X4.6875Y-2.25
X4.7266Y-1.5
X4.7813Y-2.6094
X4.7969Y-1.8828
X4.7969Y-1.9531
X4.8359Y0.0
X4.8672Y-2.7031
X4.875Y-0.5625
X4.875Y-0.9375
X4.9141Y0.0
X4.9141Y-1.7656
X4.9219Y-2.6091
X4.9531Y-1.8828
X4.9531Y-1.9531
X4.9922Y-1.0234
X5.0Y-1.1719
X5.0235Y-2.25
X5.0469Y-0.2891
X5.0469Y-0.3672
X5.0625Y-1.5
X5.0625Y-2.9609
X5.0625Y-3.0391
X5.0781Y-2.6094
X5.086Y-1.0234
X5.1016Y-2.25
X5.1172Y-1.8828
X5.1172Y-1.9453
X5.125Y-0.2891
X5.125Y-0.3672
X5.1406Y-1.1719
X5.2031Y-1.7734
X5.2031Y-1.8828
X5.2031Y-1.9453
X5.211Y-0.75
X5.2266Y-2.5313
X5.2266Y-2.6094
X5.2266Y-3.2656
X5.25Y0.0
X5.2813Y-1.7734
X5.2813Y-1.8828
X5.2813Y-1.9453
X5.2891Y-0.75
X5.2969Y-3.2188
X5.3203Y-2.5313
X5.3203Y-2.6094
X5.3281Y-2.7109
X5.3828Y-3.1875
X5.3985Y-1.5
X5.4219Y-3.2188
X5.4688Y-3.25
X5.4766Y-1.5
X5.5Y-2.4688
X5.5078Y-1.875
X5.5078Y-1.9531
X5.5078Y-2.6097
X5.5547Y-2.5313
X5.586Y0.0
X5.625Y-0.75
X5.625Y-1.8746
X5.625Y-1.9531
X5.6328Y-1.7813
X5.6563Y-2.6097
X5.6641Y0.0
X5.7422Y-1.0234
X5.7422Y-1.875
X5.7422Y-1.9453
X5.7578Y-1.1875
X5.7735Y-2.25
X5.7969Y-0.2891
X5.7969Y-0.3672
X5.7969Y-2.6094
X5.8125Y-1.5
X5.8203Y-2.8047
X5.8203Y-3.0
X5.8203Y-3.1953
X5.836Y-1.0234
X5.8516Y-2.25
X5.8594Y-1.875
X5.8594Y-1.9453
X5.875Y-0.2891
X5.875Y-0.3672
X5.9062Y-1.1719
X5.9531Y-1.7813
X5.9531Y-1.875
X5.9531Y-1.9453
X5.9531Y-2.5313
X5.9531Y-2.6097
X5.961Y-0.75
X6.0Y0.1875
X6.0Y-0.1875
X6.0313Y-1.7813
X6.0313Y-1.875
X6.0313Y-1.9453
X6.0391Y-0.75
X6.125Y-2.6094
X6.1485Y-1.5
X6.1875Y-1.875
X6.1875Y-1.9531
X6.1875Y-2.0625
X6.1875Y-2.4375
X6.2266Y-1.5
X6.2735Y-2.6094
X6.336Y0.0
X6.3438Y-1.8746
X6.3438Y-1.9531
X6.375Y-0.75
X6.4141Y0.0
X6.4375Y-2.6094
X6.4922Y-1.0234
X6.4922Y-1.8828
X6.4922Y-1.9453
X6.5Y-1.1719
X6.5235Y-2.25
X6.5469Y-0.2891
X6.5469Y-0.3672
X6.5625Y-1.3125
X6.5625Y-1.6875
X6.5625Y-2.9609
X6.5625Y-3.0391
X6.586Y-1.0234
X6.5938Y-2.6094
X6.6016Y-2.25
X6.6094Y-1.8828
X6.6094Y-1.9453
X6.625Y-0.2891
X6.625Y-0.3672
X6.6406Y-1.1719
X6.7031Y-1.7813
X6.7031Y-1.8828
X6.7031Y-1.9453
X6.711Y-0.75
X6.7266Y-2.5313
X6.7266Y-2.6094
X6.75Y0.0
X6.7813Y-1.7813
X6.7813Y-1.8828
X6.7813Y-1.9453
X6.7891Y-0.75
X6.8203Y-2.5313
X6.8203Y-2.6094
X6.8985Y-1.5
X6.9063Y-1.8832
X6.9063Y-1.9613
X6.9375Y-2.25
X6.9453Y-2.6094
X6.9766Y-1.5
X7.0625Y-1.8828
X7.0625Y-1.9613
X7.086Y0.0
X7.125Y-0.5625
X7.125Y-0.9375
X7.125Y-2.609
X7.1641Y0.0
X7.1719Y-2.8047
X7.1719Y-3.0
X7.1719Y-3.1953
X7.2031Y-1.8832
X7.2031Y-1.9453
X7.2344Y-1.0234
X7.2422Y-1.1719
X7.2735Y-2.25
X7.2969Y-0.2891
X7.2969Y-0.3672
X7.2969Y-2.6094
X7.3125Y-1.5
X7.3281Y-1.0234
X7.3516Y-2.25
X7.3594Y-1.8828
X7.3594Y-1.9453
X7.375Y-0.2891
X7.375Y-0.3672
X7.3985Y-1.1719
X7.4531Y-1.7813
X7.4531Y-1.875
X7.4531Y-1.9453
X7.461Y-0.75
X7.461Y-2.5313
X7.4766Y-2.6094
X7.5Y0.0
X7.5313Y-1.7813
X7.5313Y-1.875
X7.5313Y-1.9453
X7.5391Y-0.75
X7.6485Y-1.5
X7.6563Y-2.5313
X7.6563Y-2.6094
X7.6641Y-1.8754
X7.6641Y-1.9535
X7.6875Y-2.25
X7.6953Y-2.8125
X7.6953Y-3.1875
X7.7266Y-1.5
X7.8203Y-1.875
X7.8203Y-1.9535
X7.8203Y-2.5313
X7.8203Y-2.6094
X7.836Y0.0
X7.875Y-0.75
X7.9141Y0.0
X7.9531Y-1.8754
X7.9531Y-1.9453
X7.9844Y-1.1719
X7.9844Y-2.6094
X7.9922Y-1.0234
X8.0235Y-2.25
X8.0235Y-3.0
X8.0469Y-0.2891
X8.0469Y-0.3672
X8.0625Y-1.5
X8.1016Y-1.0234
X8.1016Y-2.25
X8.1016Y-3.0
X8.1094Y-1.875
X8.1094Y-1.9453
X8.1094Y-2.6094
X8.125Y-0.2891
X8.125Y-0.3672
X8.1406Y-1.1719
X8.2031Y-1.7813
X8.2031Y-1.875
X8.2031Y-1.9453
X8.211Y-0.75
X8.2344Y-2.5313
X8.2344Y-2.6094
X8.25Y0.1875
X8.25Y-0.1875
X8.2813Y-1.7813
X8.2813Y-1.875
X8.2813Y-1.9453
X8.2891Y-0.75
X8.3281Y-2.5313
X8.3281Y-2.6094
X8.3985Y-1.5
X8.4141Y-1.8754
X8.4141Y-1.9535
X8.4375Y-2.0625
X8.4375Y-2.4375
X8.4766Y-1.5
X8.4844Y-2.6094
X8.5703Y-1.875
X8.5703Y-1.9535
X8.586Y0.0
X8.6172Y-2.8047
X8.6172Y-3.0
X8.6172Y-3.1953
X8.625Y-0.75
X8.6485Y-2.6094
X8.6641Y0.0
X8.7031Y-1.8832
X8.7031Y-1.9453
X8.7422Y-1.0234
X8.75Y-1.1719
X8.7735Y-2.25
X8.7969Y-0.2891
X8.7969Y-0.3672
X8.8125Y-1.3125
X8.8125Y-1.6875
X8.8125Y-2.6094
X8.836Y-1.0234
X8.8516Y-2.25
X8.8594Y-1.8828
X8.8594Y-1.9453
X8.875Y-0.2891
X8.875Y-0.3672
X8.8906Y-1.1719
X8.9531Y-1.7813
X8.9531Y-1.8828
X8.9531Y-1.9453
X8.961Y-0.75
X8.961Y-2.5313
X8.961Y-2.6094
X9.0Y0.0
X9.0313Y-1.7813
X9.0313Y-1.8828
X9.0313Y-1.9453
X9.0391Y-0.75
X9.0781Y-2.5313
X9.1406Y-2.6063
X9.1485Y-1.5
X9.1641Y-1.8754
X9.1641Y-1.9535
X9.1875Y-2.25
X9.1875Y-2.5234
X9.1875Y-2.9609
X9.1875Y-3.0391
X9.2266Y-1.5
X9.2344Y-2.6063
X9.3203Y-1.875
X9.3203Y-1.9535
X9.336Y0.0
X9.375Y-0.5625
X9.375Y-0.9375
X9.4141Y0.0
X9.461Y-1.8832
X9.461Y-1.9453
X9.4922Y-1.0234
X9.4922Y-1.1719
X9.5235Y-2.25
X9.5469Y-0.2891
X9.5469Y-0.3672
X9.5625Y-1.5
X9.586Y-1.0234
X9.6016Y-2.25
X9.6172Y-1.8828
X9.6172Y-1.9453
X9.625Y-0.2891
X9.625Y-0.3672
X9.6562Y-1.1719
X9.7031Y-1.7813
X9.7031Y-1.8672
X9.7031Y-1.9531
X9.711Y-0.75
X9.7344Y-2.5234
X9.75Y-2.8047
X9.75Y0.1875
X9.75Y-0.1875
X9.75Y-3.1953
X9.7578Y-2.6063
X9.7813Y-1.7813
X9.7813Y-1.8672
X9.7813Y-1.9531
X9.7891Y-0.75
X9.8203Y-2.5234
X9.8985Y-1.5
X9.9141Y-1.8832
X9.9141Y-1.9613
X9.9375Y-2.25
X9.9766Y-1.5
X10.0703Y-1.8828
X10.0703Y-1.9613
X10.086Y0.0
X10.125Y-0.75
X10.1641Y0.0
X10.2188Y-1.8832
X10.2188Y-1.9453
X10.2422Y-1.0234
X10.2422Y-1.1719
X10.2735Y-2.25
X10.2969Y-0.2891
X10.2969Y-0.3672
X10.3125Y-1.3125
X10.3125Y-1.6875
X10.3125Y-2.9609
X10.3125Y-3.0391
X10.336Y-1.0234
X10.3516Y-2.25
X10.375Y-0.2891
X10.375Y-0.3672
X10.375Y-1.8828
X10.375Y-1.9453
X10.3907Y-1.1719
X10.4532Y-1.7813
X10.4532Y-1.8672
X10.4532Y-1.9453
X10.461Y-0.75
X10.4766Y-3.2656
X10.4844Y-2.5313
X10.5Y0.0
X10.5313Y-1.7813
X10.5313Y-1.8672
X10.5313Y-1.9453
X10.5391Y-0.75
X10.5703Y-2.5313
X10.6094Y-3.2656
X10.6485Y-1.5
X10.6563Y-1.8828
X10.6563Y-1.9531
X10.6563Y-2.6563
X10.711Y-2.875
X10.7266Y-1.5
X10.7578Y-2.6711
X10.7657Y-3.25
X10.8125Y-1.8824
X10.8125Y-1.9531
X10.8282Y-2.0625
X10.8282Y-2.4375
X10.836Y0.0
X10.875Y-0.5625
X10.875Y-0.9375
X10.875Y-3.25
X10.9141Y0.0
X10.9453Y-1.7734
X10.961Y-1.9922
X10.961Y-2.5313
X10.961Y-2.6094
X10.9922Y-1.8594
X11.0Y-1.0234
X11.0Y-1.1016
X11.0391Y-2.6484
X11.0469Y-0.2891
X11.0469Y-0.3672
X11.0703Y-1.5
X11.0703Y-1.7578
X11.0782Y-1.0234
X11.0782Y-1.1016
X11.086Y-1.8594
X11.086Y-1.9922
X11.1094Y-2.6094
X11.125Y-0.2891
X11.125Y-0.3672
X11.1563Y-2.5234
X11.1563Y-2.8422
X11.2032Y-1.7813
X11.2032Y-1.8594
X11.211Y-0.75
X11.25Y0.0
X11.2813Y-1.7813
X11.2813Y-1.8594
X11.2891Y-0.75
X11.3047Y-2.25
X11.3828Y-2.25
X11.3985Y-1.5
X11.4688Y-1.1406
X11.4766Y-1.5
X11.586Y0.0
X11.6172Y-0.75
X11.6641Y0.0
X11.7969Y-1.1406
X11.8125Y-2.8203
X11.8125Y-3.1719
X11.8203Y-0.9531
X11.8203Y-1.3125
X11.8203Y-1.6875
X11.8438Y-0.3906
X11.8594Y-2.0625
X11.8594Y-2.4375
X11.9219Y-1.0078
X11.9297Y-2.7031
X11.9375Y-0.4688
X12.0Y0.1875
X12.0Y-0.1875
X12.0313Y-1.7813
X12.0313Y-1.8594
X12.0313Y-2.0313
X12.1094Y-1.7813
X12.1094Y-1.8594
X12.1094Y-2.5313
X12.1094Y-2.6094
X12.125Y-0.3125
X12.125Y-0.3906
X12.125Y-0.6953
X12.1485Y-3.0
X12.1875Y-2.5313
X12.1875Y-2.6094
X12.2032Y-0.3125
X12.2032Y-0.3906
X12.2032Y-0.6953
X12.2266Y-3.0
X12.2422Y-1.125
X12.2813Y-1.6563
X12.3203Y-1.125
X12.336Y0.0
X12.336Y-2.25
X12.3516Y-1.7266
X12.3907Y-1.4766
X12.4141Y0.0
X12.4141Y-2.25
X12.4141Y-3.2734
X12.5391Y-1.5313
X12.5469Y-0.8672
X12.5625Y-2.5859
X12.5625Y-3.0
X12.5745Y-0.3203
X12.5745Y-0.6406
X12.6328Y0.2578
T3
X1.3125Y-0.5514
X1.3125Y-0.6514
T2
G00X1.158Y0.3243
M15
G01X1.158Y0.3007
M16
G05
G00X1.158Y0.1696
M15
G01X1.158Y0.1263
M16
G05
G00X1.4982Y0.3243
M15
G01X1.4982Y0.3007
M16
G05
G00X1.4982Y0.1696
M15
G01X1.4982Y0.1263
M16
G05
T0
M30
