%TF.GenerationSoftware,KiCad,Pcbnew,(6.0.0)*%
%TF.CreationDate,2022-08-23T12:32:24-07:00*%
%TF.ProjectId,Faen65XT,4661656e-3635-4585-942e-6b696361645f,rev?*%
%TF.SameCoordinates,Original*%
%TF.FileFunction,Soldermask,Top*%
%TF.FilePolarity,Negative*%
%FSLAX46Y46*%
G04 Gerber Fmt 4.6, Leading zero omitted, Abs format (unit mm)*
G04 Created by KiCad (PCBNEW (6.0.0)) date 2022-08-23 12:32:24*
%MOMM*%
%LPD*%
G01*
G04 APERTURE LIST*
%ADD10C,2.200000*%
%ADD11C,0.700000*%
%ADD12O,1.050000X2.100000*%
%ADD13R,1.700000X1.700000*%
%ADD14O,1.700000X1.700000*%
G04 APERTURE END LIST*
D10*
%TO.C,H28*%
X275034375Y-57150144D03*
%TD*%
%TO.C,H29*%
X74017374Y-76200000D03*
%TD*%
%TO.C,H22*%
X9525024Y-57150144D03*
%TD*%
%TO.C,H16*%
X67865625Y-38100000D03*
%TD*%
%TO.C,H14*%
X319392000Y-12031000D03*
%TD*%
%TO.C,H17*%
X109537776Y-38100096D03*
%TD*%
%TO.C,H21*%
X300038256Y-38100096D03*
%TD*%
%TO.C,H25*%
X157162896Y-57150144D03*
%TD*%
%TO.C,H30*%
X35718750Y-76200000D03*
%TD*%
%TO.C,H15*%
X28575072Y-38100096D03*
%TD*%
%TO.C,H19*%
X223837500Y-38100000D03*
%TD*%
%TO.C,H12*%
X238125600Y-19050048D03*
%TD*%
%TO.C,H23*%
X42987000Y-64598000D03*
%TD*%
%TO.C,H11*%
X180975456Y-19050048D03*
%TD*%
%TO.C,H18*%
X166687500Y-38100000D03*
%TD*%
%TO.C,H5*%
X209550528Y0D03*
%TD*%
%TO.C,H7*%
X304800768Y0D03*
%TD*%
%TO.C,H3*%
X95250240Y0D03*
%TD*%
%TO.C,H9*%
X85725216Y-19050048D03*
%TD*%
%TO.C,H31*%
X114300000Y-76200000D03*
%TD*%
%TO.C,H34*%
X300038256Y-76200192D03*
%TD*%
%TO.C,H33*%
X247650000Y-76200192D03*
%TD*%
%TO.C,H6*%
X247650624Y0D03*
%TD*%
%TO.C,H27*%
X301228125Y-57150144D03*
%TD*%
%TO.C,H32*%
X195262992Y-76200192D03*
%TD*%
%TO.C,H4*%
X152400384Y0D03*
%TD*%
%TO.C,H8*%
X43061046Y-19050048D03*
%TD*%
%TO.C,H10*%
X123825312Y-19050048D03*
%TD*%
%TO.C,H13*%
X276225696Y-19050048D03*
%TD*%
%TO.C,H20*%
X261937500Y-38100096D03*
%TD*%
%TO.C,H26*%
X214313040Y-57150144D03*
%TD*%
%TO.C,H2*%
X57150144Y0D03*
%TD*%
%TO.C,H1*%
X9525000Y0D03*
%TD*%
%TO.C,H24*%
X100012752Y-57150144D03*
%TD*%
D11*
%TO.C,J2*%
X30844460Y4287520D03*
X36624460Y4287520D03*
D12*
X29414460Y3757520D03*
X38054460Y3757520D03*
X29414460Y7937520D03*
X38054460Y7937520D03*
%TD*%
D13*
%TO.C,JP1*%
X33337584Y-14004726D03*
D14*
X33337584Y-16544726D03*
%TD*%
M02*
