%TF.GenerationSoftware,KiCad,Pcbnew,(6.0.0)*%
%TF.CreationDate,2022-08-23T10:18:13-07:00*%
%TF.ProjectId,Faen65XT,4661656e-3635-4585-942e-6b696361645f,rev?*%
%TF.SameCoordinates,Original*%
%TF.FileFunction,Soldermask,Bot*%
%TF.FilePolarity,Negative*%
%FSLAX46Y46*%
G04 Gerber Fmt 4.6, Leading zero omitted, Abs format (unit mm)*
G04 Created by KiCad (PCBNEW (6.0.0)) date 2022-08-23 10:18:13*
%MOMM*%
%LPD*%
G01*
G04 APERTURE LIST*
G04 Aperture macros list*
%AMRoundRect*
0 Rectangle with rounded corners*
0 $1 Rounding radius*
0 $2 $3 $4 $5 $6 $7 $8 $9 X,Y pos of 4 corners*
0 Add a 4 corners polygon primitive as box body*
4,1,4,$2,$3,$4,$5,$6,$7,$8,$9,$2,$3,0*
0 Add four circle primitives for the rounded corners*
1,1,$1+$1,$2,$3*
1,1,$1+$1,$4,$5*
1,1,$1+$1,$6,$7*
1,1,$1+$1,$8,$9*
0 Add four rect primitives between the rounded corners*
20,1,$1+$1,$2,$3,$4,$5,0*
20,1,$1+$1,$4,$5,$6,$7,0*
20,1,$1+$1,$6,$7,$8,$9,0*
20,1,$1+$1,$8,$9,$2,$3,0*%
G04 Aperture macros list end*
%ADD10C,2.200000*%
%ADD11RoundRect,0.135000X0.185000X-0.135000X0.185000X0.135000X-0.185000X0.135000X-0.185000X-0.135000X0*%
%ADD12RoundRect,0.135000X-0.185000X0.135000X-0.185000X-0.135000X0.185000X-0.135000X0.185000X0.135000X0*%
%ADD13RoundRect,0.135000X0.135000X0.185000X-0.135000X0.185000X-0.135000X-0.185000X0.135000X-0.185000X0*%
%ADD14R,1.778000X0.419100*%
%ADD15RoundRect,0.062500X0.375000X0.062500X-0.375000X0.062500X-0.375000X-0.062500X0.375000X-0.062500X0*%
%ADD16RoundRect,0.062500X0.062500X0.375000X-0.062500X0.375000X-0.062500X-0.375000X0.062500X-0.375000X0*%
%ADD17R,5.600000X5.600000*%
%ADD18RoundRect,0.135000X-0.135000X-0.185000X0.135000X-0.185000X0.135000X0.185000X-0.135000X0.185000X0*%
%ADD19RoundRect,0.140000X-0.140000X-0.170000X0.140000X-0.170000X0.140000X0.170000X-0.140000X0.170000X0*%
%ADD20R,1.800000X1.200000*%
%ADD21R,1.550000X0.600000*%
%ADD22RoundRect,0.140000X0.170000X-0.140000X0.170000X0.140000X-0.170000X0.140000X-0.170000X-0.140000X0*%
%ADD23RoundRect,0.250000X-0.625000X0.375000X-0.625000X-0.375000X0.625000X-0.375000X0.625000X0.375000X0*%
%ADD24C,0.700000*%
%ADD25R,0.600000X1.450000*%
%ADD26R,0.300000X1.450000*%
%ADD27O,1.050000X2.100000*%
%ADD28R,0.700000X1.000000*%
%ADD29R,0.700000X0.600000*%
%ADD30RoundRect,0.237500X0.250000X0.237500X-0.250000X0.237500X-0.250000X-0.237500X0.250000X-0.237500X0*%
%ADD31RoundRect,0.150000X0.150000X-0.825000X0.150000X0.825000X-0.150000X0.825000X-0.150000X-0.825000X0*%
%ADD32RoundRect,0.125000X-0.175000X0.125000X-0.175000X-0.125000X0.175000X-0.125000X0.175000X0.125000X0*%
%ADD33RoundRect,0.150000X0.150000X-0.587500X0.150000X0.587500X-0.150000X0.587500X-0.150000X-0.587500X0*%
%ADD34RoundRect,0.140000X0.140000X0.170000X-0.140000X0.170000X-0.140000X-0.170000X0.140000X-0.170000X0*%
%ADD35RoundRect,0.140000X-0.170000X0.140000X-0.170000X-0.140000X0.170000X-0.140000X0.170000X0.140000X0*%
%ADD36R,1.700000X1.700000*%
%ADD37O,1.700000X1.700000*%
%ADD38R,1.900000X0.400000*%
G04 APERTURE END LIST*
D10*
%TO.C,H28*%
X275034375Y-57150144D03*
%TD*%
%TO.C,H29*%
X74017374Y-76200000D03*
%TD*%
%TO.C,H22*%
X9525024Y-57150144D03*
%TD*%
%TO.C,H16*%
X67865625Y-38100000D03*
%TD*%
%TO.C,H14*%
X319392000Y-12031000D03*
%TD*%
%TO.C,H17*%
X109537776Y-38100096D03*
%TD*%
%TO.C,H21*%
X300038256Y-38100096D03*
%TD*%
%TO.C,H25*%
X157162896Y-57150144D03*
%TD*%
%TO.C,H30*%
X35718750Y-76200000D03*
%TD*%
%TO.C,H15*%
X28575072Y-38100096D03*
%TD*%
%TO.C,H19*%
X223837500Y-38100000D03*
%TD*%
%TO.C,H12*%
X238125600Y-19050048D03*
%TD*%
%TO.C,H23*%
X42987000Y-64598000D03*
%TD*%
%TO.C,H11*%
X180975456Y-19050048D03*
%TD*%
%TO.C,H18*%
X166687500Y-38100000D03*
%TD*%
%TO.C,H5*%
X209550528Y0D03*
%TD*%
%TO.C,H7*%
X304800768Y0D03*
%TD*%
%TO.C,H3*%
X95250240Y0D03*
%TD*%
%TO.C,H9*%
X85725216Y-19050048D03*
%TD*%
%TO.C,H31*%
X114300000Y-76200000D03*
%TD*%
%TO.C,H34*%
X300038256Y-76200192D03*
%TD*%
%TO.C,H33*%
X247650000Y-76200192D03*
%TD*%
%TO.C,H6*%
X247650624Y0D03*
%TD*%
%TO.C,H27*%
X301228125Y-57150144D03*
%TD*%
%TO.C,H32*%
X195262992Y-76200192D03*
%TD*%
%TO.C,H4*%
X152400384Y0D03*
%TD*%
%TO.C,H8*%
X43061046Y-19050048D03*
%TD*%
%TO.C,H10*%
X123825312Y-19050048D03*
%TD*%
%TO.C,H13*%
X276225696Y-19050048D03*
%TD*%
%TO.C,H20*%
X261937500Y-38100096D03*
%TD*%
%TO.C,H26*%
X214313040Y-57150144D03*
%TD*%
%TO.C,H2*%
X57150144Y0D03*
%TD*%
%TO.C,H1*%
X9525000Y0D03*
%TD*%
%TO.C,H24*%
X100012752Y-57150144D03*
%TD*%
D11*
%TO.C,R2*%
X34346650Y-39403848D03*
X34346650Y-38383848D03*
%TD*%
D12*
%TO.C,R5*%
X40084476Y6463140D03*
X40084476Y5443140D03*
%TD*%
D13*
%TO.C,R29*%
X44166250Y-41955625D03*
X43146250Y-41955625D03*
%TD*%
D14*
%TO.C,U4*%
X281382854Y-68946572D03*
X281382854Y-69596812D03*
X281382854Y-70247052D03*
X281382854Y-70897292D03*
X281382854Y-71542452D03*
X281382854Y-72192692D03*
X281382854Y-72842932D03*
X281382854Y-73493172D03*
X275434174Y-73493172D03*
X275434174Y-72842932D03*
X275434174Y-72192692D03*
X275434174Y-71542452D03*
X275434174Y-70897292D03*
X275434174Y-70247052D03*
X275434174Y-69596812D03*
X275434174Y-68946572D03*
%TD*%
D15*
%TO.C,U1*%
X39834472Y-25731320D03*
X39834472Y-26231320D03*
X39834472Y-26731320D03*
X39834472Y-27231320D03*
X39834472Y-27731320D03*
X39834472Y-28231320D03*
X39834472Y-28731320D03*
X39834472Y-29231320D03*
X39834472Y-29731320D03*
X39834472Y-30231320D03*
X39834472Y-30731320D03*
X39834472Y-31231320D03*
D16*
X39146972Y-31918820D03*
X38646972Y-31918820D03*
X38146972Y-31918820D03*
X37646972Y-31918820D03*
X37146972Y-31918820D03*
X36646972Y-31918820D03*
X36146972Y-31918820D03*
X35646972Y-31918820D03*
X35146972Y-31918820D03*
X34646972Y-31918820D03*
X34146972Y-31918820D03*
X33646972Y-31918820D03*
D15*
X32959472Y-31231320D03*
X32959472Y-30731320D03*
X32959472Y-30231320D03*
X32959472Y-29731320D03*
X32959472Y-29231320D03*
X32959472Y-28731320D03*
X32959472Y-28231320D03*
X32959472Y-27731320D03*
X32959472Y-27231320D03*
X32959472Y-26731320D03*
X32959472Y-26231320D03*
X32959472Y-25731320D03*
D16*
X33646972Y-25043820D03*
X34146972Y-25043820D03*
X34646972Y-25043820D03*
X35146972Y-25043820D03*
X35646972Y-25043820D03*
X36146972Y-25043820D03*
X36646972Y-25043820D03*
X37146972Y-25043820D03*
X37646972Y-25043820D03*
X38146972Y-25043820D03*
X38646972Y-25043820D03*
X39146972Y-25043820D03*
D17*
X36396972Y-28481320D03*
%TD*%
D18*
%TO.C,R23*%
X248245938Y-63103284D03*
X249265938Y-63103284D03*
%TD*%
D12*
%TO.C,R22*%
X90487728Y-71363384D03*
X90487728Y-72383384D03*
%TD*%
D19*
%TO.C,C7*%
X41091875Y-30162500D03*
X42051875Y-30162500D03*
%TD*%
D13*
%TO.C,R1*%
X34641336Y-34528212D03*
X33621336Y-34528212D03*
%TD*%
D12*
%TO.C,R28*%
X41091875Y-41955625D03*
X41091875Y-42975625D03*
%TD*%
D11*
%TO.C,R11*%
X43109375Y-31069375D03*
X43109375Y-30049375D03*
%TD*%
D20*
%TO.C,J1*%
X66043912Y-13714090D03*
X66043912Y-8114090D03*
D21*
X62168912Y-9414090D03*
X62168912Y-10414090D03*
X62168912Y-11414090D03*
X62168912Y-12414090D03*
%TD*%
D12*
%TO.C,R14*%
X9326586Y-67072044D03*
X9326586Y-68092044D03*
%TD*%
D18*
%TO.C,R15*%
X210344280Y-63301722D03*
X211364280Y-63301722D03*
%TD*%
%TO.C,R10*%
X37443125Y-23415625D03*
X38463125Y-23415625D03*
%TD*%
D22*
%TO.C,C2*%
X32959472Y-23812500D03*
X32959472Y-22852500D03*
%TD*%
D23*
%TO.C,F1*%
X32345394Y-385942D03*
X32345394Y-3185942D03*
%TD*%
D18*
%TO.C,R13*%
X191095794Y-63897036D03*
X192115794Y-63897036D03*
%TD*%
%TO.C,R27*%
X267295986Y-63103284D03*
X268315986Y-63103284D03*
%TD*%
D24*
%TO.C,J2*%
X30844460Y4287520D03*
X36624460Y4287520D03*
D25*
X30484460Y2842520D03*
X31284460Y2842520D03*
D26*
X32484460Y2842520D03*
X33484460Y2842520D03*
X33984460Y2842520D03*
X34984460Y2842520D03*
D25*
X36984460Y2842520D03*
X36184460Y2842520D03*
D26*
X35484460Y2842520D03*
X34484460Y2842520D03*
X32984460Y2842520D03*
X31984460Y2842520D03*
D27*
X29414460Y3757520D03*
X38054460Y3757520D03*
X29414460Y7937520D03*
X38054460Y7937520D03*
%TD*%
D11*
%TO.C,R4*%
X26987568Y5244702D03*
X26987568Y6264702D03*
%TD*%
D28*
%TO.C,D1*%
X35334375Y-5183140D03*
D29*
X35334375Y-6903140D03*
X33134375Y-6903140D03*
X33134375Y-5003140D03*
%TD*%
D30*
%TO.C,JP2*%
X44568860Y-43656360D03*
X42743860Y-43656360D03*
%TD*%
D11*
%TO.C,R8*%
X26590692Y-26703816D03*
X26590692Y-25683816D03*
%TD*%
D12*
%TO.C,R26*%
X120650304Y-68461110D03*
X120650304Y-69481110D03*
%TD*%
D22*
%TO.C,C9*%
X27979758Y-8676582D03*
X27979758Y-7716582D03*
%TD*%
D31*
%TO.C,U5*%
X42361875Y-39781250D03*
X41091875Y-39781250D03*
X39821875Y-39781250D03*
X38551875Y-39781250D03*
X38551875Y-34831250D03*
X39821875Y-34831250D03*
X41091875Y-34831250D03*
X42361875Y-34831250D03*
%TD*%
D12*
%TO.C,R25*%
X299641380Y-69596812D03*
X299641380Y-70616812D03*
%TD*%
%TO.C,R6*%
X35537278Y-38383848D03*
X35537278Y-39403848D03*
%TD*%
D11*
%TO.C,R9*%
X27781250Y-26703750D03*
X27781250Y-25683750D03*
%TD*%
D32*
%TO.C,R18*%
X60523590Y-71363384D03*
D12*
X60523590Y-72383384D03*
%TD*%
D13*
%TO.C,R16*%
X73535184Y-67468920D03*
X72515184Y-67468920D03*
%TD*%
D18*
%TO.C,R21*%
X281382854Y-63500160D03*
X282402854Y-63500160D03*
%TD*%
D22*
%TO.C,C3*%
X39540625Y-23812500D03*
X39540625Y-22852500D03*
%TD*%
D33*
%TO.C,U2*%
X31311014Y-8676582D03*
X29411014Y-8676582D03*
X30361014Y-6801582D03*
%TD*%
D34*
%TO.C,C1*%
X34646972Y-33337500D03*
X33686972Y-33337500D03*
%TD*%
D18*
%TO.C,R20*%
X114584040Y-64293912D03*
X115604040Y-64293912D03*
%TD*%
D12*
%TO.C,R19*%
X176411382Y-68659548D03*
X176411382Y-69679548D03*
%TD*%
D34*
%TO.C,C12*%
X39821875Y-42068750D03*
X38861875Y-42068750D03*
%TD*%
D35*
%TO.C,C5*%
X31353125Y-31918820D03*
X31353125Y-32878820D03*
%TD*%
D18*
%TO.C,R17*%
X229394328Y-63301722D03*
X230414328Y-63301722D03*
%TD*%
D34*
%TO.C,C8*%
X31436328Y-5003140D03*
X30476328Y-5003140D03*
%TD*%
D13*
%TO.C,R7*%
X-4252512Y-29231320D03*
X-5272512Y-29231320D03*
%TD*%
D11*
%TO.C,R3*%
X33156022Y-39403848D03*
X33156022Y-38383848D03*
%TD*%
D19*
%TO.C,C11*%
X276394174Y-67846426D03*
X275434174Y-67846426D03*
%TD*%
%TO.C,C10*%
X70646158Y-67468920D03*
X71606158Y-67468920D03*
%TD*%
D34*
%TO.C,C13*%
X42051875Y-32940708D03*
X41091875Y-32940708D03*
%TD*%
D19*
%TO.C,C6*%
X41091875Y-31253125D03*
X42051875Y-31253125D03*
%TD*%
D18*
%TO.C,R24*%
X152485698Y-64293912D03*
X153505698Y-64293912D03*
%TD*%
D22*
%TO.C,C4*%
X41870418Y-23101932D03*
X41870418Y-22141932D03*
%TD*%
D32*
%TO.C,R12*%
X28575072Y-67865796D03*
D12*
X28575072Y-68885796D03*
%TD*%
D36*
%TO.C,JP1*%
X33337584Y-14004726D03*
D37*
X33337584Y-16544726D03*
%TD*%
D14*
%TO.C,U3*%
X76594838Y-68767504D03*
X76594838Y-69417744D03*
X76594838Y-70067984D03*
X76594838Y-70718224D03*
X76594838Y-71363384D03*
X76594838Y-72013624D03*
X76594838Y-72663864D03*
X76594838Y-73314104D03*
X70646158Y-73314104D03*
X70646158Y-72663864D03*
X70646158Y-72013624D03*
X70646158Y-71363384D03*
X70646158Y-70718224D03*
X70646158Y-70067984D03*
X70646158Y-69417744D03*
X70646158Y-68767504D03*
%TD*%
D38*
%TO.C,Y1*%
X42862500Y-28231320D03*
X42862500Y-27031320D03*
X42862500Y-25831320D03*
%TD*%
M02*
