%TF.GenerationSoftware,KiCad,Pcbnew,(6.0.0)*%
%TF.CreationDate,2022-08-23T10:18:13-07:00*%
%TF.ProjectId,Faen65XT,4661656e-3635-4585-942e-6b696361645f,rev?*%
%TF.SameCoordinates,Original*%
%TF.FileFunction,Legend,Bot*%
%TF.FilePolarity,Positive*%
%FSLAX46Y46*%
G04 Gerber Fmt 4.6, Leading zero omitted, Abs format (unit mm)*
G04 Created by KiCad (PCBNEW (6.0.0)) date 2022-08-23 10:18:13*
%MOMM*%
%LPD*%
G01*
G04 APERTURE LIST*
G04 Aperture macros list*
%AMRoundRect*
0 Rectangle with rounded corners*
0 $1 Rounding radius*
0 $2 $3 $4 $5 $6 $7 $8 $9 X,Y pos of 4 corners*
0 Add a 4 corners polygon primitive as box body*
4,1,4,$2,$3,$4,$5,$6,$7,$8,$9,$2,$3,0*
0 Add four circle primitives for the rounded corners*
1,1,$1+$1,$2,$3*
1,1,$1+$1,$4,$5*
1,1,$1+$1,$6,$7*
1,1,$1+$1,$8,$9*
0 Add four rect primitives between the rounded corners*
20,1,$1+$1,$2,$3,$4,$5,0*
20,1,$1+$1,$4,$5,$6,$7,0*
20,1,$1+$1,$6,$7,$8,$9,0*
20,1,$1+$1,$8,$9,$2,$3,0*%
G04 Aperture macros list end*
%ADD10C,0.150000*%
%ADD11C,0.125000*%
%ADD12C,0.100000*%
%ADD13C,0.120000*%
%ADD14C,0.170180*%
%ADD15C,0.002540*%
%ADD16C,0.127000*%
%ADD17C,0.200000*%
%ADD18C,2.200000*%
%ADD19RoundRect,0.135000X0.185000X-0.135000X0.185000X0.135000X-0.185000X0.135000X-0.185000X-0.135000X0*%
%ADD20RoundRect,0.135000X-0.185000X0.135000X-0.185000X-0.135000X0.185000X-0.135000X0.185000X0.135000X0*%
%ADD21RoundRect,0.135000X0.135000X0.185000X-0.135000X0.185000X-0.135000X-0.185000X0.135000X-0.185000X0*%
%ADD22R,1.778000X0.419100*%
%ADD23RoundRect,0.062500X0.375000X0.062500X-0.375000X0.062500X-0.375000X-0.062500X0.375000X-0.062500X0*%
%ADD24RoundRect,0.062500X0.062500X0.375000X-0.062500X0.375000X-0.062500X-0.375000X0.062500X-0.375000X0*%
%ADD25R,5.600000X5.600000*%
%ADD26RoundRect,0.135000X-0.135000X-0.185000X0.135000X-0.185000X0.135000X0.185000X-0.135000X0.185000X0*%
%ADD27RoundRect,0.140000X-0.140000X-0.170000X0.140000X-0.170000X0.140000X0.170000X-0.140000X0.170000X0*%
%ADD28R,1.800000X1.200000*%
%ADD29R,1.550000X0.600000*%
%ADD30RoundRect,0.140000X0.170000X-0.140000X0.170000X0.140000X-0.170000X0.140000X-0.170000X-0.140000X0*%
%ADD31RoundRect,0.250000X-0.625000X0.375000X-0.625000X-0.375000X0.625000X-0.375000X0.625000X0.375000X0*%
%ADD32C,0.700000*%
%ADD33R,0.600000X1.450000*%
%ADD34R,0.300000X1.450000*%
%ADD35O,1.050000X2.100000*%
%ADD36R,0.700000X1.000000*%
%ADD37R,0.700000X0.600000*%
%ADD38RoundRect,0.237500X0.250000X0.237500X-0.250000X0.237500X-0.250000X-0.237500X0.250000X-0.237500X0*%
%ADD39RoundRect,0.150000X0.150000X-0.825000X0.150000X0.825000X-0.150000X0.825000X-0.150000X-0.825000X0*%
%ADD40RoundRect,0.125000X-0.175000X0.125000X-0.175000X-0.125000X0.175000X-0.125000X0.175000X0.125000X0*%
%ADD41RoundRect,0.150000X0.150000X-0.587500X0.150000X0.587500X-0.150000X0.587500X-0.150000X-0.587500X0*%
%ADD42RoundRect,0.140000X0.140000X0.170000X-0.140000X0.170000X-0.140000X-0.170000X0.140000X-0.170000X0*%
%ADD43RoundRect,0.140000X-0.170000X0.140000X-0.170000X-0.140000X0.170000X-0.140000X0.170000X0.140000X0*%
%ADD44R,1.700000X1.700000*%
%ADD45O,1.700000X1.700000*%
%ADD46R,1.900000X0.400000*%
G04 APERTURE END LIST*
D10*
%TO.C,R2*%
X34601202Y-37241980D02*
X34315488Y-37041980D01*
X34601202Y-36899122D02*
X34001202Y-36899122D01*
X34001202Y-37127694D01*
X34029774Y-37184837D01*
X34058345Y-37213408D01*
X34115488Y-37241980D01*
X34201202Y-37241980D01*
X34258345Y-37213408D01*
X34286916Y-37184837D01*
X34315488Y-37127694D01*
X34315488Y-36899122D01*
X34058345Y-37470551D02*
X34029774Y-37499122D01*
X34001202Y-37556265D01*
X34001202Y-37699122D01*
X34029774Y-37756265D01*
X34058345Y-37784837D01*
X34115488Y-37813408D01*
X34172631Y-37813408D01*
X34258345Y-37784837D01*
X34601202Y-37441980D01*
X34601202Y-37813408D01*
%TO.C,R5*%
X39346228Y6119806D02*
X38870038Y6453140D01*
X39346228Y6691235D02*
X38346228Y6691235D01*
X38346228Y6310282D01*
X38393848Y6215044D01*
X38441467Y6167425D01*
X38536705Y6119806D01*
X38679562Y6119806D01*
X38774800Y6167425D01*
X38822419Y6215044D01*
X38870038Y6310282D01*
X38870038Y6691235D01*
X38346228Y5215044D02*
X38346228Y5691235D01*
X38822419Y5738854D01*
X38774800Y5691235D01*
X38727181Y5595997D01*
X38727181Y5357901D01*
X38774800Y5262663D01*
X38822419Y5215044D01*
X38917657Y5167425D01*
X39155752Y5167425D01*
X39250990Y5215044D01*
X39298609Y5262663D01*
X39346228Y5357901D01*
X39346228Y5595997D01*
X39298609Y5691235D01*
X39250990Y5738854D01*
%TO.C,R29*%
X45316854Y-41286265D02*
X45031140Y-41086265D01*
X45316854Y-40943408D02*
X44716854Y-40943408D01*
X44716854Y-41171980D01*
X44745426Y-41229122D01*
X44773997Y-41257694D01*
X44831140Y-41286265D01*
X44916854Y-41286265D01*
X44973997Y-41257694D01*
X45002568Y-41229122D01*
X45031140Y-41171980D01*
X45031140Y-40943408D01*
X44773997Y-41514837D02*
X44745426Y-41543408D01*
X44716854Y-41600551D01*
X44716854Y-41743408D01*
X44745426Y-41800551D01*
X44773997Y-41829122D01*
X44831140Y-41857694D01*
X44888283Y-41857694D01*
X44973997Y-41829122D01*
X45316854Y-41486265D01*
X45316854Y-41857694D01*
X45316854Y-42143408D02*
X45316854Y-42257694D01*
X45288283Y-42314837D01*
X45259711Y-42343408D01*
X45173997Y-42400551D01*
X45059711Y-42429122D01*
X44831140Y-42429122D01*
X44773997Y-42400551D01*
X44745426Y-42371980D01*
X44716854Y-42314837D01*
X44716854Y-42200551D01*
X44745426Y-42143408D01*
X44773997Y-42114837D01*
X44831140Y-42086265D01*
X44973997Y-42086265D01*
X45031140Y-42114837D01*
X45059711Y-42143408D01*
X45088283Y-42200551D01*
X45088283Y-42314837D01*
X45059711Y-42371980D01*
X45031140Y-42400551D01*
X44973997Y-42429122D01*
%TO.C,U1*%
X36083868Y-22669626D02*
X36083868Y-23479150D01*
X36036249Y-23574388D01*
X35988630Y-23622007D01*
X35893392Y-23669626D01*
X35702916Y-23669626D01*
X35607678Y-23622007D01*
X35560059Y-23574388D01*
X35512440Y-23479150D01*
X35512440Y-22669626D01*
X34512440Y-23669626D02*
X35083868Y-23669626D01*
X34798154Y-23669626D02*
X34798154Y-22669626D01*
X34893392Y-22812484D01*
X34988630Y-22907722D01*
X35083868Y-22955341D01*
%TO.C,R23*%
X251012908Y-63374712D02*
X251212908Y-63088998D01*
X251355765Y-63374712D02*
X251355765Y-62774712D01*
X251127194Y-62774712D01*
X251070051Y-62803284D01*
X251041479Y-62831855D01*
X251012908Y-62888998D01*
X251012908Y-62974712D01*
X251041479Y-63031855D01*
X251070051Y-63060426D01*
X251127194Y-63088998D01*
X251355765Y-63088998D01*
X250784336Y-62831855D02*
X250755765Y-62803284D01*
X250698622Y-62774712D01*
X250555765Y-62774712D01*
X250498622Y-62803284D01*
X250470051Y-62831855D01*
X250441479Y-62888998D01*
X250441479Y-62946141D01*
X250470051Y-63031855D01*
X250812908Y-63374712D01*
X250441479Y-63374712D01*
X250241479Y-62774712D02*
X249870051Y-62774712D01*
X250070051Y-63003284D01*
X249984336Y-63003284D01*
X249927194Y-63031855D01*
X249898622Y-63060426D01*
X249870051Y-63117569D01*
X249870051Y-63260426D01*
X249898622Y-63317569D01*
X249927194Y-63346141D01*
X249984336Y-63374712D01*
X250155765Y-63374712D01*
X250212908Y-63346141D01*
X250241479Y-63317569D01*
%TO.C,R22*%
X90675004Y-73732316D02*
X90875004Y-73446602D01*
X91017861Y-73732316D02*
X91017861Y-73132316D01*
X90789290Y-73132316D01*
X90732147Y-73160888D01*
X90703575Y-73189459D01*
X90675004Y-73246602D01*
X90675004Y-73332316D01*
X90703575Y-73389459D01*
X90732147Y-73418030D01*
X90789290Y-73446602D01*
X91017861Y-73446602D01*
X90446432Y-73189459D02*
X90417861Y-73160888D01*
X90360718Y-73132316D01*
X90217861Y-73132316D01*
X90160718Y-73160888D01*
X90132147Y-73189459D01*
X90103575Y-73246602D01*
X90103575Y-73303745D01*
X90132147Y-73389459D01*
X90475004Y-73732316D01*
X90103575Y-73732316D01*
X89875004Y-73189459D02*
X89846432Y-73160888D01*
X89789290Y-73132316D01*
X89646432Y-73132316D01*
X89589290Y-73160888D01*
X89560718Y-73189459D01*
X89532147Y-73246602D01*
X89532147Y-73303745D01*
X89560718Y-73389459D01*
X89903575Y-73732316D01*
X89532147Y-73732316D01*
D11*
%TO.C,C7*%
X41159999Y-29547395D02*
X41183808Y-29571204D01*
X41255237Y-29595014D01*
X41302856Y-29595014D01*
X41374285Y-29571204D01*
X41421904Y-29523585D01*
X41445713Y-29475966D01*
X41469523Y-29380728D01*
X41469523Y-29309300D01*
X41445713Y-29214062D01*
X41421904Y-29166443D01*
X41374285Y-29118824D01*
X41302856Y-29095014D01*
X41255237Y-29095014D01*
X41183808Y-29118824D01*
X41159999Y-29142633D01*
X40993332Y-29095014D02*
X40659999Y-29095014D01*
X40874285Y-29595014D01*
D10*
%TO.C,R1*%
X32643832Y-34799640D02*
X32843832Y-34513926D01*
X32986689Y-34799640D02*
X32986689Y-34199640D01*
X32758117Y-34199640D01*
X32700974Y-34228212D01*
X32672403Y-34256783D01*
X32643832Y-34313926D01*
X32643832Y-34399640D01*
X32672403Y-34456783D01*
X32700974Y-34485354D01*
X32758117Y-34513926D01*
X32986689Y-34513926D01*
X32072403Y-34799640D02*
X32415260Y-34799640D01*
X32243832Y-34799640D02*
X32243832Y-34199640D01*
X32300974Y-34285354D01*
X32358117Y-34342497D01*
X32415260Y-34371069D01*
D12*
%TO.C,R28*%
X40243303Y-43287236D02*
X40409970Y-43049141D01*
X40529017Y-43287236D02*
X40529017Y-42787236D01*
X40338541Y-42787236D01*
X40290922Y-42811046D01*
X40267113Y-42834855D01*
X40243303Y-42882474D01*
X40243303Y-42953903D01*
X40267113Y-43001522D01*
X40290922Y-43025331D01*
X40338541Y-43049141D01*
X40529017Y-43049141D01*
X40052827Y-42834855D02*
X40029017Y-42811046D01*
X39981398Y-42787236D01*
X39862351Y-42787236D01*
X39814732Y-42811046D01*
X39790922Y-42834855D01*
X39767113Y-42882474D01*
X39767113Y-42930093D01*
X39790922Y-43001522D01*
X40076636Y-43287236D01*
X39767113Y-43287236D01*
X39481398Y-43001522D02*
X39529017Y-42977712D01*
X39552827Y-42953903D01*
X39576636Y-42906284D01*
X39576636Y-42882474D01*
X39552827Y-42834855D01*
X39529017Y-42811046D01*
X39481398Y-42787236D01*
X39386160Y-42787236D01*
X39338541Y-42811046D01*
X39314732Y-42834855D01*
X39290922Y-42882474D01*
X39290922Y-42906284D01*
X39314732Y-42953903D01*
X39338541Y-42977712D01*
X39386160Y-43001522D01*
X39481398Y-43001522D01*
X39529017Y-43025331D01*
X39552827Y-43049141D01*
X39576636Y-43096760D01*
X39576636Y-43191998D01*
X39552827Y-43239617D01*
X39529017Y-43263426D01*
X39481398Y-43287236D01*
X39386160Y-43287236D01*
X39338541Y-43263426D01*
X39314732Y-43239617D01*
X39290922Y-43191998D01*
X39290922Y-43096760D01*
X39314732Y-43049141D01*
X39338541Y-43025331D01*
X39386160Y-43001522D01*
D10*
%TO.C,R11*%
X44835826Y-30632442D02*
X45035826Y-30346728D01*
X45178683Y-30632442D02*
X45178683Y-30032442D01*
X44950112Y-30032442D01*
X44892969Y-30061014D01*
X44864397Y-30089585D01*
X44835826Y-30146728D01*
X44835826Y-30232442D01*
X44864397Y-30289585D01*
X44892969Y-30318156D01*
X44950112Y-30346728D01*
X45178683Y-30346728D01*
X44264397Y-30632442D02*
X44607254Y-30632442D01*
X44435826Y-30632442D02*
X44435826Y-30032442D01*
X44492969Y-30118156D01*
X44550112Y-30175299D01*
X44607254Y-30203871D01*
X43692969Y-30632442D02*
X44035826Y-30632442D01*
X43864397Y-30632442D02*
X43864397Y-30032442D01*
X43921540Y-30118156D01*
X43978683Y-30175299D01*
X44035826Y-30203871D01*
%TO.C,J1*%
X59896292Y-10580756D02*
X60610578Y-10580756D01*
X60753435Y-10533137D01*
X60848673Y-10437899D01*
X60896292Y-10295042D01*
X60896292Y-10199804D01*
X60896292Y-11580756D02*
X60896292Y-11009328D01*
X60896292Y-11295042D02*
X59896292Y-11295042D01*
X60039150Y-11199804D01*
X60134388Y-11104566D01*
X60182007Y-11009328D01*
%TO.C,R14*%
X8407386Y-67791643D02*
X8121672Y-67591643D01*
X8407386Y-67448786D02*
X7807386Y-67448786D01*
X7807386Y-67677358D01*
X7835958Y-67734500D01*
X7864529Y-67763072D01*
X7921672Y-67791643D01*
X8007386Y-67791643D01*
X8064529Y-67763072D01*
X8093100Y-67734500D01*
X8121672Y-67677358D01*
X8121672Y-67448786D01*
X8407386Y-68363072D02*
X8407386Y-68020215D01*
X8407386Y-68191643D02*
X7807386Y-68191643D01*
X7893100Y-68134500D01*
X7950243Y-68077358D01*
X7978815Y-68020215D01*
X8007386Y-68877358D02*
X8407386Y-68877358D01*
X7778815Y-68734500D02*
X8207386Y-68591643D01*
X8207386Y-68963072D01*
%TO.C,R15*%
X213224374Y-63573150D02*
X213424374Y-63287436D01*
X213567231Y-63573150D02*
X213567231Y-62973150D01*
X213338660Y-62973150D01*
X213281517Y-63001722D01*
X213252945Y-63030293D01*
X213224374Y-63087436D01*
X213224374Y-63173150D01*
X213252945Y-63230293D01*
X213281517Y-63258864D01*
X213338660Y-63287436D01*
X213567231Y-63287436D01*
X212652945Y-63573150D02*
X212995802Y-63573150D01*
X212824374Y-63573150D02*
X212824374Y-62973150D01*
X212881517Y-63058864D01*
X212938660Y-63116007D01*
X212995802Y-63144579D01*
X212110088Y-62973150D02*
X212395802Y-62973150D01*
X212424374Y-63258864D01*
X212395802Y-63230293D01*
X212338660Y-63201722D01*
X212195802Y-63201722D01*
X212138660Y-63230293D01*
X212110088Y-63258864D01*
X212081517Y-63316007D01*
X212081517Y-63458864D01*
X212110088Y-63516007D01*
X212138660Y-63544579D01*
X212195802Y-63573150D01*
X212338660Y-63573150D01*
X212395802Y-63544579D01*
X212424374Y-63516007D01*
%TO.C,R10*%
X38569962Y-21640903D02*
X38284248Y-21440903D01*
X38569962Y-21298046D02*
X37969962Y-21298046D01*
X37969962Y-21526618D01*
X37998534Y-21583760D01*
X38027105Y-21612332D01*
X38084248Y-21640903D01*
X38169962Y-21640903D01*
X38227105Y-21612332D01*
X38255676Y-21583760D01*
X38284248Y-21526618D01*
X38284248Y-21298046D01*
X38569962Y-22212332D02*
X38569962Y-21869475D01*
X38569962Y-22040903D02*
X37969962Y-22040903D01*
X38055676Y-21983760D01*
X38112819Y-21926618D01*
X38141391Y-21869475D01*
X37969962Y-22583760D02*
X37969962Y-22640903D01*
X37998534Y-22698046D01*
X38027105Y-22726618D01*
X38084248Y-22755189D01*
X38198534Y-22783760D01*
X38341391Y-22783760D01*
X38455676Y-22755189D01*
X38512819Y-22726618D01*
X38541391Y-22698046D01*
X38569962Y-22640903D01*
X38569962Y-22583760D01*
X38541391Y-22526618D01*
X38512819Y-22498046D01*
X38455676Y-22469475D01*
X38341391Y-22440903D01*
X38198534Y-22440903D01*
X38084248Y-22469475D01*
X38027105Y-22498046D01*
X37998534Y-22526618D01*
X37969962Y-22583760D01*
%TO.C,C2*%
X33065708Y-21897599D02*
X33101422Y-21933313D01*
X33208565Y-21969027D01*
X33279993Y-21969027D01*
X33387136Y-21933313D01*
X33458565Y-21861884D01*
X33494279Y-21790456D01*
X33529993Y-21647599D01*
X33529993Y-21540456D01*
X33494279Y-21397599D01*
X33458565Y-21326170D01*
X33387136Y-21254742D01*
X33279993Y-21219027D01*
X33208565Y-21219027D01*
X33101422Y-21254742D01*
X33065708Y-21290456D01*
X32779993Y-21290456D02*
X32744279Y-21254742D01*
X32672850Y-21219027D01*
X32494279Y-21219027D01*
X32422850Y-21254742D01*
X32387136Y-21290456D01*
X32351422Y-21361884D01*
X32351422Y-21433313D01*
X32387136Y-21540456D01*
X32815708Y-21969027D01*
X32351422Y-21969027D01*
%TO.C,F1*%
X30453965Y-1452608D02*
X30453965Y-1119275D01*
X30977774Y-1119275D02*
X29977774Y-1119275D01*
X29977774Y-1595465D01*
X30977774Y-2500227D02*
X30977774Y-1928799D01*
X30977774Y-2214513D02*
X29977774Y-2214513D01*
X30120632Y-2119275D01*
X30215870Y-2024037D01*
X30263489Y-1928799D01*
%TO.C,R13*%
X193862764Y-64168464D02*
X194062764Y-63882750D01*
X194205621Y-64168464D02*
X194205621Y-63568464D01*
X193977050Y-63568464D01*
X193919907Y-63597036D01*
X193891335Y-63625607D01*
X193862764Y-63682750D01*
X193862764Y-63768464D01*
X193891335Y-63825607D01*
X193919907Y-63854178D01*
X193977050Y-63882750D01*
X194205621Y-63882750D01*
X193291335Y-64168464D02*
X193634192Y-64168464D01*
X193462764Y-64168464D02*
X193462764Y-63568464D01*
X193519907Y-63654178D01*
X193577050Y-63711321D01*
X193634192Y-63739893D01*
X193091335Y-63568464D02*
X192719907Y-63568464D01*
X192919907Y-63797036D01*
X192834192Y-63797036D01*
X192777050Y-63825607D01*
X192748478Y-63854178D01*
X192719907Y-63911321D01*
X192719907Y-64054178D01*
X192748478Y-64111321D01*
X192777050Y-64139893D01*
X192834192Y-64168464D01*
X193005621Y-64168464D01*
X193062764Y-64139893D01*
X193091335Y-64111321D01*
%TO.C,R27*%
X270062956Y-63374712D02*
X270262956Y-63088998D01*
X270405813Y-63374712D02*
X270405813Y-62774712D01*
X270177242Y-62774712D01*
X270120099Y-62803284D01*
X270091527Y-62831855D01*
X270062956Y-62888998D01*
X270062956Y-62974712D01*
X270091527Y-63031855D01*
X270120099Y-63060426D01*
X270177242Y-63088998D01*
X270405813Y-63088998D01*
X269834384Y-62831855D02*
X269805813Y-62803284D01*
X269748670Y-62774712D01*
X269605813Y-62774712D01*
X269548670Y-62803284D01*
X269520099Y-62831855D01*
X269491527Y-62888998D01*
X269491527Y-62946141D01*
X269520099Y-63031855D01*
X269862956Y-63374712D01*
X269491527Y-63374712D01*
X269291527Y-62774712D02*
X268891527Y-62774712D01*
X269148670Y-63374712D01*
%TO.C,J2*%
X38234991Y1539809D02*
X38234991Y825523D01*
X38282610Y682666D01*
X38377848Y587428D01*
X38520705Y539809D01*
X38615943Y539809D01*
X37806419Y1444570D02*
X37758800Y1492190D01*
X37663562Y1539809D01*
X37425467Y1539809D01*
X37330229Y1492190D01*
X37282610Y1444570D01*
X37234991Y1349332D01*
X37234991Y1254094D01*
X37282610Y1111237D01*
X37854038Y539809D01*
X37234991Y539809D01*
%TO.C,R4*%
X26249320Y6119806D02*
X25773130Y6453140D01*
X26249320Y6691235D02*
X25249320Y6691235D01*
X25249320Y6310282D01*
X25296940Y6215044D01*
X25344559Y6167425D01*
X25439797Y6119806D01*
X25582654Y6119806D01*
X25677892Y6167425D01*
X25725511Y6215044D01*
X25773130Y6310282D01*
X25773130Y6691235D01*
X25582654Y5262663D02*
X26249320Y5262663D01*
X25201701Y5500759D02*
X25915987Y5738854D01*
X25915987Y5119806D01*
%TO.C,D1*%
X34952470Y-4025520D02*
X34952470Y-3025520D01*
X34714375Y-3025520D01*
X34571517Y-3073140D01*
X34476279Y-3168378D01*
X34428660Y-3263616D01*
X34381041Y-3454092D01*
X34381041Y-3596949D01*
X34428660Y-3787425D01*
X34476279Y-3882663D01*
X34571517Y-3977901D01*
X34714375Y-4025520D01*
X34952470Y-4025520D01*
X33428660Y-4025520D02*
X34000089Y-4025520D01*
X33714375Y-4025520D02*
X33714375Y-3025520D01*
X33809613Y-3168378D01*
X33904851Y-3263616D01*
X34000089Y-3311235D01*
%TO.C,JP2*%
X44489693Y-44696244D02*
X44489693Y-45410530D01*
X44537312Y-45553387D01*
X44632550Y-45648625D01*
X44775407Y-45696244D01*
X44870645Y-45696244D01*
X44013502Y-45696244D02*
X44013502Y-44696244D01*
X43632550Y-44696244D01*
X43537312Y-44743864D01*
X43489693Y-44791483D01*
X43442074Y-44886721D01*
X43442074Y-45029578D01*
X43489693Y-45124816D01*
X43537312Y-45172435D01*
X43632550Y-45220054D01*
X44013502Y-45220054D01*
X43061121Y-44791483D02*
X43013502Y-44743864D01*
X42918264Y-44696244D01*
X42680169Y-44696244D01*
X42584931Y-44743864D01*
X42537312Y-44791483D01*
X42489693Y-44886721D01*
X42489693Y-44981959D01*
X42537312Y-45124816D01*
X43108740Y-45696244D01*
X42489693Y-45696244D01*
%TO.C,R8*%
X25869930Y-26093816D02*
X25584216Y-25893816D01*
X25869930Y-25750958D02*
X25269930Y-25750958D01*
X25269930Y-25979530D01*
X25298502Y-26036673D01*
X25327073Y-26065244D01*
X25384216Y-26093816D01*
X25469930Y-26093816D01*
X25527073Y-26065244D01*
X25555644Y-26036673D01*
X25584216Y-25979530D01*
X25584216Y-25750958D01*
X25527073Y-26436673D02*
X25498502Y-26379530D01*
X25469930Y-26350958D01*
X25412787Y-26322387D01*
X25384216Y-26322387D01*
X25327073Y-26350958D01*
X25298502Y-26379530D01*
X25269930Y-26436673D01*
X25269930Y-26550958D01*
X25298502Y-26608101D01*
X25327073Y-26636673D01*
X25384216Y-26665244D01*
X25412787Y-26665244D01*
X25469930Y-26636673D01*
X25498502Y-26608101D01*
X25527073Y-26550958D01*
X25527073Y-26436673D01*
X25555644Y-26379530D01*
X25584216Y-26350958D01*
X25641359Y-26322387D01*
X25755644Y-26322387D01*
X25812787Y-26350958D01*
X25841359Y-26379530D01*
X25869930Y-26436673D01*
X25869930Y-26550958D01*
X25841359Y-26608101D01*
X25812787Y-26636673D01*
X25755644Y-26665244D01*
X25641359Y-26665244D01*
X25584216Y-26636673D01*
X25555644Y-26608101D01*
X25527073Y-26550958D01*
%TO.C,R26*%
X119751732Y-68585395D02*
X119466018Y-68385395D01*
X119751732Y-68242538D02*
X119151732Y-68242538D01*
X119151732Y-68471110D01*
X119180304Y-68528252D01*
X119208875Y-68556824D01*
X119266018Y-68585395D01*
X119351732Y-68585395D01*
X119408875Y-68556824D01*
X119437446Y-68528252D01*
X119466018Y-68471110D01*
X119466018Y-68242538D01*
X119208875Y-68813967D02*
X119180304Y-68842538D01*
X119151732Y-68899681D01*
X119151732Y-69042538D01*
X119180304Y-69099681D01*
X119208875Y-69128252D01*
X119266018Y-69156824D01*
X119323161Y-69156824D01*
X119408875Y-69128252D01*
X119751732Y-68785395D01*
X119751732Y-69156824D01*
X119151732Y-69671110D02*
X119151732Y-69556824D01*
X119180304Y-69499681D01*
X119208875Y-69471110D01*
X119294589Y-69413967D01*
X119408875Y-69385395D01*
X119637446Y-69385395D01*
X119694589Y-69413967D01*
X119723161Y-69442538D01*
X119751732Y-69499681D01*
X119751732Y-69613967D01*
X119723161Y-69671110D01*
X119694589Y-69699681D01*
X119637446Y-69728252D01*
X119494589Y-69728252D01*
X119437446Y-69699681D01*
X119408875Y-69671110D01*
X119380304Y-69613967D01*
X119380304Y-69499681D01*
X119408875Y-69442538D01*
X119437446Y-69413967D01*
X119494589Y-69385395D01*
%TO.C,C9*%
X27146272Y-7969291D02*
X27193891Y-7921672D01*
X27241510Y-7778815D01*
X27241510Y-7683577D01*
X27193891Y-7540719D01*
X27098653Y-7445481D01*
X27003415Y-7397862D01*
X26812939Y-7350243D01*
X26670082Y-7350243D01*
X26479606Y-7397862D01*
X26384368Y-7445481D01*
X26289130Y-7540719D01*
X26241510Y-7683577D01*
X26241510Y-7778815D01*
X26289130Y-7921672D01*
X26336749Y-7969291D01*
X27241510Y-8445481D02*
X27241510Y-8635958D01*
X27193891Y-8731196D01*
X27146272Y-8778815D01*
X27003415Y-8874053D01*
X26812939Y-8921672D01*
X26431987Y-8921672D01*
X26336749Y-8874053D01*
X26289130Y-8826434D01*
X26241510Y-8731196D01*
X26241510Y-8540719D01*
X26289130Y-8445481D01*
X26336749Y-8397862D01*
X26431987Y-8350243D01*
X26670082Y-8350243D01*
X26765320Y-8397862D01*
X26812939Y-8445481D01*
X26860558Y-8540719D01*
X26860558Y-8731196D01*
X26812939Y-8826434D01*
X26765320Y-8874053D01*
X26670082Y-8921672D01*
%TO.C,U5*%
X44311940Y-37573086D02*
X44311940Y-38058800D01*
X44283369Y-38115943D01*
X44254798Y-38144515D01*
X44197655Y-38173086D01*
X44083369Y-38173086D01*
X44026226Y-38144515D01*
X43997655Y-38115943D01*
X43969083Y-38058800D01*
X43969083Y-37573086D01*
X43397655Y-37573086D02*
X43683369Y-37573086D01*
X43711940Y-37858800D01*
X43683369Y-37830229D01*
X43626226Y-37801658D01*
X43483369Y-37801658D01*
X43426226Y-37830229D01*
X43397655Y-37858800D01*
X43369083Y-37915943D01*
X43369083Y-38058800D01*
X43397655Y-38115943D01*
X43426226Y-38144515D01*
X43483369Y-38173086D01*
X43626226Y-38173086D01*
X43683369Y-38144515D01*
X43711940Y-38115943D01*
%TO.C,R25*%
X298638028Y-70915356D02*
X298838028Y-70629642D01*
X298980885Y-70915356D02*
X298980885Y-70315356D01*
X298752314Y-70315356D01*
X298695171Y-70343928D01*
X298666599Y-70372499D01*
X298638028Y-70429642D01*
X298638028Y-70515356D01*
X298666599Y-70572499D01*
X298695171Y-70601070D01*
X298752314Y-70629642D01*
X298980885Y-70629642D01*
X298409456Y-70372499D02*
X298380885Y-70343928D01*
X298323742Y-70315356D01*
X298180885Y-70315356D01*
X298123742Y-70343928D01*
X298095171Y-70372499D01*
X298066599Y-70429642D01*
X298066599Y-70486785D01*
X298095171Y-70572499D01*
X298438028Y-70915356D01*
X298066599Y-70915356D01*
X297523742Y-70315356D02*
X297809456Y-70315356D01*
X297838028Y-70601070D01*
X297809456Y-70572499D01*
X297752314Y-70543928D01*
X297609456Y-70543928D01*
X297552314Y-70572499D01*
X297523742Y-70601070D01*
X297495171Y-70658213D01*
X297495171Y-70801070D01*
X297523742Y-70858213D01*
X297552314Y-70886785D01*
X297609456Y-70915356D01*
X297752314Y-70915356D01*
X297809456Y-70886785D01*
X297838028Y-70858213D01*
%TO.C,R6*%
X35791830Y-37241980D02*
X35506116Y-37041980D01*
X35791830Y-36899122D02*
X35191830Y-36899122D01*
X35191830Y-37127694D01*
X35220402Y-37184837D01*
X35248973Y-37213408D01*
X35306116Y-37241980D01*
X35391830Y-37241980D01*
X35448973Y-37213408D01*
X35477544Y-37184837D01*
X35506116Y-37127694D01*
X35506116Y-36899122D01*
X35191830Y-37756265D02*
X35191830Y-37641980D01*
X35220402Y-37584837D01*
X35248973Y-37556265D01*
X35334687Y-37499122D01*
X35448973Y-37470551D01*
X35677544Y-37470551D01*
X35734687Y-37499122D01*
X35763259Y-37527694D01*
X35791830Y-37584837D01*
X35791830Y-37699122D01*
X35763259Y-37756265D01*
X35734687Y-37784837D01*
X35677544Y-37813408D01*
X35534687Y-37813408D01*
X35477544Y-37784837D01*
X35448973Y-37756265D01*
X35420402Y-37699122D01*
X35420402Y-37584837D01*
X35448973Y-37527694D01*
X35477544Y-37499122D01*
X35534687Y-37470551D01*
%TO.C,R9*%
X29044938Y-26093816D02*
X28759224Y-25893816D01*
X29044938Y-25750958D02*
X28444938Y-25750958D01*
X28444938Y-25979530D01*
X28473510Y-26036673D01*
X28502081Y-26065244D01*
X28559224Y-26093816D01*
X28644938Y-26093816D01*
X28702081Y-26065244D01*
X28730652Y-26036673D01*
X28759224Y-25979530D01*
X28759224Y-25750958D01*
X29044938Y-26379530D02*
X29044938Y-26493816D01*
X29016367Y-26550958D01*
X28987795Y-26579530D01*
X28902081Y-26636673D01*
X28787795Y-26665244D01*
X28559224Y-26665244D01*
X28502081Y-26636673D01*
X28473510Y-26608101D01*
X28444938Y-26550958D01*
X28444938Y-26436673D01*
X28473510Y-26379530D01*
X28502081Y-26350958D01*
X28559224Y-26322387D01*
X28702081Y-26322387D01*
X28759224Y-26350958D01*
X28787795Y-26379530D01*
X28816367Y-26436673D01*
X28816367Y-26550958D01*
X28787795Y-26608101D01*
X28759224Y-26636673D01*
X28702081Y-26665244D01*
%TO.C,R18*%
X61306180Y-73619192D02*
X61506180Y-73333478D01*
X61649037Y-73619192D02*
X61649037Y-73019192D01*
X61420466Y-73019192D01*
X61363323Y-73047764D01*
X61334751Y-73076335D01*
X61306180Y-73133478D01*
X61306180Y-73219192D01*
X61334751Y-73276335D01*
X61363323Y-73304906D01*
X61420466Y-73333478D01*
X61649037Y-73333478D01*
X60734751Y-73619192D02*
X61077608Y-73619192D01*
X60906180Y-73619192D02*
X60906180Y-73019192D01*
X60963323Y-73104906D01*
X61020466Y-73162049D01*
X61077608Y-73190621D01*
X60391894Y-73276335D02*
X60449037Y-73247764D01*
X60477608Y-73219192D01*
X60506180Y-73162049D01*
X60506180Y-73133478D01*
X60477608Y-73076335D01*
X60449037Y-73047764D01*
X60391894Y-73019192D01*
X60277608Y-73019192D01*
X60220466Y-73047764D01*
X60191894Y-73076335D01*
X60163323Y-73133478D01*
X60163323Y-73162049D01*
X60191894Y-73219192D01*
X60220466Y-73247764D01*
X60277608Y-73276335D01*
X60391894Y-73276335D01*
X60449037Y-73304906D01*
X60477608Y-73333478D01*
X60506180Y-73390621D01*
X60506180Y-73504906D01*
X60477608Y-73562049D01*
X60449037Y-73590621D01*
X60391894Y-73619192D01*
X60277608Y-73619192D01*
X60220466Y-73590621D01*
X60191894Y-73562049D01*
X60163323Y-73504906D01*
X60163323Y-73390621D01*
X60191894Y-73333478D01*
X60220466Y-73304906D01*
X60277608Y-73276335D01*
%TO.C,R16*%
X72899736Y-65495701D02*
X72614022Y-65295701D01*
X72899736Y-65152844D02*
X72299736Y-65152844D01*
X72299736Y-65381416D01*
X72328308Y-65438558D01*
X72356879Y-65467130D01*
X72414022Y-65495701D01*
X72499736Y-65495701D01*
X72556879Y-65467130D01*
X72585450Y-65438558D01*
X72614022Y-65381416D01*
X72614022Y-65152844D01*
X72899736Y-66067130D02*
X72899736Y-65724273D01*
X72899736Y-65895701D02*
X72299736Y-65895701D01*
X72385450Y-65838558D01*
X72442593Y-65781416D01*
X72471165Y-65724273D01*
X72299736Y-66581416D02*
X72299736Y-66467130D01*
X72328308Y-66409987D01*
X72356879Y-66381416D01*
X72442593Y-66324273D01*
X72556879Y-66295701D01*
X72785450Y-66295701D01*
X72842593Y-66324273D01*
X72871165Y-66352844D01*
X72899736Y-66409987D01*
X72899736Y-66524273D01*
X72871165Y-66581416D01*
X72842593Y-66609987D01*
X72785450Y-66638558D01*
X72642593Y-66638558D01*
X72585450Y-66609987D01*
X72556879Y-66581416D01*
X72528308Y-66524273D01*
X72528308Y-66409987D01*
X72556879Y-66352844D01*
X72585450Y-66324273D01*
X72642593Y-66295701D01*
%TO.C,R21*%
X284152054Y-63771588D02*
X284352054Y-63485874D01*
X284494911Y-63771588D02*
X284494911Y-63171588D01*
X284266340Y-63171588D01*
X284209197Y-63200160D01*
X284180625Y-63228731D01*
X284152054Y-63285874D01*
X284152054Y-63371588D01*
X284180625Y-63428731D01*
X284209197Y-63457302D01*
X284266340Y-63485874D01*
X284494911Y-63485874D01*
X283923482Y-63228731D02*
X283894911Y-63200160D01*
X283837768Y-63171588D01*
X283694911Y-63171588D01*
X283637768Y-63200160D01*
X283609197Y-63228731D01*
X283580625Y-63285874D01*
X283580625Y-63343017D01*
X283609197Y-63428731D01*
X283952054Y-63771588D01*
X283580625Y-63771588D01*
X283009197Y-63771588D02*
X283352054Y-63771588D01*
X283180625Y-63771588D02*
X283180625Y-63171588D01*
X283237768Y-63257302D01*
X283294911Y-63314445D01*
X283352054Y-63343017D01*
%TO.C,C3*%
X39703447Y-21529742D02*
X39732019Y-21501170D01*
X39760590Y-21415456D01*
X39760590Y-21358313D01*
X39732019Y-21272599D01*
X39674876Y-21215456D01*
X39617733Y-21186884D01*
X39503447Y-21158313D01*
X39417733Y-21158313D01*
X39303447Y-21186884D01*
X39246304Y-21215456D01*
X39189162Y-21272599D01*
X39160590Y-21358313D01*
X39160590Y-21415456D01*
X39189162Y-21501170D01*
X39217733Y-21529742D01*
X39160590Y-21729742D02*
X39160590Y-22101170D01*
X39389162Y-21901170D01*
X39389162Y-21986884D01*
X39417733Y-22044027D01*
X39446304Y-22072599D01*
X39503447Y-22101170D01*
X39646304Y-22101170D01*
X39703447Y-22072599D01*
X39732019Y-22044027D01*
X39760590Y-21986884D01*
X39760590Y-21815456D01*
X39732019Y-21758313D01*
X39703447Y-21729742D01*
%TO.C,U2*%
X38068248Y-5603958D02*
X38068248Y-6413482D01*
X38020629Y-6508720D01*
X37973010Y-6556339D01*
X37877772Y-6603958D01*
X37687296Y-6603958D01*
X37592058Y-6556339D01*
X37544439Y-6508720D01*
X37496820Y-6413482D01*
X37496820Y-5603958D01*
X37068248Y-5699197D02*
X37020629Y-5651578D01*
X36925391Y-5603958D01*
X36687296Y-5603958D01*
X36592058Y-5651578D01*
X36544439Y-5699197D01*
X36496820Y-5794435D01*
X36496820Y-5889673D01*
X36544439Y-6032530D01*
X37115867Y-6603958D01*
X36496820Y-6603958D01*
%TO.C,C1*%
X32643832Y-33551869D02*
X32672403Y-33580441D01*
X32758117Y-33609012D01*
X32815260Y-33609012D01*
X32900974Y-33580441D01*
X32958117Y-33523298D01*
X32986689Y-33466155D01*
X33015260Y-33351869D01*
X33015260Y-33266155D01*
X32986689Y-33151869D01*
X32958117Y-33094726D01*
X32900974Y-33037584D01*
X32815260Y-33009012D01*
X32758117Y-33009012D01*
X32672403Y-33037584D01*
X32643832Y-33066155D01*
X32072403Y-33609012D02*
X32415260Y-33609012D01*
X32243832Y-33609012D02*
X32243832Y-33009012D01*
X32300974Y-33094726D01*
X32358117Y-33151869D01*
X32415260Y-33180441D01*
%TO.C,R20*%
X115479754Y-65735340D02*
X115679754Y-65449626D01*
X115822611Y-65735340D02*
X115822611Y-65135340D01*
X115594040Y-65135340D01*
X115536897Y-65163912D01*
X115508325Y-65192483D01*
X115479754Y-65249626D01*
X115479754Y-65335340D01*
X115508325Y-65392483D01*
X115536897Y-65421054D01*
X115594040Y-65449626D01*
X115822611Y-65449626D01*
X115251182Y-65192483D02*
X115222611Y-65163912D01*
X115165468Y-65135340D01*
X115022611Y-65135340D01*
X114965468Y-65163912D01*
X114936897Y-65192483D01*
X114908325Y-65249626D01*
X114908325Y-65306769D01*
X114936897Y-65392483D01*
X115279754Y-65735340D01*
X114908325Y-65735340D01*
X114536897Y-65135340D02*
X114479754Y-65135340D01*
X114422611Y-65163912D01*
X114394040Y-65192483D01*
X114365468Y-65249626D01*
X114336897Y-65363912D01*
X114336897Y-65506769D01*
X114365468Y-65621054D01*
X114394040Y-65678197D01*
X114422611Y-65706769D01*
X114479754Y-65735340D01*
X114536897Y-65735340D01*
X114594040Y-65706769D01*
X114622611Y-65678197D01*
X114651182Y-65621054D01*
X114679754Y-65506769D01*
X114679754Y-65363912D01*
X114651182Y-65249626D01*
X114622611Y-65192483D01*
X114594040Y-65163912D01*
X114536897Y-65135340D01*
%TO.C,R19*%
X177193972Y-71028480D02*
X177393972Y-70742766D01*
X177536829Y-71028480D02*
X177536829Y-70428480D01*
X177308258Y-70428480D01*
X177251115Y-70457052D01*
X177222543Y-70485623D01*
X177193972Y-70542766D01*
X177193972Y-70628480D01*
X177222543Y-70685623D01*
X177251115Y-70714194D01*
X177308258Y-70742766D01*
X177536829Y-70742766D01*
X176622543Y-71028480D02*
X176965400Y-71028480D01*
X176793972Y-71028480D02*
X176793972Y-70428480D01*
X176851115Y-70514194D01*
X176908258Y-70571337D01*
X176965400Y-70599909D01*
X176336829Y-71028480D02*
X176222543Y-71028480D01*
X176165400Y-70999909D01*
X176136829Y-70971337D01*
X176079686Y-70885623D01*
X176051115Y-70771337D01*
X176051115Y-70542766D01*
X176079686Y-70485623D01*
X176108258Y-70457052D01*
X176165400Y-70428480D01*
X176279686Y-70428480D01*
X176336829Y-70457052D01*
X176365400Y-70485623D01*
X176393972Y-70542766D01*
X176393972Y-70685623D01*
X176365400Y-70742766D01*
X176336829Y-70771337D01*
X176279686Y-70799909D01*
X176165400Y-70799909D01*
X176108258Y-70771337D01*
X176079686Y-70742766D01*
X176051115Y-70685623D01*
D11*
%TO.C,C12*%
X38080229Y-41747427D02*
X38104038Y-41723617D01*
X38127848Y-41652189D01*
X38127848Y-41604570D01*
X38104038Y-41533141D01*
X38056419Y-41485522D01*
X38008800Y-41461713D01*
X37913562Y-41437903D01*
X37842134Y-41437903D01*
X37746896Y-41461713D01*
X37699277Y-41485522D01*
X37651658Y-41533141D01*
X37627848Y-41604570D01*
X37627848Y-41652189D01*
X37651658Y-41723617D01*
X37675467Y-41747427D01*
X38127848Y-42223617D02*
X38127848Y-41937903D01*
X38127848Y-42080760D02*
X37627848Y-42080760D01*
X37699277Y-42033141D01*
X37746896Y-41985522D01*
X37770705Y-41937903D01*
X37675467Y-42414094D02*
X37651658Y-42437903D01*
X37627848Y-42485522D01*
X37627848Y-42604570D01*
X37651658Y-42652189D01*
X37675467Y-42675998D01*
X37723086Y-42699808D01*
X37770705Y-42699808D01*
X37842134Y-42675998D01*
X38127848Y-42390284D01*
X38127848Y-42699808D01*
D10*
%TO.C,C5*%
X30575299Y-32298820D02*
X30603871Y-32270248D01*
X30632442Y-32184534D01*
X30632442Y-32127391D01*
X30603871Y-32041677D01*
X30546728Y-31984534D01*
X30489585Y-31955962D01*
X30375299Y-31927391D01*
X30289585Y-31927391D01*
X30175299Y-31955962D01*
X30118156Y-31984534D01*
X30061014Y-32041677D01*
X30032442Y-32127391D01*
X30032442Y-32184534D01*
X30061014Y-32270248D01*
X30089585Y-32298820D01*
X30032442Y-32841677D02*
X30032442Y-32555962D01*
X30318156Y-32527391D01*
X30289585Y-32555962D01*
X30261014Y-32613105D01*
X30261014Y-32755962D01*
X30289585Y-32813105D01*
X30318156Y-32841677D01*
X30375299Y-32870248D01*
X30518156Y-32870248D01*
X30575299Y-32841677D01*
X30603871Y-32813105D01*
X30632442Y-32755962D01*
X30632442Y-32613105D01*
X30603871Y-32555962D01*
X30575299Y-32527391D01*
%TO.C,R17*%
X232274422Y-63573150D02*
X232474422Y-63287436D01*
X232617279Y-63573150D02*
X232617279Y-62973150D01*
X232388708Y-62973150D01*
X232331565Y-63001722D01*
X232302993Y-63030293D01*
X232274422Y-63087436D01*
X232274422Y-63173150D01*
X232302993Y-63230293D01*
X232331565Y-63258864D01*
X232388708Y-63287436D01*
X232617279Y-63287436D01*
X231702993Y-63573150D02*
X232045850Y-63573150D01*
X231874422Y-63573150D02*
X231874422Y-62973150D01*
X231931565Y-63058864D01*
X231988708Y-63116007D01*
X232045850Y-63144579D01*
X231502993Y-62973150D02*
X231102993Y-62973150D01*
X231360136Y-63573150D01*
%TO.C,C8*%
X29527528Y-4595845D02*
X29575147Y-4548226D01*
X29622766Y-4405369D01*
X29622766Y-4310131D01*
X29575147Y-4167273D01*
X29479909Y-4072035D01*
X29384671Y-4024416D01*
X29194195Y-3976797D01*
X29051338Y-3976797D01*
X28860862Y-4024416D01*
X28765624Y-4072035D01*
X28670386Y-4167273D01*
X28622766Y-4310131D01*
X28622766Y-4405369D01*
X28670386Y-4548226D01*
X28718005Y-4595845D01*
X29051338Y-5167273D02*
X29003719Y-5072035D01*
X28956100Y-5024416D01*
X28860862Y-4976797D01*
X28813243Y-4976797D01*
X28718005Y-5024416D01*
X28670386Y-5072035D01*
X28622766Y-5167273D01*
X28622766Y-5357750D01*
X28670386Y-5452988D01*
X28718005Y-5500607D01*
X28813243Y-5548226D01*
X28860862Y-5548226D01*
X28956100Y-5500607D01*
X29003719Y-5452988D01*
X29051338Y-5357750D01*
X29051338Y-5167273D01*
X29098957Y-5072035D01*
X29146576Y-5024416D01*
X29241814Y-4976797D01*
X29432290Y-4976797D01*
X29527528Y-5024416D01*
X29575147Y-5072035D01*
X29622766Y-5167273D01*
X29622766Y-5357750D01*
X29575147Y-5452988D01*
X29527528Y-5500607D01*
X29432290Y-5548226D01*
X29241814Y-5548226D01*
X29146576Y-5500607D01*
X29098957Y-5452988D01*
X29051338Y-5357750D01*
%TO.C,R7*%
X-2876570Y-29441814D02*
X-2676570Y-29156100D01*
X-2533712Y-29441814D02*
X-2533712Y-28841814D01*
X-2762284Y-28841814D01*
X-2819427Y-28870386D01*
X-2847998Y-28898957D01*
X-2876570Y-28956100D01*
X-2876570Y-29041814D01*
X-2847998Y-29098957D01*
X-2819427Y-29127528D01*
X-2762284Y-29156100D01*
X-2533712Y-29156100D01*
X-3076569Y-28841814D02*
X-3476569Y-28841814D01*
X-3219427Y-29441814D01*
%TO.C,R3*%
X33410487Y-37206344D02*
X33124773Y-37006344D01*
X33410487Y-36863486D02*
X32810487Y-36863486D01*
X32810487Y-37092058D01*
X32839059Y-37149201D01*
X32867630Y-37177772D01*
X32924773Y-37206344D01*
X33010487Y-37206344D01*
X33067630Y-37177772D01*
X33096201Y-37149201D01*
X33124773Y-37092058D01*
X33124773Y-36863486D01*
X32810487Y-37406344D02*
X32810487Y-37777772D01*
X33039059Y-37577772D01*
X33039059Y-37663486D01*
X33067630Y-37720629D01*
X33096201Y-37749201D01*
X33153344Y-37777772D01*
X33296201Y-37777772D01*
X33353344Y-37749201D01*
X33381916Y-37720629D01*
X33410487Y-37663486D01*
X33410487Y-37492058D01*
X33381916Y-37434915D01*
X33353344Y-37406344D01*
%TO.C,C11*%
X276471677Y-67032310D02*
X276519296Y-67079929D01*
X276662153Y-67127548D01*
X276757391Y-67127548D01*
X276900248Y-67079929D01*
X276995486Y-66984691D01*
X277043105Y-66889453D01*
X277090724Y-66698977D01*
X277090724Y-66556120D01*
X277043105Y-66365644D01*
X276995486Y-66270406D01*
X276900248Y-66175168D01*
X276757391Y-66127548D01*
X276662153Y-66127548D01*
X276519296Y-66175168D01*
X276471677Y-66222787D01*
X275519296Y-67127548D02*
X276090724Y-67127548D01*
X275805010Y-67127548D02*
X275805010Y-66127548D01*
X275900248Y-66270406D01*
X275995486Y-66365644D01*
X276090724Y-66413263D01*
X274566915Y-67127548D02*
X275138343Y-67127548D01*
X274852629Y-67127548D02*
X274852629Y-66127548D01*
X274947867Y-66270406D01*
X275043105Y-66365644D01*
X275138343Y-66413263D01*
%TO.C,C10*%
X69640576Y-67683205D02*
X69669147Y-67711777D01*
X69754862Y-67740348D01*
X69812004Y-67740348D01*
X69897719Y-67711777D01*
X69954862Y-67654634D01*
X69983433Y-67597491D01*
X70012004Y-67483205D01*
X70012004Y-67397491D01*
X69983433Y-67283205D01*
X69954862Y-67226062D01*
X69897719Y-67168920D01*
X69812004Y-67140348D01*
X69754862Y-67140348D01*
X69669147Y-67168920D01*
X69640576Y-67197491D01*
X69069147Y-67740348D02*
X69412004Y-67740348D01*
X69240576Y-67740348D02*
X69240576Y-67140348D01*
X69297719Y-67226062D01*
X69354862Y-67283205D01*
X69412004Y-67311777D01*
X68697719Y-67140348D02*
X68640576Y-67140348D01*
X68583433Y-67168920D01*
X68554862Y-67197491D01*
X68526290Y-67254634D01*
X68497719Y-67368920D01*
X68497719Y-67511777D01*
X68526290Y-67626062D01*
X68554862Y-67683205D01*
X68583433Y-67711777D01*
X68640576Y-67740348D01*
X68697719Y-67740348D01*
X68754862Y-67711777D01*
X68783433Y-67683205D01*
X68812004Y-67626062D01*
X68840576Y-67511777D01*
X68840576Y-67368920D01*
X68812004Y-67254634D01*
X68783433Y-67197491D01*
X68754862Y-67168920D01*
X68697719Y-67140348D01*
%TO.C,C13*%
X43843636Y-33155076D02*
X43872207Y-33183648D01*
X43957922Y-33212219D01*
X44015064Y-33212219D01*
X44100779Y-33183648D01*
X44157922Y-33126505D01*
X44186493Y-33069362D01*
X44215064Y-32955076D01*
X44215064Y-32869362D01*
X44186493Y-32755076D01*
X44157922Y-32697933D01*
X44100779Y-32640791D01*
X44015064Y-32612219D01*
X43957922Y-32612219D01*
X43872207Y-32640791D01*
X43843636Y-32669362D01*
X43272207Y-33212219D02*
X43615064Y-33212219D01*
X43443636Y-33212219D02*
X43443636Y-32612219D01*
X43500779Y-32697933D01*
X43557922Y-32755076D01*
X43615064Y-32783648D01*
X43072207Y-32612219D02*
X42700779Y-32612219D01*
X42900779Y-32840791D01*
X42815064Y-32840791D01*
X42757922Y-32869362D01*
X42729350Y-32897933D01*
X42700779Y-32955076D01*
X42700779Y-33097933D01*
X42729350Y-33155076D01*
X42757922Y-33183648D01*
X42815064Y-33212219D01*
X42986493Y-33212219D01*
X43043636Y-33183648D01*
X43072207Y-33155076D01*
%TO.C,C6*%
X41970418Y-32361241D02*
X41998989Y-32389813D01*
X42084703Y-32418384D01*
X42141846Y-32418384D01*
X42227560Y-32389813D01*
X42284703Y-32332670D01*
X42313275Y-32275527D01*
X42341846Y-32161241D01*
X42341846Y-32075527D01*
X42313275Y-31961241D01*
X42284703Y-31904098D01*
X42227560Y-31846956D01*
X42141846Y-31818384D01*
X42084703Y-31818384D01*
X41998989Y-31846956D01*
X41970418Y-31875527D01*
X41456132Y-31818384D02*
X41570418Y-31818384D01*
X41627560Y-31846956D01*
X41656132Y-31875527D01*
X41713275Y-31961241D01*
X41741846Y-32075527D01*
X41741846Y-32304098D01*
X41713275Y-32361241D01*
X41684703Y-32389813D01*
X41627560Y-32418384D01*
X41513275Y-32418384D01*
X41456132Y-32389813D01*
X41427560Y-32361241D01*
X41398989Y-32304098D01*
X41398989Y-32161241D01*
X41427560Y-32104098D01*
X41456132Y-32075527D01*
X41513275Y-32046956D01*
X41627560Y-32046956D01*
X41684703Y-32075527D01*
X41713275Y-32104098D01*
X41741846Y-32161241D01*
%TO.C,R24*%
X155167354Y-64565340D02*
X155367354Y-64279626D01*
X155510211Y-64565340D02*
X155510211Y-63965340D01*
X155281640Y-63965340D01*
X155224497Y-63993912D01*
X155195925Y-64022483D01*
X155167354Y-64079626D01*
X155167354Y-64165340D01*
X155195925Y-64222483D01*
X155224497Y-64251054D01*
X155281640Y-64279626D01*
X155510211Y-64279626D01*
X154938782Y-64022483D02*
X154910211Y-63993912D01*
X154853068Y-63965340D01*
X154710211Y-63965340D01*
X154653068Y-63993912D01*
X154624497Y-64022483D01*
X154595925Y-64079626D01*
X154595925Y-64136769D01*
X154624497Y-64222483D01*
X154967354Y-64565340D01*
X154595925Y-64565340D01*
X154081640Y-64165340D02*
X154081640Y-64565340D01*
X154224497Y-63936769D02*
X154367354Y-64365340D01*
X153995925Y-64365340D01*
%TO.C,C4*%
X41092573Y-22629768D02*
X41121145Y-22601196D01*
X41149716Y-22515482D01*
X41149716Y-22458339D01*
X41121145Y-22372625D01*
X41064002Y-22315482D01*
X41006859Y-22286910D01*
X40892573Y-22258339D01*
X40806859Y-22258339D01*
X40692573Y-22286910D01*
X40635430Y-22315482D01*
X40578288Y-22372625D01*
X40549716Y-22458339D01*
X40549716Y-22515482D01*
X40578288Y-22601196D01*
X40606859Y-22629768D01*
X40749716Y-23144053D02*
X41149716Y-23144053D01*
X40521145Y-23001196D02*
X40949716Y-22858339D01*
X40949716Y-23229768D01*
%TO.C,R12*%
X28960786Y-70320042D02*
X29160786Y-70034328D01*
X29303643Y-70320042D02*
X29303643Y-69720042D01*
X29075072Y-69720042D01*
X29017929Y-69748614D01*
X28989357Y-69777185D01*
X28960786Y-69834328D01*
X28960786Y-69920042D01*
X28989357Y-69977185D01*
X29017929Y-70005756D01*
X29075072Y-70034328D01*
X29303643Y-70034328D01*
X28389357Y-70320042D02*
X28732214Y-70320042D01*
X28560786Y-70320042D02*
X28560786Y-69720042D01*
X28617929Y-69805756D01*
X28675072Y-69862899D01*
X28732214Y-69891471D01*
X28160786Y-69777185D02*
X28132214Y-69748614D01*
X28075072Y-69720042D01*
X27932214Y-69720042D01*
X27875072Y-69748614D01*
X27846500Y-69777185D01*
X27817929Y-69834328D01*
X27817929Y-69891471D01*
X27846500Y-69977185D01*
X28189357Y-70320042D01*
X27817929Y-70320042D01*
%TO.C,JP1*%
X34036022Y-18523038D02*
X34036022Y-18951610D01*
X34064593Y-19037324D01*
X34121736Y-19094467D01*
X34207450Y-19123038D01*
X34264593Y-19123038D01*
X33750307Y-19123038D02*
X33750307Y-18523038D01*
X33521736Y-18523038D01*
X33464593Y-18551610D01*
X33436022Y-18580181D01*
X33407450Y-18637324D01*
X33407450Y-18723038D01*
X33436022Y-18780181D01*
X33464593Y-18808752D01*
X33521736Y-18837324D01*
X33750307Y-18837324D01*
X32836022Y-19123038D02*
X33178879Y-19123038D01*
X33007450Y-19123038D02*
X33007450Y-18523038D01*
X33064593Y-18608752D01*
X33121736Y-18665895D01*
X33178879Y-18694467D01*
%TO.C,Y1*%
X44838690Y-26555129D02*
X45314880Y-26555129D01*
X44314880Y-26221796D02*
X44838690Y-26555129D01*
X44314880Y-26888462D01*
X45314880Y-27745605D02*
X45314880Y-27174177D01*
X45314880Y-27459891D02*
X44314880Y-27459891D01*
X44457738Y-27364653D01*
X44552976Y-27269415D01*
X44600595Y-27174177D01*
%TO.C,H28*%
G36*
X278776249Y-53247098D02*
G01*
X278776249Y-53300165D01*
X277392101Y-54684313D01*
X277711482Y-55003694D01*
X277711482Y-55030227D01*
X277711474Y-55031136D01*
X277707188Y-55053556D01*
X277697405Y-55070837D01*
X277696958Y-55071173D01*
X277685734Y-55075721D01*
X277661162Y-55083937D01*
X277624457Y-55095475D01*
X277576833Y-55109991D01*
X277519503Y-55127141D01*
X277453681Y-55146581D01*
X277380582Y-55167965D01*
X277301418Y-55190949D01*
X277217404Y-55215191D01*
X277129755Y-55240345D01*
X277039683Y-55266065D01*
X276948404Y-55292010D01*
X276857130Y-55317833D01*
X276767075Y-55343191D01*
X276679455Y-55367739D01*
X276595482Y-55391133D01*
X276516371Y-55413028D01*
X276443334Y-55433080D01*
X276377587Y-55450946D01*
X276320344Y-55466279D01*
X276272818Y-55478738D01*
X276236223Y-55487975D01*
X276211772Y-55493648D01*
X276200681Y-55495412D01*
X276176912Y-55487440D01*
X276157475Y-55468518D01*
X276148624Y-55443355D01*
X276148624Y-55442638D01*
X276150963Y-55429556D01*
X276157161Y-55403287D01*
X276166875Y-55365047D01*
X276179760Y-55316049D01*
X276195471Y-55257509D01*
X276213665Y-55190638D01*
X276233995Y-55116652D01*
X276256121Y-55036765D01*
X276279696Y-54952190D01*
X276304375Y-54864144D01*
X276329815Y-54773838D01*
X276355671Y-54682487D01*
X276381600Y-54591305D01*
X276407256Y-54501507D01*
X276432296Y-54414306D01*
X276456375Y-54330917D01*
X276479147Y-54252554D01*
X276500271Y-54180430D01*
X276519401Y-54115760D01*
X276536192Y-54059759D01*
X276550300Y-54013639D01*
X276561382Y-53978616D01*
X276569092Y-53955902D01*
X276573088Y-53946713D01*
X276573387Y-53946420D01*
X276591154Y-53936589D01*
X276613794Y-53932539D01*
X276640327Y-53932539D01*
X276959708Y-54251920D01*
X278343856Y-52867772D01*
X278396923Y-52867772D01*
X278776249Y-53247098D01*
G37*
%TO.C,H29*%
G36*
X75737962Y-77316588D02*
G01*
X75764231Y-77322786D01*
X75802471Y-77332500D01*
X75851469Y-77345385D01*
X75910009Y-77361096D01*
X75976880Y-77379290D01*
X76050866Y-77399620D01*
X76130753Y-77421746D01*
X76215328Y-77445321D01*
X76303374Y-77470000D01*
X76393680Y-77495440D01*
X76485031Y-77521296D01*
X76576213Y-77547225D01*
X76666011Y-77572881D01*
X76753212Y-77597921D01*
X76836601Y-77622000D01*
X76914964Y-77644772D01*
X76987088Y-77665896D01*
X77051758Y-77685026D01*
X77107759Y-77701817D01*
X77153879Y-77715925D01*
X77188902Y-77727007D01*
X77211616Y-77734717D01*
X77220805Y-77738713D01*
X77221098Y-77739012D01*
X77230929Y-77756779D01*
X77234979Y-77779419D01*
X77234979Y-77805952D01*
X76915598Y-78125333D01*
X78299746Y-79509481D01*
X78299746Y-79562548D01*
X77920420Y-79941874D01*
X77867353Y-79941874D01*
X76483205Y-78557726D01*
X76163824Y-78877107D01*
X76137291Y-78877107D01*
X76136382Y-78877099D01*
X76113962Y-78872813D01*
X76096681Y-78863030D01*
X76096345Y-78862583D01*
X76091797Y-78851359D01*
X76083581Y-78826787D01*
X76072043Y-78790082D01*
X76057527Y-78742458D01*
X76040377Y-78685128D01*
X76020937Y-78619306D01*
X75999553Y-78546207D01*
X75976569Y-78467043D01*
X75952327Y-78383029D01*
X75927173Y-78295380D01*
X75901453Y-78205308D01*
X75875508Y-78114029D01*
X75849685Y-78022755D01*
X75824327Y-77932700D01*
X75799779Y-77845080D01*
X75776385Y-77761107D01*
X75754490Y-77681996D01*
X75734438Y-77608959D01*
X75716572Y-77543212D01*
X75701239Y-77485969D01*
X75688780Y-77438443D01*
X75679543Y-77401848D01*
X75673870Y-77377397D01*
X75672106Y-77366306D01*
X75680078Y-77342537D01*
X75699000Y-77323100D01*
X75724163Y-77314249D01*
X75724880Y-77314249D01*
X75737962Y-77316588D01*
G37*
%TO.C,H22*%
G36*
X13266898Y-53247098D02*
G01*
X13266898Y-53300165D01*
X11882750Y-54684313D01*
X12202131Y-55003694D01*
X12202131Y-55030227D01*
X12202123Y-55031136D01*
X12197837Y-55053556D01*
X12188054Y-55070837D01*
X12187607Y-55071173D01*
X12176383Y-55075721D01*
X12151811Y-55083937D01*
X12115106Y-55095475D01*
X12067482Y-55109991D01*
X12010152Y-55127141D01*
X11944330Y-55146581D01*
X11871231Y-55167965D01*
X11792067Y-55190949D01*
X11708053Y-55215191D01*
X11620404Y-55240345D01*
X11530332Y-55266065D01*
X11439053Y-55292010D01*
X11347779Y-55317833D01*
X11257724Y-55343191D01*
X11170104Y-55367739D01*
X11086131Y-55391133D01*
X11007020Y-55413028D01*
X10933983Y-55433080D01*
X10868236Y-55450946D01*
X10810993Y-55466279D01*
X10763467Y-55478738D01*
X10726872Y-55487975D01*
X10702421Y-55493648D01*
X10691330Y-55495412D01*
X10667561Y-55487440D01*
X10648124Y-55468518D01*
X10639273Y-55443355D01*
X10639273Y-55442638D01*
X10641612Y-55429556D01*
X10647810Y-55403287D01*
X10657524Y-55365047D01*
X10670409Y-55316049D01*
X10686120Y-55257509D01*
X10704314Y-55190638D01*
X10724644Y-55116652D01*
X10746770Y-55036765D01*
X10770345Y-54952190D01*
X10795024Y-54864144D01*
X10820464Y-54773838D01*
X10846320Y-54682487D01*
X10872249Y-54591305D01*
X10897905Y-54501507D01*
X10922945Y-54414306D01*
X10947024Y-54330917D01*
X10969796Y-54252554D01*
X10990920Y-54180430D01*
X11010050Y-54115760D01*
X11026841Y-54059759D01*
X11040949Y-54013639D01*
X11052031Y-53978616D01*
X11059741Y-53955902D01*
X11063737Y-53946713D01*
X11064036Y-53946420D01*
X11081803Y-53936589D01*
X11104443Y-53932539D01*
X11130976Y-53932539D01*
X11450357Y-54251920D01*
X12834505Y-52867772D01*
X12887572Y-52867772D01*
X13266898Y-53247098D01*
G37*
%TO.C,H16*%
G36*
X71607499Y-34196954D02*
G01*
X71607499Y-34250021D01*
X70223351Y-35634169D01*
X70542732Y-35953550D01*
X70542732Y-35980083D01*
X70542724Y-35980992D01*
X70538438Y-36003412D01*
X70528655Y-36020693D01*
X70528208Y-36021029D01*
X70516984Y-36025577D01*
X70492412Y-36033793D01*
X70455707Y-36045331D01*
X70408083Y-36059847D01*
X70350753Y-36076997D01*
X70284931Y-36096437D01*
X70211832Y-36117821D01*
X70132668Y-36140805D01*
X70048654Y-36165047D01*
X69961005Y-36190201D01*
X69870933Y-36215921D01*
X69779654Y-36241866D01*
X69688380Y-36267689D01*
X69598325Y-36293047D01*
X69510705Y-36317595D01*
X69426732Y-36340989D01*
X69347621Y-36362884D01*
X69274584Y-36382936D01*
X69208837Y-36400802D01*
X69151594Y-36416135D01*
X69104068Y-36428594D01*
X69067473Y-36437831D01*
X69043022Y-36443504D01*
X69031931Y-36445268D01*
X69008162Y-36437296D01*
X68988725Y-36418374D01*
X68979874Y-36393211D01*
X68979874Y-36392494D01*
X68982213Y-36379412D01*
X68988411Y-36353143D01*
X68998125Y-36314903D01*
X69011010Y-36265905D01*
X69026721Y-36207365D01*
X69044915Y-36140494D01*
X69065245Y-36066508D01*
X69087371Y-35986621D01*
X69110946Y-35902046D01*
X69135625Y-35814000D01*
X69161065Y-35723694D01*
X69186921Y-35632343D01*
X69212850Y-35541161D01*
X69238506Y-35451363D01*
X69263546Y-35364162D01*
X69287625Y-35280773D01*
X69310397Y-35202410D01*
X69331521Y-35130286D01*
X69350651Y-35065616D01*
X69367442Y-35009615D01*
X69381550Y-34963495D01*
X69392632Y-34928472D01*
X69400342Y-34905758D01*
X69404338Y-34896569D01*
X69404637Y-34896276D01*
X69422404Y-34886445D01*
X69445044Y-34882395D01*
X69471577Y-34882395D01*
X69790958Y-35201776D01*
X71175106Y-33817628D01*
X71228173Y-33817628D01*
X71607499Y-34196954D01*
G37*
%TO.C,H14*%
G36*
X323133874Y-8127954D02*
G01*
X323133874Y-8181021D01*
X321749726Y-9565169D01*
X322069107Y-9884550D01*
X322069107Y-9911083D01*
X322069099Y-9911992D01*
X322064813Y-9934412D01*
X322055030Y-9951693D01*
X322054583Y-9952029D01*
X322043359Y-9956577D01*
X322018787Y-9964793D01*
X321982082Y-9976331D01*
X321934458Y-9990847D01*
X321877128Y-10007997D01*
X321811306Y-10027437D01*
X321738207Y-10048821D01*
X321659043Y-10071805D01*
X321575029Y-10096047D01*
X321487380Y-10121201D01*
X321397308Y-10146921D01*
X321306029Y-10172866D01*
X321214755Y-10198689D01*
X321124700Y-10224047D01*
X321037080Y-10248595D01*
X320953107Y-10271989D01*
X320873996Y-10293884D01*
X320800959Y-10313936D01*
X320735212Y-10331802D01*
X320677969Y-10347135D01*
X320630443Y-10359594D01*
X320593848Y-10368831D01*
X320569397Y-10374504D01*
X320558306Y-10376268D01*
X320534537Y-10368296D01*
X320515100Y-10349374D01*
X320506249Y-10324211D01*
X320506249Y-10323494D01*
X320508588Y-10310412D01*
X320514786Y-10284143D01*
X320524500Y-10245903D01*
X320537385Y-10196905D01*
X320553096Y-10138365D01*
X320571290Y-10071494D01*
X320591620Y-9997508D01*
X320613746Y-9917621D01*
X320637321Y-9833046D01*
X320662000Y-9745000D01*
X320687440Y-9654694D01*
X320713296Y-9563343D01*
X320739225Y-9472161D01*
X320764881Y-9382363D01*
X320789921Y-9295162D01*
X320814000Y-9211773D01*
X320836772Y-9133410D01*
X320857896Y-9061286D01*
X320877026Y-8996616D01*
X320893817Y-8940615D01*
X320907925Y-8894495D01*
X320919007Y-8859472D01*
X320926717Y-8836758D01*
X320930713Y-8827569D01*
X320931012Y-8827276D01*
X320948779Y-8817445D01*
X320971419Y-8813395D01*
X320997952Y-8813395D01*
X321317333Y-9132776D01*
X322701481Y-7748628D01*
X322754548Y-7748628D01*
X323133874Y-8127954D01*
G37*
%TO.C,H17*%
G36*
X113279650Y-34197050D02*
G01*
X113279650Y-34250117D01*
X111895502Y-35634265D01*
X112214883Y-35953646D01*
X112214883Y-35980179D01*
X112214875Y-35981088D01*
X112210589Y-36003508D01*
X112200806Y-36020789D01*
X112200359Y-36021125D01*
X112189135Y-36025673D01*
X112164563Y-36033889D01*
X112127858Y-36045427D01*
X112080234Y-36059943D01*
X112022904Y-36077093D01*
X111957082Y-36096533D01*
X111883983Y-36117917D01*
X111804819Y-36140901D01*
X111720805Y-36165143D01*
X111633156Y-36190297D01*
X111543084Y-36216017D01*
X111451805Y-36241962D01*
X111360531Y-36267785D01*
X111270476Y-36293143D01*
X111182856Y-36317691D01*
X111098883Y-36341085D01*
X111019772Y-36362980D01*
X110946735Y-36383032D01*
X110880988Y-36400898D01*
X110823745Y-36416231D01*
X110776219Y-36428690D01*
X110739624Y-36437927D01*
X110715173Y-36443600D01*
X110704082Y-36445364D01*
X110680313Y-36437392D01*
X110660876Y-36418470D01*
X110652025Y-36393307D01*
X110652025Y-36392590D01*
X110654364Y-36379508D01*
X110660562Y-36353239D01*
X110670276Y-36314999D01*
X110683161Y-36266001D01*
X110698872Y-36207461D01*
X110717066Y-36140590D01*
X110737396Y-36066604D01*
X110759522Y-35986717D01*
X110783097Y-35902142D01*
X110807776Y-35814096D01*
X110833216Y-35723790D01*
X110859072Y-35632439D01*
X110885001Y-35541257D01*
X110910657Y-35451459D01*
X110935697Y-35364258D01*
X110959776Y-35280869D01*
X110982548Y-35202506D01*
X111003672Y-35130382D01*
X111022802Y-35065712D01*
X111039593Y-35009711D01*
X111053701Y-34963591D01*
X111064783Y-34928568D01*
X111072493Y-34905854D01*
X111076489Y-34896665D01*
X111076788Y-34896372D01*
X111094555Y-34886541D01*
X111117195Y-34882491D01*
X111143728Y-34882491D01*
X111463109Y-35201872D01*
X112847257Y-33817724D01*
X112900324Y-33817724D01*
X113279650Y-34197050D01*
G37*
%TO.C,H21*%
G36*
X303780130Y-34197050D02*
G01*
X303780130Y-34250117D01*
X302395982Y-35634265D01*
X302715363Y-35953646D01*
X302715363Y-35980179D01*
X302715355Y-35981088D01*
X302711069Y-36003508D01*
X302701286Y-36020789D01*
X302700839Y-36021125D01*
X302689615Y-36025673D01*
X302665043Y-36033889D01*
X302628338Y-36045427D01*
X302580714Y-36059943D01*
X302523384Y-36077093D01*
X302457562Y-36096533D01*
X302384463Y-36117917D01*
X302305299Y-36140901D01*
X302221285Y-36165143D01*
X302133636Y-36190297D01*
X302043564Y-36216017D01*
X301952285Y-36241962D01*
X301861011Y-36267785D01*
X301770956Y-36293143D01*
X301683336Y-36317691D01*
X301599363Y-36341085D01*
X301520252Y-36362980D01*
X301447215Y-36383032D01*
X301381468Y-36400898D01*
X301324225Y-36416231D01*
X301276699Y-36428690D01*
X301240104Y-36437927D01*
X301215653Y-36443600D01*
X301204562Y-36445364D01*
X301180793Y-36437392D01*
X301161356Y-36418470D01*
X301152505Y-36393307D01*
X301152505Y-36392590D01*
X301154844Y-36379508D01*
X301161042Y-36353239D01*
X301170756Y-36314999D01*
X301183641Y-36266001D01*
X301199352Y-36207461D01*
X301217546Y-36140590D01*
X301237876Y-36066604D01*
X301260002Y-35986717D01*
X301283577Y-35902142D01*
X301308256Y-35814096D01*
X301333696Y-35723790D01*
X301359552Y-35632439D01*
X301385481Y-35541257D01*
X301411137Y-35451459D01*
X301436177Y-35364258D01*
X301460256Y-35280869D01*
X301483028Y-35202506D01*
X301504152Y-35130382D01*
X301523282Y-35065712D01*
X301540073Y-35009711D01*
X301554181Y-34963591D01*
X301565263Y-34928568D01*
X301572973Y-34905854D01*
X301576969Y-34896665D01*
X301577268Y-34896372D01*
X301595035Y-34886541D01*
X301617675Y-34882491D01*
X301644208Y-34882491D01*
X301963589Y-35201872D01*
X303347737Y-33817724D01*
X303400804Y-33817724D01*
X303780130Y-34197050D01*
G37*
%TO.C,H25*%
G36*
X160904770Y-53247098D02*
G01*
X160904770Y-53300165D01*
X159520622Y-54684313D01*
X159840003Y-55003694D01*
X159840003Y-55030227D01*
X159839995Y-55031136D01*
X159835709Y-55053556D01*
X159825926Y-55070837D01*
X159825479Y-55071173D01*
X159814255Y-55075721D01*
X159789683Y-55083937D01*
X159752978Y-55095475D01*
X159705354Y-55109991D01*
X159648024Y-55127141D01*
X159582202Y-55146581D01*
X159509103Y-55167965D01*
X159429939Y-55190949D01*
X159345925Y-55215191D01*
X159258276Y-55240345D01*
X159168204Y-55266065D01*
X159076925Y-55292010D01*
X158985651Y-55317833D01*
X158895596Y-55343191D01*
X158807976Y-55367739D01*
X158724003Y-55391133D01*
X158644892Y-55413028D01*
X158571855Y-55433080D01*
X158506108Y-55450946D01*
X158448865Y-55466279D01*
X158401339Y-55478738D01*
X158364744Y-55487975D01*
X158340293Y-55493648D01*
X158329202Y-55495412D01*
X158305433Y-55487440D01*
X158285996Y-55468518D01*
X158277145Y-55443355D01*
X158277145Y-55442638D01*
X158279484Y-55429556D01*
X158285682Y-55403287D01*
X158295396Y-55365047D01*
X158308281Y-55316049D01*
X158323992Y-55257509D01*
X158342186Y-55190638D01*
X158362516Y-55116652D01*
X158384642Y-55036765D01*
X158408217Y-54952190D01*
X158432896Y-54864144D01*
X158458336Y-54773838D01*
X158484192Y-54682487D01*
X158510121Y-54591305D01*
X158535777Y-54501507D01*
X158560817Y-54414306D01*
X158584896Y-54330917D01*
X158607668Y-54252554D01*
X158628792Y-54180430D01*
X158647922Y-54115760D01*
X158664713Y-54059759D01*
X158678821Y-54013639D01*
X158689903Y-53978616D01*
X158697613Y-53955902D01*
X158701609Y-53946713D01*
X158701908Y-53946420D01*
X158719675Y-53936589D01*
X158742315Y-53932539D01*
X158768848Y-53932539D01*
X159088229Y-54251920D01*
X160472377Y-52867772D01*
X160525444Y-52867772D01*
X160904770Y-53247098D01*
G37*
%TO.C,H30*%
G36*
X39460624Y-72296954D02*
G01*
X39460624Y-72350021D01*
X38076476Y-73734169D01*
X38395857Y-74053550D01*
X38395857Y-74080083D01*
X38395849Y-74080992D01*
X38391563Y-74103412D01*
X38381780Y-74120693D01*
X38381333Y-74121029D01*
X38370109Y-74125577D01*
X38345537Y-74133793D01*
X38308832Y-74145331D01*
X38261208Y-74159847D01*
X38203878Y-74176997D01*
X38138056Y-74196437D01*
X38064957Y-74217821D01*
X37985793Y-74240805D01*
X37901779Y-74265047D01*
X37814130Y-74290201D01*
X37724058Y-74315921D01*
X37632779Y-74341866D01*
X37541505Y-74367689D01*
X37451450Y-74393047D01*
X37363830Y-74417595D01*
X37279857Y-74440989D01*
X37200746Y-74462884D01*
X37127709Y-74482936D01*
X37061962Y-74500802D01*
X37004719Y-74516135D01*
X36957193Y-74528594D01*
X36920598Y-74537831D01*
X36896147Y-74543504D01*
X36885056Y-74545268D01*
X36861287Y-74537296D01*
X36841850Y-74518374D01*
X36832999Y-74493211D01*
X36832999Y-74492494D01*
X36835338Y-74479412D01*
X36841536Y-74453143D01*
X36851250Y-74414903D01*
X36864135Y-74365905D01*
X36879846Y-74307365D01*
X36898040Y-74240494D01*
X36918370Y-74166508D01*
X36940496Y-74086621D01*
X36964071Y-74002046D01*
X36988750Y-73914000D01*
X37014190Y-73823694D01*
X37040046Y-73732343D01*
X37065975Y-73641161D01*
X37091631Y-73551363D01*
X37116671Y-73464162D01*
X37140750Y-73380773D01*
X37163522Y-73302410D01*
X37184646Y-73230286D01*
X37203776Y-73165616D01*
X37220567Y-73109615D01*
X37234675Y-73063495D01*
X37245757Y-73028472D01*
X37253467Y-73005758D01*
X37257463Y-72996569D01*
X37257762Y-72996276D01*
X37275529Y-72986445D01*
X37298169Y-72982395D01*
X37324702Y-72982395D01*
X37644083Y-73301776D01*
X39028231Y-71917628D01*
X39081298Y-71917628D01*
X39460624Y-72296954D01*
G37*
%TO.C,H15*%
G36*
X27432535Y-39762800D02*
G01*
X27451972Y-39781722D01*
X27460823Y-39806885D01*
X27460823Y-39807602D01*
X27458484Y-39820684D01*
X27452286Y-39846953D01*
X27442572Y-39885193D01*
X27429687Y-39934191D01*
X27413976Y-39992731D01*
X27395782Y-40059602D01*
X27375452Y-40133588D01*
X27353326Y-40213475D01*
X27329751Y-40298050D01*
X27305072Y-40386096D01*
X27279632Y-40476402D01*
X27253776Y-40567753D01*
X27227847Y-40658935D01*
X27202191Y-40748733D01*
X27177151Y-40835934D01*
X27153072Y-40919323D01*
X27130300Y-40997686D01*
X27109176Y-41069810D01*
X27090046Y-41134480D01*
X27073255Y-41190481D01*
X27059147Y-41236601D01*
X27048065Y-41271624D01*
X27040355Y-41294338D01*
X27036359Y-41303527D01*
X27036060Y-41303820D01*
X27018293Y-41313651D01*
X26995653Y-41317701D01*
X26969120Y-41317701D01*
X26649739Y-40998320D01*
X25265591Y-42382468D01*
X25212524Y-42382468D01*
X24833198Y-42003142D01*
X24833198Y-41950075D01*
X26217346Y-40565927D01*
X25897965Y-40246546D01*
X25897965Y-40220013D01*
X25897973Y-40219104D01*
X25902259Y-40196684D01*
X25912042Y-40179403D01*
X25912489Y-40179067D01*
X25923713Y-40174519D01*
X25948285Y-40166303D01*
X25984990Y-40154765D01*
X26032614Y-40140249D01*
X26089944Y-40123099D01*
X26155766Y-40103659D01*
X26228865Y-40082275D01*
X26308029Y-40059291D01*
X26392043Y-40035049D01*
X26479692Y-40009895D01*
X26569764Y-39984175D01*
X26661043Y-39958230D01*
X26752317Y-39932407D01*
X26842372Y-39907049D01*
X26929992Y-39882501D01*
X27013965Y-39859107D01*
X27093076Y-39837212D01*
X27166113Y-39817160D01*
X27231860Y-39799294D01*
X27289103Y-39783961D01*
X27336629Y-39771502D01*
X27373224Y-39762265D01*
X27397675Y-39756592D01*
X27408766Y-39754828D01*
X27432535Y-39762800D01*
G37*
%TO.C,H19*%
G36*
X227579374Y-34196954D02*
G01*
X227579374Y-34250021D01*
X226195226Y-35634169D01*
X226514607Y-35953550D01*
X226514607Y-35980083D01*
X226514599Y-35980992D01*
X226510313Y-36003412D01*
X226500530Y-36020693D01*
X226500083Y-36021029D01*
X226488859Y-36025577D01*
X226464287Y-36033793D01*
X226427582Y-36045331D01*
X226379958Y-36059847D01*
X226322628Y-36076997D01*
X226256806Y-36096437D01*
X226183707Y-36117821D01*
X226104543Y-36140805D01*
X226020529Y-36165047D01*
X225932880Y-36190201D01*
X225842808Y-36215921D01*
X225751529Y-36241866D01*
X225660255Y-36267689D01*
X225570200Y-36293047D01*
X225482580Y-36317595D01*
X225398607Y-36340989D01*
X225319496Y-36362884D01*
X225246459Y-36382936D01*
X225180712Y-36400802D01*
X225123469Y-36416135D01*
X225075943Y-36428594D01*
X225039348Y-36437831D01*
X225014897Y-36443504D01*
X225003806Y-36445268D01*
X224980037Y-36437296D01*
X224960600Y-36418374D01*
X224951749Y-36393211D01*
X224951749Y-36392494D01*
X224954088Y-36379412D01*
X224960286Y-36353143D01*
X224970000Y-36314903D01*
X224982885Y-36265905D01*
X224998596Y-36207365D01*
X225016790Y-36140494D01*
X225037120Y-36066508D01*
X225059246Y-35986621D01*
X225082821Y-35902046D01*
X225107500Y-35814000D01*
X225132940Y-35723694D01*
X225158796Y-35632343D01*
X225184725Y-35541161D01*
X225210381Y-35451363D01*
X225235421Y-35364162D01*
X225259500Y-35280773D01*
X225282272Y-35202410D01*
X225303396Y-35130286D01*
X225322526Y-35065616D01*
X225339317Y-35009615D01*
X225353425Y-34963495D01*
X225364507Y-34928472D01*
X225372217Y-34905758D01*
X225376213Y-34896569D01*
X225376512Y-34896276D01*
X225394279Y-34886445D01*
X225416919Y-34882395D01*
X225443452Y-34882395D01*
X225762833Y-35201776D01*
X227146981Y-33817628D01*
X227200048Y-33817628D01*
X227579374Y-34196954D01*
G37*
%TO.C,H12*%
G36*
X241867474Y-15147002D02*
G01*
X241867474Y-15200069D01*
X240483326Y-16584217D01*
X240802707Y-16903598D01*
X240802707Y-16930131D01*
X240802699Y-16931040D01*
X240798413Y-16953460D01*
X240788630Y-16970741D01*
X240788183Y-16971077D01*
X240776959Y-16975625D01*
X240752387Y-16983841D01*
X240715682Y-16995379D01*
X240668058Y-17009895D01*
X240610728Y-17027045D01*
X240544906Y-17046485D01*
X240471807Y-17067869D01*
X240392643Y-17090853D01*
X240308629Y-17115095D01*
X240220980Y-17140249D01*
X240130908Y-17165969D01*
X240039629Y-17191914D01*
X239948355Y-17217737D01*
X239858300Y-17243095D01*
X239770680Y-17267643D01*
X239686707Y-17291037D01*
X239607596Y-17312932D01*
X239534559Y-17332984D01*
X239468812Y-17350850D01*
X239411569Y-17366183D01*
X239364043Y-17378642D01*
X239327448Y-17387879D01*
X239302997Y-17393552D01*
X239291906Y-17395316D01*
X239268137Y-17387344D01*
X239248700Y-17368422D01*
X239239849Y-17343259D01*
X239239849Y-17342542D01*
X239242188Y-17329460D01*
X239248386Y-17303191D01*
X239258100Y-17264951D01*
X239270985Y-17215953D01*
X239286696Y-17157413D01*
X239304890Y-17090542D01*
X239325220Y-17016556D01*
X239347346Y-16936669D01*
X239370921Y-16852094D01*
X239395600Y-16764048D01*
X239421040Y-16673742D01*
X239446896Y-16582391D01*
X239472825Y-16491209D01*
X239498481Y-16401411D01*
X239523521Y-16314210D01*
X239547600Y-16230821D01*
X239570372Y-16152458D01*
X239591496Y-16080334D01*
X239610626Y-16015664D01*
X239627417Y-15959663D01*
X239641525Y-15913543D01*
X239652607Y-15878520D01*
X239660317Y-15855806D01*
X239664313Y-15846617D01*
X239664612Y-15846324D01*
X239682379Y-15836493D01*
X239705019Y-15832443D01*
X239731552Y-15832443D01*
X240050933Y-16151824D01*
X241435081Y-14767676D01*
X241488148Y-14767676D01*
X241867474Y-15147002D01*
G37*
%TO.C,H23*%
G36*
X46728874Y-60694954D02*
G01*
X46728874Y-60748021D01*
X45344726Y-62132169D01*
X45664107Y-62451550D01*
X45664107Y-62478083D01*
X45664099Y-62478992D01*
X45659813Y-62501412D01*
X45650030Y-62518693D01*
X45649583Y-62519029D01*
X45638359Y-62523577D01*
X45613787Y-62531793D01*
X45577082Y-62543331D01*
X45529458Y-62557847D01*
X45472128Y-62574997D01*
X45406306Y-62594437D01*
X45333207Y-62615821D01*
X45254043Y-62638805D01*
X45170029Y-62663047D01*
X45082380Y-62688201D01*
X44992308Y-62713921D01*
X44901029Y-62739866D01*
X44809755Y-62765689D01*
X44719700Y-62791047D01*
X44632080Y-62815595D01*
X44548107Y-62838989D01*
X44468996Y-62860884D01*
X44395959Y-62880936D01*
X44330212Y-62898802D01*
X44272969Y-62914135D01*
X44225443Y-62926594D01*
X44188848Y-62935831D01*
X44164397Y-62941504D01*
X44153306Y-62943268D01*
X44129537Y-62935296D01*
X44110100Y-62916374D01*
X44101249Y-62891211D01*
X44101249Y-62890494D01*
X44103588Y-62877412D01*
X44109786Y-62851143D01*
X44119500Y-62812903D01*
X44132385Y-62763905D01*
X44148096Y-62705365D01*
X44166290Y-62638494D01*
X44186620Y-62564508D01*
X44208746Y-62484621D01*
X44232321Y-62400046D01*
X44257000Y-62312000D01*
X44282440Y-62221694D01*
X44308296Y-62130343D01*
X44334225Y-62039161D01*
X44359881Y-61949363D01*
X44384921Y-61862162D01*
X44409000Y-61778773D01*
X44431772Y-61700410D01*
X44452896Y-61628286D01*
X44472026Y-61563616D01*
X44488817Y-61507615D01*
X44502925Y-61461495D01*
X44514007Y-61426472D01*
X44521717Y-61403758D01*
X44525713Y-61394569D01*
X44526012Y-61394276D01*
X44543779Y-61384445D01*
X44566419Y-61380395D01*
X44592952Y-61380395D01*
X44912333Y-61699776D01*
X46296481Y-60315628D01*
X46349548Y-60315628D01*
X46728874Y-60694954D01*
G37*
%TO.C,H11*%
G36*
X184717330Y-15147002D02*
G01*
X184717330Y-15200069D01*
X183333182Y-16584217D01*
X183652563Y-16903598D01*
X183652563Y-16930131D01*
X183652555Y-16931040D01*
X183648269Y-16953460D01*
X183638486Y-16970741D01*
X183638039Y-16971077D01*
X183626815Y-16975625D01*
X183602243Y-16983841D01*
X183565538Y-16995379D01*
X183517914Y-17009895D01*
X183460584Y-17027045D01*
X183394762Y-17046485D01*
X183321663Y-17067869D01*
X183242499Y-17090853D01*
X183158485Y-17115095D01*
X183070836Y-17140249D01*
X182980764Y-17165969D01*
X182889485Y-17191914D01*
X182798211Y-17217737D01*
X182708156Y-17243095D01*
X182620536Y-17267643D01*
X182536563Y-17291037D01*
X182457452Y-17312932D01*
X182384415Y-17332984D01*
X182318668Y-17350850D01*
X182261425Y-17366183D01*
X182213899Y-17378642D01*
X182177304Y-17387879D01*
X182152853Y-17393552D01*
X182141762Y-17395316D01*
X182117993Y-17387344D01*
X182098556Y-17368422D01*
X182089705Y-17343259D01*
X182089705Y-17342542D01*
X182092044Y-17329460D01*
X182098242Y-17303191D01*
X182107956Y-17264951D01*
X182120841Y-17215953D01*
X182136552Y-17157413D01*
X182154746Y-17090542D01*
X182175076Y-17016556D01*
X182197202Y-16936669D01*
X182220777Y-16852094D01*
X182245456Y-16764048D01*
X182270896Y-16673742D01*
X182296752Y-16582391D01*
X182322681Y-16491209D01*
X182348337Y-16401411D01*
X182373377Y-16314210D01*
X182397456Y-16230821D01*
X182420228Y-16152458D01*
X182441352Y-16080334D01*
X182460482Y-16015664D01*
X182477273Y-15959663D01*
X182491381Y-15913543D01*
X182502463Y-15878520D01*
X182510173Y-15855806D01*
X182514169Y-15846617D01*
X182514468Y-15846324D01*
X182532235Y-15836493D01*
X182554875Y-15832443D01*
X182581408Y-15832443D01*
X182900789Y-16151824D01*
X184284937Y-14767676D01*
X184338004Y-14767676D01*
X184717330Y-15147002D01*
G37*
%TO.C,H18*%
G36*
X170429374Y-34196954D02*
G01*
X170429374Y-34250021D01*
X169045226Y-35634169D01*
X169364607Y-35953550D01*
X169364607Y-35980083D01*
X169364599Y-35980992D01*
X169360313Y-36003412D01*
X169350530Y-36020693D01*
X169350083Y-36021029D01*
X169338859Y-36025577D01*
X169314287Y-36033793D01*
X169277582Y-36045331D01*
X169229958Y-36059847D01*
X169172628Y-36076997D01*
X169106806Y-36096437D01*
X169033707Y-36117821D01*
X168954543Y-36140805D01*
X168870529Y-36165047D01*
X168782880Y-36190201D01*
X168692808Y-36215921D01*
X168601529Y-36241866D01*
X168510255Y-36267689D01*
X168420200Y-36293047D01*
X168332580Y-36317595D01*
X168248607Y-36340989D01*
X168169496Y-36362884D01*
X168096459Y-36382936D01*
X168030712Y-36400802D01*
X167973469Y-36416135D01*
X167925943Y-36428594D01*
X167889348Y-36437831D01*
X167864897Y-36443504D01*
X167853806Y-36445268D01*
X167830037Y-36437296D01*
X167810600Y-36418374D01*
X167801749Y-36393211D01*
X167801749Y-36392494D01*
X167804088Y-36379412D01*
X167810286Y-36353143D01*
X167820000Y-36314903D01*
X167832885Y-36265905D01*
X167848596Y-36207365D01*
X167866790Y-36140494D01*
X167887120Y-36066508D01*
X167909246Y-35986621D01*
X167932821Y-35902046D01*
X167957500Y-35814000D01*
X167982940Y-35723694D01*
X168008796Y-35632343D01*
X168034725Y-35541161D01*
X168060381Y-35451363D01*
X168085421Y-35364162D01*
X168109500Y-35280773D01*
X168132272Y-35202410D01*
X168153396Y-35130286D01*
X168172526Y-35065616D01*
X168189317Y-35009615D01*
X168203425Y-34963495D01*
X168214507Y-34928472D01*
X168222217Y-34905758D01*
X168226213Y-34896569D01*
X168226512Y-34896276D01*
X168244279Y-34886445D01*
X168266919Y-34882395D01*
X168293452Y-34882395D01*
X168612833Y-35201776D01*
X169996981Y-33817628D01*
X170050048Y-33817628D01*
X170429374Y-34196954D01*
G37*
%TO.C,H5*%
G36*
X213292402Y3903046D02*
G01*
X213292402Y3849979D01*
X211908254Y2465831D01*
X212227635Y2146450D01*
X212227635Y2119917D01*
X212227627Y2119008D01*
X212223341Y2096588D01*
X212213558Y2079307D01*
X212213111Y2078971D01*
X212201887Y2074423D01*
X212177315Y2066207D01*
X212140610Y2054669D01*
X212092986Y2040153D01*
X212035656Y2023003D01*
X211969834Y2003563D01*
X211896735Y1982179D01*
X211817571Y1959195D01*
X211733557Y1934953D01*
X211645908Y1909799D01*
X211555836Y1884079D01*
X211464557Y1858134D01*
X211373283Y1832311D01*
X211283228Y1806953D01*
X211195608Y1782405D01*
X211111635Y1759011D01*
X211032524Y1737116D01*
X210959487Y1717064D01*
X210893740Y1699198D01*
X210836497Y1683865D01*
X210788971Y1671406D01*
X210752376Y1662169D01*
X210727925Y1656496D01*
X210716834Y1654732D01*
X210693065Y1662704D01*
X210673628Y1681626D01*
X210664777Y1706789D01*
X210664777Y1707506D01*
X210667116Y1720588D01*
X210673314Y1746857D01*
X210683028Y1785097D01*
X210695913Y1834095D01*
X210711624Y1892635D01*
X210729818Y1959506D01*
X210750148Y2033492D01*
X210772274Y2113379D01*
X210795849Y2197954D01*
X210820528Y2286000D01*
X210845968Y2376306D01*
X210871824Y2467657D01*
X210897753Y2558839D01*
X210923409Y2648637D01*
X210948449Y2735838D01*
X210972528Y2819227D01*
X210995300Y2897590D01*
X211016424Y2969714D01*
X211035554Y3034384D01*
X211052345Y3090385D01*
X211066453Y3136505D01*
X211077535Y3171528D01*
X211085245Y3194242D01*
X211089241Y3203431D01*
X211089540Y3203724D01*
X211107307Y3213555D01*
X211129947Y3217605D01*
X211156480Y3217605D01*
X211475861Y2898224D01*
X212860009Y4282372D01*
X212913076Y4282372D01*
X213292402Y3903046D01*
G37*
%TO.C,H7*%
G36*
X308542642Y3903046D02*
G01*
X308542642Y3849979D01*
X307158494Y2465831D01*
X307477875Y2146450D01*
X307477875Y2119917D01*
X307477867Y2119008D01*
X307473581Y2096588D01*
X307463798Y2079307D01*
X307463351Y2078971D01*
X307452127Y2074423D01*
X307427555Y2066207D01*
X307390850Y2054669D01*
X307343226Y2040153D01*
X307285896Y2023003D01*
X307220074Y2003563D01*
X307146975Y1982179D01*
X307067811Y1959195D01*
X306983797Y1934953D01*
X306896148Y1909799D01*
X306806076Y1884079D01*
X306714797Y1858134D01*
X306623523Y1832311D01*
X306533468Y1806953D01*
X306445848Y1782405D01*
X306361875Y1759011D01*
X306282764Y1737116D01*
X306209727Y1717064D01*
X306143980Y1699198D01*
X306086737Y1683865D01*
X306039211Y1671406D01*
X306002616Y1662169D01*
X305978165Y1656496D01*
X305967074Y1654732D01*
X305943305Y1662704D01*
X305923868Y1681626D01*
X305915017Y1706789D01*
X305915017Y1707506D01*
X305917356Y1720588D01*
X305923554Y1746857D01*
X305933268Y1785097D01*
X305946153Y1834095D01*
X305961864Y1892635D01*
X305980058Y1959506D01*
X306000388Y2033492D01*
X306022514Y2113379D01*
X306046089Y2197954D01*
X306070768Y2286000D01*
X306096208Y2376306D01*
X306122064Y2467657D01*
X306147993Y2558839D01*
X306173649Y2648637D01*
X306198689Y2735838D01*
X306222768Y2819227D01*
X306245540Y2897590D01*
X306266664Y2969714D01*
X306285794Y3034384D01*
X306302585Y3090385D01*
X306316693Y3136505D01*
X306327775Y3171528D01*
X306335485Y3194242D01*
X306339481Y3203431D01*
X306339780Y3203724D01*
X306357547Y3213555D01*
X306380187Y3217605D01*
X306406720Y3217605D01*
X306726101Y2898224D01*
X308110249Y4282372D01*
X308163316Y4282372D01*
X308542642Y3903046D01*
G37*
%TO.C,H3*%
G36*
X98992114Y3903046D02*
G01*
X98992114Y3849979D01*
X97607966Y2465831D01*
X97927347Y2146450D01*
X97927347Y2119917D01*
X97927339Y2119008D01*
X97923053Y2096588D01*
X97913270Y2079307D01*
X97912823Y2078971D01*
X97901599Y2074423D01*
X97877027Y2066207D01*
X97840322Y2054669D01*
X97792698Y2040153D01*
X97735368Y2023003D01*
X97669546Y2003563D01*
X97596447Y1982179D01*
X97517283Y1959195D01*
X97433269Y1934953D01*
X97345620Y1909799D01*
X97255548Y1884079D01*
X97164269Y1858134D01*
X97072995Y1832311D01*
X96982940Y1806953D01*
X96895320Y1782405D01*
X96811347Y1759011D01*
X96732236Y1737116D01*
X96659199Y1717064D01*
X96593452Y1699198D01*
X96536209Y1683865D01*
X96488683Y1671406D01*
X96452088Y1662169D01*
X96427637Y1656496D01*
X96416546Y1654732D01*
X96392777Y1662704D01*
X96373340Y1681626D01*
X96364489Y1706789D01*
X96364489Y1707506D01*
X96366828Y1720588D01*
X96373026Y1746857D01*
X96382740Y1785097D01*
X96395625Y1834095D01*
X96411336Y1892635D01*
X96429530Y1959506D01*
X96449860Y2033492D01*
X96471986Y2113379D01*
X96495561Y2197954D01*
X96520240Y2286000D01*
X96545680Y2376306D01*
X96571536Y2467657D01*
X96597465Y2558839D01*
X96623121Y2648637D01*
X96648161Y2735838D01*
X96672240Y2819227D01*
X96695012Y2897590D01*
X96716136Y2969714D01*
X96735266Y3034384D01*
X96752057Y3090385D01*
X96766165Y3136505D01*
X96777247Y3171528D01*
X96784957Y3194242D01*
X96788953Y3203431D01*
X96789252Y3203724D01*
X96807019Y3213555D01*
X96829659Y3217605D01*
X96856192Y3217605D01*
X97175573Y2898224D01*
X98559721Y4282372D01*
X98612788Y4282372D01*
X98992114Y3903046D01*
G37*
%TO.C,H9*%
G36*
X89467090Y-15147002D02*
G01*
X89467090Y-15200069D01*
X88082942Y-16584217D01*
X88402323Y-16903598D01*
X88402323Y-16930131D01*
X88402315Y-16931040D01*
X88398029Y-16953460D01*
X88388246Y-16970741D01*
X88387799Y-16971077D01*
X88376575Y-16975625D01*
X88352003Y-16983841D01*
X88315298Y-16995379D01*
X88267674Y-17009895D01*
X88210344Y-17027045D01*
X88144522Y-17046485D01*
X88071423Y-17067869D01*
X87992259Y-17090853D01*
X87908245Y-17115095D01*
X87820596Y-17140249D01*
X87730524Y-17165969D01*
X87639245Y-17191914D01*
X87547971Y-17217737D01*
X87457916Y-17243095D01*
X87370296Y-17267643D01*
X87286323Y-17291037D01*
X87207212Y-17312932D01*
X87134175Y-17332984D01*
X87068428Y-17350850D01*
X87011185Y-17366183D01*
X86963659Y-17378642D01*
X86927064Y-17387879D01*
X86902613Y-17393552D01*
X86891522Y-17395316D01*
X86867753Y-17387344D01*
X86848316Y-17368422D01*
X86839465Y-17343259D01*
X86839465Y-17342542D01*
X86841804Y-17329460D01*
X86848002Y-17303191D01*
X86857716Y-17264951D01*
X86870601Y-17215953D01*
X86886312Y-17157413D01*
X86904506Y-17090542D01*
X86924836Y-17016556D01*
X86946962Y-16936669D01*
X86970537Y-16852094D01*
X86995216Y-16764048D01*
X87020656Y-16673742D01*
X87046512Y-16582391D01*
X87072441Y-16491209D01*
X87098097Y-16401411D01*
X87123137Y-16314210D01*
X87147216Y-16230821D01*
X87169988Y-16152458D01*
X87191112Y-16080334D01*
X87210242Y-16015664D01*
X87227033Y-15959663D01*
X87241141Y-15913543D01*
X87252223Y-15878520D01*
X87259933Y-15855806D01*
X87263929Y-15846617D01*
X87264228Y-15846324D01*
X87281995Y-15836493D01*
X87304635Y-15832443D01*
X87331168Y-15832443D01*
X87650549Y-16151824D01*
X89034697Y-14767676D01*
X89087764Y-14767676D01*
X89467090Y-15147002D01*
G37*
%TO.C,H31*%
G36*
X118041874Y-72296954D02*
G01*
X118041874Y-72350021D01*
X116657726Y-73734169D01*
X116977107Y-74053550D01*
X116977107Y-74080083D01*
X116977099Y-74080992D01*
X116972813Y-74103412D01*
X116963030Y-74120693D01*
X116962583Y-74121029D01*
X116951359Y-74125577D01*
X116926787Y-74133793D01*
X116890082Y-74145331D01*
X116842458Y-74159847D01*
X116785128Y-74176997D01*
X116719306Y-74196437D01*
X116646207Y-74217821D01*
X116567043Y-74240805D01*
X116483029Y-74265047D01*
X116395380Y-74290201D01*
X116305308Y-74315921D01*
X116214029Y-74341866D01*
X116122755Y-74367689D01*
X116032700Y-74393047D01*
X115945080Y-74417595D01*
X115861107Y-74440989D01*
X115781996Y-74462884D01*
X115708959Y-74482936D01*
X115643212Y-74500802D01*
X115585969Y-74516135D01*
X115538443Y-74528594D01*
X115501848Y-74537831D01*
X115477397Y-74543504D01*
X115466306Y-74545268D01*
X115442537Y-74537296D01*
X115423100Y-74518374D01*
X115414249Y-74493211D01*
X115414249Y-74492494D01*
X115416588Y-74479412D01*
X115422786Y-74453143D01*
X115432500Y-74414903D01*
X115445385Y-74365905D01*
X115461096Y-74307365D01*
X115479290Y-74240494D01*
X115499620Y-74166508D01*
X115521746Y-74086621D01*
X115545321Y-74002046D01*
X115570000Y-73914000D01*
X115595440Y-73823694D01*
X115621296Y-73732343D01*
X115647225Y-73641161D01*
X115672881Y-73551363D01*
X115697921Y-73464162D01*
X115722000Y-73380773D01*
X115744772Y-73302410D01*
X115765896Y-73230286D01*
X115785026Y-73165616D01*
X115801817Y-73109615D01*
X115815925Y-73063495D01*
X115827007Y-73028472D01*
X115834717Y-73005758D01*
X115838713Y-72996569D01*
X115839012Y-72996276D01*
X115856779Y-72986445D01*
X115879419Y-72982395D01*
X115905952Y-72982395D01*
X116225333Y-73301776D01*
X117609481Y-71917628D01*
X117662548Y-71917628D01*
X118041874Y-72296954D01*
G37*
%TO.C,H34*%
G36*
X303780130Y-72297146D02*
G01*
X303780130Y-72350213D01*
X302395982Y-73734361D01*
X302715363Y-74053742D01*
X302715363Y-74080275D01*
X302715355Y-74081184D01*
X302711069Y-74103604D01*
X302701286Y-74120885D01*
X302700839Y-74121221D01*
X302689615Y-74125769D01*
X302665043Y-74133985D01*
X302628338Y-74145523D01*
X302580714Y-74160039D01*
X302523384Y-74177189D01*
X302457562Y-74196629D01*
X302384463Y-74218013D01*
X302305299Y-74240997D01*
X302221285Y-74265239D01*
X302133636Y-74290393D01*
X302043564Y-74316113D01*
X301952285Y-74342058D01*
X301861011Y-74367881D01*
X301770956Y-74393239D01*
X301683336Y-74417787D01*
X301599363Y-74441181D01*
X301520252Y-74463076D01*
X301447215Y-74483128D01*
X301381468Y-74500994D01*
X301324225Y-74516327D01*
X301276699Y-74528786D01*
X301240104Y-74538023D01*
X301215653Y-74543696D01*
X301204562Y-74545460D01*
X301180793Y-74537488D01*
X301161356Y-74518566D01*
X301152505Y-74493403D01*
X301152505Y-74492686D01*
X301154844Y-74479604D01*
X301161042Y-74453335D01*
X301170756Y-74415095D01*
X301183641Y-74366097D01*
X301199352Y-74307557D01*
X301217546Y-74240686D01*
X301237876Y-74166700D01*
X301260002Y-74086813D01*
X301283577Y-74002238D01*
X301308256Y-73914192D01*
X301333696Y-73823886D01*
X301359552Y-73732535D01*
X301385481Y-73641353D01*
X301411137Y-73551555D01*
X301436177Y-73464354D01*
X301460256Y-73380965D01*
X301483028Y-73302602D01*
X301504152Y-73230478D01*
X301523282Y-73165808D01*
X301540073Y-73109807D01*
X301554181Y-73063687D01*
X301565263Y-73028664D01*
X301572973Y-73005950D01*
X301576969Y-72996761D01*
X301577268Y-72996468D01*
X301595035Y-72986637D01*
X301617675Y-72982587D01*
X301644208Y-72982587D01*
X301963589Y-73301968D01*
X303347737Y-71917820D01*
X303400804Y-71917820D01*
X303780130Y-72297146D01*
G37*
%TO.C,H33*%
G36*
X251391874Y-72297146D02*
G01*
X251391874Y-72350213D01*
X250007726Y-73734361D01*
X250327107Y-74053742D01*
X250327107Y-74080275D01*
X250327099Y-74081184D01*
X250322813Y-74103604D01*
X250313030Y-74120885D01*
X250312583Y-74121221D01*
X250301359Y-74125769D01*
X250276787Y-74133985D01*
X250240082Y-74145523D01*
X250192458Y-74160039D01*
X250135128Y-74177189D01*
X250069306Y-74196629D01*
X249996207Y-74218013D01*
X249917043Y-74240997D01*
X249833029Y-74265239D01*
X249745380Y-74290393D01*
X249655308Y-74316113D01*
X249564029Y-74342058D01*
X249472755Y-74367881D01*
X249382700Y-74393239D01*
X249295080Y-74417787D01*
X249211107Y-74441181D01*
X249131996Y-74463076D01*
X249058959Y-74483128D01*
X248993212Y-74500994D01*
X248935969Y-74516327D01*
X248888443Y-74528786D01*
X248851848Y-74538023D01*
X248827397Y-74543696D01*
X248816306Y-74545460D01*
X248792537Y-74537488D01*
X248773100Y-74518566D01*
X248764249Y-74493403D01*
X248764249Y-74492686D01*
X248766588Y-74479604D01*
X248772786Y-74453335D01*
X248782500Y-74415095D01*
X248795385Y-74366097D01*
X248811096Y-74307557D01*
X248829290Y-74240686D01*
X248849620Y-74166700D01*
X248871746Y-74086813D01*
X248895321Y-74002238D01*
X248920000Y-73914192D01*
X248945440Y-73823886D01*
X248971296Y-73732535D01*
X248997225Y-73641353D01*
X249022881Y-73551555D01*
X249047921Y-73464354D01*
X249072000Y-73380965D01*
X249094772Y-73302602D01*
X249115896Y-73230478D01*
X249135026Y-73165808D01*
X249151817Y-73109807D01*
X249165925Y-73063687D01*
X249177007Y-73028664D01*
X249184717Y-73005950D01*
X249188713Y-72996761D01*
X249189012Y-72996468D01*
X249206779Y-72986637D01*
X249229419Y-72982587D01*
X249255952Y-72982587D01*
X249575333Y-73301968D01*
X250959481Y-71917820D01*
X251012548Y-71917820D01*
X251391874Y-72297146D01*
G37*
%TO.C,H6*%
G36*
X251392498Y3903046D02*
G01*
X251392498Y3849979D01*
X250008350Y2465831D01*
X250327731Y2146450D01*
X250327731Y2119917D01*
X250327723Y2119008D01*
X250323437Y2096588D01*
X250313654Y2079307D01*
X250313207Y2078971D01*
X250301983Y2074423D01*
X250277411Y2066207D01*
X250240706Y2054669D01*
X250193082Y2040153D01*
X250135752Y2023003D01*
X250069930Y2003563D01*
X249996831Y1982179D01*
X249917667Y1959195D01*
X249833653Y1934953D01*
X249746004Y1909799D01*
X249655932Y1884079D01*
X249564653Y1858134D01*
X249473379Y1832311D01*
X249383324Y1806953D01*
X249295704Y1782405D01*
X249211731Y1759011D01*
X249132620Y1737116D01*
X249059583Y1717064D01*
X248993836Y1699198D01*
X248936593Y1683865D01*
X248889067Y1671406D01*
X248852472Y1662169D01*
X248828021Y1656496D01*
X248816930Y1654732D01*
X248793161Y1662704D01*
X248773724Y1681626D01*
X248764873Y1706789D01*
X248764873Y1707506D01*
X248767212Y1720588D01*
X248773410Y1746857D01*
X248783124Y1785097D01*
X248796009Y1834095D01*
X248811720Y1892635D01*
X248829914Y1959506D01*
X248850244Y2033492D01*
X248872370Y2113379D01*
X248895945Y2197954D01*
X248920624Y2286000D01*
X248946064Y2376306D01*
X248971920Y2467657D01*
X248997849Y2558839D01*
X249023505Y2648637D01*
X249048545Y2735838D01*
X249072624Y2819227D01*
X249095396Y2897590D01*
X249116520Y2969714D01*
X249135650Y3034384D01*
X249152441Y3090385D01*
X249166549Y3136505D01*
X249177631Y3171528D01*
X249185341Y3194242D01*
X249189337Y3203431D01*
X249189636Y3203724D01*
X249207403Y3213555D01*
X249230043Y3217605D01*
X249256576Y3217605D01*
X249575957Y2898224D01*
X250960105Y4282372D01*
X251013172Y4282372D01*
X251392498Y3903046D01*
G37*
%TO.C,H27*%
G36*
X304969999Y-53247098D02*
G01*
X304969999Y-53300165D01*
X303585851Y-54684313D01*
X303905232Y-55003694D01*
X303905232Y-55030227D01*
X303905224Y-55031136D01*
X303900938Y-55053556D01*
X303891155Y-55070837D01*
X303890708Y-55071173D01*
X303879484Y-55075721D01*
X303854912Y-55083937D01*
X303818207Y-55095475D01*
X303770583Y-55109991D01*
X303713253Y-55127141D01*
X303647431Y-55146581D01*
X303574332Y-55167965D01*
X303495168Y-55190949D01*
X303411154Y-55215191D01*
X303323505Y-55240345D01*
X303233433Y-55266065D01*
X303142154Y-55292010D01*
X303050880Y-55317833D01*
X302960825Y-55343191D01*
X302873205Y-55367739D01*
X302789232Y-55391133D01*
X302710121Y-55413028D01*
X302637084Y-55433080D01*
X302571337Y-55450946D01*
X302514094Y-55466279D01*
X302466568Y-55478738D01*
X302429973Y-55487975D01*
X302405522Y-55493648D01*
X302394431Y-55495412D01*
X302370662Y-55487440D01*
X302351225Y-55468518D01*
X302342374Y-55443355D01*
X302342374Y-55442638D01*
X302344713Y-55429556D01*
X302350911Y-55403287D01*
X302360625Y-55365047D01*
X302373510Y-55316049D01*
X302389221Y-55257509D01*
X302407415Y-55190638D01*
X302427745Y-55116652D01*
X302449871Y-55036765D01*
X302473446Y-54952190D01*
X302498125Y-54864144D01*
X302523565Y-54773838D01*
X302549421Y-54682487D01*
X302575350Y-54591305D01*
X302601006Y-54501507D01*
X302626046Y-54414306D01*
X302650125Y-54330917D01*
X302672897Y-54252554D01*
X302694021Y-54180430D01*
X302713151Y-54115760D01*
X302729942Y-54059759D01*
X302744050Y-54013639D01*
X302755132Y-53978616D01*
X302762842Y-53955902D01*
X302766838Y-53946713D01*
X302767137Y-53946420D01*
X302784904Y-53936589D01*
X302807544Y-53932539D01*
X302834077Y-53932539D01*
X303153458Y-54251920D01*
X304537606Y-52867772D01*
X304590673Y-52867772D01*
X304969999Y-53247098D01*
G37*
%TO.C,H32*%
G36*
X194120455Y-77862896D02*
G01*
X194139892Y-77881818D01*
X194148743Y-77906981D01*
X194148743Y-77907698D01*
X194146404Y-77920780D01*
X194140206Y-77947049D01*
X194130492Y-77985289D01*
X194117607Y-78034287D01*
X194101896Y-78092827D01*
X194083702Y-78159698D01*
X194063372Y-78233684D01*
X194041246Y-78313571D01*
X194017671Y-78398146D01*
X193992992Y-78486192D01*
X193967552Y-78576498D01*
X193941696Y-78667849D01*
X193915767Y-78759031D01*
X193890111Y-78848829D01*
X193865071Y-78936030D01*
X193840992Y-79019419D01*
X193818220Y-79097782D01*
X193797096Y-79169906D01*
X193777966Y-79234576D01*
X193761175Y-79290577D01*
X193747067Y-79336697D01*
X193735985Y-79371720D01*
X193728275Y-79394434D01*
X193724279Y-79403623D01*
X193723980Y-79403916D01*
X193706213Y-79413747D01*
X193683573Y-79417797D01*
X193657040Y-79417797D01*
X193337659Y-79098416D01*
X191953511Y-80482564D01*
X191900444Y-80482564D01*
X191521118Y-80103238D01*
X191521118Y-80050171D01*
X192905266Y-78666023D01*
X192585885Y-78346642D01*
X192585885Y-78320109D01*
X192585893Y-78319200D01*
X192590179Y-78296780D01*
X192599962Y-78279499D01*
X192600409Y-78279163D01*
X192611633Y-78274615D01*
X192636205Y-78266399D01*
X192672910Y-78254861D01*
X192720534Y-78240345D01*
X192777864Y-78223195D01*
X192843686Y-78203755D01*
X192916785Y-78182371D01*
X192995949Y-78159387D01*
X193079963Y-78135145D01*
X193167612Y-78109991D01*
X193257684Y-78084271D01*
X193348963Y-78058326D01*
X193440237Y-78032503D01*
X193530292Y-78007145D01*
X193617912Y-77982597D01*
X193701885Y-77959203D01*
X193780996Y-77937308D01*
X193854033Y-77917256D01*
X193919780Y-77899390D01*
X193977023Y-77884057D01*
X194024549Y-77871598D01*
X194061144Y-77862361D01*
X194085595Y-77856688D01*
X194096686Y-77854924D01*
X194120455Y-77862896D01*
G37*
%TO.C,H4*%
G36*
X156142258Y3903046D02*
G01*
X156142258Y3849979D01*
X154758110Y2465831D01*
X155077491Y2146450D01*
X155077491Y2119917D01*
X155077483Y2119008D01*
X155073197Y2096588D01*
X155063414Y2079307D01*
X155062967Y2078971D01*
X155051743Y2074423D01*
X155027171Y2066207D01*
X154990466Y2054669D01*
X154942842Y2040153D01*
X154885512Y2023003D01*
X154819690Y2003563D01*
X154746591Y1982179D01*
X154667427Y1959195D01*
X154583413Y1934953D01*
X154495764Y1909799D01*
X154405692Y1884079D01*
X154314413Y1858134D01*
X154223139Y1832311D01*
X154133084Y1806953D01*
X154045464Y1782405D01*
X153961491Y1759011D01*
X153882380Y1737116D01*
X153809343Y1717064D01*
X153743596Y1699198D01*
X153686353Y1683865D01*
X153638827Y1671406D01*
X153602232Y1662169D01*
X153577781Y1656496D01*
X153566690Y1654732D01*
X153542921Y1662704D01*
X153523484Y1681626D01*
X153514633Y1706789D01*
X153514633Y1707506D01*
X153516972Y1720588D01*
X153523170Y1746857D01*
X153532884Y1785097D01*
X153545769Y1834095D01*
X153561480Y1892635D01*
X153579674Y1959506D01*
X153600004Y2033492D01*
X153622130Y2113379D01*
X153645705Y2197954D01*
X153670384Y2286000D01*
X153695824Y2376306D01*
X153721680Y2467657D01*
X153747609Y2558839D01*
X153773265Y2648637D01*
X153798305Y2735838D01*
X153822384Y2819227D01*
X153845156Y2897590D01*
X153866280Y2969714D01*
X153885410Y3034384D01*
X153902201Y3090385D01*
X153916309Y3136505D01*
X153927391Y3171528D01*
X153935101Y3194242D01*
X153939097Y3203431D01*
X153939396Y3203724D01*
X153957163Y3213555D01*
X153979803Y3217605D01*
X154006336Y3217605D01*
X154325717Y2898224D01*
X155709865Y4282372D01*
X155762932Y4282372D01*
X156142258Y3903046D01*
G37*
%TO.C,H8*%
G36*
X40595215Y-16692322D02*
G01*
X40914596Y-16372941D01*
X40941129Y-16372941D01*
X40942038Y-16372949D01*
X40964458Y-16377235D01*
X40981739Y-16387018D01*
X40982075Y-16387465D01*
X40986623Y-16398689D01*
X40994839Y-16423261D01*
X41006377Y-16459966D01*
X41020893Y-16507590D01*
X41038043Y-16564920D01*
X41057483Y-16630742D01*
X41078867Y-16703841D01*
X41101851Y-16783005D01*
X41126093Y-16867019D01*
X41151247Y-16954668D01*
X41176967Y-17044740D01*
X41202912Y-17136019D01*
X41228735Y-17227293D01*
X41254093Y-17317348D01*
X41278641Y-17404968D01*
X41302035Y-17488941D01*
X41323930Y-17568052D01*
X41343982Y-17641089D01*
X41361848Y-17706836D01*
X41377181Y-17764079D01*
X41389640Y-17811605D01*
X41398877Y-17848200D01*
X41404550Y-17872651D01*
X41406314Y-17883742D01*
X41398342Y-17907511D01*
X41379420Y-17926948D01*
X41354257Y-17935799D01*
X41353540Y-17935799D01*
X41340458Y-17933460D01*
X41314189Y-17927262D01*
X41275949Y-17917548D01*
X41226951Y-17904663D01*
X41168411Y-17888952D01*
X41101540Y-17870758D01*
X41027554Y-17850428D01*
X40947667Y-17828302D01*
X40863092Y-17804727D01*
X40775046Y-17780048D01*
X40684740Y-17754608D01*
X40593389Y-17728752D01*
X40502207Y-17702823D01*
X40412409Y-17677167D01*
X40325208Y-17652127D01*
X40241819Y-17628048D01*
X40163456Y-17605276D01*
X40091332Y-17584152D01*
X40026662Y-17565022D01*
X39970661Y-17548231D01*
X39924541Y-17534123D01*
X39889518Y-17523041D01*
X39866804Y-17515331D01*
X39857615Y-17511335D01*
X39857322Y-17511036D01*
X39847491Y-17493269D01*
X39843441Y-17470629D01*
X39843441Y-17444096D01*
X40162822Y-17124715D01*
X38778674Y-15740567D01*
X38778674Y-15687500D01*
X39158000Y-15308174D01*
X39211067Y-15308174D01*
X40595215Y-16692322D01*
G37*
%TO.C,H10*%
G36*
X127567186Y-15147002D02*
G01*
X127567186Y-15200069D01*
X126183038Y-16584217D01*
X126502419Y-16903598D01*
X126502419Y-16930131D01*
X126502411Y-16931040D01*
X126498125Y-16953460D01*
X126488342Y-16970741D01*
X126487895Y-16971077D01*
X126476671Y-16975625D01*
X126452099Y-16983841D01*
X126415394Y-16995379D01*
X126367770Y-17009895D01*
X126310440Y-17027045D01*
X126244618Y-17046485D01*
X126171519Y-17067869D01*
X126092355Y-17090853D01*
X126008341Y-17115095D01*
X125920692Y-17140249D01*
X125830620Y-17165969D01*
X125739341Y-17191914D01*
X125648067Y-17217737D01*
X125558012Y-17243095D01*
X125470392Y-17267643D01*
X125386419Y-17291037D01*
X125307308Y-17312932D01*
X125234271Y-17332984D01*
X125168524Y-17350850D01*
X125111281Y-17366183D01*
X125063755Y-17378642D01*
X125027160Y-17387879D01*
X125002709Y-17393552D01*
X124991618Y-17395316D01*
X124967849Y-17387344D01*
X124948412Y-17368422D01*
X124939561Y-17343259D01*
X124939561Y-17342542D01*
X124941900Y-17329460D01*
X124948098Y-17303191D01*
X124957812Y-17264951D01*
X124970697Y-17215953D01*
X124986408Y-17157413D01*
X125004602Y-17090542D01*
X125024932Y-17016556D01*
X125047058Y-16936669D01*
X125070633Y-16852094D01*
X125095312Y-16764048D01*
X125120752Y-16673742D01*
X125146608Y-16582391D01*
X125172537Y-16491209D01*
X125198193Y-16401411D01*
X125223233Y-16314210D01*
X125247312Y-16230821D01*
X125270084Y-16152458D01*
X125291208Y-16080334D01*
X125310338Y-16015664D01*
X125327129Y-15959663D01*
X125341237Y-15913543D01*
X125352319Y-15878520D01*
X125360029Y-15855806D01*
X125364025Y-15846617D01*
X125364324Y-15846324D01*
X125382091Y-15836493D01*
X125404731Y-15832443D01*
X125431264Y-15832443D01*
X125750645Y-16151824D01*
X127134793Y-14767676D01*
X127187860Y-14767676D01*
X127567186Y-15147002D01*
G37*
%TO.C,H13*%
G36*
X279967570Y-15147002D02*
G01*
X279967570Y-15200069D01*
X278583422Y-16584217D01*
X278902803Y-16903598D01*
X278902803Y-16930131D01*
X278902795Y-16931040D01*
X278898509Y-16953460D01*
X278888726Y-16970741D01*
X278888279Y-16971077D01*
X278877055Y-16975625D01*
X278852483Y-16983841D01*
X278815778Y-16995379D01*
X278768154Y-17009895D01*
X278710824Y-17027045D01*
X278645002Y-17046485D01*
X278571903Y-17067869D01*
X278492739Y-17090853D01*
X278408725Y-17115095D01*
X278321076Y-17140249D01*
X278231004Y-17165969D01*
X278139725Y-17191914D01*
X278048451Y-17217737D01*
X277958396Y-17243095D01*
X277870776Y-17267643D01*
X277786803Y-17291037D01*
X277707692Y-17312932D01*
X277634655Y-17332984D01*
X277568908Y-17350850D01*
X277511665Y-17366183D01*
X277464139Y-17378642D01*
X277427544Y-17387879D01*
X277403093Y-17393552D01*
X277392002Y-17395316D01*
X277368233Y-17387344D01*
X277348796Y-17368422D01*
X277339945Y-17343259D01*
X277339945Y-17342542D01*
X277342284Y-17329460D01*
X277348482Y-17303191D01*
X277358196Y-17264951D01*
X277371081Y-17215953D01*
X277386792Y-17157413D01*
X277404986Y-17090542D01*
X277425316Y-17016556D01*
X277447442Y-16936669D01*
X277471017Y-16852094D01*
X277495696Y-16764048D01*
X277521136Y-16673742D01*
X277546992Y-16582391D01*
X277572921Y-16491209D01*
X277598577Y-16401411D01*
X277623617Y-16314210D01*
X277647696Y-16230821D01*
X277670468Y-16152458D01*
X277691592Y-16080334D01*
X277710722Y-16015664D01*
X277727513Y-15959663D01*
X277741621Y-15913543D01*
X277752703Y-15878520D01*
X277760413Y-15855806D01*
X277764409Y-15846617D01*
X277764708Y-15846324D01*
X277782475Y-15836493D01*
X277805115Y-15832443D01*
X277831648Y-15832443D01*
X278151029Y-16151824D01*
X279535177Y-14767676D01*
X279588244Y-14767676D01*
X279967570Y-15147002D01*
G37*
%TO.C,H20*%
G36*
X265679374Y-34197050D02*
G01*
X265679374Y-34250117D01*
X264295226Y-35634265D01*
X264614607Y-35953646D01*
X264614607Y-35980179D01*
X264614599Y-35981088D01*
X264610313Y-36003508D01*
X264600530Y-36020789D01*
X264600083Y-36021125D01*
X264588859Y-36025673D01*
X264564287Y-36033889D01*
X264527582Y-36045427D01*
X264479958Y-36059943D01*
X264422628Y-36077093D01*
X264356806Y-36096533D01*
X264283707Y-36117917D01*
X264204543Y-36140901D01*
X264120529Y-36165143D01*
X264032880Y-36190297D01*
X263942808Y-36216017D01*
X263851529Y-36241962D01*
X263760255Y-36267785D01*
X263670200Y-36293143D01*
X263582580Y-36317691D01*
X263498607Y-36341085D01*
X263419496Y-36362980D01*
X263346459Y-36383032D01*
X263280712Y-36400898D01*
X263223469Y-36416231D01*
X263175943Y-36428690D01*
X263139348Y-36437927D01*
X263114897Y-36443600D01*
X263103806Y-36445364D01*
X263080037Y-36437392D01*
X263060600Y-36418470D01*
X263051749Y-36393307D01*
X263051749Y-36392590D01*
X263054088Y-36379508D01*
X263060286Y-36353239D01*
X263070000Y-36314999D01*
X263082885Y-36266001D01*
X263098596Y-36207461D01*
X263116790Y-36140590D01*
X263137120Y-36066604D01*
X263159246Y-35986717D01*
X263182821Y-35902142D01*
X263207500Y-35814096D01*
X263232940Y-35723790D01*
X263258796Y-35632439D01*
X263284725Y-35541257D01*
X263310381Y-35451459D01*
X263335421Y-35364258D01*
X263359500Y-35280869D01*
X263382272Y-35202506D01*
X263403396Y-35130382D01*
X263422526Y-35065712D01*
X263439317Y-35009711D01*
X263453425Y-34963591D01*
X263464507Y-34928568D01*
X263472217Y-34905854D01*
X263476213Y-34896665D01*
X263476512Y-34896372D01*
X263494279Y-34886541D01*
X263516919Y-34882491D01*
X263543452Y-34882491D01*
X263862833Y-35201872D01*
X265246981Y-33817724D01*
X265300048Y-33817724D01*
X265679374Y-34197050D01*
G37*
%TO.C,H26*%
G36*
X218054914Y-53247098D02*
G01*
X218054914Y-53300165D01*
X216670766Y-54684313D01*
X216990147Y-55003694D01*
X216990147Y-55030227D01*
X216990139Y-55031136D01*
X216985853Y-55053556D01*
X216976070Y-55070837D01*
X216975623Y-55071173D01*
X216964399Y-55075721D01*
X216939827Y-55083937D01*
X216903122Y-55095475D01*
X216855498Y-55109991D01*
X216798168Y-55127141D01*
X216732346Y-55146581D01*
X216659247Y-55167965D01*
X216580083Y-55190949D01*
X216496069Y-55215191D01*
X216408420Y-55240345D01*
X216318348Y-55266065D01*
X216227069Y-55292010D01*
X216135795Y-55317833D01*
X216045740Y-55343191D01*
X215958120Y-55367739D01*
X215874147Y-55391133D01*
X215795036Y-55413028D01*
X215721999Y-55433080D01*
X215656252Y-55450946D01*
X215599009Y-55466279D01*
X215551483Y-55478738D01*
X215514888Y-55487975D01*
X215490437Y-55493648D01*
X215479346Y-55495412D01*
X215455577Y-55487440D01*
X215436140Y-55468518D01*
X215427289Y-55443355D01*
X215427289Y-55442638D01*
X215429628Y-55429556D01*
X215435826Y-55403287D01*
X215445540Y-55365047D01*
X215458425Y-55316049D01*
X215474136Y-55257509D01*
X215492330Y-55190638D01*
X215512660Y-55116652D01*
X215534786Y-55036765D01*
X215558361Y-54952190D01*
X215583040Y-54864144D01*
X215608480Y-54773838D01*
X215634336Y-54682487D01*
X215660265Y-54591305D01*
X215685921Y-54501507D01*
X215710961Y-54414306D01*
X215735040Y-54330917D01*
X215757812Y-54252554D01*
X215778936Y-54180430D01*
X215798066Y-54115760D01*
X215814857Y-54059759D01*
X215828965Y-54013639D01*
X215840047Y-53978616D01*
X215847757Y-53955902D01*
X215851753Y-53946713D01*
X215852052Y-53946420D01*
X215869819Y-53936589D01*
X215892459Y-53932539D01*
X215918992Y-53932539D01*
X216238373Y-54251920D01*
X217622521Y-52867772D01*
X217675588Y-52867772D01*
X218054914Y-53247098D01*
G37*
%TO.C,H2*%
G36*
X60892018Y3903046D02*
G01*
X60892018Y3849979D01*
X59507870Y2465831D01*
X59827251Y2146450D01*
X59827251Y2119917D01*
X59827243Y2119008D01*
X59822957Y2096588D01*
X59813174Y2079307D01*
X59812727Y2078971D01*
X59801503Y2074423D01*
X59776931Y2066207D01*
X59740226Y2054669D01*
X59692602Y2040153D01*
X59635272Y2023003D01*
X59569450Y2003563D01*
X59496351Y1982179D01*
X59417187Y1959195D01*
X59333173Y1934953D01*
X59245524Y1909799D01*
X59155452Y1884079D01*
X59064173Y1858134D01*
X58972899Y1832311D01*
X58882844Y1806953D01*
X58795224Y1782405D01*
X58711251Y1759011D01*
X58632140Y1737116D01*
X58559103Y1717064D01*
X58493356Y1699198D01*
X58436113Y1683865D01*
X58388587Y1671406D01*
X58351992Y1662169D01*
X58327541Y1656496D01*
X58316450Y1654732D01*
X58292681Y1662704D01*
X58273244Y1681626D01*
X58264393Y1706789D01*
X58264393Y1707506D01*
X58266732Y1720588D01*
X58272930Y1746857D01*
X58282644Y1785097D01*
X58295529Y1834095D01*
X58311240Y1892635D01*
X58329434Y1959506D01*
X58349764Y2033492D01*
X58371890Y2113379D01*
X58395465Y2197954D01*
X58420144Y2286000D01*
X58445584Y2376306D01*
X58471440Y2467657D01*
X58497369Y2558839D01*
X58523025Y2648637D01*
X58548065Y2735838D01*
X58572144Y2819227D01*
X58594916Y2897590D01*
X58616040Y2969714D01*
X58635170Y3034384D01*
X58651961Y3090385D01*
X58666069Y3136505D01*
X58677151Y3171528D01*
X58684861Y3194242D01*
X58688857Y3203431D01*
X58689156Y3203724D01*
X58706923Y3213555D01*
X58729563Y3217605D01*
X58756096Y3217605D01*
X59075477Y2898224D01*
X60459625Y4282372D01*
X60512692Y4282372D01*
X60892018Y3903046D01*
G37*
%TO.C,H1*%
G36*
X13266874Y3903046D02*
G01*
X13266874Y3849979D01*
X11882726Y2465831D01*
X12202107Y2146450D01*
X12202107Y2119917D01*
X12202099Y2119008D01*
X12197813Y2096588D01*
X12188030Y2079307D01*
X12187583Y2078971D01*
X12176359Y2074423D01*
X12151787Y2066207D01*
X12115082Y2054669D01*
X12067458Y2040153D01*
X12010128Y2023003D01*
X11944306Y2003563D01*
X11871207Y1982179D01*
X11792043Y1959195D01*
X11708029Y1934953D01*
X11620380Y1909799D01*
X11530308Y1884079D01*
X11439029Y1858134D01*
X11347755Y1832311D01*
X11257700Y1806953D01*
X11170080Y1782405D01*
X11086107Y1759011D01*
X11006996Y1737116D01*
X10933959Y1717064D01*
X10868212Y1699198D01*
X10810969Y1683865D01*
X10763443Y1671406D01*
X10726848Y1662169D01*
X10702397Y1656496D01*
X10691306Y1654732D01*
X10667537Y1662704D01*
X10648100Y1681626D01*
X10639249Y1706789D01*
X10639249Y1707506D01*
X10641588Y1720588D01*
X10647786Y1746857D01*
X10657500Y1785097D01*
X10670385Y1834095D01*
X10686096Y1892635D01*
X10704290Y1959506D01*
X10724620Y2033492D01*
X10746746Y2113379D01*
X10770321Y2197954D01*
X10795000Y2286000D01*
X10820440Y2376306D01*
X10846296Y2467657D01*
X10872225Y2558839D01*
X10897881Y2648637D01*
X10922921Y2735838D01*
X10947000Y2819227D01*
X10969772Y2897590D01*
X10990896Y2969714D01*
X11010026Y3034384D01*
X11026817Y3090385D01*
X11040925Y3136505D01*
X11052007Y3171528D01*
X11059717Y3194242D01*
X11063713Y3203431D01*
X11064012Y3203724D01*
X11081779Y3213555D01*
X11104419Y3217605D01*
X11130952Y3217605D01*
X11450333Y2898224D01*
X12834481Y4282372D01*
X12887548Y4282372D01*
X13266874Y3903046D01*
G37*
%TO.C,H24*%
G36*
X103754626Y-53247098D02*
G01*
X103754626Y-53300165D01*
X102370478Y-54684313D01*
X102689859Y-55003694D01*
X102689859Y-55030227D01*
X102689851Y-55031136D01*
X102685565Y-55053556D01*
X102675782Y-55070837D01*
X102675335Y-55071173D01*
X102664111Y-55075721D01*
X102639539Y-55083937D01*
X102602834Y-55095475D01*
X102555210Y-55109991D01*
X102497880Y-55127141D01*
X102432058Y-55146581D01*
X102358959Y-55167965D01*
X102279795Y-55190949D01*
X102195781Y-55215191D01*
X102108132Y-55240345D01*
X102018060Y-55266065D01*
X101926781Y-55292010D01*
X101835507Y-55317833D01*
X101745452Y-55343191D01*
X101657832Y-55367739D01*
X101573859Y-55391133D01*
X101494748Y-55413028D01*
X101421711Y-55433080D01*
X101355964Y-55450946D01*
X101298721Y-55466279D01*
X101251195Y-55478738D01*
X101214600Y-55487975D01*
X101190149Y-55493648D01*
X101179058Y-55495412D01*
X101155289Y-55487440D01*
X101135852Y-55468518D01*
X101127001Y-55443355D01*
X101127001Y-55442638D01*
X101129340Y-55429556D01*
X101135538Y-55403287D01*
X101145252Y-55365047D01*
X101158137Y-55316049D01*
X101173848Y-55257509D01*
X101192042Y-55190638D01*
X101212372Y-55116652D01*
X101234498Y-55036765D01*
X101258073Y-54952190D01*
X101282752Y-54864144D01*
X101308192Y-54773838D01*
X101334048Y-54682487D01*
X101359977Y-54591305D01*
X101385633Y-54501507D01*
X101410673Y-54414306D01*
X101434752Y-54330917D01*
X101457524Y-54252554D01*
X101478648Y-54180430D01*
X101497778Y-54115760D01*
X101514569Y-54059759D01*
X101528677Y-54013639D01*
X101539759Y-53978616D01*
X101547469Y-53955902D01*
X101551465Y-53946713D01*
X101551764Y-53946420D01*
X101569531Y-53936589D01*
X101592171Y-53932539D01*
X101618704Y-53932539D01*
X101938085Y-54251920D01*
X103322233Y-52867772D01*
X103375300Y-52867772D01*
X103754626Y-53247098D01*
G37*
D13*
%TO.C,R2*%
X33966650Y-39047489D02*
X33966650Y-38740207D01*
X34726650Y-39047489D02*
X34726650Y-38740207D01*
%TO.C,R5*%
X39704476Y6106781D02*
X39704476Y5799499D01*
X40464476Y6106781D02*
X40464476Y5799499D01*
%TO.C,R29*%
X43809891Y-41575625D02*
X43502609Y-41575625D01*
X43809891Y-42335625D02*
X43502609Y-42335625D01*
D14*
%TO.C,U4*%
X276209234Y-73889872D02*
X276209234Y-68549872D01*
X280608514Y-73889872D02*
X276209234Y-73889872D01*
X276209234Y-68549872D02*
X280608514Y-68549872D01*
X282438874Y-68549872D02*
X280608514Y-68549872D01*
D15*
X276208874Y-73703992D02*
X276208874Y-73719232D01*
D14*
X282438874Y-68948652D02*
X282438874Y-68549872D01*
X280608514Y-68549872D02*
X280608514Y-73889872D01*
D13*
%TO.C,U1*%
X40006972Y-32091320D02*
X40006972Y-31616320D01*
X39531972Y-24871320D02*
X40006972Y-24871320D01*
X32786972Y-24871320D02*
X32786972Y-25346320D01*
X33261972Y-32091320D02*
X32786972Y-32091320D01*
X33261972Y-24871320D02*
X32786972Y-24871320D01*
X39531972Y-32091320D02*
X40006972Y-32091320D01*
X32786972Y-32091320D02*
X32786972Y-31616320D01*
%TO.C,R23*%
X248602297Y-62723284D02*
X248909579Y-62723284D01*
X248602297Y-63483284D02*
X248909579Y-63483284D01*
%TO.C,R22*%
X90107728Y-71719743D02*
X90107728Y-72027025D01*
X90867728Y-71719743D02*
X90867728Y-72027025D01*
%TO.C,C7*%
X41464039Y-30522500D02*
X41679711Y-30522500D01*
X41464039Y-29802500D02*
X41679711Y-29802500D01*
%TO.C,R1*%
X34284977Y-34908212D02*
X33977695Y-34908212D01*
X34284977Y-34148212D02*
X33977695Y-34148212D01*
%TO.C,R28*%
X40711875Y-42311984D02*
X40711875Y-42619266D01*
X41471875Y-42311984D02*
X41471875Y-42619266D01*
%TO.C,R11*%
X43489375Y-30713016D02*
X43489375Y-30405734D01*
X42729375Y-30713016D02*
X42729375Y-30405734D01*
D10*
%TO.C,J1*%
X62543912Y-13914090D02*
X64943912Y-13914090D01*
X64943912Y-7914090D02*
X62543912Y-7914090D01*
X62543912Y-7914090D02*
X62543912Y-8914090D01*
X66743912Y-12914090D02*
X66743912Y-8914090D01*
X62543912Y-12914090D02*
X62543912Y-13914090D01*
D13*
%TO.C,R14*%
X9706586Y-67428403D02*
X9706586Y-67735685D01*
X8946586Y-67428403D02*
X8946586Y-67735685D01*
%TO.C,R15*%
X210700639Y-63681722D02*
X211007921Y-63681722D01*
X210700639Y-62921722D02*
X211007921Y-62921722D01*
%TO.C,R10*%
X37799484Y-23795625D02*
X38106766Y-23795625D01*
X37799484Y-23035625D02*
X38106766Y-23035625D01*
%TO.C,C2*%
X33319472Y-23440336D02*
X33319472Y-23224664D01*
X32599472Y-23440336D02*
X32599472Y-23224664D01*
%TO.C,F1*%
X33255394Y-1183878D02*
X33255394Y-2388006D01*
X31435394Y-1183878D02*
X31435394Y-2388006D01*
%TO.C,R13*%
X191452153Y-64277036D02*
X191759435Y-64277036D01*
X191452153Y-63517036D02*
X191759435Y-63517036D01*
%TO.C,R27*%
X267652345Y-62723284D02*
X267959627Y-62723284D01*
X267652345Y-63483284D02*
X267959627Y-63483284D01*
D16*
%TO.C,J2*%
X29264460Y10537520D02*
X29264460Y9307520D01*
X29264460Y5127520D02*
X29264460Y6567520D01*
X38204460Y5127520D02*
X38204460Y6567520D01*
X38204460Y9307520D02*
X38204460Y10537520D01*
X38204460Y10537520D02*
X29264460Y10537520D01*
D17*
X30434460Y1537520D02*
G75*
G03*
X30434460Y1537520I-100000J0D01*
G01*
D13*
%TO.C,R4*%
X27367568Y5601061D02*
X27367568Y5908343D01*
X26607568Y5601061D02*
X26607568Y5908343D01*
%TO.C,D1*%
X35434375Y-7503140D02*
X33034375Y-7503140D01*
X33034375Y-4403140D02*
X35984375Y-4403140D01*
%TO.C,JP2*%
X43911084Y-44178860D02*
X43401636Y-44178860D01*
X43911084Y-43133860D02*
X43401636Y-43133860D01*
%TO.C,R8*%
X26210692Y-26347457D02*
X26210692Y-26040175D01*
X26970692Y-26347457D02*
X26970692Y-26040175D01*
%TO.C,R26*%
X121030304Y-68817469D02*
X121030304Y-69124751D01*
X120270304Y-68817469D02*
X120270304Y-69124751D01*
%TO.C,C9*%
X28339758Y-8304418D02*
X28339758Y-8088746D01*
X27619758Y-8304418D02*
X27619758Y-8088746D01*
%TO.C,U5*%
X37896875Y-37306250D02*
X37896875Y-39256250D01*
X37896875Y-37306250D02*
X37896875Y-35356250D01*
X43016875Y-37306250D02*
X43016875Y-40756250D01*
X43016875Y-37306250D02*
X43016875Y-35356250D01*
%TO.C,R25*%
X299261380Y-69953171D02*
X299261380Y-70260453D01*
X300021380Y-69953171D02*
X300021380Y-70260453D01*
%TO.C,R6*%
X35917278Y-38740207D02*
X35917278Y-39047489D01*
X35157278Y-38740207D02*
X35157278Y-39047489D01*
%TO.C,R9*%
X27401250Y-26347391D02*
X27401250Y-26040109D01*
X28161250Y-26347391D02*
X28161250Y-26040109D01*
%TO.C,R18*%
X60903590Y-71719743D02*
X60903590Y-72027025D01*
X60143590Y-71719743D02*
X60143590Y-72027025D01*
%TO.C,R16*%
X73178825Y-67088920D02*
X72871543Y-67088920D01*
X73178825Y-67848920D02*
X72871543Y-67848920D01*
%TO.C,R21*%
X281739213Y-63120160D02*
X282046495Y-63120160D01*
X281739213Y-63880160D02*
X282046495Y-63880160D01*
%TO.C,C3*%
X39180625Y-23440336D02*
X39180625Y-23224664D01*
X39900625Y-23440336D02*
X39900625Y-23224664D01*
%TO.C,U2*%
X31921014Y-7739082D02*
X31921014Y-7089082D01*
X31921014Y-7739082D02*
X31921014Y-9414082D01*
X28801014Y-7739082D02*
X28801014Y-7089082D01*
X28801014Y-7739082D02*
X28801014Y-8389082D01*
%TO.C,C1*%
X34274808Y-32977500D02*
X34059136Y-32977500D01*
X34274808Y-33697500D02*
X34059136Y-33697500D01*
%TO.C,R20*%
X114940399Y-63913912D02*
X115247681Y-63913912D01*
X114940399Y-64673912D02*
X115247681Y-64673912D01*
%TO.C,R19*%
X176791382Y-69015907D02*
X176791382Y-69323189D01*
X176031382Y-69015907D02*
X176031382Y-69323189D01*
%TO.C,C12*%
X39449711Y-42428750D02*
X39234039Y-42428750D01*
X39449711Y-41708750D02*
X39234039Y-41708750D01*
%TO.C,C5*%
X30993125Y-32290984D02*
X30993125Y-32506656D01*
X31713125Y-32290984D02*
X31713125Y-32506656D01*
%TO.C,R17*%
X229750687Y-63681722D02*
X230057969Y-63681722D01*
X229750687Y-62921722D02*
X230057969Y-62921722D01*
%TO.C,C8*%
X31064164Y-5363140D02*
X30848492Y-5363140D01*
X31064164Y-4643140D02*
X30848492Y-4643140D01*
%TO.C,R7*%
X-4608871Y-29611320D02*
X-4916153Y-29611320D01*
X-4608871Y-28851320D02*
X-4916153Y-28851320D01*
%TO.C,R3*%
X32776022Y-39047489D02*
X32776022Y-38740207D01*
X33536022Y-39047489D02*
X33536022Y-38740207D01*
%TO.C,C11*%
X275806338Y-67486426D02*
X276022010Y-67486426D01*
X275806338Y-68206426D02*
X276022010Y-68206426D01*
%TO.C,C10*%
X71018322Y-67108920D02*
X71233994Y-67108920D01*
X71018322Y-67828920D02*
X71233994Y-67828920D01*
%TO.C,C13*%
X41679711Y-32580708D02*
X41464039Y-32580708D01*
X41679711Y-33300708D02*
X41464039Y-33300708D01*
%TO.C,C6*%
X41464039Y-30893125D02*
X41679711Y-30893125D01*
X41464039Y-31613125D02*
X41679711Y-31613125D01*
%TO.C,R24*%
X152842057Y-63913912D02*
X153149339Y-63913912D01*
X152842057Y-64673912D02*
X153149339Y-64673912D01*
%TO.C,C4*%
X41510418Y-22729768D02*
X41510418Y-22514096D01*
X42230418Y-22729768D02*
X42230418Y-22514096D01*
%TO.C,R12*%
X28955072Y-68222155D02*
X28955072Y-68529437D01*
X28195072Y-68222155D02*
X28195072Y-68529437D01*
%TO.C,JP1*%
X34667584Y-15274726D02*
X34667584Y-17874726D01*
X32007584Y-15274726D02*
X32007584Y-17874726D01*
X34667584Y-12674726D02*
X33337584Y-12674726D01*
X34667584Y-14004726D02*
X34667584Y-12674726D01*
X34667584Y-17874726D02*
X32007584Y-17874726D01*
X34667584Y-15274726D02*
X32007584Y-15274726D01*
D14*
%TO.C,U3*%
X71421218Y-73710804D02*
X71421218Y-68370804D01*
X77650858Y-68769584D02*
X77650858Y-68370804D01*
X71421218Y-68370804D02*
X75820498Y-68370804D01*
X77650858Y-68370804D02*
X75820498Y-68370804D01*
X75820498Y-73710804D02*
X71421218Y-73710804D01*
D15*
X71420858Y-73524924D02*
X71420858Y-73540164D01*
D14*
X75820498Y-68370804D02*
X75820498Y-73710804D01*
D13*
%TO.C,Y1*%
X41662500Y-27831320D02*
X41262500Y-27831320D01*
X42062500Y-25231320D02*
X41662500Y-25231320D01*
X42062500Y-29031320D02*
X41662500Y-29031320D01*
X42062500Y-28831320D02*
X44062500Y-28831320D01*
X41662500Y-25231320D02*
X41662500Y-26031320D01*
X44062500Y-29031320D02*
X42062500Y-29031320D01*
X41662500Y-27831320D02*
X41662500Y-28831320D01*
X44062500Y-25231320D02*
X42062500Y-25231320D01*
X44062500Y-26031320D02*
X44062500Y-25231320D01*
X42062500Y-28831320D02*
X41662500Y-28831320D01*
X44062500Y-28831320D02*
X44062500Y-27831320D01*
%TD*%
%LPC*%
D18*
%TO.C,H28*%
X275034375Y-57150144D03*
%TD*%
%TO.C,H29*%
X74017374Y-76200000D03*
%TD*%
%TO.C,H22*%
X9525024Y-57150144D03*
%TD*%
%TO.C,H16*%
X67865625Y-38100000D03*
%TD*%
%TO.C,H14*%
X319392000Y-12031000D03*
%TD*%
%TO.C,H17*%
X109537776Y-38100096D03*
%TD*%
%TO.C,H21*%
X300038256Y-38100096D03*
%TD*%
%TO.C,H25*%
X157162896Y-57150144D03*
%TD*%
%TO.C,H30*%
X35718750Y-76200000D03*
%TD*%
%TO.C,H15*%
X28575072Y-38100096D03*
%TD*%
%TO.C,H19*%
X223837500Y-38100000D03*
%TD*%
%TO.C,H12*%
X238125600Y-19050048D03*
%TD*%
%TO.C,H23*%
X42987000Y-64598000D03*
%TD*%
%TO.C,H11*%
X180975456Y-19050048D03*
%TD*%
%TO.C,H18*%
X166687500Y-38100000D03*
%TD*%
%TO.C,H5*%
X209550528Y0D03*
%TD*%
%TO.C,H7*%
X304800768Y0D03*
%TD*%
%TO.C,H3*%
X95250240Y0D03*
%TD*%
%TO.C,H9*%
X85725216Y-19050048D03*
%TD*%
%TO.C,H31*%
X114300000Y-76200000D03*
%TD*%
%TO.C,H34*%
X300038256Y-76200192D03*
%TD*%
%TO.C,H33*%
X247650000Y-76200192D03*
%TD*%
%TO.C,H6*%
X247650624Y0D03*
%TD*%
%TO.C,H27*%
X301228125Y-57150144D03*
%TD*%
%TO.C,H32*%
X195262992Y-76200192D03*
%TD*%
%TO.C,H4*%
X152400384Y0D03*
%TD*%
%TO.C,H8*%
X43061046Y-19050048D03*
%TD*%
%TO.C,H10*%
X123825312Y-19050048D03*
%TD*%
%TO.C,H13*%
X276225696Y-19050048D03*
%TD*%
%TO.C,H20*%
X261937500Y-38100096D03*
%TD*%
%TO.C,H26*%
X214313040Y-57150144D03*
%TD*%
%TO.C,H2*%
X57150144Y0D03*
%TD*%
%TO.C,H1*%
X9525000Y0D03*
%TD*%
%TO.C,H24*%
X100012752Y-57150144D03*
%TD*%
D19*
%TO.C,R2*%
X34346650Y-39403848D03*
X34346650Y-38383848D03*
%TD*%
D20*
%TO.C,R5*%
X40084476Y6463140D03*
X40084476Y5443140D03*
%TD*%
D21*
%TO.C,R29*%
X44166250Y-41955625D03*
X43146250Y-41955625D03*
%TD*%
D22*
%TO.C,U4*%
X281382854Y-68946572D03*
X281382854Y-69596812D03*
X281382854Y-70247052D03*
X281382854Y-70897292D03*
X281382854Y-71542452D03*
X281382854Y-72192692D03*
X281382854Y-72842932D03*
X281382854Y-73493172D03*
X275434174Y-73493172D03*
X275434174Y-72842932D03*
X275434174Y-72192692D03*
X275434174Y-71542452D03*
X275434174Y-70897292D03*
X275434174Y-70247052D03*
X275434174Y-69596812D03*
X275434174Y-68946572D03*
%TD*%
D23*
%TO.C,U1*%
X39834472Y-25731320D03*
X39834472Y-26231320D03*
X39834472Y-26731320D03*
X39834472Y-27231320D03*
X39834472Y-27731320D03*
X39834472Y-28231320D03*
X39834472Y-28731320D03*
X39834472Y-29231320D03*
X39834472Y-29731320D03*
X39834472Y-30231320D03*
X39834472Y-30731320D03*
X39834472Y-31231320D03*
D24*
X39146972Y-31918820D03*
X38646972Y-31918820D03*
X38146972Y-31918820D03*
X37646972Y-31918820D03*
X37146972Y-31918820D03*
X36646972Y-31918820D03*
X36146972Y-31918820D03*
X35646972Y-31918820D03*
X35146972Y-31918820D03*
X34646972Y-31918820D03*
X34146972Y-31918820D03*
X33646972Y-31918820D03*
D23*
X32959472Y-31231320D03*
X32959472Y-30731320D03*
X32959472Y-30231320D03*
X32959472Y-29731320D03*
X32959472Y-29231320D03*
X32959472Y-28731320D03*
X32959472Y-28231320D03*
X32959472Y-27731320D03*
X32959472Y-27231320D03*
X32959472Y-26731320D03*
X32959472Y-26231320D03*
X32959472Y-25731320D03*
D24*
X33646972Y-25043820D03*
X34146972Y-25043820D03*
X34646972Y-25043820D03*
X35146972Y-25043820D03*
X35646972Y-25043820D03*
X36146972Y-25043820D03*
X36646972Y-25043820D03*
X37146972Y-25043820D03*
X37646972Y-25043820D03*
X38146972Y-25043820D03*
X38646972Y-25043820D03*
X39146972Y-25043820D03*
D25*
X36396972Y-28481320D03*
%TD*%
D26*
%TO.C,R23*%
X248245938Y-63103284D03*
X249265938Y-63103284D03*
%TD*%
D20*
%TO.C,R22*%
X90487728Y-71363384D03*
X90487728Y-72383384D03*
%TD*%
D27*
%TO.C,C7*%
X41091875Y-30162500D03*
X42051875Y-30162500D03*
%TD*%
D21*
%TO.C,R1*%
X34641336Y-34528212D03*
X33621336Y-34528212D03*
%TD*%
D20*
%TO.C,R28*%
X41091875Y-41955625D03*
X41091875Y-42975625D03*
%TD*%
D19*
%TO.C,R11*%
X43109375Y-31069375D03*
X43109375Y-30049375D03*
%TD*%
D28*
%TO.C,J1*%
X66043912Y-13714090D03*
X66043912Y-8114090D03*
D29*
X62168912Y-9414090D03*
X62168912Y-10414090D03*
X62168912Y-11414090D03*
X62168912Y-12414090D03*
%TD*%
D20*
%TO.C,R14*%
X9326586Y-67072044D03*
X9326586Y-68092044D03*
%TD*%
D26*
%TO.C,R15*%
X210344280Y-63301722D03*
X211364280Y-63301722D03*
%TD*%
%TO.C,R10*%
X37443125Y-23415625D03*
X38463125Y-23415625D03*
%TD*%
D30*
%TO.C,C2*%
X32959472Y-23812500D03*
X32959472Y-22852500D03*
%TD*%
D31*
%TO.C,F1*%
X32345394Y-385942D03*
X32345394Y-3185942D03*
%TD*%
D26*
%TO.C,R13*%
X191095794Y-63897036D03*
X192115794Y-63897036D03*
%TD*%
%TO.C,R27*%
X267295986Y-63103284D03*
X268315986Y-63103284D03*
%TD*%
D32*
%TO.C,J2*%
X30844460Y4287520D03*
X36624460Y4287520D03*
D33*
X30484460Y2842520D03*
X31284460Y2842520D03*
D34*
X32484460Y2842520D03*
X33484460Y2842520D03*
X33984460Y2842520D03*
X34984460Y2842520D03*
D33*
X36984460Y2842520D03*
X36184460Y2842520D03*
D34*
X35484460Y2842520D03*
X34484460Y2842520D03*
X32984460Y2842520D03*
X31984460Y2842520D03*
D35*
X29414460Y3757520D03*
X38054460Y3757520D03*
X29414460Y7937520D03*
X38054460Y7937520D03*
%TD*%
D19*
%TO.C,R4*%
X26987568Y5244702D03*
X26987568Y6264702D03*
%TD*%
D36*
%TO.C,D1*%
X35334375Y-5183140D03*
D37*
X35334375Y-6903140D03*
X33134375Y-6903140D03*
X33134375Y-5003140D03*
%TD*%
D38*
%TO.C,JP2*%
X44568860Y-43656360D03*
X42743860Y-43656360D03*
%TD*%
D19*
%TO.C,R8*%
X26590692Y-26703816D03*
X26590692Y-25683816D03*
%TD*%
D20*
%TO.C,R26*%
X120650304Y-68461110D03*
X120650304Y-69481110D03*
%TD*%
D30*
%TO.C,C9*%
X27979758Y-8676582D03*
X27979758Y-7716582D03*
%TD*%
D39*
%TO.C,U5*%
X42361875Y-39781250D03*
X41091875Y-39781250D03*
X39821875Y-39781250D03*
X38551875Y-39781250D03*
X38551875Y-34831250D03*
X39821875Y-34831250D03*
X41091875Y-34831250D03*
X42361875Y-34831250D03*
%TD*%
D20*
%TO.C,R25*%
X299641380Y-69596812D03*
X299641380Y-70616812D03*
%TD*%
%TO.C,R6*%
X35537278Y-38383848D03*
X35537278Y-39403848D03*
%TD*%
D19*
%TO.C,R9*%
X27781250Y-26703750D03*
X27781250Y-25683750D03*
%TD*%
D40*
%TO.C,R18*%
X60523590Y-71363384D03*
D20*
X60523590Y-72383384D03*
%TD*%
D21*
%TO.C,R16*%
X73535184Y-67468920D03*
X72515184Y-67468920D03*
%TD*%
D26*
%TO.C,R21*%
X281382854Y-63500160D03*
X282402854Y-63500160D03*
%TD*%
D30*
%TO.C,C3*%
X39540625Y-23812500D03*
X39540625Y-22852500D03*
%TD*%
D41*
%TO.C,U2*%
X31311014Y-8676582D03*
X29411014Y-8676582D03*
X30361014Y-6801582D03*
%TD*%
D42*
%TO.C,C1*%
X34646972Y-33337500D03*
X33686972Y-33337500D03*
%TD*%
D26*
%TO.C,R20*%
X114584040Y-64293912D03*
X115604040Y-64293912D03*
%TD*%
D20*
%TO.C,R19*%
X176411382Y-68659548D03*
X176411382Y-69679548D03*
%TD*%
D42*
%TO.C,C12*%
X39821875Y-42068750D03*
X38861875Y-42068750D03*
%TD*%
D43*
%TO.C,C5*%
X31353125Y-31918820D03*
X31353125Y-32878820D03*
%TD*%
D26*
%TO.C,R17*%
X229394328Y-63301722D03*
X230414328Y-63301722D03*
%TD*%
D42*
%TO.C,C8*%
X31436328Y-5003140D03*
X30476328Y-5003140D03*
%TD*%
D21*
%TO.C,R7*%
X-4252512Y-29231320D03*
X-5272512Y-29231320D03*
%TD*%
D19*
%TO.C,R3*%
X33156022Y-39403848D03*
X33156022Y-38383848D03*
%TD*%
D27*
%TO.C,C11*%
X276394174Y-67846426D03*
X275434174Y-67846426D03*
%TD*%
%TO.C,C10*%
X70646158Y-67468920D03*
X71606158Y-67468920D03*
%TD*%
D42*
%TO.C,C13*%
X42051875Y-32940708D03*
X41091875Y-32940708D03*
%TD*%
D27*
%TO.C,C6*%
X41091875Y-31253125D03*
X42051875Y-31253125D03*
%TD*%
D26*
%TO.C,R24*%
X152485698Y-64293912D03*
X153505698Y-64293912D03*
%TD*%
D30*
%TO.C,C4*%
X41870418Y-23101932D03*
X41870418Y-22141932D03*
%TD*%
D40*
%TO.C,R12*%
X28575072Y-67865796D03*
D20*
X28575072Y-68885796D03*
%TD*%
D44*
%TO.C,JP1*%
X33337584Y-14004726D03*
D45*
X33337584Y-16544726D03*
%TD*%
D22*
%TO.C,U3*%
X76594838Y-68767504D03*
X76594838Y-69417744D03*
X76594838Y-70067984D03*
X76594838Y-70718224D03*
X76594838Y-71363384D03*
X76594838Y-72013624D03*
X76594838Y-72663864D03*
X76594838Y-73314104D03*
X70646158Y-73314104D03*
X70646158Y-72663864D03*
X70646158Y-72013624D03*
X70646158Y-71363384D03*
X70646158Y-70718224D03*
X70646158Y-70067984D03*
X70646158Y-69417744D03*
X70646158Y-68767504D03*
%TD*%
D46*
%TO.C,Y1*%
X42862500Y-28231320D03*
X42862500Y-27031320D03*
X42862500Y-25831320D03*
%TD*%
M02*
