M48
; DRILL file {KiCad (6.0.0)} date Tue Aug 23 10:18:20 2022
; FORMAT={-:-/ absolute / inch / decimal}
; #@! TF.CreationDate,2022-08-23T10:18:20-07:00
; #@! TF.GenerationSoftware,Kicad,Pcbnew,(6.0.0)
; #@! TF.FileFunction,NonPlated,1,4,NPTH
FMAT,2
INCH
; #@! TA.AperFunction,NonPlated,NPTH,ComponentDrill
T1C0.0276
; #@! TA.AperFunction,NonPlated,NPTH,ComponentDrill
T2C0.0866
%
G90
G05
T1
X1.2143Y0.1688
X1.4419Y0.1688
T2
X0.375Y0.0
X0.375Y-2.25
X1.125Y-1.5
X1.4062Y-3.0
X1.6924Y-2.5432
X1.6953Y-0.75
X2.25Y0.0
X2.6719Y-1.5
X2.9141Y-3.0
X3.375Y-0.75
X3.75Y0.0
X3.9375Y-2.25
X4.3125Y-1.5
X4.5Y-3.0
X4.875Y-0.75
X6.0Y0.0
X6.1875Y-2.25
X6.5625Y-1.5
X7.125Y-0.75
X7.6875Y-3.0
X8.25Y0.0
X8.4375Y-2.25
X8.8125Y-1.5
X9.375Y-0.75
X9.75Y-3.0
X9.75Y0.0
X10.3125Y-1.5
X10.8281Y-2.25
X10.875Y-0.75
X11.8125Y-1.5
X11.8125Y-3.0
X11.8594Y-2.25
X12.0Y0.0
X12.5745Y-0.4737
T0
M30
