%TF.GenerationSoftware,KiCad,Pcbnew,(6.0.0)*%
%TF.CreationDate,2022-08-23T10:18:13-07:00*%
%TF.ProjectId,Faen65XT,4661656e-3635-4585-942e-6b696361645f,rev?*%
%TF.SameCoordinates,Original*%
%TF.FileFunction,Legend,Top*%
%TF.FilePolarity,Positive*%
%FSLAX46Y46*%
G04 Gerber Fmt 4.6, Leading zero omitted, Abs format (unit mm)*
G04 Created by KiCad (PCBNEW (6.0.0)) date 2022-08-23 10:18:13*
%MOMM*%
%LPD*%
G01*
G04 APERTURE LIST*
%ADD10C,0.900000*%
%ADD11C,2.200000*%
%ADD12C,0.700000*%
%ADD13O,1.050000X2.100000*%
%ADD14R,1.700000X1.700000*%
%ADD15O,1.700000X1.700000*%
G04 APERTURE END LIST*
D10*
%TO.C,SW39*%
X182679500Y-38100000D02*
G75*
G03*
X182679500Y-38100000I-6467000J0D01*
G01*
%TO.C,SW70*%
X318410750Y-28575000D02*
G75*
G03*
X318410750Y-28575000I-6467000J0D01*
G01*
%TO.C,SW3*%
X6467000Y-38100000D02*
G75*
G03*
X6467000Y-38100000I-6467000J0D01*
G01*
%TO.C,SW44*%
X201729500Y-38100000D02*
G75*
G03*
X201729500Y-38100000I-6467000J0D01*
G01*
%TO.C,SW22*%
X96954500Y-57150000D02*
G75*
G03*
X96954500Y-57150000I-6467000J0D01*
G01*
%TO.C,SW57*%
X254117000Y-19050000D02*
G75*
G03*
X254117000Y-19050000I-6467000J0D01*
G01*
%TO.C,SW24*%
X111242000Y0D02*
G75*
G03*
X111242000Y0I-6467000J0D01*
G01*
%TO.C,SW27*%
X116004500Y-57150000D02*
G75*
G03*
X116004500Y-57150000I-6467000J0D01*
G01*
%TO.C,SW49*%
X211254500Y-57150000D02*
G75*
G03*
X211254500Y-57150000I-6467000J0D01*
G01*
%TO.C,SW46*%
X206492000Y0D02*
G75*
G03*
X206492000Y0I-6467000J0D01*
G01*
%TO.C,SW69*%
X301742000Y0D02*
G75*
G03*
X301742000Y0I-6467000J0D01*
G01*
%TO.C,SW31*%
X135054500Y-57150000D02*
G75*
G03*
X135054500Y-57150000I-6467000J0D01*
G01*
%TO.C,SW6*%
X25517000Y0D02*
G75*
G03*
X25517000Y0I-6467000J0D01*
G01*
%TO.C,SW40*%
X173154500Y-57150000D02*
G75*
G03*
X173154500Y-57150000I-6467000J0D01*
G01*
%TO.C,SW11*%
X54092000Y0D02*
G75*
G03*
X54092000Y0I-6467000J0D01*
G01*
%TO.C,SW42*%
X187442000Y0D02*
G75*
G03*
X187442000Y0I-6467000J0D01*
G01*
%TO.C,SW23*%
X106479500Y-76200000D02*
G75*
G03*
X106479500Y-76200000I-6467000J0D01*
G01*
%TO.C,SW41*%
X173154500Y-76200000D02*
G75*
G03*
X173154500Y-76200000I-6467000J0D01*
G01*
%TO.C,SW15*%
X58854500Y-76200000D02*
G75*
G03*
X58854500Y-76200000I-6467000J0D01*
G01*
%TO.C,SW8*%
X25517000Y-38100000D02*
G75*
G03*
X25517000Y-38100000I-6467000J0D01*
G01*
%TO.C,SW19*%
X92192000Y0D02*
G75*
G03*
X92192000Y0I-6467000J0D01*
G01*
%TO.C,SW26*%
X125529500Y-38100000D02*
G75*
G03*
X125529500Y-38100000I-6467000J0D01*
G01*
%TO.C,SW13*%
X61235750Y-38100000D02*
G75*
G03*
X61235750Y-38100000I-6467000J0D01*
G01*
%TO.C,SW43*%
X196967000Y-19050000D02*
G75*
G03*
X196967000Y-19050000I-6467000J0D01*
G01*
%TO.C,SW38*%
X177917000Y-19050000D02*
G75*
G03*
X177917000Y-19050000I-6467000J0D01*
G01*
%TO.C,SW71*%
X320792000Y-57150000D02*
G75*
G03*
X320792000Y-57150000I-6467000J0D01*
G01*
%TO.C,SW48*%
X220779500Y-38100000D02*
G75*
G03*
X220779500Y-38100000I-6467000J0D01*
G01*
%TO.C,SW28*%
X130292000Y0D02*
G75*
G03*
X130292000Y0I-6467000J0D01*
G01*
%TO.C,SW56*%
X244592000Y0D02*
G75*
G03*
X244592000Y0I-6467000J0D01*
G01*
%TO.C,SW55*%
X239829500Y-76200000D02*
G75*
G03*
X239829500Y-76200000I-6467000J0D01*
G01*
%TO.C,SW34*%
X158867000Y-19050000D02*
G75*
G03*
X158867000Y-19050000I-6467000J0D01*
G01*
%TO.C,SW5*%
X6467000Y-76200000D02*
G75*
G03*
X6467000Y-76200000I-6467000J0D01*
G01*
%TO.C,SW37*%
X168392000Y0D02*
G75*
G03*
X168392000Y0I-6467000J0D01*
G01*
%TO.C,SW20*%
X101717000Y-19050000D02*
G75*
G03*
X101717000Y-19050000I-6467000J0D01*
G01*
%TO.C,SW51*%
X225542000Y0D02*
G75*
G03*
X225542000Y0I-6467000J0D01*
G01*
%TO.C,SW58*%
X258879500Y-38100000D02*
G75*
G03*
X258879500Y-38100000I-6467000J0D01*
G01*
%TO.C,SW33*%
X149342000Y0D02*
G75*
G03*
X149342000Y0I-6467000J0D01*
G01*
%TO.C,SW66*%
X292217000Y-19050000D02*
G75*
G03*
X292217000Y-19050000I-6467000J0D01*
G01*
%TO.C,SW65*%
X282692000Y0D02*
G75*
G03*
X282692000Y0I-6467000J0D01*
G01*
%TO.C,SW67*%
X296979500Y-38100000D02*
G75*
G03*
X296979500Y-38100000I-6467000J0D01*
G01*
%TO.C,SW29*%
X139817000Y-19050000D02*
G75*
G03*
X139817000Y-19050000I-6467000J0D01*
G01*
%TO.C,SW30*%
X144579500Y-38100000D02*
G75*
G03*
X144579500Y-38100000I-6467000J0D01*
G01*
%TO.C,SW21*%
X106479500Y-38100000D02*
G75*
G03*
X106479500Y-38100000I-6467000J0D01*
G01*
%TO.C,SW63*%
X268404500Y-57150000D02*
G75*
G03*
X268404500Y-57150000I-6467000J0D01*
G01*
%TO.C,SW7*%
X25517000Y-19050000D02*
G75*
G03*
X25517000Y-19050000I-6467000J0D01*
G01*
%TO.C,SW73*%
X320792000Y0D02*
G75*
G03*
X320792000Y0I-6467000J0D01*
G01*
%TO.C,SW4*%
X6467000Y-57150000D02*
G75*
G03*
X6467000Y-57150000I-6467000J0D01*
G01*
%TO.C,SW25*%
X120767000Y-19050000D02*
G75*
G03*
X120767000Y-19050000I-6467000J0D01*
G01*
%TO.C,SW61*%
X273167000Y-19050000D02*
G75*
G03*
X273167000Y-19050000I-6467000J0D01*
G01*
%TO.C,SW68*%
X294598250Y-57150000D02*
G75*
G03*
X294598250Y-57150000I-6467000J0D01*
G01*
%TO.C,SW1*%
X6467000Y0D02*
G75*
G03*
X6467000Y0I-6467000J0D01*
G01*
%TO.C,SW14*%
X65998250Y-57150000D02*
G75*
G03*
X65998250Y-57150000I-6467000J0D01*
G01*
%TO.C,SW10*%
X25517000Y-76200000D02*
G75*
G03*
X25517000Y-76200000I-6467000J0D01*
G01*
%TO.C,SW9*%
X25517000Y-57150000D02*
G75*
G03*
X25517000Y-57150000I-6467000J0D01*
G01*
%TO.C,SW60*%
X263642000Y0D02*
G75*
G03*
X263642000Y0I-6467000J0D01*
G01*
%TO.C,SW53*%
X239829500Y-38100000D02*
G75*
G03*
X239829500Y-38100000I-6467000J0D01*
G01*
%TO.C,SW50*%
X211254500Y-76200000D02*
G75*
G03*
X211254500Y-76200000I-6467000J0D01*
G01*
%TO.C,SW16*%
X73142000Y0D02*
G75*
G03*
X73142000Y0I-6467000J0D01*
G01*
%TO.C,SW17*%
X82667000Y-19050000D02*
G75*
G03*
X82667000Y-19050000I-6467000J0D01*
G01*
%TO.C,SW32*%
X135054500Y-76200000D02*
G75*
G03*
X135054500Y-76200000I-6467000J0D01*
G01*
%TO.C,SW52*%
X235067000Y-19050000D02*
G75*
G03*
X235067000Y-19050000I-6467000J0D01*
G01*
%TO.C,SW18*%
X87429500Y-38100000D02*
G75*
G03*
X87429500Y-38100000I-6467000J0D01*
G01*
%TO.C,SW47*%
X216017000Y-19050000D02*
G75*
G03*
X216017000Y-19050000I-6467000J0D01*
G01*
%TO.C,SW35*%
X163629500Y-38100000D02*
G75*
G03*
X163629500Y-38100000I-6467000J0D01*
G01*
%TO.C,SW62*%
X277929500Y-38100000D02*
G75*
G03*
X277929500Y-38100000I-6467000J0D01*
G01*
%TO.C,SW45*%
X192204500Y-57150000D02*
G75*
G03*
X192204500Y-57150000I-6467000J0D01*
G01*
%TO.C,SW12*%
X58854500Y-19050000D02*
G75*
G03*
X58854500Y-19050000I-6467000J0D01*
G01*
%TO.C,SW59*%
X249354500Y-57150000D02*
G75*
G03*
X249354500Y-57150000I-6467000J0D01*
G01*
%TO.C,SW2*%
X6467000Y-19050000D02*
G75*
G03*
X6467000Y-19050000I-6467000J0D01*
G01*
%TO.C,SW54*%
X230304500Y-57150000D02*
G75*
G03*
X230304500Y-57150000I-6467000J0D01*
G01*
%TO.C,SW36*%
X154104500Y-57150000D02*
G75*
G03*
X154104500Y-57150000I-6467000J0D01*
G01*
%TO.C,SW64*%
X268404500Y-76200000D02*
G75*
G03*
X268404500Y-76200000I-6467000J0D01*
G01*
%TO.C,SW72*%
X316029500Y-76200000D02*
G75*
G03*
X316029500Y-76200000I-6467000J0D01*
G01*
%TD*%
D11*
%TO.C,H28*%
X275034375Y-57150144D03*
%TD*%
%TO.C,H29*%
X74017374Y-76200000D03*
%TD*%
%TO.C,H22*%
X9525024Y-57150144D03*
%TD*%
%TO.C,H16*%
X67865625Y-38100000D03*
%TD*%
%TO.C,H14*%
X319392000Y-12031000D03*
%TD*%
%TO.C,H17*%
X109537776Y-38100096D03*
%TD*%
%TO.C,H21*%
X300038256Y-38100096D03*
%TD*%
%TO.C,H25*%
X157162896Y-57150144D03*
%TD*%
%TO.C,H30*%
X35718750Y-76200000D03*
%TD*%
%TO.C,H15*%
X28575072Y-38100096D03*
%TD*%
%TO.C,H19*%
X223837500Y-38100000D03*
%TD*%
%TO.C,H12*%
X238125600Y-19050048D03*
%TD*%
%TO.C,H23*%
X42987000Y-64598000D03*
%TD*%
%TO.C,H11*%
X180975456Y-19050048D03*
%TD*%
%TO.C,H18*%
X166687500Y-38100000D03*
%TD*%
%TO.C,H5*%
X209550528Y0D03*
%TD*%
%TO.C,H7*%
X304800768Y0D03*
%TD*%
%TO.C,H3*%
X95250240Y0D03*
%TD*%
%TO.C,H9*%
X85725216Y-19050048D03*
%TD*%
%TO.C,H31*%
X114300000Y-76200000D03*
%TD*%
%TO.C,H34*%
X300038256Y-76200192D03*
%TD*%
%TO.C,H33*%
X247650000Y-76200192D03*
%TD*%
%TO.C,H6*%
X247650624Y0D03*
%TD*%
%TO.C,H27*%
X301228125Y-57150144D03*
%TD*%
%TO.C,H32*%
X195262992Y-76200192D03*
%TD*%
%TO.C,H4*%
X152400384Y0D03*
%TD*%
%TO.C,H8*%
X43061046Y-19050048D03*
%TD*%
%TO.C,H10*%
X123825312Y-19050048D03*
%TD*%
%TO.C,H13*%
X276225696Y-19050048D03*
%TD*%
%TO.C,H20*%
X261937500Y-38100096D03*
%TD*%
%TO.C,H26*%
X214313040Y-57150144D03*
%TD*%
%TO.C,H2*%
X57150144Y0D03*
%TD*%
%TO.C,H1*%
X9525000Y0D03*
%TD*%
%TO.C,H24*%
X100012752Y-57150144D03*
%TD*%
%LPC*%
%TO.C,H28*%
X275034375Y-57150144D03*
%TD*%
%TO.C,H29*%
X74017374Y-76200000D03*
%TD*%
%TO.C,H22*%
X9525024Y-57150144D03*
%TD*%
%TO.C,H16*%
X67865625Y-38100000D03*
%TD*%
%TO.C,H14*%
X319392000Y-12031000D03*
%TD*%
%TO.C,H17*%
X109537776Y-38100096D03*
%TD*%
%TO.C,H21*%
X300038256Y-38100096D03*
%TD*%
%TO.C,H25*%
X157162896Y-57150144D03*
%TD*%
%TO.C,H30*%
X35718750Y-76200000D03*
%TD*%
%TO.C,H15*%
X28575072Y-38100096D03*
%TD*%
%TO.C,H19*%
X223837500Y-38100000D03*
%TD*%
%TO.C,H12*%
X238125600Y-19050048D03*
%TD*%
%TO.C,H23*%
X42987000Y-64598000D03*
%TD*%
%TO.C,H11*%
X180975456Y-19050048D03*
%TD*%
%TO.C,H18*%
X166687500Y-38100000D03*
%TD*%
%TO.C,H5*%
X209550528Y0D03*
%TD*%
%TO.C,H7*%
X304800768Y0D03*
%TD*%
%TO.C,H3*%
X95250240Y0D03*
%TD*%
%TO.C,H9*%
X85725216Y-19050048D03*
%TD*%
%TO.C,H31*%
X114300000Y-76200000D03*
%TD*%
%TO.C,H34*%
X300038256Y-76200192D03*
%TD*%
%TO.C,H33*%
X247650000Y-76200192D03*
%TD*%
%TO.C,H6*%
X247650624Y0D03*
%TD*%
%TO.C,H27*%
X301228125Y-57150144D03*
%TD*%
%TO.C,H32*%
X195262992Y-76200192D03*
%TD*%
%TO.C,H4*%
X152400384Y0D03*
%TD*%
%TO.C,H8*%
X43061046Y-19050048D03*
%TD*%
%TO.C,H10*%
X123825312Y-19050048D03*
%TD*%
%TO.C,H13*%
X276225696Y-19050048D03*
%TD*%
%TO.C,H20*%
X261937500Y-38100096D03*
%TD*%
%TO.C,H26*%
X214313040Y-57150144D03*
%TD*%
%TO.C,H2*%
X57150144Y0D03*
%TD*%
%TO.C,H1*%
X9525000Y0D03*
%TD*%
%TO.C,H24*%
X100012752Y-57150144D03*
%TD*%
D12*
%TO.C,J2*%
X30844460Y4287520D03*
X36624460Y4287520D03*
D13*
X29414460Y3757520D03*
X38054460Y3757520D03*
X29414460Y7937520D03*
X38054460Y7937520D03*
%TD*%
D14*
%TO.C,JP1*%
X33337584Y-14004726D03*
D15*
X33337584Y-16544726D03*
%TD*%
M02*
