G04 %TF.GenerationSoftware,KiCad,Pcbnew,(6.0.0)@% jlc*
G04 %TF.CreationDate,2022-08-23T10:18:13-07:00@% jlc*
G04 %TF.ProjectId,Faen65XT,4661656e-3635-4585-942e-6b696361645f,rev?@% jlc*
G04 %TF.SameCoordinates,Original@% jlc*
G04 %TF.FileFunction,Soldermask,Bot@% jlc*
G04 %TF.FilePolarity,Negative@% jlc*
%FSLAX46Y46*%
G04 Gerber Fmt 4.6, Leading zero omitted, Abs format (unit mm)*
G04 Created by KiCad (PCBNEW (6.0.0)) date 2022-08-23 10:18:13*
%MOMM*%
%LPD*%
G01*
G04 APERTURE LIST*
G04 Aperture macros list*
%AMRoundRect*
0 Rectangle with rounded corners*
0 $1 Rounding radius*
0 $2 $3 $4 $5 $6 $7 $8 $9 X,Y pos of 4 corners*
0 Add a 4 corners polygon primitive as box body*
4,1,4,$2,$3,$4,$5,$6,$7,$8,$9,$2,$3,0*
0 Add four circle primitives for the rounded corners*
1,1,$1+$1,$2,$3*
1,1,$1+$1,$4,$5*
1,1,$1+$1,$6,$7*
1,1,$1+$1,$8,$9*
0 Add four rect primitives between the rounded corners*
20,1,$1+$1,$2,$3,$4,$5,0*
20,1,$1+$1,$4,$5,$6,$7,0*
20,1,$1+$1,$6,$7,$8,$9,0*
20,1,$1+$1,$8,$9,$2,$3,0*%
G04 Aperture macros list end*
%ADD10C,2.200000*%
%ADD11RoundRect,0.135000X0.185000X-0.135000X0.185000X0.135000X-0.185000X0.135000X-0.185000X-0.135000X0*%
%ADD12RoundRect,0.135000X-0.185000X0.135000X-0.185000X-0.135000X0.185000X-0.135000X0.185000X0.135000X0*%
%ADD13RoundRect,0.135000X0.135000X0.185000X-0.135000X0.185000X-0.135000X-0.185000X0.135000X-0.185000X0*%
%ADD14R,1.778000X0.419100*%
%ADD15RoundRect,0.062500X0.375000X0.062500X-0.375000X0.062500X-0.375000X-0.062500X0.375000X-0.062500X0*%
%ADD16RoundRect,0.062500X0.062500X0.375000X-0.062500X0.375000X-0.062500X-0.375000X0.062500X-0.375000X0*%
%ADD17R,5.600000X5.600000*%
%ADD18RoundRect,0.135000X-0.135000X-0.185000X0.135000X-0.185000X0.135000X0.185000X-0.135000X0.185000X0*%
%ADD19RoundRect,0.140000X-0.140000X-0.170000X0.140000X-0.170000X0.140000X0.170000X-0.140000X0.170000X0*%
%ADD20R,1.800000X1.200000*%
%ADD21R,1.550000X0.600000*%
%ADD22RoundRect,0.140000X0.170000X-0.140000X0.170000X0.140000X-0.170000X0.140000X-0.170000X-0.140000X0*%
%ADD23RoundRect,0.250000X-0.625000X0.375000X-0.625000X-0.375000X0.625000X-0.375000X0.625000X0.375000X0*%
%ADD24C,0.700000*%
%ADD25R,0.600000X1.450000*%
%ADD26R,0.300000X1.450000*%
%ADD27O,1.050000X2.100000*%
%ADD28R,0.700000X1.000000*%
%ADD29R,0.700000X0.600000*%
%ADD30RoundRect,0.237500X0.250000X0.237500X-0.250000X0.237500X-0.250000X-0.237500X0.250000X-0.237500X0*%
%ADD31RoundRect,0.150000X0.150000X-0.825000X0.150000X0.825000X-0.150000X0.825000X-0.150000X-0.825000X0*%
%ADD32RoundRect,0.125000X-0.175000X0.125000X-0.175000X-0.125000X0.175000X-0.125000X0.175000X0.125000X0*%
%ADD33RoundRect,0.150000X0.150000X-0.587500X0.150000X0.587500X-0.150000X0.587500X-0.150000X-0.587500X0*%
%ADD34RoundRect,0.140000X0.140000X0.170000X-0.140000X0.170000X-0.140000X-0.170000X0.140000X-0.170000X0*%
%ADD35RoundRect,0.140000X-0.170000X0.140000X-0.170000X-0.140000X0.170000X-0.140000X0.170000X0.140000X0*%
%ADD36R,1.700000X1.700000*%
%ADD37O,1.700000X1.700000*%
%ADD38R,1.900000X0.400000*%
G04 APERTURE END LIST*
D10*
G04 %TO.C,H28@% jlc*
X275034375Y-57150144D03*
G04 %TD@% jlc*
G04 %TO.C,H29@% jlc*
X74017374Y-76200000D03*
G04 %TD@% jlc*
G04 %TO.C,H22@% jlc*
X9525024Y-57150144D03*
G04 %TD@% jlc*
G04 %TO.C,H16@% jlc*
X67865625Y-38100000D03*
G04 %TD@% jlc*
G04 %TO.C,H14@% jlc*
X319392000Y-12031000D03*
G04 %TD@% jlc*
G04 %TO.C,H17@% jlc*
X109537776Y-38100096D03*
G04 %TD@% jlc*
G04 %TO.C,H21@% jlc*
X300038256Y-38100096D03*
G04 %TD@% jlc*
G04 %TO.C,H25@% jlc*
X157162896Y-57150144D03*
G04 %TD@% jlc*
G04 %TO.C,H30@% jlc*
X35718750Y-76200000D03*
G04 %TD@% jlc*
G04 %TO.C,H15@% jlc*
X28575072Y-38100096D03*
G04 %TD@% jlc*
G04 %TO.C,H19@% jlc*
X223837500Y-38100000D03*
G04 %TD@% jlc*
G04 %TO.C,H12@% jlc*
X238125600Y-19050048D03*
G04 %TD@% jlc*
G04 %TO.C,H23@% jlc*
X42987000Y-64598000D03*
G04 %TD@% jlc*
G04 %TO.C,H11@% jlc*
X180975456Y-19050048D03*
G04 %TD@% jlc*
G04 %TO.C,H18@% jlc*
X166687500Y-38100000D03*
G04 %TD@% jlc*
G04 %TO.C,H5@% jlc*
X209550528Y0D03*
G04 %TD@% jlc*
G04 %TO.C,H7@% jlc*
X304800768Y0D03*
G04 %TD@% jlc*
G04 %TO.C,H3@% jlc*
X95250240Y0D03*
G04 %TD@% jlc*
G04 %TO.C,H9@% jlc*
X85725216Y-19050048D03*
G04 %TD@% jlc*
G04 %TO.C,H31@% jlc*
X114300000Y-76200000D03*
G04 %TD@% jlc*
G04 %TO.C,H34@% jlc*
X300038256Y-76200192D03*
G04 %TD@% jlc*
G04 %TO.C,H33@% jlc*
X247650000Y-76200192D03*
G04 %TD@% jlc*
G04 %TO.C,H6@% jlc*
X247650624Y0D03*
G04 %TD@% jlc*
G04 %TO.C,H27@% jlc*
X301228125Y-57150144D03*
G04 %TD@% jlc*
G04 %TO.C,H32@% jlc*
X195262992Y-76200192D03*
G04 %TD@% jlc*
G04 %TO.C,H4@% jlc*
X152400384Y0D03*
G04 %TD@% jlc*
G04 %TO.C,H8@% jlc*
X43061046Y-19050048D03*
G04 %TD@% jlc*
G04 %TO.C,H10@% jlc*
X123825312Y-19050048D03*
G04 %TD@% jlc*
G04 %TO.C,H13@% jlc*
X276225696Y-19050048D03*
G04 %TD@% jlc*
G04 %TO.C,H20@% jlc*
X261937500Y-38100096D03*
G04 %TD@% jlc*
G04 %TO.C,H26@% jlc*
X214313040Y-57150144D03*
G04 %TD@% jlc*
G04 %TO.C,H2@% jlc*
X57150144Y0D03*
G04 %TD@% jlc*
G04 %TO.C,H1@% jlc*
X9525000Y0D03*
G04 %TD@% jlc*
G04 %TO.C,H24@% jlc*
X100012752Y-57150144D03*
G04 %TD@% jlc*
D11*
G04 %TO.C,R2@% jlc*
X34346650Y-39403848D03*
X34346650Y-38383848D03*
G04 %TD@% jlc*
D12*
G04 %TO.C,R5@% jlc*
X40084476Y6463140D03*
X40084476Y5443140D03*
G04 %TD@% jlc*
D13*
G04 %TO.C,R29@% jlc*
X44166250Y-41955625D03*
X43146250Y-41955625D03*
G04 %TD@% jlc*
D14*
G04 %TO.C,U4@% jlc*
X281382854Y-68946572D03*
X281382854Y-69596812D03*
X281382854Y-70247052D03*
X281382854Y-70897292D03*
X281382854Y-71542452D03*
X281382854Y-72192692D03*
X281382854Y-72842932D03*
X281382854Y-73493172D03*
X275434174Y-73493172D03*
X275434174Y-72842932D03*
X275434174Y-72192692D03*
X275434174Y-71542452D03*
X275434174Y-70897292D03*
X275434174Y-70247052D03*
X275434174Y-69596812D03*
X275434174Y-68946572D03*
G04 %TD@% jlc*
D15*
G04 %TO.C,U1@% jlc*
X39834472Y-25731320D03*
X39834472Y-26231320D03*
X39834472Y-26731320D03*
X39834472Y-27231320D03*
X39834472Y-27731320D03*
X39834472Y-28231320D03*
X39834472Y-28731320D03*
X39834472Y-29231320D03*
X39834472Y-29731320D03*
X39834472Y-30231320D03*
X39834472Y-30731320D03*
X39834472Y-31231320D03*
D16*
X39146972Y-31918820D03*
X38646972Y-31918820D03*
X38146972Y-31918820D03*
X37646972Y-31918820D03*
X37146972Y-31918820D03*
X36646972Y-31918820D03*
X36146972Y-31918820D03*
X35646972Y-31918820D03*
X35146972Y-31918820D03*
X34646972Y-31918820D03*
X34146972Y-31918820D03*
X33646972Y-31918820D03*
D15*
X32959472Y-31231320D03*
X32959472Y-30731320D03*
X32959472Y-30231320D03*
X32959472Y-29731320D03*
X32959472Y-29231320D03*
X32959472Y-28731320D03*
X32959472Y-28231320D03*
X32959472Y-27731320D03*
X32959472Y-27231320D03*
X32959472Y-26731320D03*
X32959472Y-26231320D03*
X32959472Y-25731320D03*
D16*
X33646972Y-25043820D03*
X34146972Y-25043820D03*
X34646972Y-25043820D03*
X35146972Y-25043820D03*
X35646972Y-25043820D03*
X36146972Y-25043820D03*
X36646972Y-25043820D03*
X37146972Y-25043820D03*
X37646972Y-25043820D03*
X38146972Y-25043820D03*
X38646972Y-25043820D03*
X39146972Y-25043820D03*
D17*
X36396972Y-28481320D03*
G04 %TD@% jlc*
D18*
G04 %TO.C,R23@% jlc*
X248245938Y-63103284D03*
X249265938Y-63103284D03*
G04 %TD@% jlc*
D12*
G04 %TO.C,R22@% jlc*
X90487728Y-71363384D03*
X90487728Y-72383384D03*
G04 %TD@% jlc*
D19*
G04 %TO.C,C7@% jlc*
X41091875Y-30162500D03*
X42051875Y-30162500D03*
G04 %TD@% jlc*
D13*
G04 %TO.C,R1@% jlc*
X34641336Y-34528212D03*
X33621336Y-34528212D03*
G04 %TD@% jlc*
D12*
G04 %TO.C,R28@% jlc*
X41091875Y-41955625D03*
X41091875Y-42975625D03*
G04 %TD@% jlc*
D11*
G04 %TO.C,R11@% jlc*
X43109375Y-31069375D03*
X43109375Y-30049375D03*
G04 %TD@% jlc*
D20*
G04 %TO.C,J1@% jlc*
X66043912Y-13714090D03*
X66043912Y-8114090D03*
D21*
X62168912Y-9414090D03*
X62168912Y-10414090D03*
X62168912Y-11414090D03*
X62168912Y-12414090D03*
G04 %TD@% jlc*
D12*
G04 %TO.C,R14@% jlc*
X9326586Y-67072044D03*
X9326586Y-68092044D03*
G04 %TD@% jlc*
D18*
G04 %TO.C,R15@% jlc*
X210344280Y-63301722D03*
X211364280Y-63301722D03*
G04 %TD@% jlc*
G04 %TO.C,R10@% jlc*
X37443125Y-23415625D03*
X38463125Y-23415625D03*
G04 %TD@% jlc*
D22*
G04 %TO.C,C2@% jlc*
X32959472Y-23812500D03*
X32959472Y-22852500D03*
G04 %TD@% jlc*
D23*
G04 %TO.C,F1@% jlc*
X32345394Y-385942D03*
X32345394Y-3185942D03*
G04 %TD@% jlc*
D18*
G04 %TO.C,R13@% jlc*
X191095794Y-63897036D03*
X192115794Y-63897036D03*
G04 %TD@% jlc*
G04 %TO.C,R27@% jlc*
X267295986Y-63103284D03*
X268315986Y-63103284D03*
G04 %TD@% jlc*
D24*
G04 %TO.C,J2@% jlc*
X30844460Y4287520D03*
X36624460Y4287520D03*
D25*
X30484460Y2842520D03*
X31284460Y2842520D03*
D26*
X32484460Y2842520D03*
X33484460Y2842520D03*
X33984460Y2842520D03*
X34984460Y2842520D03*
D25*
X36984460Y2842520D03*
X36184460Y2842520D03*
D26*
X35484460Y2842520D03*
X34484460Y2842520D03*
X32984460Y2842520D03*
X31984460Y2842520D03*
D27*
X29414460Y3757520D03*
X38054460Y3757520D03*
X29414460Y7937520D03*
X38054460Y7937520D03*
G04 %TD@% jlc*
D11*
G04 %TO.C,R4@% jlc*
X26987568Y5244702D03*
X26987568Y6264702D03*
G04 %TD@% jlc*
D28*
G04 %TO.C,D1@% jlc*
X35334375Y-5183140D03*
D29*
X35334375Y-6903140D03*
X33134375Y-6903140D03*
X33134375Y-5003140D03*
G04 %TD@% jlc*
D30*
G04 %TO.C,JP2@% jlc*
X44568860Y-43656360D03*
X42743860Y-43656360D03*
G04 %TD@% jlc*
D11*
G04 %TO.C,R8@% jlc*
X26590692Y-26703816D03*
X26590692Y-25683816D03*
G04 %TD@% jlc*
D12*
G04 %TO.C,R26@% jlc*
X120650304Y-68461110D03*
X120650304Y-69481110D03*
G04 %TD@% jlc*
D22*
G04 %TO.C,C9@% jlc*
X27979758Y-8676582D03*
X27979758Y-7716582D03*
G04 %TD@% jlc*
D31*
G04 %TO.C,U5@% jlc*
X42361875Y-39781250D03*
X41091875Y-39781250D03*
X39821875Y-39781250D03*
X38551875Y-39781250D03*
X38551875Y-34831250D03*
X39821875Y-34831250D03*
X41091875Y-34831250D03*
X42361875Y-34831250D03*
G04 %TD@% jlc*
D12*
G04 %TO.C,R25@% jlc*
X299641380Y-69596812D03*
X299641380Y-70616812D03*
G04 %TD@% jlc*
G04 %TO.C,R6@% jlc*
X35537278Y-38383848D03*
X35537278Y-39403848D03*
G04 %TD@% jlc*
D11*
G04 %TO.C,R9@% jlc*
X27781250Y-26703750D03*
X27781250Y-25683750D03*
G04 %TD@% jlc*
D32*
G04 %TO.C,R18@% jlc*
X60523590Y-71363384D03*
D12*
X60523590Y-72383384D03*
G04 %TD@% jlc*
D13*
G04 %TO.C,R16@% jlc*
X73535184Y-67468920D03*
X72515184Y-67468920D03*
G04 %TD@% jlc*
D18*
G04 %TO.C,R21@% jlc*
X281382854Y-63500160D03*
X282402854Y-63500160D03*
G04 %TD@% jlc*
D22*
G04 %TO.C,C3@% jlc*
X39540625Y-23812500D03*
X39540625Y-22852500D03*
G04 %TD@% jlc*
D33*
G04 %TO.C,U2@% jlc*
X31311014Y-8676582D03*
X29411014Y-8676582D03*
X30361014Y-6801582D03*
G04 %TD@% jlc*
D34*
G04 %TO.C,C1@% jlc*
X34646972Y-33337500D03*
X33686972Y-33337500D03*
G04 %TD@% jlc*
D18*
G04 %TO.C,R20@% jlc*
X114584040Y-64293912D03*
X115604040Y-64293912D03*
G04 %TD@% jlc*
D12*
G04 %TO.C,R19@% jlc*
X176411382Y-68659548D03*
X176411382Y-69679548D03*
G04 %TD@% jlc*
D34*
G04 %TO.C,C12@% jlc*
X39821875Y-42068750D03*
X38861875Y-42068750D03*
G04 %TD@% jlc*
D35*
G04 %TO.C,C5@% jlc*
X31353125Y-31918820D03*
X31353125Y-32878820D03*
G04 %TD@% jlc*
D18*
G04 %TO.C,R17@% jlc*
X229394328Y-63301722D03*
X230414328Y-63301722D03*
G04 %TD@% jlc*
D34*
G04 %TO.C,C8@% jlc*
X31436328Y-5003140D03*
X30476328Y-5003140D03*
G04 %TD@% jlc*
D13*
G04 %TO.C,R7@% jlc*
X-4252512Y-29231320D03*
X-5272512Y-29231320D03*
G04 %TD@% jlc*
D11*
G04 %TO.C,R3@% jlc*
X33156022Y-39403848D03*
X33156022Y-38383848D03*
G04 %TD@% jlc*
D19*
G04 %TO.C,C11@% jlc*
X276394174Y-67846426D03*
X275434174Y-67846426D03*
G04 %TD@% jlc*
G04 %TO.C,C10@% jlc*
X70646158Y-67468920D03*
X71606158Y-67468920D03*
G04 %TD@% jlc*
D34*
G04 %TO.C,C13@% jlc*
X42051875Y-32940708D03*
X41091875Y-32940708D03*
G04 %TD@% jlc*
D19*
G04 %TO.C,C6@% jlc*
X41091875Y-31253125D03*
X42051875Y-31253125D03*
G04 %TD@% jlc*
D18*
G04 %TO.C,R24@% jlc*
X152485698Y-64293912D03*
X153505698Y-64293912D03*
G04 %TD@% jlc*
D22*
G04 %TO.C,C4@% jlc*
X41870418Y-23101932D03*
X41870418Y-22141932D03*
G04 %TD@% jlc*
D32*
G04 %TO.C,R12@% jlc*
X28575072Y-67865796D03*
D12*
X28575072Y-68885796D03*
G04 %TD@% jlc*
D36*
G04 %TO.C,JP1@% jlc*
X33337584Y-14004726D03*
D37*
X33337584Y-16544726D03*
G04 %TD@% jlc*
D14*
G04 %TO.C,U3@% jlc*
X76594838Y-68767504D03*
X76594838Y-69417744D03*
X76594838Y-70067984D03*
X76594838Y-70718224D03*
X76594838Y-71363384D03*
X76594838Y-72013624D03*
X76594838Y-72663864D03*
X76594838Y-73314104D03*
X70646158Y-73314104D03*
X70646158Y-72663864D03*
X70646158Y-72013624D03*
X70646158Y-71363384D03*
X70646158Y-70718224D03*
X70646158Y-70067984D03*
X70646158Y-69417744D03*
X70646158Y-68767504D03*
G04 %TD@% jlc*
D38*
G04 %TO.C,Y1@% jlc*
X42862500Y-28231320D03*
X42862500Y-27031320D03*
X42862500Y-25831320D03*
G04 %TD@% jlc*
M02*
