G04 %TF.GenerationSoftware,KiCad,Pcbnew,(6.0.0)@% jlc*
G04 %TF.CreationDate,2022-08-23T10:18:13-07:00@% jlc*
G04 %TF.ProjectId,Faen65XT,4661656e-3635-4585-942e-6b696361645f,rev?@% jlc*
G04 %TF.SameCoordinates,Original@% jlc*
G04 %TF.FileFunction,Legend,Top@% jlc*
G04 %TF.FilePolarity,Positive@% jlc*
%FSLAX46Y46*%
G04 Gerber Fmt 4.6, Leading zero omitted, Abs format (unit mm)*
G04 Created by KiCad (PCBNEW (6.0.0)) date 2022-08-23 10:18:13*
%MOMM*%
%LPD*%
G01*
G04 APERTURE LIST*
%ADD10C,0.900000*%
%ADD11C,2.200000*%
%ADD12C,0.700000*%
%ADD13O,1.050000X2.100000*%
%ADD14R,1.700000X1.700000*%
%ADD15O,1.700000X1.700000*%
G04 APERTURE END LIST*
D10*
G04 %TO.C,SW39@% jlc*
X182679500Y-38100000D02*
G75*
G03*
X182679500Y-38100000I-6467000J0D01*
G01*
G04 %TO.C,SW70@% jlc*
X318410750Y-28575000D02*
G75*
G03*
X318410750Y-28575000I-6467000J0D01*
G01*
G04 %TO.C,SW3@% jlc*
X6467000Y-38100000D02*
G75*
G03*
X6467000Y-38100000I-6467000J0D01*
G01*
G04 %TO.C,SW44@% jlc*
X201729500Y-38100000D02*
G75*
G03*
X201729500Y-38100000I-6467000J0D01*
G01*
G04 %TO.C,SW22@% jlc*
X96954500Y-57150000D02*
G75*
G03*
X96954500Y-57150000I-6467000J0D01*
G01*
G04 %TO.C,SW57@% jlc*
X254117000Y-19050000D02*
G75*
G03*
X254117000Y-19050000I-6467000J0D01*
G01*
G04 %TO.C,SW24@% jlc*
X111242000Y0D02*
G75*
G03*
X111242000Y0I-6467000J0D01*
G01*
G04 %TO.C,SW27@% jlc*
X116004500Y-57150000D02*
G75*
G03*
X116004500Y-57150000I-6467000J0D01*
G01*
G04 %TO.C,SW49@% jlc*
X211254500Y-57150000D02*
G75*
G03*
X211254500Y-57150000I-6467000J0D01*
G01*
G04 %TO.C,SW46@% jlc*
X206492000Y0D02*
G75*
G03*
X206492000Y0I-6467000J0D01*
G01*
G04 %TO.C,SW69@% jlc*
X301742000Y0D02*
G75*
G03*
X301742000Y0I-6467000J0D01*
G01*
G04 %TO.C,SW31@% jlc*
X135054500Y-57150000D02*
G75*
G03*
X135054500Y-57150000I-6467000J0D01*
G01*
G04 %TO.C,SW6@% jlc*
X25517000Y0D02*
G75*
G03*
X25517000Y0I-6467000J0D01*
G01*
G04 %TO.C,SW40@% jlc*
X173154500Y-57150000D02*
G75*
G03*
X173154500Y-57150000I-6467000J0D01*
G01*
G04 %TO.C,SW11@% jlc*
X54092000Y0D02*
G75*
G03*
X54092000Y0I-6467000J0D01*
G01*
G04 %TO.C,SW42@% jlc*
X187442000Y0D02*
G75*
G03*
X187442000Y0I-6467000J0D01*
G01*
G04 %TO.C,SW23@% jlc*
X106479500Y-76200000D02*
G75*
G03*
X106479500Y-76200000I-6467000J0D01*
G01*
G04 %TO.C,SW41@% jlc*
X173154500Y-76200000D02*
G75*
G03*
X173154500Y-76200000I-6467000J0D01*
G01*
G04 %TO.C,SW15@% jlc*
X58854500Y-76200000D02*
G75*
G03*
X58854500Y-76200000I-6467000J0D01*
G01*
G04 %TO.C,SW8@% jlc*
X25517000Y-38100000D02*
G75*
G03*
X25517000Y-38100000I-6467000J0D01*
G01*
G04 %TO.C,SW19@% jlc*
X92192000Y0D02*
G75*
G03*
X92192000Y0I-6467000J0D01*
G01*
G04 %TO.C,SW26@% jlc*
X125529500Y-38100000D02*
G75*
G03*
X125529500Y-38100000I-6467000J0D01*
G01*
G04 %TO.C,SW13@% jlc*
X61235750Y-38100000D02*
G75*
G03*
X61235750Y-38100000I-6467000J0D01*
G01*
G04 %TO.C,SW43@% jlc*
X196967000Y-19050000D02*
G75*
G03*
X196967000Y-19050000I-6467000J0D01*
G01*
G04 %TO.C,SW38@% jlc*
X177917000Y-19050000D02*
G75*
G03*
X177917000Y-19050000I-6467000J0D01*
G01*
G04 %TO.C,SW71@% jlc*
X320792000Y-57150000D02*
G75*
G03*
X320792000Y-57150000I-6467000J0D01*
G01*
G04 %TO.C,SW48@% jlc*
X220779500Y-38100000D02*
G75*
G03*
X220779500Y-38100000I-6467000J0D01*
G01*
G04 %TO.C,SW28@% jlc*
X130292000Y0D02*
G75*
G03*
X130292000Y0I-6467000J0D01*
G01*
G04 %TO.C,SW56@% jlc*
X244592000Y0D02*
G75*
G03*
X244592000Y0I-6467000J0D01*
G01*
G04 %TO.C,SW55@% jlc*
X239829500Y-76200000D02*
G75*
G03*
X239829500Y-76200000I-6467000J0D01*
G01*
G04 %TO.C,SW34@% jlc*
X158867000Y-19050000D02*
G75*
G03*
X158867000Y-19050000I-6467000J0D01*
G01*
G04 %TO.C,SW5@% jlc*
X6467000Y-76200000D02*
G75*
G03*
X6467000Y-76200000I-6467000J0D01*
G01*
G04 %TO.C,SW37@% jlc*
X168392000Y0D02*
G75*
G03*
X168392000Y0I-6467000J0D01*
G01*
G04 %TO.C,SW20@% jlc*
X101717000Y-19050000D02*
G75*
G03*
X101717000Y-19050000I-6467000J0D01*
G01*
G04 %TO.C,SW51@% jlc*
X225542000Y0D02*
G75*
G03*
X225542000Y0I-6467000J0D01*
G01*
G04 %TO.C,SW58@% jlc*
X258879500Y-38100000D02*
G75*
G03*
X258879500Y-38100000I-6467000J0D01*
G01*
G04 %TO.C,SW33@% jlc*
X149342000Y0D02*
G75*
G03*
X149342000Y0I-6467000J0D01*
G01*
G04 %TO.C,SW66@% jlc*
X292217000Y-19050000D02*
G75*
G03*
X292217000Y-19050000I-6467000J0D01*
G01*
G04 %TO.C,SW65@% jlc*
X282692000Y0D02*
G75*
G03*
X282692000Y0I-6467000J0D01*
G01*
G04 %TO.C,SW67@% jlc*
X296979500Y-38100000D02*
G75*
G03*
X296979500Y-38100000I-6467000J0D01*
G01*
G04 %TO.C,SW29@% jlc*
X139817000Y-19050000D02*
G75*
G03*
X139817000Y-19050000I-6467000J0D01*
G01*
G04 %TO.C,SW30@% jlc*
X144579500Y-38100000D02*
G75*
G03*
X144579500Y-38100000I-6467000J0D01*
G01*
G04 %TO.C,SW21@% jlc*
X106479500Y-38100000D02*
G75*
G03*
X106479500Y-38100000I-6467000J0D01*
G01*
G04 %TO.C,SW63@% jlc*
X268404500Y-57150000D02*
G75*
G03*
X268404500Y-57150000I-6467000J0D01*
G01*
G04 %TO.C,SW7@% jlc*
X25517000Y-19050000D02*
G75*
G03*
X25517000Y-19050000I-6467000J0D01*
G01*
G04 %TO.C,SW73@% jlc*
X320792000Y0D02*
G75*
G03*
X320792000Y0I-6467000J0D01*
G01*
G04 %TO.C,SW4@% jlc*
X6467000Y-57150000D02*
G75*
G03*
X6467000Y-57150000I-6467000J0D01*
G01*
G04 %TO.C,SW25@% jlc*
X120767000Y-19050000D02*
G75*
G03*
X120767000Y-19050000I-6467000J0D01*
G01*
G04 %TO.C,SW61@% jlc*
X273167000Y-19050000D02*
G75*
G03*
X273167000Y-19050000I-6467000J0D01*
G01*
G04 %TO.C,SW68@% jlc*
X294598250Y-57150000D02*
G75*
G03*
X294598250Y-57150000I-6467000J0D01*
G01*
G04 %TO.C,SW1@% jlc*
X6467000Y0D02*
G75*
G03*
X6467000Y0I-6467000J0D01*
G01*
G04 %TO.C,SW14@% jlc*
X65998250Y-57150000D02*
G75*
G03*
X65998250Y-57150000I-6467000J0D01*
G01*
G04 %TO.C,SW10@% jlc*
X25517000Y-76200000D02*
G75*
G03*
X25517000Y-76200000I-6467000J0D01*
G01*
G04 %TO.C,SW9@% jlc*
X25517000Y-57150000D02*
G75*
G03*
X25517000Y-57150000I-6467000J0D01*
G01*
G04 %TO.C,SW60@% jlc*
X263642000Y0D02*
G75*
G03*
X263642000Y0I-6467000J0D01*
G01*
G04 %TO.C,SW53@% jlc*
X239829500Y-38100000D02*
G75*
G03*
X239829500Y-38100000I-6467000J0D01*
G01*
G04 %TO.C,SW50@% jlc*
X211254500Y-76200000D02*
G75*
G03*
X211254500Y-76200000I-6467000J0D01*
G01*
G04 %TO.C,SW16@% jlc*
X73142000Y0D02*
G75*
G03*
X73142000Y0I-6467000J0D01*
G01*
G04 %TO.C,SW17@% jlc*
X82667000Y-19050000D02*
G75*
G03*
X82667000Y-19050000I-6467000J0D01*
G01*
G04 %TO.C,SW32@% jlc*
X135054500Y-76200000D02*
G75*
G03*
X135054500Y-76200000I-6467000J0D01*
G01*
G04 %TO.C,SW52@% jlc*
X235067000Y-19050000D02*
G75*
G03*
X235067000Y-19050000I-6467000J0D01*
G01*
G04 %TO.C,SW18@% jlc*
X87429500Y-38100000D02*
G75*
G03*
X87429500Y-38100000I-6467000J0D01*
G01*
G04 %TO.C,SW47@% jlc*
X216017000Y-19050000D02*
G75*
G03*
X216017000Y-19050000I-6467000J0D01*
G01*
G04 %TO.C,SW35@% jlc*
X163629500Y-38100000D02*
G75*
G03*
X163629500Y-38100000I-6467000J0D01*
G01*
G04 %TO.C,SW62@% jlc*
X277929500Y-38100000D02*
G75*
G03*
X277929500Y-38100000I-6467000J0D01*
G01*
G04 %TO.C,SW45@% jlc*
X192204500Y-57150000D02*
G75*
G03*
X192204500Y-57150000I-6467000J0D01*
G01*
G04 %TO.C,SW12@% jlc*
X58854500Y-19050000D02*
G75*
G03*
X58854500Y-19050000I-6467000J0D01*
G01*
G04 %TO.C,SW59@% jlc*
X249354500Y-57150000D02*
G75*
G03*
X249354500Y-57150000I-6467000J0D01*
G01*
G04 %TO.C,SW2@% jlc*
X6467000Y-19050000D02*
G75*
G03*
X6467000Y-19050000I-6467000J0D01*
G01*
G04 %TO.C,SW54@% jlc*
X230304500Y-57150000D02*
G75*
G03*
X230304500Y-57150000I-6467000J0D01*
G01*
G04 %TO.C,SW36@% jlc*
X154104500Y-57150000D02*
G75*
G03*
X154104500Y-57150000I-6467000J0D01*
G01*
G04 %TO.C,SW64@% jlc*
X268404500Y-76200000D02*
G75*
G03*
X268404500Y-76200000I-6467000J0D01*
G01*
G04 %TO.C,SW72@% jlc*
X316029500Y-76200000D02*
G75*
G03*
X316029500Y-76200000I-6467000J0D01*
G01*
G04 %TD@% jlc*
D11*
G04 %TO.C,H28@% jlc*
X275034375Y-57150144D03*
G04 %TD@% jlc*
G04 %TO.C,H29@% jlc*
X74017374Y-76200000D03*
G04 %TD@% jlc*
G04 %TO.C,H22@% jlc*
X9525024Y-57150144D03*
G04 %TD@% jlc*
G04 %TO.C,H16@% jlc*
X67865625Y-38100000D03*
G04 %TD@% jlc*
G04 %TO.C,H14@% jlc*
X319392000Y-12031000D03*
G04 %TD@% jlc*
G04 %TO.C,H17@% jlc*
X109537776Y-38100096D03*
G04 %TD@% jlc*
G04 %TO.C,H21@% jlc*
X300038256Y-38100096D03*
G04 %TD@% jlc*
G04 %TO.C,H25@% jlc*
X157162896Y-57150144D03*
G04 %TD@% jlc*
G04 %TO.C,H30@% jlc*
X35718750Y-76200000D03*
G04 %TD@% jlc*
G04 %TO.C,H15@% jlc*
X28575072Y-38100096D03*
G04 %TD@% jlc*
G04 %TO.C,H19@% jlc*
X223837500Y-38100000D03*
G04 %TD@% jlc*
G04 %TO.C,H12@% jlc*
X238125600Y-19050048D03*
G04 %TD@% jlc*
G04 %TO.C,H23@% jlc*
X42987000Y-64598000D03*
G04 %TD@% jlc*
G04 %TO.C,H11@% jlc*
X180975456Y-19050048D03*
G04 %TD@% jlc*
G04 %TO.C,H18@% jlc*
X166687500Y-38100000D03*
G04 %TD@% jlc*
G04 %TO.C,H5@% jlc*
X209550528Y0D03*
G04 %TD@% jlc*
G04 %TO.C,H7@% jlc*
X304800768Y0D03*
G04 %TD@% jlc*
G04 %TO.C,H3@% jlc*
X95250240Y0D03*
G04 %TD@% jlc*
G04 %TO.C,H9@% jlc*
X85725216Y-19050048D03*
G04 %TD@% jlc*
G04 %TO.C,H31@% jlc*
X114300000Y-76200000D03*
G04 %TD@% jlc*
G04 %TO.C,H34@% jlc*
X300038256Y-76200192D03*
G04 %TD@% jlc*
G04 %TO.C,H33@% jlc*
X247650000Y-76200192D03*
G04 %TD@% jlc*
G04 %TO.C,H6@% jlc*
X247650624Y0D03*
G04 %TD@% jlc*
G04 %TO.C,H27@% jlc*
X301228125Y-57150144D03*
G04 %TD@% jlc*
G04 %TO.C,H32@% jlc*
X195262992Y-76200192D03*
G04 %TD@% jlc*
G04 %TO.C,H4@% jlc*
X152400384Y0D03*
G04 %TD@% jlc*
G04 %TO.C,H8@% jlc*
X43061046Y-19050048D03*
G04 %TD@% jlc*
G04 %TO.C,H10@% jlc*
X123825312Y-19050048D03*
G04 %TD@% jlc*
G04 %TO.C,H13@% jlc*
X276225696Y-19050048D03*
G04 %TD@% jlc*
G04 %TO.C,H20@% jlc*
X261937500Y-38100096D03*
G04 %TD@% jlc*
G04 %TO.C,H26@% jlc*
X214313040Y-57150144D03*
G04 %TD@% jlc*
G04 %TO.C,H2@% jlc*
X57150144Y0D03*
G04 %TD@% jlc*
G04 %TO.C,H1@% jlc*
X9525000Y0D03*
G04 %TD@% jlc*
G04 %TO.C,H24@% jlc*
X100012752Y-57150144D03*
G04 %TD@% jlc*
%LPC*%
G04 %TO.C,H28@% jlc*
X275034375Y-57150144D03*
G04 %TD@% jlc*
G04 %TO.C,H29@% jlc*
X74017374Y-76200000D03*
G04 %TD@% jlc*
G04 %TO.C,H22@% jlc*
X9525024Y-57150144D03*
G04 %TD@% jlc*
G04 %TO.C,H16@% jlc*
X67865625Y-38100000D03*
G04 %TD@% jlc*
G04 %TO.C,H14@% jlc*
X319392000Y-12031000D03*
G04 %TD@% jlc*
G04 %TO.C,H17@% jlc*
X109537776Y-38100096D03*
G04 %TD@% jlc*
G04 %TO.C,H21@% jlc*
X300038256Y-38100096D03*
G04 %TD@% jlc*
G04 %TO.C,H25@% jlc*
X157162896Y-57150144D03*
G04 %TD@% jlc*
G04 %TO.C,H30@% jlc*
X35718750Y-76200000D03*
G04 %TD@% jlc*
G04 %TO.C,H15@% jlc*
X28575072Y-38100096D03*
G04 %TD@% jlc*
G04 %TO.C,H19@% jlc*
X223837500Y-38100000D03*
G04 %TD@% jlc*
G04 %TO.C,H12@% jlc*
X238125600Y-19050048D03*
G04 %TD@% jlc*
G04 %TO.C,H23@% jlc*
X42987000Y-64598000D03*
G04 %TD@% jlc*
G04 %TO.C,H11@% jlc*
X180975456Y-19050048D03*
G04 %TD@% jlc*
G04 %TO.C,H18@% jlc*
X166687500Y-38100000D03*
G04 %TD@% jlc*
G04 %TO.C,H5@% jlc*
X209550528Y0D03*
G04 %TD@% jlc*
G04 %TO.C,H7@% jlc*
X304800768Y0D03*
G04 %TD@% jlc*
G04 %TO.C,H3@% jlc*
X95250240Y0D03*
G04 %TD@% jlc*
G04 %TO.C,H9@% jlc*
X85725216Y-19050048D03*
G04 %TD@% jlc*
G04 %TO.C,H31@% jlc*
X114300000Y-76200000D03*
G04 %TD@% jlc*
G04 %TO.C,H34@% jlc*
X300038256Y-76200192D03*
G04 %TD@% jlc*
G04 %TO.C,H33@% jlc*
X247650000Y-76200192D03*
G04 %TD@% jlc*
G04 %TO.C,H6@% jlc*
X247650624Y0D03*
G04 %TD@% jlc*
G04 %TO.C,H27@% jlc*
X301228125Y-57150144D03*
G04 %TD@% jlc*
G04 %TO.C,H32@% jlc*
X195262992Y-76200192D03*
G04 %TD@% jlc*
G04 %TO.C,H4@% jlc*
X152400384Y0D03*
G04 %TD@% jlc*
G04 %TO.C,H8@% jlc*
X43061046Y-19050048D03*
G04 %TD@% jlc*
G04 %TO.C,H10@% jlc*
X123825312Y-19050048D03*
G04 %TD@% jlc*
G04 %TO.C,H13@% jlc*
X276225696Y-19050048D03*
G04 %TD@% jlc*
G04 %TO.C,H20@% jlc*
X261937500Y-38100096D03*
G04 %TD@% jlc*
G04 %TO.C,H26@% jlc*
X214313040Y-57150144D03*
G04 %TD@% jlc*
G04 %TO.C,H2@% jlc*
X57150144Y0D03*
G04 %TD@% jlc*
G04 %TO.C,H1@% jlc*
X9525000Y0D03*
G04 %TD@% jlc*
G04 %TO.C,H24@% jlc*
X100012752Y-57150144D03*
G04 %TD@% jlc*
D12*
G04 %TO.C,J2@% jlc*
X30844460Y4287520D03*
X36624460Y4287520D03*
D13*
X29414460Y3757520D03*
X38054460Y3757520D03*
X29414460Y7937520D03*
X38054460Y7937520D03*
G04 %TD@% jlc*
D14*
G04 %TO.C,JP1@% jlc*
X33337584Y-14004726D03*
D15*
X33337584Y-16544726D03*
G04 %TD@% jlc*
M02*
